<svg width="1440" height="550" viewBox="0 0 1440 550" fill="none" xmlns="http://www.w3.org/2000/svg">
<path d="M1483.44 494.383C1483.53 486.923 1481.57 479.724 1478.45 472.955C1474.64 464.669 1472.84 456.097 1471.67 447.443C1474.69 447.379 1477.73 447.382 1480.76 447.494C1481.7 447.528 1483.23 447.659 1482.71 446.205C1481.55 442.948 1482.34 439.446 1480.99 436.22C1480.69 432.376 1481.07 428.435 1479.33 424.661C1477.92 425.41 1478.9 426.786 1477.89 427.729C1476.66 426.047 1476.37 424.223 1476.4 422.717C1476.47 418.091 1472.74 413.248 1477.3 408.798C1477.6 408.521 1477.47 407.818 1477.37 407.346C1475.62 399.396 1476.11 391.317 1475.47 383.303C1475.48 382.936 1475.49 382.57 1475.49 382.217C1475.91 381.991 1476.44 383.485 1476.76 382.163C1477.13 380.569 1477.56 378.973 1477.31 377.311C1478.52 378.112 1478.07 379.288 1478.13 380.303C1478.36 383.648 1478.51 386.994 1478.7 390.652C1479.77 389.802 1479.93 389.175 1479.79 388.459C1479.76 387.673 1480.89 386.876 1479.77 386.113C1477.66 379.174 1479.02 372.108 1479.03 365.11C1479.02 360.513 1478.96 355.918 1478.66 351.354C1479.03 351.197 1479.4 351.054 1479.83 350.923C1479.39 350.742 1479 350.52 1478.6 350.311C1478.47 348.511 1478.31 346.724 1478.1 344.925C1477.65 341.192 1475.51 337.644 1476.9 333.695C1477.18 332.916 1477.04 331.902 1476.28 331.159C1476.43 327.766 1474.67 324.861 1473.29 321.839C1472.1 319.22 1471.06 316.584 1470.21 313.89C1470.5 312.69 1470.8 311.504 1471.08 310.305C1472.15 307.774 1472.7 305.158 1472.77 302.458L1472.86 302.212L1472.82 301.942C1473.65 300.989 1473.33 299.924 1473.23 298.882C1473.24 298.123 1473.24 297.35 1473.26 296.59C1473.9 295.478 1473.85 294.408 1473.08 293.366C1472.56 285.878 1468.62 279.236 1466.27 272.207C1466.49 266.358 1466.61 260.511 1466.13 254.663C1466.42 253.084 1466.48 251.523 1466.45 249.951C1466.39 248.759 1466.29 247.554 1466.25 246.361C1466.25 246.267 1466.23 246.172 1466.23 246.077C1466.1 244.358 1465.95 242.625 1465.98 240.902C1467.67 243.701 1466.67 246.8 1467.19 249.732C1467.48 251.299 1466.58 253.053 1468.04 254.446C1469.28 250.284 1469.13 246.083 1468.81 241.859C1468.46 237.338 1468.33 232.811 1468.11 228.287C1468.28 228.269 1468.47 228.279 1468.64 228.289C1468.94 229.056 1468.44 229.988 1469.47 230.793C1470.66 222.252 1470.1 213.897 1469.55 205.542C1469.49 204.567 1469.44 203.578 1469.39 202.603C1469.22 202.62 1469.03 202.638 1468.86 202.641C1468.91 203.617 1468.97 204.592 1469.02 205.567C1468.42 209.553 1468.94 213.637 1467.57 217.558C1467.28 217.971 1467.12 218.381 1467.02 218.79C1466.71 220.126 1467.16 221.5 1467.17 222.855C1467.1 223.114 1467.12 223.399 1467.09 223.684C1467.09 224.05 1467.02 224.404 1466.59 224.671C1466.52 222.3 1465.63 219.918 1466.75 217.562C1466.32 214.222 1466.56 210.84 1465.78 207.507C1465.17 204.808 1464.4 201.99 1464.67 199.3C1465.14 194.611 1464.71 190.037 1463.94 185.429C1463.84 184.794 1463.35 183.679 1464.12 183.568C1466.66 183.175 1465.33 181.887 1465.16 180.901C1463.91 174.5 1461.2 168.306 1461.86 161.648C1462.2 160.027 1462.54 158.419 1462.87 156.799C1463.09 156.211 1463.33 155.609 1463.55 155.021C1464.66 153.208 1463.86 151.394 1463.37 149.52C1463.03 150.381 1462.69 151.243 1462.23 152.364C1461.83 151.193 1461.55 150.372 1461.27 149.564C1461.33 149.455 1461.32 149.346 1461.24 149.253C1461.85 140.222 1462.45 131.205 1463.07 122.175C1463.08 121.768 1463.08 121.361 1463.09 120.94C1463.18 120.776 1463.21 120.599 1463.13 120.424C1463.92 119.472 1463.63 118.407 1463.51 117.365C1463.82 114.782 1464.31 112.195 1463.8 109.589C1463.77 108.192 1463.76 106.796 1463.73 105.386C1463.94 104.473 1463.46 102.382 1464.52 102.929C1466.03 103.724 1465.85 103.47 1465.53 102.46C1464.03 97.6234 1465.37 92.5911 1463.68 87.6504C1462.51 84.2443 1462.16 80.6448 1462 77.0139C1462.01 76.512 1461.98 76.0109 1461.92 75.4968C1461.88 74.345 1461.86 73.1929 1461.82 72.0411C1461.73 72.2464 1461.7 72.4368 1461.64 72.6414C1461.64 72.6279 1461.64 72.6143 1461.64 72.6008C1461.64 72.3975 1461.71 72.2196 1461.82 72.0411C1461.81 70.8344 1461.78 69.6281 1461.77 68.435C1462.23 65.2249 1462.29 62.0234 1461.73 58.8487C1461.76 58.4276 1461.6 57.9836 1461.43 57.526C1461.35 57.1482 1461.29 56.7696 1461.17 56.3924C1461.14 56.0271 1461.1 55.6754 1461.06 55.3236C1461.07 52.0689 1460.28 48.9395 1459.08 45.8733C1457.47 43.6021 1459.45 41.1058 1458.4 38.7007C1456.99 35.4626 1455.72 32.1808 1453.94 29.0997C1448.05 18.8781 1439.73 11.0539 1426.31 8.36893C1424.53 7.41683 1422.66 8.243 1420.82 8.13292C1421.35 8.79972 1422.16 8.67409 1422.9 8.64467C1423.39 8.63441 1423.64 8.73756 1423.74 8.89823C1423.85 9.09923 1423.78 9.37197 1423.61 9.70091C1417.54 10.7926 1411.94 13.3524 1405.13 14.3782C1407.16 12.8978 1409.43 12.7005 1410.61 11.2108C1410.63 11.1291 1410.64 11.0475 1410.65 10.9523C1410.72 10.951 1410.76 10.95 1410.83 10.9486C1411.04 10.6323 1411.51 10.1883 1411.4 10.0144C1411.09 9.49204 1410.41 9.80479 1409.88 9.77537C1409.64 10.1737 1409.4 10.5585 1409.17 10.9566C1402.67 12.071 1396.09 11.4783 1389.55 11.6714C1384.69 11.8017 1379.81 11.4305 1374.95 11.2761C1368.78 10.0103 1362.56 10.7525 1356.36 11.0332C1355.25 11.0567 1354.15 11.0666 1353.04 11.0901C1352.22 10.6194 1351.29 10.7205 1350.38 10.7533C1343.55 11.0475 1336.73 10.8667 1329.93 10.4687C1323.59 10.1015 1317.24 9.85654 1310.9 9.55706C1309.12 9.40499 1307.34 9.25293 1305.56 9.07376C1304.63 8.98516 1304.63 8.95806 1303.78 5.82999C1305.84 6.08453 1307.94 6.33842 1310.03 6.60585C1318.93 8.00356 1327.99 8.19095 1336.97 8.89539C1337.84 9.70403 1338.76 9.39987 1339.76 8.95819C1338.3 9.31458 1337.87 8.02197 1336.85 7.74526C1327.92 7.1076 1318.98 6.47026 1310.05 5.84615C1309.44 5.19455 1308.59 4.91422 1307.69 4.82496C1303.47 4.35851 1299.51 3.11352 1294.92 4.05177C1290.74 4.89976 1286.15 4.21083 1281.73 4.20953C1278.12 3.45911 1274.47 3.99766 1270.83 4.02049C1268.87 3.14013 1266.61 4.27276 1263.69 3.26348C1268.04 3.06278 1271.42 2.92325 1274.8 2.77017C1275.92 3.53284 1277.06 3.38671 1278.73 2.75461C1277.04 2.51923 1275.86 2.35427 1274.69 2.18931C1270.83 2.52886 1266.86 1.84025 1263.12 3.20794C1256.8 3.77593 1250.61 5.16843 1244.2 5.27723C1241.17 5.32816 1238.03 5.3133 1235.09 6.27071C1234.41 6.33948 1233.74 6.39436 1233.07 6.4628C1223.77 6.13126 1214.73 7.78759 1205.71 9.48424C1204.29 9.44656 1202.87 9.4631 1201.61 10.1544C1200.58 10.2304 1199.55 10.2251 1198.54 10.3686C1185.88 12.2918 1173.22 14.242 1160.55 16.1651C1160.1 16.2289 1159.47 16.5407 1159.1 15.9383C1159.55 15.2236 1160.67 15.0371 1160.82 14.0305C1158.38 14.5297 1155.98 15.0147 1153.59 15.5265C1143.75 17.5931 1133.98 20.0921 1123.67 19.1175C1122.11 18.9744 1120.63 19.0736 1120.25 17.4272C1119.86 15.6863 1121.57 15.5415 1122.79 15.2172C1124.17 14.8625 1125.61 14.7507 1127.02 14.5309C1121.73 13.6803 1116.43 13.4538 1111.1 13.5805C1109.95 12.8591 1108.75 13.1421 1107.43 13.3193C1107.87 14.0695 1108.49 14.1918 1109.12 14.2734C1110.31 14.6278 1111.55 14.927 1112.52 16.6286C1106.59 15.6289 1101.27 14.7383 1095.95 13.8341C1095.48 13.8169 1095.03 13.813 1094.56 13.7958C1093.77 13.094 1092.75 13.3191 1091.79 13.3257C1091 12.6374 1089.99 12.8216 1089.03 12.8692C1088.45 12.2982 1087.72 12.3138 1086.94 12.4116C1083.88 13.6428 1080.8 14.6981 1077.3 14.2977C1075.82 14.1258 1074.97 13.6828 1075.2 12.2811C1074.59 11.2229 1074.59 11.2636 1072.75 11.2755C1066 11.3373 1059.28 12.7411 1052.72 9.2054C1049.77 7.61361 1045.2 8.30722 1041.36 7.95483C1040.67 7.94227 1040 7.91582 1039.32 7.90327C1038.46 7.31118 1037.48 7.44045 1036.5 7.56971C1035.04 7.39748 1033.58 7.06227 1032.11 7.10691C1021.66 7.3559 1011.21 7.69977 1000.84 9.04535C997.408 9.00966 993.978 8.98753 990.563 8.8973C989.908 8.88408 988.37 9.16079 988.818 8.21562C990.414 4.83232 987.044 5.44625 985.477 5.07269C979.993 3.75166 974.976 6.06849 969.774 6.97898C966.37 7.47158 962.967 7.96418 959.563 8.44323C953.659 7.89051 947.734 7.81286 941.8 8.07439C941.234 7.84231 940.683 7.60991 939.834 7.24825C944.729 6.52058 949.297 5.84052 953.881 5.16014C958.058 5.11218 962.179 4.65858 966.852 3.71868C962.917 2.66311 959.496 2.36956 955.994 2.62018C954.98 1.81452 953.56 2.482 952.222 1.87305C953.341 1.74081 954.212 1.62741 955.067 1.5279C956.884 1.92328 958.698 2.19667 961.053 1.50935C958.683 1.5054 956.949 0.606523 955.01 1.05449C953.309 0.968543 951.608 0.869043 949.892 0.810537C943.98 0.61056 937.927 -0.345813 932.191 0.44037C925.399 1.37103 918.628 1.84018 911.826 2.32354C910.58 2.40421 909.076 2.02933 907.956 3.6261C919.528 3.10932 930.741 2.60015 941.969 2.10419C939.259 3.68048 936.092 3.54429 933.211 4.4055C921.536 5.20924 909.893 6.71747 897.946 5.70989C898.999 3.92468 901.361 4.28138 902.495 2.64361C896.468 2.92068 890.784 3.16337 885.084 3.41994C885.049 3.25795 885.03 3.09562 885.042 2.93264C885.664 2.83809 886.301 2.75676 886.923 2.66221C870.176 3.93972 853.47 4.86382 836.685 2.84696C837.748 3.74649 838.879 4.15643 839.95 4.649C841.556 5.40143 843.664 6.30592 843.233 8.03724C842.802 9.75501 840.47 8.59761 839.06 9.00723C838.735 9.0955 838.376 9.08955 838.049 9.1236C833.327 8.42376 828.436 8.60892 823.845 8.964C817.791 9.43149 811.727 9.43814 805.64 9.83852C807.754 8.80375 809.952 8.07908 812.134 7.31407C812.738 7.11142 813.623 6.95702 813.373 6.18938C813.156 5.52952 812.285 5.60226 811.613 5.5487C810.738 4.68586 809.78 5.09944 808.366 5.33284C809.437 5.83898 810.38 5.45284 810.831 6.14841C808.342 6.40463 805.801 7.82818 803.46 6.99642C800.036 5.78084 797.007 6.99778 793.785 7.24243C787.933 7.69207 782.172 9.45516 776.196 8.45647C770.251 7.47067 764.363 6.18536 758.262 5.90802C752.52 5.65019 746.893 5.71535 741.628 8.10524C739.641 8.45932 737.752 9.06894 735.912 9.79956C735.591 9.35888 734.942 9.64386 734.443 9.61378C734.232 9.95726 734.021 10.3008 733.81 10.6442C733.625 10.716 733.439 10.7877 733.269 10.8591C726.915 11.8754 720.481 11.3339 714.093 11.5102C711.071 11.5879 708.044 11.4758 705.033 11.3499C700.601 10.3727 696.109 9.54589 691.505 9.26391C691.285 9.18722 691.066 9.16474 690.833 9.21036C690.009 8.54984 689.03 8.71977 688.082 8.83482C683.267 8.21829 678.452 7.53399 673.609 7.04011C671.499 6.81366 669.572 5.5799 667.309 6.22457C664.101 6.37402 660.908 6.50957 657.7 6.65902C657.679 6.38827 657.673 6.11718 657.652 5.84642C659.785 5.7469 661.935 5.66061 664.068 5.56109C664.047 5.30388 664.011 5.04701 663.99 4.78981C660.452 4.1055 657.028 5.83254 653.5 5.59553C649.295 5.77969 645.075 5.97774 640.87 6.1619C638.778 6.01645 636.686 5.85745 634.578 5.71233C633.972 5.06073 633.124 4.78039 632.218 4.69114C627.999 4.22469 624.045 2.9797 619.45 3.91795C615.275 4.76594 610.677 4.07701 606.266 4.07571C602.649 3.32528 598.997 3.86384 595.365 3.88667C593.398 3.00631 591.146 4.13894 588.225 3.12965C592.57 2.92896 595.95 2.78943 599.33 2.63635C600.453 3.39902 601.587 3.25289 603.258 2.62079C601.569 2.38541 600.396 2.22045 599.224 2.05549C595.365 2.39504 591.391 1.70643 587.647 3.07412C581.331 3.64211 575.14 5.03461 568.736 5.14341C565.697 5.19434 562.564 5.17948 559.622 6.13689C558.938 6.20566 558.268 6.26054 557.6 6.32898C548.302 5.99744 539.264 7.65377 530.243 9.35042C528.824 9.31274 527.406 9.32928 526.142 10.0206C525.115 10.0966 524.086 10.0913 523.076 10.2348C510.412 12.1579 497.749 14.1082 485.085 16.0313C484.634 16.0951 484.002 16.4069 483.631 15.8045C484.083 15.0898 485.201 14.9033 485.352 13.8967C482.915 14.3959 480.509 14.8809 478.119 15.3926C468.28 17.4592 458.512 19.9582 448.203 18.9837C446.641 18.8406 445.162 18.9398 444.784 17.2934C444.389 15.5525 446.101 15.4077 447.325 15.0834C448.705 14.7286 450.137 14.6169 451.551 14.397C446.264 13.5465 440.959 13.32 435.63 13.4467C434.477 12.7253 433.283 13.0083 431.961 13.1855C432.398 13.9356 433.024 14.058 433.65 14.1396C434.842 14.494 436.08 14.7932 437.051 16.4947C431.122 15.4951 425.803 14.6045 420.484 13.7003C420.016 13.6831 419.563 13.6792 419.095 13.662C418.301 12.9601 417.277 13.1853 416.326 13.1919C415.532 12.5036 414.523 12.6877 413.557 12.7354C412.984 12.1644 412.252 12.18 411.474 12.2778C408.414 13.509 405.334 14.5642 401.834 14.1639C400.349 13.992 399.498 13.549 399.734 12.1473C399.119 11.0891 399.12 11.1297 397.28 11.1416C390.532 11.2035 383.812 12.6072 377.252 9.07158C374.303 7.47979 369.735 8.1734 365.893 7.82101C365.206 7.80845 364.536 7.782 363.849 7.76945C362.995 7.17736 362.016 7.30662 361.036 7.43589C359.567 7.26366 358.111 6.92845 356.646 6.97308C346.192 7.22208 335.739 7.56595 325.37 8.91153C321.94 8.87584 318.51 8.85371 315.094 8.76348C314.439 8.75026 312.902 9.02697 313.349 8.0818C314.945 4.6985 311.576 5.31243 310.009 4.93887C304.525 3.61784 299.508 5.93467 294.305 6.84516C290.902 7.33776 287.498 7.83036 284.094 8.30941C278.19 7.75669 272.265 7.67903 266.331 7.94057C265.765 7.70849 265.215 7.47609 264.365 7.11442C269.26 6.38676 273.829 5.7067 278.413 5.02632C282.59 4.97836 286.711 4.52476 291.383 3.58486C287.448 2.52929 284.028 2.23574 280.526 2.48635C279.511 1.6807 278.091 2.34818 276.753 1.73923C277.873 1.60699 278.743 1.49359 279.598 1.39408C281.415 1.78946 283.229 2.06285 285.584 1.37553C283.215 1.37158 281.481 0.472702 279.542 0.920667C277.841 0.834722 276.139 0.735223 274.423 0.676717C268.511 0.47674 262.458 -0.479634 256.723 0.30655C249.93 1.23721 243.159 1.70636 236.357 2.18972C235.112 2.27039 233.607 1.89551 232.488 3.49228C244.059 2.9755 255.272 2.46633 266.501 1.97037C263.791 3.54666 260.623 3.41047 257.742 4.27168C246.068 5.07542 234.424 6.58365 222.477 5.57607C223.531 3.79086 225.892 4.14756 227.026 2.50979C221 2.78686 215.315 3.02955 209.615 3.28612C209.58 3.12413 209.561 2.96181 209.573 2.79882C210.195 2.70427 210.832 2.62294 211.454 2.52839C194.708 3.80589 178.001 4.72999 161.216 2.71313C162.28 3.61267 163.411 4.0226 164.481 4.51518C166.087 5.26761 168.195 6.1721 167.764 7.90342C167.333 9.62119 165.001 8.46379 163.592 8.8734C163.266 8.96168 162.907 8.95573 162.581 8.98978C157.858 8.28994 152.967 8.4751 148.376 8.83018C142.322 9.29767 136.259 9.30432 130.172 9.7047C132.286 8.66993 134.484 7.94526 136.666 7.18025C137.269 6.97759 138.154 6.8232 137.904 6.05557C137.688 5.3957 136.816 5.46844 136.145 5.41488C135.269 4.55204 134.311 4.96562 132.898 5.19902C133.969 5.70516 134.911 5.31902 135.363 6.01458C132.874 6.27081 130.332 7.69436 127.992 6.8626C124.567 5.64702 121.538 6.86396 118.316 7.10861C112.465 7.55825 106.703 9.32134 100.727 8.32265C94.7825 7.33685 88.894 6.05154 82.793 5.7742C77.0509 5.51637 71.4248 5.58153 66.1599 7.97142C63.5817 8.41939 61.1691 9.3249 58.8209 10.324C51.0345 13.6352 43.0366 14.3203 34.655 12.3556C28.5452 10.9258 22.4038 9.48313 16.0357 9.10299C15.8158 9.02629 15.5971 9.00381 15.3642 9.04943C14.5396 8.38891 13.5611 8.55884 12.6127 8.67389C7.76573 7.99025 2.94995 7.30595 -1.87768 6.79818C-3.98693 6.57174 -5.91491 5.33797 -8.17715 5.98264C-11.3852 6.13209 -14.578 6.26765 -17.786 6.4171C-17.8074 6.14634 -17.8131 5.87525 -17.8345 5.6045C-15.701 5.50498 -13.5516 5.41868 -11.4181 5.31916C-11.455 5.04873 -11.476 4.79153 -11.4971 4.53433C-15.0346 3.85002 -18.4586 5.57706 -21.9866 5.34005C-28.3254 5.61018 -34.6639 5.89386 -41.0021 6.1911C-37.2451 7.67082 -33.4108 6.91142 -29.6228 6.91239C-24.292 7.62644 -18.9824 6.60521 -13.65 6.65477C-12.1378 6.66336 -10.5014 5.90993 -9.10576 7.03295C-12.2827 7.914 -15.5508 8.1732 -18.8419 8.08032C-22.5855 7.96992 -26.317 7.69654 -30.0488 8.14187C-35.4267 8.14752 -40.789 8.15284 -46.1516 8.1446C-48.5056 8.14032 -49.017 9.01904 -47.9203 10.7451L-47.9151 10.989L-47.8012 11.2172C-47.7375 12.0159 -47.6585 12.8007 -47.5947 13.5994C-47.4813 16.743 -47.3681 19.8731 -47.239 23.0164C-48.3297 26.7144 -47.4083 30.4646 -47.5632 34.1835C-47.8652 41.2549 -48.4156 48.3723 -47.4238 55.4433C-47.5149 62.9035 -45.5538 70.1032 -42.4328 76.8714C-38.6092 85.157 -36.8216 93.73 -35.6559 102.384C-38.6787 102.448 -41.7185 102.445 -44.7451 102.333C-45.6811 102.298 -47.2116 102.168 -46.6975 103.622C-45.5372 106.879 -46.3202 110.38 -44.9735 113.606C-44.6737 117.451 -45.0577 121.392 -43.3096 125.165C-41.907 124.417 -42.8871 123.041 -41.8782 122.097C-40.6422 123.78 -40.3541 125.604 -40.3845 127.11C-40.489 131.736 -36.754 136.58 -41.305 141.029C-41.5953 141.306 -41.4713 142.009 -41.3677 142.481C-39.6245 150.431 -40.1078 158.51 -39.4701 166.524C-39.4779 166.891 -39.4857 167.257 -39.4938 167.61C-39.9099 167.836 -40.4404 166.342 -40.7553 167.664C-41.1268 169.258 -41.5606 170.854 -41.3071 172.516C-42.5244 171.715 -42.0661 170.539 -42.1344 169.524C-42.3613 166.179 -42.5102 162.833 -42.697 159.175C-43.7701 160.025 -43.9283 160.652 -43.7884 161.368C-43.7561 162.154 -44.8928 162.951 -43.7698 163.714C-41.6584 170.653 -43.0205 177.719 -43.0279 184.717C-43.0238 189.314 -42.9575 193.909 -42.658 198.473C-43.0288 198.63 -43.3999 198.773 -43.8336 198.904C-43.3933 199.085 -42.9988 199.307 -42.6047 199.516C-42.4729 201.316 -42.3103 203.103 -42.1007 204.902C-41.6473 208.635 -39.5143 212.183 -40.8959 216.132C-41.1755 216.911 -41.0449 217.925 -40.2808 218.668C-40.4271 222.061 -38.6663 224.966 -37.2927 227.988C-36.0991 230.607 -35.0611 233.243 -34.2089 235.937C-34.4953 237.137 -34.7974 238.323 -35.0838 239.522C-36.1524 242.054 -36.7049 244.669 -36.7723 247.369L-36.8297 247.601L-36.7928 247.871C-37.6143 248.824 -37.2956 249.889 -37.1955 250.931C-37.2106 251.69 -37.2097 252.463 -37.2248 253.223C-37.8715 254.335 -37.8176 255.405 -37.0473 256.447C-36.5298 263.935 -32.5853 270.577 -30.2381 277.606C-30.4569 283.455 -30.5822 289.302 -30.0996 295.15C-30.3934 296.729 -30.4539 298.29 -30.4205 299.862C-30.364 301.054 -30.2605 302.259 -30.2196 303.451C-30.2176 303.546 -30.2 303.641 -30.198 303.736C-30.068 305.455 -29.9221 307.188 -29.9479 308.91C-31.644 306.112 -30.6342 303.013 -31.1641 300.081C-31.4468 298.514 -30.5487 296.759 -32.0124 295.367C-33.2491 299.529 -33.0976 303.729 -32.7741 307.953C-32.4287 312.475 -32.3015 317.002 -32.0808 321.526C-32.2519 321.543 -32.4391 321.534 -32.6108 321.524C-32.9077 320.757 -32.4131 319.825 -33.4434 319.019C-34.6495 327.561 -34.0825 335.916 -33.531 344.271C-33.4792 345.246 -33.427 346.235 -33.3751 347.21C-33.204 347.193 -33.0173 347.175 -32.8459 347.172C-32.8978 346.196 -32.9497 345.221 -33.0016 344.246C-32.4002 340.26 -32.9234 336.176 -31.5569 332.255C-31.2695 331.842 -31.1067 331.432 -31.0063 331.023C-30.6917 329.687 -31.1417 328.314 -31.1549 326.958C-31.0824 326.699 -31.1041 326.414 -31.0789 326.129C-31.0711 325.763 -31.0007 325.409 -30.5699 325.142C-30.504 327.514 -29.6116 329.895 -30.7308 332.251C-30.3014 335.591 -30.5414 338.973 -29.7691 342.306C-29.1507 345.005 -28.3894 347.823 -28.6596 350.514C-29.1213 355.202 -28.6969 359.776 -27.9288 364.384C-27.8218 365.019 -27.3305 366.134 -28.1075 366.246C-30.6401 366.638 -29.319 367.926 -29.1421 368.912C-27.8995 375.313 -25.1804 381.507 -25.8496 388.166C-26.1894 389.786 -26.5294 391.394 -26.8535 393.014C-27.0749 393.602 -27.3115 394.204 -27.5329 394.792C-28.6479 396.605 -27.8456 398.419 -27.3538 400.293C-27.0135 399.432 -26.6733 398.57 -26.2138 397.449C-25.8148 398.62 -25.5324 399.441 -25.2503 400.249C-25.3103 400.359 -25.308 400.467 -25.2281 400.56C-25.8314 409.591 -26.4351 418.608 -27.054 427.639C-27.061 428.045 -27.0679 428.452 -27.0746 428.873C-27.1646 429.038 -27.1921 429.214 -27.1104 429.389C-27.9008 430.341 -27.6132 431.407 -27.4975 432.448C-27.8013 435.031 -28.292 437.618 -27.7846 440.225C-27.755 441.621 -27.7409 443.017 -27.711 444.427C-27.9254 445.34 -27.4446 447.431 -28.5006 446.884C-30.014 446.089 -29.8371 446.343 -29.5195 447.353C-28.0139 452.19 -29.3568 457.222 -27.6619 462.163C-26.4985 465.569 -26.1415 469.168 -25.9865 472.799C-25.9914 473.301 -25.9652 473.802 -25.9075 474.316C-25.8675 475.468 -25.843 476.62 -25.803 477.772C-25.7138 477.567 -25.6867 477.376 -25.6287 477.172C-25.6284 477.185 -25.6281 477.199 -25.6278 477.212C-25.6235 477.416 -25.6977 477.594 -25.803 477.772C-25.793 478.979 -25.7674 480.185 -25.7576 481.378C-26.2195 484.588 -26.2763 487.79 -25.7101 490.964C-25.7479 491.386 -25.5826 491.83 -25.417 492.287C-25.331 492.665 -25.2763 493.043 -25.1591 493.421C-25.1202 493.786 -25.0816 494.138 -25.0429 494.49C-25.0518 497.744 -24.2683 500.874 -23.0653 503.94C-21.4582 506.211 -23.4317 508.707 -22.3675 511.112C-20.9581 514.35 -19.6882 517.632 -17.908 520.713C-12.0169 530.935 -3.69805 538.759 9.71829 541.444C11.5 542.396 13.3687 541.57 15.2105 541.68C14.6819 541.013 13.8739 541.139 13.1263 541.168C12.6433 541.178 12.3917 541.075 12.2947 540.915C12.1814 540.714 12.2535 540.441 12.418 540.112C18.49 539.02 24.0943 536.46 30.9 535.421C28.8737 536.901 26.602 537.099 25.4177 538.588C25.4038 538.67 25.39 538.752 25.3764 538.847C25.3141 538.848 25.2673 538.849 25.205 538.851C24.9935 539.167 24.5197 539.611 24.6325 539.785C24.9397 540.307 25.619 539.994 26.1496 540.024C26.3906 539.626 26.6318 539.241 26.8572 538.843C33.3651 537.728 39.9402 538.307 46.4836 538.128C51.3444 537.997 56.2159 538.369 61.0828 538.523C67.2515 539.789 73.4712 539.047 79.6695 538.766C80.7757 538.743 81.8823 538.733 82.9886 538.709C83.8092 539.18 84.7424 539.079 85.6458 539.046C92.4829 538.752 99.2989 538.932 106.104 539.33C112.441 539.698 118.775 539.943 125.126 540.242C126.906 540.394 128.686 540.546 130.467 540.725C131.404 540.814 131.405 540.841 132.251 543.969C130.188 543.715 128.093 543.461 125.999 543.193C117.099 541.796 108.039 541.608 99.0602 540.904C98.1856 540.095 97.2724 540.399 96.2685 540.841C97.7262 540.485 98.159 541.777 99.1781 542.054C108.108 542.692 117.054 543.329 125.984 543.953C126.59 544.605 127.438 544.885 128.344 544.974C132.563 545.441 136.517 546.686 141.112 545.747C145.287 544.899 149.885 545.588 154.296 545.59C157.913 546.34 161.565 545.802 165.197 545.779C167.164 546.659 169.416 545.527 172.337 546.536C167.992 546.736 164.612 546.876 161.232 547.029C160.109 546.266 158.975 546.412 157.304 547.045C158.993 547.28 160.166 547.445 161.338 547.61C165.197 547.27 169.171 547.959 172.915 546.591C179.231 546.023 185.422 544.631 191.826 544.522C194.865 544.471 197.999 544.486 200.94 543.529C201.624 543.46 202.294 543.405 202.962 543.336C212.26 543.668 221.298 542.012 230.318 540.315C231.738 540.353 233.156 540.336 234.42 539.645C235.447 539.569 236.476 539.574 237.486 539.431C250.15 537.508 262.813 535.557 275.477 533.634C275.928 533.57 276.56 533.259 276.931 533.861C276.479 534.576 275.361 534.762 275.21 535.769C277.647 535.27 280.053 534.785 282.443 534.273C292.282 532.206 302.05 529.707 312.359 530.682C313.921 530.825 315.4 530.726 315.778 532.372C316.173 534.113 314.461 534.258 313.237 534.582C311.857 534.937 310.425 535.049 309.011 535.268C314.298 536.119 319.603 536.345 324.932 536.219C326.085 536.94 327.279 536.657 328.601 536.48C328.164 535.73 327.538 535.607 326.912 535.526C325.72 535.171 324.482 534.872 323.511 533.171C329.44 534.17 334.759 535.061 340.078 535.965C340.546 535.982 340.999 535.986 341.467 536.003C342.261 536.705 343.285 536.48 344.236 536.474C345.03 537.162 346.039 536.978 347.005 536.93C347.578 537.501 348.31 537.485 349.088 537.388C352.148 536.156 355.228 535.101 358.728 535.501C360.213 535.673 361.048 536.117 360.829 537.518C361.443 538.576 361.442 538.536 363.282 538.524C370.03 538.462 376.75 537.058 383.31 540.594C386.259 542.186 390.827 541.492 394.669 541.844C395.356 541.857 396.026 541.883 396.713 541.896C397.567 542.488 398.546 542.359 399.526 542.23C400.995 542.402 402.451 542.737 403.916 542.692C414.37 542.443 424.823 542.099 435.192 540.754C438.622 540.79 442.052 540.812 445.468 540.902C446.123 540.915 447.66 540.638 447.213 541.584C445.617 544.967 448.986 544.353 450.553 544.727C456.037 546.048 461.054 543.731 466.257 542.82C469.66 542.328 473.064 541.835 476.468 541.356C482.372 541.909 488.297 541.986 494.231 541.725C494.797 541.957 495.347 542.189 496.197 542.551C491.302 543.279 486.733 543.959 482.149 544.639C477.972 544.687 473.851 545.141 469.179 546.081C473.114 547.136 476.534 547.43 480.036 547.179C481.051 547.985 482.471 547.317 483.809 547.926C482.689 548.058 481.819 548.172 480.964 548.271C479.147 547.876 477.333 547.603 474.978 548.29C477.348 548.294 479.081 549.193 481.02 548.745C482.721 548.831 484.423 548.93 486.139 548.989C492.051 549.189 498.104 550.145 503.839 549.359C510.632 548.428 517.403 547.959 524.205 547.476C525.45 547.395 526.955 547.77 528.074 546.173C516.503 546.69 505.29 547.199 494.061 547.695C496.771 546.119 499.939 546.255 502.82 545.394C514.494 544.59 526.138 543.082 538.085 544.089C537.031 545.875 534.67 545.518 533.536 547.156C539.563 546.892 545.247 546.636 550.947 546.379C550.982 546.541 551.001 546.704 550.989 546.867C550.367 546.961 549.73 547.042 549.108 547.137C565.854 545.86 582.561 544.935 599.346 546.952C598.282 546.053 597.151 545.643 596.081 545.15C594.475 544.398 592.367 543.493 592.798 541.762C593.229 540.044 595.561 541.202 596.97 540.792C597.296 540.704 597.655 540.71 597.981 540.676C602.704 541.375 607.595 541.19 612.186 540.835C618.24 540.368 624.304 540.361 630.39 539.961C628.276 540.996 626.078 541.72 623.897 542.485C623.293 542.688 622.408 542.842 622.658 543.61C622.874 544.27 623.746 544.197 624.417 544.251C625.293 545.113 626.251 544.7 627.664 544.466C626.593 543.96 625.651 544.346 625.2 543.651C627.688 543.395 630.23 541.971 632.57 542.803C635.995 544.018 639.024 542.801 642.246 542.557C648.097 542.107 653.859 540.344 659.835 541.343C665.78 542.329 671.668 543.614 677.769 543.891C683.511 544.149 689.137 544.084 694.402 541.694C696.39 541.34 698.279 540.73 700.118 540C700.439 540.44 701.088 540.155 701.588 540.185C701.799 539.842 702.009 539.498 702.22 539.155C702.406 539.083 702.592 539.025 702.761 538.94C709.116 537.924 715.55 538.465 721.937 538.289C724.96 538.211 727.986 538.323 730.997 538.449C735.43 539.427 739.921 540.253 744.526 540.535C744.746 540.612 744.964 540.621 745.197 540.589C746.022 541.249 746.985 541.08 747.949 540.964C752.779 541.581 757.579 542.265 762.422 542.759C764.531 542.986 766.459 544.219 768.721 543.575C771.929 543.425 775.122 543.29 778.33 543.14C778.352 543.411 778.357 543.682 778.379 543.953C776.245 544.052 774.096 544.139 771.962 544.238C771.983 544.495 772.02 544.752 772.041 545.009C775.579 545.694 779.002 543.967 782.531 544.204C786.736 544.02 790.956 543.822 795.161 543.637C797.253 543.783 799.345 543.942 801.452 544.087C802.059 544.739 802.906 545.019 803.812 545.108C808.031 545.575 811.986 546.82 816.58 545.881C820.756 545.033 825.353 545.722 829.765 545.724C833.382 546.474 837.033 545.935 840.665 545.913C842.632 546.793 844.884 545.66 847.805 546.67C843.46 546.87 840.08 547.01 836.701 547.163C835.578 546.4 834.443 546.546 832.773 547.178C834.462 547.414 835.634 547.579 836.807 547.744C840.666 547.404 844.64 548.093 848.383 546.725C854.7 546.157 860.89 544.765 867.295 544.656C870.334 544.605 873.467 544.62 876.409 543.662C877.093 543.594 877.762 543.539 878.431 543.47C887.729 543.802 896.766 542.145 905.787 540.449C907.206 540.487 908.625 540.47 909.888 539.779C910.916 539.703 911.944 539.708 912.955 539.564C925.618 537.641 938.282 535.691 950.946 533.768C951.396 533.704 952.029 533.392 952.4 533.995C951.948 534.709 950.829 534.896 950.679 535.903C953.116 535.403 955.522 534.918 957.912 534.407C967.751 532.34 977.519 529.841 987.828 530.816C989.39 530.959 990.868 530.859 991.246 532.506C991.642 534.247 989.93 534.392 988.705 534.716C987.326 535.071 985.894 535.182 984.48 535.402C989.767 536.253 995.072 536.479 1000.4 536.353C1001.55 537.074 1002.75 536.791 1004.07 536.614C1003.63 535.864 1003.01 535.741 1002.38 535.66C1001.19 535.305 999.951 535.006 998.98 533.305C1004.91 534.304 1010.23 535.195 1015.55 536.099C1016.01 536.116 1016.47 536.12 1016.94 536.137C1017.73 536.839 1018.75 536.614 1019.7 536.607C1020.5 537.296 1021.51 537.111 1022.47 537.064C1023.05 537.635 1023.78 537.619 1024.56 537.521C1027.62 536.29 1030.7 535.235 1034.2 535.635C1035.68 535.807 1036.52 536.251 1036.3 537.652C1036.91 538.71 1036.91 538.67 1038.75 538.658C1045.5 538.596 1052.22 537.192 1058.78 540.728C1061.73 542.319 1066.3 541.626 1070.14 541.978C1070.82 541.991 1071.5 542.017 1072.18 542.03C1073.04 542.622 1074.01 542.493 1074.99 542.363C1076.46 542.536 1077.92 542.871 1079.38 542.826C1089.84 542.577 1100.29 542.233 1110.66 540.888C1114.09 540.923 1117.52 540.946 1120.94 541.036C1121.59 541.049 1123.13 540.772 1122.68 541.717C1121.09 545.101 1124.45 544.487 1126.02 544.86C1131.51 546.181 1136.52 543.865 1141.73 542.954C1145.13 542.461 1148.53 541.969 1151.94 541.49C1157.84 542.043 1163.77 542.12 1169.7 541.859C1170.27 542.091 1170.82 542.323 1171.67 542.685C1166.77 543.412 1162.2 544.093 1157.62 544.773C1153.44 544.821 1149.32 545.274 1144.65 546.214C1148.58 547.27 1152 547.563 1155.5 547.313C1156.52 548.119 1157.94 547.451 1159.28 548.06C1158.16 548.192 1157.29 548.306 1156.43 548.405C1154.62 548.01 1152.8 547.736 1150.45 548.424C1152.82 548.428 1154.55 549.327 1156.49 548.879C1158.19 548.965 1159.89 549.064 1161.61 549.122C1167.52 549.322 1173.57 550.279 1179.31 549.493C1186.1 548.562 1192.87 548.093 1199.67 547.61C1200.92 547.529 1202.42 547.904 1203.54 546.307C1191.97 546.824 1180.76 547.333 1169.53 547.829C1172.24 546.253 1175.41 546.389 1178.29 545.528C1189.96 544.724 1201.61 543.216 1213.55 544.223C1212.5 546.008 1210.14 545.652 1209 547.289C1215.03 547.026 1220.72 546.77 1226.42 546.513C1226.45 546.675 1226.47 546.837 1226.46 547C1225.84 547.095 1225.2 547.176 1224.58 547.271C1241.32 545.993 1258.03 545.069 1274.81 547.086C1273.75 546.187 1272.62 545.777 1271.55 545.284C1269.94 544.532 1267.84 543.627 1268.27 541.896C1268.7 540.178 1271.03 541.335 1272.44 540.926C1272.76 540.838 1273.12 540.844 1273.45 540.809C1278.17 541.509 1283.06 541.324 1287.65 540.969C1293.71 540.502 1299.77 540.495 1305.86 540.095C1303.74 541.129 1301.55 541.854 1299.37 542.619C1298.76 542.822 1297.88 542.976 1298.13 543.744C1298.34 544.404 1299.21 544.331 1299.89 544.384C1300.76 545.247 1301.72 544.834 1303.13 544.6C1302.06 544.094 1301.12 544.48 1300.67 543.785C1303.16 543.528 1305.7 542.105 1308.04 542.937C1311.46 544.152 1314.49 542.935 1317.71 542.691C1323.57 542.241 1329.33 540.478 1335.3 541.477C1341.25 542.462 1347.14 543.748 1353.24 544.025C1358.98 544.283 1364.61 544.218 1369.87 541.828C1372.45 541.38 1374.86 540.474 1377.21 539.475C1385 536.164 1392.99 535.479 1401.38 537.444C1407.49 538.873 1413.63 540.316 1419.99 540.696C1420.21 540.773 1420.43 540.782 1420.67 540.75C1421.49 541.41 1422.45 541.241 1423.42 541.125C1428.25 541.742 1433.05 542.426 1437.89 542.92C1440 543.147 1441.93 544.38 1444.19 543.736C1447.4 543.586 1450.59 543.451 1453.8 543.301C1453.82 543.572 1453.83 543.843 1453.85 544.114C1451.71 544.213 1449.56 544.3 1447.43 544.399C1447.45 544.656 1447.49 544.913 1447.51 545.17C1451.05 545.855 1454.47 544.128 1458 544.365C1464.34 544.081 1470.68 543.797 1477.02 543.514C1473.26 542.034 1469.44 542.793 1465.64 542.792C1460.3 542.078 1455 543.1 1449.66 543.05C1448.15 543.041 1446.51 543.795 1445.12 542.672C1448.3 541.791 1451.56 541.532 1454.85 541.624C1458.6 541.735 1462.33 542.008 1466.06 541.563C1471.42 541.557 1476.79 541.539 1482.15 541.547C1484.49 541.551 1485.01 540.672 1483.92 538.946L1483.91 538.702L1483.8 538.474C1483.73 537.676 1483.66 536.891 1483.59 536.092C1483.48 532.948 1483.37 529.818 1483.24 526.675C1484.33 522.977 1483.41 519.227 1483.56 515.508C1483.88 508.558 1484.43 501.454 1483.44 494.383ZM661.804 6.84314C663.316 6.85173 664.953 6.09829 666.348 7.22131C664.985 7.60283 663.587 7.84946 662.187 8.01476C661.934 7.81674 661.681 7.63227 661.367 7.55756C659.353 7.41045 657.324 7.27723 655.31 7.13013C657.473 6.97573 659.637 6.82133 661.804 6.84314ZM634.546 6.41815C636.794 7.279 639.056 7.35304 641.33 7.27765C645.345 7.68062 649.372 7.92061 653.399 8.17416C650.731 8.0816 648.065 8.02971 645.39 8.34413C640.028 8.34944 634.666 8.36832 629.303 8.36008C629.241 8.36141 629.194 8.3624 629.132 8.36372C628.92 7.94783 628.701 7.16598 628.294 5.64228C630.358 5.89682 632.452 6.15071 634.546 6.41815ZM774.212 542.984C772.699 542.975 771.063 543.728 769.667 542.605C771.031 542.224 772.429 541.977 773.828 541.812C774.082 542.01 774.335 542.194 774.648 542.269C776.662 542.416 778.692 542.549 780.706 542.697C778.542 542.837 776.378 542.992 774.212 542.984ZM801.454 543.409C799.206 542.548 796.944 542.474 794.67 542.549C790.655 542.146 786.628 541.906 782.601 541.653C785.269 541.745 787.935 541.797 790.61 541.483C795.972 541.478 801.334 541.459 806.697 541.467C806.759 541.466 806.806 541.465 806.868 541.463C807.08 541.879 807.299 542.661 807.69 544.185C805.658 543.93 803.563 543.662 801.454 543.409Z" fill="#2B2B93"/>
</svg>
