<svg xmlns="http://www.w3.org/2000/svg" width="1440" height="550" fill="none" xmlns:v="https://vecta.io/nano"><path d="M1483.44 494.383c.09-7.46-1.87-14.659-4.99-21.428-3.81-8.286-5.61-16.858-6.78-25.512 3.02-.064 6.06-.061 9.09.051.94.034 2.47.165 1.95-1.289-1.16-3.257-.37-6.759-1.72-9.985-.3-3.844.08-7.785-1.66-11.559-1.41.749-.43 2.125-1.44 3.068-1.23-1.682-1.52-3.506-1.49-5.012.07-4.626-3.66-9.469.9-13.919.3-.277.17-.98.07-1.452-1.75-7.95-1.26-16.029-1.9-24.043l.02-1.086c.42-.226.95 1.268 1.27-.054.37-1.594.8-3.19.55-4.852 1.21.801.76 1.977.82 2.992l.57 10.349c1.07-.85 1.23-1.477 1.09-2.193-.03-.786 1.1-1.583-.02-2.346-2.11-6.939-.75-14.005-.74-21.003-.01-4.597-.07-9.192-.37-13.756a11.48 11.48 0 0 1 1.17-.431c-.44-.181-.83-.403-1.23-.612a122.31 122.31 0 0 0-.5-5.386c-.45-3.733-2.59-7.281-1.2-11.23.28-.779.14-1.793-.62-2.536.15-3.393-1.61-6.298-2.99-9.32-1.19-2.619-2.23-5.255-3.08-7.949l.87-3.585c1.07-2.531 1.62-5.147 1.69-7.847l.09-.246-.04-.27c.83-.953.51-2.018.41-3.06l.03-2.292c.64-1.112.59-2.182-.18-3.224-.52-7.488-4.46-14.13-6.81-21.159.22-5.849.34-11.696-.14-17.544.29-1.579.35-3.14.32-4.712l-.2-3.59c0-.094-.02-.189-.02-.284-.13-1.719-.28-3.452-.25-5.175 1.69 2.799.69 5.898 1.21 8.83.29 1.567-.61 3.321.85 4.714 1.24-4.162 1.09-8.363.77-12.587-.35-4.521-.48-9.048-.7-13.572a3.35 3.35 0 0 1 .53.002c.3.767-.2 1.699.83 2.504 1.19-8.541.63-16.896.08-25.251l-.16-2.939c-.17.017-.36.035-.53.038l.16 2.926c-.6 3.986-.08 8.07-1.45 11.991-.29.413-.45.823-.55 1.232-.31 1.336.14 2.71.15 4.065-.07.259-.05.544-.08.829 0 .366-.07.72-.5.987-.07-2.371-.96-4.753.16-7.109-.43-3.34-.19-6.722-.97-10.055-.61-2.699-1.38-5.517-1.11-8.207.47-4.689.04-9.263-.73-13.871-.1-.635-.59-1.75.18-1.861 2.54-.393 1.21-1.681 1.04-2.667-1.25-6.401-3.96-12.595-3.3-19.253l1.01-4.849.68-1.778c1.11-1.813.31-3.627-.18-5.501l-1.14 2.844-.96-2.8c.06-.109.05-.218-.03-.311l1.83-27.078.02-1.235c.09-.164.12-.341.04-.516.79-.952.5-2.017.38-3.059.31-2.583.8-5.17.29-7.776l-.07-4.203c.21-.913-.27-3.004.79-2.457 1.51.795 1.33.541 1.01-.469-1.5-4.837-.16-9.869-1.85-14.81-1.17-3.406-1.52-7.006-1.68-10.636a11.12 11.12 0 0 0-.08-1.517l-.1-3.456c-.09.205-.12.396-.18.6V72.6a1.05 1.05 0 0 1 .18-.56l-.05-3.606c.46-3.21.52-6.412-.04-9.586.03-.421-.13-.865-.3-1.323-.08-.378-.14-.756-.26-1.134-.03-.365-.07-.717-.11-1.069.01-3.255-.78-6.384-1.98-9.45-1.61-2.271.37-4.767-.68-7.173-1.41-3.238-2.68-6.52-4.46-9.601-5.89-10.222-14.21-18.046-27.63-20.731-1.78-.952-3.65-.126-5.49-.236.53.667 1.34.541 2.08.512.49-.01.74.093.84.254.11.201.04.474-.13.803-6.07 1.092-11.67 3.651-18.48 4.677 2.03-1.48 4.3-1.678 5.48-3.167a1.91 1.91 0 0 0 .04-.259l.18-.004c.21-.316.68-.76.57-.934-.31-.522-.99-.21-1.52-.239l-.71 1.181c-6.5 1.114-13.08.522-19.62.715-4.86.13-9.74-.241-14.6-.395-6.17-1.266-12.39-.524-18.59-.243l-3.32.057c-.82-.471-1.75-.37-2.66-.337-6.83.294-13.65.113-20.45-.285l-19.03-.912-5.34-.483c-.93-.089-.93-.116-1.78-3.244l6.25.776c8.9 1.398 17.96 1.585 26.94 2.29.87.809 1.79.504 2.79.063-1.46.356-1.89-.936-2.91-1.213l-26.8-1.899c-.61-.652-1.46-.932-2.36-1.021-4.22-.466-8.18-1.711-12.77-.773-4.18.848-8.77.159-13.19.158-3.61-.75-7.26-.212-10.9-.189-1.96-.88-4.22.252-7.14-.757l11.11-.493c1.12.763 2.26.617 3.93-.016l-4.04-.565c-3.86.34-7.83-.349-11.57 1.019-6.32.568-12.51 1.96-18.92 2.069-3.03.051-6.17.036-9.11.993l-2.02.192c-9.3-.332-18.34 1.325-27.36 3.021-1.42-.038-2.84-.021-4.1.67-1.03.076-2.06.071-3.07.214l-37.99 5.796c-.45.064-1.08.376-1.45-.227.45-.715 1.57-.901 1.72-1.908l-7.23 1.496c-9.84 2.067-19.61 4.566-29.92 3.591-1.56-.143-3.04-.044-3.42-1.69-.39-1.741 1.32-1.886 2.54-2.21 1.38-.355 2.82-.466 4.23-.686-5.29-.851-10.59-1.077-15.92-.95-1.15-.721-2.35-.438-3.67-.261.44.75 1.06.873 1.69.954 1.19.354 2.43.654 3.4 2.355l-16.57-2.794-1.39-.038c-.79-.702-1.81-.477-2.77-.47-.79-.688-1.8-.504-2.76-.457-.58-.571-1.31-.555-2.09-.458-3.06 1.231-6.14 2.287-9.64 1.886-1.48-.172-2.33-.615-2.1-2.017-.61-1.058-.61-1.018-2.45-1.006-6.75.062-13.47 1.466-20.03-2.07-2.95-1.592-7.52-.898-11.36-1.251l-2.04-.052c-.86-.592-1.84-.463-2.82-.334-1.46-.172-2.92-.507-4.39-.463-10.45.249-20.9.593-31.27 1.938l-10.277-.148c-.655-.013-2.193.263-1.745-.682 1.596-3.383-1.774-2.769-3.341-3.143-5.484-1.321-10.501.996-15.703 1.906l-10.211 1.464c-5.904-.553-11.829-.63-17.763-.369l-1.966-.826 14.047-2.088c4.177-.048 8.298-.502 12.971-1.441-3.935-1.056-7.356-1.349-10.858-1.098-1.014-.806-2.434-.138-3.772-.747l2.845-.345c1.817.395 3.631.669 5.986-.019-2.37-.004-4.104-.903-6.043-.455l-5.118-.244c-5.912-.2-11.965-1.156-17.701-.37-6.792.931-13.563 1.4-20.365 1.883-1.246.081-2.75-.294-3.87 1.303L941.969 2.1c-2.71 1.576-5.877 1.44-8.758 2.301-11.675.804-23.318 2.312-35.265 1.304 1.053-1.785 3.415-1.429 4.549-3.066l-17.411.776a1.71 1.71 0 0 1-.042-.487l1.881-.27c-16.747 1.278-33.453 2.202-50.238.185 1.063.9 2.194 1.309 3.265 1.802 1.606.752 3.714 1.657 3.283 3.388-.431 1.718-2.763.56-4.173.97-.325.088-.684.082-1.011.116-4.722-.7-9.613-.515-14.204-.16-6.054.467-12.118.474-18.205.875 2.114-1.035 4.312-1.759 6.494-2.524.604-.203 1.489-.357 1.239-1.125-.217-.66-1.088-.587-1.76-.641-.875-.863-1.833-.449-3.247-.216 1.071.506 2.014.12 2.465.816-2.489.256-5.03 1.68-7.371.848-3.424-1.216-6.453.001-9.675.246-5.852.45-11.613 2.213-17.589 1.214-5.945-.986-11.833-2.271-17.934-2.548-5.742-.258-11.369-.193-16.634 2.197-1.987.354-3.876.964-5.716 1.694-.321-.441-.97-.156-1.469-.186l-.633 1.03-.541.215c-6.354 1.016-12.788.475-19.176.651-3.022.078-6.049-.034-9.06-.16-4.432-.977-8.924-1.804-13.528-2.086-.22-.077-.439-.099-.672-.054-.824-.661-1.803-.491-2.751-.376L673.609 7.04c-2.11-.226-4.037-1.46-6.3-.816l-9.609.434c-.021-.271-.027-.542-.048-.813l6.416-.285c-.021-.257-.057-.514-.078-.771-3.538-.684-6.962 1.043-10.49.806l-12.63.566-6.292-.45c-.606-.652-1.454-.932-2.36-1.021-4.219-.466-8.173-1.711-12.768-.773-4.175.848-8.773.159-13.184.158-3.617-.75-7.269-.212-10.901-.189-1.967-.88-4.219.252-7.14-.757l11.105-.493c1.123.763 2.257.617 3.928-.016l-4.034-.565c-3.859.34-7.833-.349-11.577 1.019-6.316.568-12.507 1.96-18.911 2.069-3.039.051-6.172.036-9.114.993l-2.022.192c-9.298-.332-18.336 1.325-27.357 3.021-1.419-.038-2.837-.021-4.101.67-1.027.076-2.056.071-3.066.214l-37.991 5.797c-.451.064-1.083.376-1.454-.227.452-.715 1.57-.901 1.721-1.908l-7.233 1.496c-9.839 2.067-19.607 4.566-29.916 3.591-1.562-.143-3.041-.044-3.419-1.69-.395-1.741 1.317-1.886 2.541-2.21 1.38-.355 2.812-.466 4.226-.686-5.287-.851-10.592-1.077-15.921-.95-1.153-.721-2.347-.438-3.669-.261.437.75 1.063.873 1.689.954 1.192.354 2.43.654 3.401 2.355L420.484 13.7l-1.389-.038c-.794-.702-1.818-.477-2.769-.47-.794-.688-1.803-.504-2.769-.457-.573-.571-1.305-.555-2.083-.458-3.06 1.231-6.14 2.286-9.64 1.886-1.485-.172-2.336-.615-2.1-2.017-.615-1.058-.614-1.018-2.454-1.006-6.748.062-13.468 1.466-20.028-2.07-2.949-1.592-7.517-.898-11.359-1.251l-2.044-.052c-.854-.592-1.833-.463-2.813-.334-1.469-.172-2.925-.507-4.39-.463-10.454.249-20.907.593-31.276 1.938l-10.276-.148c-.655-.013-2.192.263-1.745-.682 1.596-3.383-1.773-2.769-3.34-3.143-5.484-1.321-10.501.996-15.704 1.906l-10.211 1.464c-5.904-.553-11.829-.63-17.763-.369l-1.966-.826 14.048-2.088c4.177-.048 8.298-.502 12.97-1.441-3.935-1.056-7.355-1.349-10.857-1.099-1.015-.806-2.435-.138-3.773-.747l2.845-.345c1.817.395 3.631.669 5.986-.019-2.369-.004-4.103-.903-6.042-.455l-5.119-.244c-5.912-.2-11.965-1.156-17.7-.37-6.793.931-13.564 1.4-20.366 1.883-1.245.081-2.75-.294-3.869 1.303l34.013-1.522c-2.71 1.576-5.878 1.44-8.759 2.301-11.674.804-23.318 2.312-35.265 1.304 1.054-1.785 3.415-1.429 4.549-3.066l-17.411.776a1.71 1.71 0 0 1-.042-.487l1.881-.27c-16.746 1.278-33.453 2.202-50.238.185 1.064.9 2.195 1.309 3.265 1.802 1.606.752 3.714 1.657 3.283 3.388-.431 1.718-2.763.56-4.172.97-.326.088-.685.082-1.011.116-4.723-.7-9.614-.515-14.205-.16-6.054.467-12.117.474-18.204.875 2.114-1.035 4.312-1.759 6.494-2.524.603-.203 1.488-.357 1.238-1.125-.216-.66-1.088-.587-1.759-.641-.876-.863-1.834-.449-3.247-.216 1.071.506 2.013.12 2.465.816-2.489.256-5.031 1.68-7.371.848-3.425-1.216-6.454.001-9.676.246-5.851.45-11.613 2.213-17.589 1.214-5.945-.986-11.833-2.271-17.934-2.548-5.742-.258-11.368-.193-16.633 2.197-2.578.448-4.991 1.353-7.339 2.353-7.786 3.311-15.784 3.996-24.166 2.032-6.11-1.43-12.251-2.872-18.619-3.253-.22-.077-.439-.099-.671-.054-.825-.661-1.803-.491-2.751-.376l-14.49-1.876c-2.109-.226-4.037-1.46-6.299-.816l-9.609.434c-.021-.271-.027-.542-.048-.813l6.416-.285c-.037-.27-.058-.528-.079-.785-3.537-.684-6.962 1.043-10.489.806l-19.015.851c3.757 1.48 7.591.72 11.379.721 5.331.714 10.64-.307 15.973-.258 1.512.009 3.149-.745 4.544.378-3.177.881-6.445 1.14-9.736 1.047-3.744-.11-7.475-.384-11.207.062l-16.103.003c-2.354-.004-2.865.874-1.769 2.601l.005.244.114.228.206 2.382.356 9.417c-1.091 3.698-.169 7.448-.324 11.167-.302 7.071-.852 14.189.139 21.26-.091 7.46 1.87 14.66 4.991 21.428 3.824 8.286 5.611 16.859 6.777 25.513-3.023.064-6.063.061-9.089-.051-.936-.035-2.466-.165-1.952 1.289 1.16 3.257.377 6.758 1.724 9.984.3 3.845-.084 7.786 1.664 11.559 1.403-.748.423-2.124 1.431-3.068 1.236 1.683 1.524 3.507 1.494 5.013-.104 4.626 3.631 9.47-.92 13.919-.29.277-.166.98-.063 1.452 1.743 7.95 1.26 16.029 1.898 24.043l-.024 1.086c-.416.226-.947-1.268-1.261.054-.372 1.594-.805 3.19-.552 4.852-1.217-.801-.759-1.977-.827-2.992l-.563-10.349c-1.073.85-1.231 1.477-1.091 2.193.032.786-1.104 1.583.019 2.346 2.111 6.939.749 14.005.742 21.003.004 4.597.07 9.192.37 13.756-.371.157-.742.3-1.176.431.44.181.835.403 1.229.612.132 1.8.294 3.587.504 5.386.453 3.733 2.586 7.281 1.205 11.23-.28.779-.149 1.793.615 2.536-.146 3.393 1.614 6.298 2.988 9.32 1.194 2.619 2.232 5.255 3.084 7.949l-.875 3.585a21.37 21.37 0 0 0-1.689 7.847l-.057.232.037.27c-.822.953-.503 2.018-.403 3.06l-.029 2.292c-.647 1.112-.593 2.182.178 3.224.517 7.488 4.462 14.13 6.809 21.159-.219 5.849-.344 11.696.139 17.544-.294 1.579-.354 3.14-.321 4.712l.201 3.589c.002.095.02.19.022.285.13 1.719.276 3.452.25 5.174-1.696-2.798-.686-5.897-1.216-8.829-.283-1.567.615-3.322-.848-4.714-1.237 4.162-1.085 8.362-.762 12.586.345 4.522.473 9.049.693 13.573-.171.017-.358.008-.53-.002-.297-.767.198-1.699-.833-2.505-1.206 8.542-.639 16.897-.088 25.252l.156 2.939c.171-.017.358-.035.529-.038l-.156-2.926c.601-3.986.078-8.07 1.445-11.991.287-.413.45-.823.551-1.232.315-1.336-.135-2.709-.149-4.065.073-.259.051-.544.076-.829.008-.366.078-.72.509-.987.066 2.372.958 4.753-.161 7.109.429 3.34.189 6.722.962 10.055.618 2.699 1.38 5.517 1.11 8.208-.462 4.688-.037 9.262.731 13.87.107.635.598 1.75-.179 1.862-2.533.392-1.211 1.68-1.035 2.666 1.243 6.401 3.962 12.595 3.293 19.254l-1.004 4.848-.679 1.778c-1.115 1.813-.313 3.627.179 5.501l1.14-2.844.963 2.8c-.06.11-.058.218.022.311l-1.826 27.079-.021 1.234a.55.55 0 0 0-.036.516c-.79.952-.503 2.018-.387 3.059-.304 2.583-.795 5.17-.287 7.777l.074 4.202c-.214.913.266 3.004-.79 2.457-1.513-.795-1.337-.541-1.019.469 1.506 4.837.163 9.869 1.858 14.81 1.163 3.406 1.52 7.005 1.675 10.636a12.44 12.44 0 0 0 .079 1.517l.104 3.456c.089-.205.116-.396.174-.6l.001.04c.004.204-.07.382-.175.56l.045 3.606c-.462 3.21-.519 6.412.047 9.586-.038.422.128.866.293 1.323.086.378.141.756.258 1.134l.116 1.069c-.009 3.254.775 6.384 1.978 9.45 1.607 2.271-.366 4.767.698 7.172 1.409 3.238 2.679 6.52 4.459 9.601 5.891 10.222 14.21 18.046 27.626 20.731 1.782.952 3.65.126 5.492.236-.529-.667-1.337-.541-2.084-.512-.483.01-.735-.093-.832-.253-.113-.201-.041-.474.123-.803 6.072-1.092 11.676-3.652 18.482-4.691-2.026 1.48-4.298 1.678-5.482 3.167l-.041.259-.171.004c-.211.316-.685.76-.572.934.307.522.986.209 1.517.239l.708-1.181c6.508-1.115 13.083-.536 19.626-.715 4.861-.131 9.732.241 14.599.395 6.169 1.266 12.388.524 18.587.243l3.319-.057c.821.471 1.754.37 2.657.337 6.837-.294 13.653-.114 20.458.284l19.022.912 5.341.483c.937.089.938.116 1.784 3.244l-6.252-.776c-8.9-1.397-17.96-1.585-26.939-2.289-.875-.809-1.788-.505-2.792-.063 1.458-.356 1.891.936 2.91 1.213l26.806 1.899c.606.652 1.454.932 2.36 1.021 4.219.467 8.173 1.712 12.768.773 4.175-.848 8.773-.159 13.184-.157 3.617.75 7.269.212 10.901.189 1.967.88 4.219-.252 7.14.757l-11.105.493c-1.123-.763-2.257-.617-3.928.016l4.034.565c3.859-.34 7.833.349 11.577-1.019 6.316-.568 12.507-1.96 18.911-2.069 3.039-.051 6.173-.036 9.114-.993l2.022-.193c9.298.332 18.336-1.324 27.356-3.021 1.42.038 2.838.021 4.102-.67 1.027-.076 2.056-.071 3.066-.214l37.991-5.797c.451-.064 1.083-.375 1.454.227-.452.715-1.57.901-1.721 1.908l7.233-1.496c9.839-2.067 19.607-4.566 29.916-3.591 1.562.143 3.041.044 3.419 1.69.395 1.741-1.317 1.886-2.541 2.21-1.38.355-2.812.467-4.226.686 5.287.851 10.592 1.077 15.921.951 1.153.721 2.347.438 3.669.261-.437-.75-1.063-.873-1.689-.954-1.192-.355-2.43-.654-3.401-2.355l16.567 2.794 1.389.038c.794.702 1.818.477 2.769.471.794.688 1.803.504 2.769.456.573.571 1.305.555 2.083.458 3.06-1.232 6.14-2.287 9.64-1.887 1.485.172 2.32.616 2.101 2.017.614 1.058.613 1.018 2.453 1.006 6.748-.062 13.468-1.466 20.028 2.07 2.949 1.592 7.517.898 11.359 1.25l2.044.052c.854.592 1.833.463 2.813.334 1.469.172 2.925.507 4.39.462 10.454-.249 20.907-.593 31.276-1.938l10.276.148c.655.013 2.192-.264 1.745.682-1.596 3.383 1.773 2.769 3.34 3.143 5.484 1.321 10.501-.996 15.704-1.907l10.211-1.464c5.904.553 11.829.63 17.763.369l1.966.826-14.048 2.088c-4.177.048-8.298.502-12.97 1.442 3.935 1.055 7.355 1.349 10.857 1.098 1.015.806 2.435.138 3.773.747l-2.845.345c-1.817-.395-3.631-.668-5.986.019 2.37.004 4.103.903 6.042.455l5.119.244c5.912.2 11.965 1.156 17.7.37 6.793-.931 13.564-1.4 20.366-1.883 1.245-.081 2.75.294 3.869-1.303l-34.013 1.522c2.71-1.576 5.878-1.44 8.759-2.301 11.674-.804 23.318-2.312 35.265-1.305-1.054 1.786-3.415 1.429-4.549 3.067l17.411-.777c.035.162.054.325.042.488l-1.881.27c16.746-1.277 33.453-2.202 50.238-.185-1.064-.899-2.195-1.309-3.265-1.802-1.606-.752-3.714-1.657-3.283-3.388.431-1.718 2.763-.56 4.172-.97.326-.088.685-.082 1.011-.116 4.723.699 9.614.514 14.205.159 6.054-.467 12.118-.474 18.204-.874-2.114 1.035-4.312 1.759-6.493 2.524-.604.203-1.489.357-1.239 1.125.216.66 1.088.587 1.759.641.876.862 1.834.449 3.247.215-1.071-.506-2.013-.12-2.464-.815 2.488-.256 5.03-1.68 7.37-.848 3.425 1.215 6.454-.002 9.676-.246 5.851-.45 11.613-2.213 17.589-1.214 5.945.986 11.833 2.271 17.934 2.548 5.742.258 11.368.193 16.633-2.197 1.988-.354 3.877-.964 5.716-1.694.321.44.97.155 1.47.185l.632-1.03c.186-.072.372-.13.541-.215 6.355-1.016 12.789-.475 19.176-.651 3.023-.078 6.049.034 9.06.16 4.433.978 8.924 1.804 13.529 2.086.22.077.438.086.671.054.825.66 1.788.491 2.752.375l14.473 1.795c2.109.227 4.037 1.46 6.299.816l9.609-.435c.022.271.027.542.049.813l-6.417.285c.021.257.058.514.079.771 3.538.685 6.961-1.042 10.49-.805l12.63-.567 6.291.45c.607.652 1.454.932 2.36 1.021 4.219.467 8.174 1.712 12.768.773 4.176-.848 8.773-.159 13.185-.157 3.617.75 7.268.211 10.9.189 1.967.88 4.219-.253 7.14.757l-11.104.493c-1.123-.763-2.258-.617-3.928.015l4.034.566c3.859-.34 7.833.349 11.576-1.019 6.317-.568 12.507-1.96 18.912-2.069 3.039-.051 6.172-.036 9.114-.994l2.022-.192c9.298.332 18.335-1.325 27.356-3.021 1.419.038 2.838.021 4.101-.67 1.028-.076 2.056-.071 3.067-.215l37.991-5.796c.45-.064 1.083-.376 1.454.227-.452.714-1.571.901-1.721 1.908l7.233-1.496c9.839-2.067 19.607-4.566 29.916-3.591 1.562.143 3.04.043 3.418 1.69.396 1.741-1.316 1.886-2.541 2.21-1.379.355-2.811.466-4.225.686 5.287.851 10.592 1.077 15.92.951 1.15.721 2.35.438 3.67.261-.44-.75-1.06-.873-1.69-.954-1.19-.355-2.429-.654-3.4-2.355l16.57 2.794 1.39.038c.79.702 1.81.477 2.76.47.8.689 1.81.504 2.77.457.58.571 1.31.555 2.09.457 3.06-1.231 6.14-2.286 9.64-1.886 1.48.172 2.32.616 2.1 2.017.61 1.058.61 1.018 2.45 1.006 6.75-.062 13.47-1.466 20.03 2.07 2.95 1.591 7.52.898 11.36 1.25l2.04.052c.86.592 1.83.463 2.81.333 1.47.173 2.93.508 4.39.463 10.46-.249 20.91-.593 31.28-1.938l10.28.148c.65.013 2.19-.264 1.74.681-1.59 3.384 1.77 2.77 3.34 3.143 5.49 1.321 10.5-.995 15.71-1.906l10.21-1.464c5.9.553 11.83.63 17.76.369l1.97.826-14.05 2.088c-4.18.048-8.3.501-12.97 1.441 3.93 1.056 7.35 1.349 10.85 1.099 1.02.806 2.44.138 3.78.747l-2.85.345c-1.81-.395-3.63-.669-5.98.019 2.37.004 4.1.903 6.04.455l5.12.243c5.91.2 11.96 1.157 17.7.371 6.79-.931 13.56-1.4 20.36-1.883 1.25-.081 2.75.294 3.87-1.303l-34.01 1.522c2.71-1.576 5.88-1.44 8.76-2.301 11.67-.804 23.32-2.312 35.26-1.305-1.05 1.785-3.41 1.429-4.55 3.066l17.42-.776a2 2 0 0 1 .04.487l-1.88.271c16.74-1.278 33.45-2.202 50.23-.185-1.06-.899-2.19-1.309-3.26-1.802-1.61-.752-3.71-1.657-3.28-3.388.43-1.718 2.76-.561 4.17-.97.32-.088.68-.082 1.01-.117 4.72.7 9.61.515 14.2.16 6.06-.467 12.12-.474 18.21-.874-2.12 1.034-4.31 1.759-6.49 2.524-.61.203-1.49.357-1.24 1.125.21.66 1.08.587 1.76.64.87.863 1.83.45 3.24.216-1.07-.506-2.01-.12-2.46-.815 2.49-.257 5.03-1.68 7.37-.848 3.42 1.215 6.45-.002 9.67-.246 5.86-.45 11.62-2.213 17.59-1.214 5.95.985 11.84 2.271 17.94 2.548 5.74.258 11.37.193 16.63-2.197 2.58-.448 4.99-1.354 7.34-2.353 7.79-3.311 15.78-3.996 24.17-2.031 6.11 1.429 12.25 2.872 18.61 3.252.22.077.44.086.68.054.82.66 1.78.491 2.75.375l14.47 1.795c2.11.227 4.04 1.46 6.3.816l9.61-.435.05.813-6.42.285c.02.257.06.514.08.771 3.54.685 6.96-1.042 10.49-.805l19.02-.851c-3.76-1.48-7.58-.721-11.38-.722-5.34-.714-10.64.308-15.98.258-1.51-.009-3.15.745-4.54-.378 3.18-.881 6.44-1.14 9.73-1.048 3.75.111 7.48.384 11.21-.061l16.09-.016c2.34.004 2.86-.875 1.77-2.601l-.01-.244-.11-.228-.21-2.382-.35-9.417c1.09-3.698.17-7.448.32-11.167.32-6.95.87-14.054-.12-21.125zM661.804 6.843c1.512.009 3.149-.745 4.544.378-1.363.382-2.761.628-4.161.793-.253-.198-.506-.382-.82-.457l-6.057-.427c2.163-.154 4.327-.309 6.494-.287zm-27.258-.425c2.248.861 4.51.935 6.784.86 4.015.403 8.042.643 12.069.897-2.668-.093-5.334-.144-8.009.17l-16.087.016-.171.004c-.212-.416-.431-1.198-.838-2.721l6.252.776zm139.666 536.566c-1.513-.009-3.149.744-4.545-.379 1.364-.381 2.762-.628 4.161-.793.254.198.507.382.82.457l6.058.428c-2.164.14-4.328.295-6.494.287zm27.242.425c-2.248-.861-4.51-.935-6.784-.86-4.015-.403-8.042-.643-12.069-.896 2.668.092 5.334.144 8.009-.17l16.087-.016.171-.004c.212.416.431 1.198.822 2.722l-6.236-.776z" fill="#2b2b93"/></svg>