<svg width="1440" height="550" viewBox="0 0 1440 550" fill="none" xmlns="http://www.w3.org/2000/svg">
<path d="M1483.44 494.552C1483.53 487.092 1481.57 479.892 1478.45 473.124C1474.64 464.838 1472.84 456.266 1471.67 447.612C1474.69 447.547 1477.73 447.551 1480.76 447.663C1481.7 447.697 1483.23 447.827 1482.71 446.374C1481.55 443.117 1482.34 439.615 1480.99 436.389C1480.69 432.544 1481.07 428.604 1479.33 424.83C1477.92 425.579 1478.9 426.955 1477.89 427.898C1476.66 426.216 1476.37 424.391 1476.4 422.885C1476.47 418.26 1472.74 413.417 1477.3 408.967C1477.6 408.689 1477.47 407.987 1477.37 407.514C1475.62 399.564 1476.11 391.486 1475.47 383.471C1475.48 383.105 1475.49 382.739 1475.49 382.386C1475.91 382.16 1476.44 383.654 1476.76 382.332C1477.13 380.738 1477.56 379.142 1477.31 377.479C1478.52 378.281 1478.07 379.457 1478.13 380.472C1478.36 383.817 1478.51 387.163 1478.7 390.82C1479.77 389.971 1479.93 389.343 1479.79 388.628C1479.76 387.842 1480.89 387.045 1479.77 386.282C1477.66 379.343 1479.02 372.277 1479.03 365.279C1479.02 360.682 1478.96 356.087 1478.66 351.523C1479.03 351.366 1479.4 351.223 1479.83 351.091C1479.39 350.911 1479 350.689 1478.6 350.48C1478.47 348.679 1478.31 346.893 1478.1 345.094C1477.65 341.361 1475.51 337.812 1476.9 333.864C1477.18 333.085 1477.04 332.071 1476.28 331.328C1476.43 327.935 1474.67 325.029 1473.29 322.007C1472.1 319.388 1471.06 316.753 1470.21 314.059C1470.5 312.859 1470.8 311.673 1471.08 310.474C1472.15 307.942 1472.7 305.327 1472.77 302.627L1472.86 302.381L1472.82 302.111C1473.65 301.158 1473.33 300.093 1473.23 299.051C1473.24 298.291 1473.24 297.518 1473.26 296.759C1473.9 295.647 1473.85 294.576 1473.08 293.535C1472.56 286.047 1468.62 279.405 1466.27 272.376C1466.49 266.527 1466.61 260.68 1466.13 254.832C1466.42 253.253 1466.48 251.692 1466.45 250.12C1466.39 248.927 1466.29 247.723 1466.25 246.53C1466.25 246.435 1466.23 246.341 1466.23 246.246C1466.1 244.527 1465.95 242.794 1465.98 241.071C1467.67 243.869 1466.67 246.969 1467.19 249.9C1467.48 251.467 1466.58 253.222 1468.04 254.615C1469.28 250.453 1469.13 246.252 1468.8 242.028C1468.46 237.506 1468.33 232.98 1468.11 228.455C1468.28 228.438 1468.47 228.448 1468.64 228.458C1468.94 229.224 1468.44 230.157 1469.47 230.962C1470.66 222.421 1470.1 214.066 1469.55 205.711C1469.49 204.736 1469.44 203.747 1469.39 202.772C1469.22 202.789 1469.03 202.807 1468.86 202.81C1468.91 203.786 1468.96 204.761 1469.02 205.736C1468.42 209.722 1468.94 213.806 1467.57 217.727C1467.28 218.14 1467.12 218.55 1467.02 218.959C1466.71 220.295 1467.16 221.668 1467.17 223.024C1467.1 223.283 1467.12 223.568 1467.09 223.853C1467.09 224.219 1467.02 224.573 1466.59 224.84C1466.52 222.468 1465.63 220.087 1466.75 217.731C1466.32 214.391 1466.56 211.009 1465.78 207.676C1465.17 204.977 1464.4 202.159 1464.67 199.468C1465.14 194.78 1464.71 190.206 1463.94 185.598C1463.84 184.963 1463.35 183.848 1464.12 183.736C1466.66 183.344 1465.33 182.056 1465.16 181.07C1463.91 174.669 1461.2 168.475 1461.86 161.816C1462.2 160.195 1462.54 158.588 1462.87 156.968C1463.09 156.38 1463.33 155.778 1463.55 155.19C1464.66 153.377 1463.86 151.563 1463.37 149.688C1463.03 150.55 1462.69 151.412 1462.23 152.533C1461.83 151.362 1461.55 150.541 1461.27 149.733C1461.33 149.623 1461.32 149.515 1461.24 149.422C1461.85 140.391 1462.45 131.374 1463.07 122.343C1463.08 121.936 1463.08 121.53 1463.09 121.109C1463.18 120.944 1463.21 120.768 1463.13 120.593C1463.92 119.641 1463.63 118.575 1463.51 117.534C1463.82 114.951 1464.31 112.364 1463.8 109.757C1463.77 108.361 1463.76 106.965 1463.73 105.555C1463.94 104.642 1463.46 102.55 1464.52 103.098C1466.03 103.893 1465.85 103.639 1465.53 102.628C1464.03 97.7922 1465.37 92.7599 1463.68 87.8192C1462.51 84.4131 1462.16 80.8136 1462 77.1827C1462.01 76.6809 1461.98 76.1797 1461.92 75.6656C1461.88 74.5138 1461.86 73.3617 1461.82 72.2099C1461.73 72.4152 1461.7 72.6056 1461.64 72.8103C1461.64 72.7967 1461.64 72.7832 1461.64 72.7696C1461.64 72.5663 1461.71 72.3884 1461.82 72.2099C1461.81 71.0032 1461.78 69.7969 1461.77 68.6038C1462.23 65.3937 1462.29 62.1923 1461.73 59.0176C1461.76 58.5964 1461.6 58.1524 1461.43 57.6949C1461.35 57.317 1461.29 56.9385 1461.17 56.5613C1461.14 56.196 1461.1 55.8442 1461.06 55.4925C1461.07 52.2378 1460.28 49.1084 1459.08 46.0421C1457.47 43.7709 1459.45 41.2746 1458.4 38.8696C1456.99 35.6314 1455.72 32.3496 1453.94 29.2685C1448.05 19.0469 1439.73 11.2228 1426.31 8.53775C1424.53 7.58566 1422.66 8.41182 1420.82 8.30174C1421.35 8.96855 1422.16 8.84292 1422.9 8.81349C1423.39 8.80324 1423.64 8.90638 1423.74 9.06705C1423.85 9.26805 1423.78 9.54079 1423.61 9.86973C1417.54 10.9614 1411.94 13.5212 1405.13 14.5471C1407.16 13.0667 1409.43 12.8693 1410.61 11.3796C1410.63 11.298 1410.64 11.2163 1410.65 11.1211C1410.72 11.1198 1410.76 11.1188 1410.83 11.1175C1411.04 10.8011 1411.51 10.3571 1411.4 10.1832C1411.09 9.66087 1410.41 9.97361 1409.88 9.94419C1409.64 10.3426 1409.4 10.7274 1409.17 11.1254C1402.67 12.2399 1396.09 11.6472 1389.55 11.8403C1384.69 11.9705 1379.81 11.5993 1374.95 11.4449C1368.78 10.1791 1362.56 10.9214 1356.36 11.2021C1355.25 11.2255 1354.15 11.2355 1353.04 11.2589C1352.22 10.7882 1351.29 10.8893 1350.38 10.9221C1343.55 11.2164 1336.73 11.0356 1329.93 10.6376C1323.59 10.2703 1317.24 10.0254 1310.9 9.72588C1309.12 9.57382 1307.34 9.42175 1305.56 9.24258C1304.63 9.15399 1304.63 9.12688 1303.78 5.99881C1305.84 6.25335 1307.94 6.50724 1310.03 6.77468C1318.93 8.17238 1327.99 8.35977 1336.97 9.06422C1337.84 9.87285 1338.76 9.56869 1339.76 9.12702C1338.3 9.4834 1337.87 8.19079 1336.85 7.91409C1327.92 7.27642 1318.98 6.63908 1310.05 6.01497C1309.44 5.36337 1308.59 5.08304 1307.69 4.99378C1303.47 4.52734 1299.51 3.28234 1294.92 4.22059C1290.74 5.06859 1286.15 4.37966 1281.73 4.37836C1278.12 3.62793 1274.47 4.16649 1270.83 4.18932C1268.87 3.30896 1266.61 4.44159 1263.69 3.4323C1268.04 3.2316 1271.42 3.09207 1274.8 2.93899C1275.92 3.70166 1277.06 3.55553 1278.73 2.92343C1277.04 2.68806 1275.86 2.5231 1274.69 2.35814C1270.83 2.69768 1266.86 2.00908 1263.12 3.37676C1256.8 3.94476 1250.61 5.33725 1244.2 5.44605C1241.17 5.49698 1238.03 5.48212 1235.09 6.43954C1234.41 6.5083 1233.74 6.56318 1233.07 6.63162C1223.77 6.30009 1214.73 7.95641 1205.71 9.65307C1204.29 9.61539 1202.87 9.63192 1201.61 10.3232C1200.58 10.3992 1199.55 10.394 1198.54 10.5374C1185.88 12.4606 1173.22 14.4108 1160.55 16.334C1160.1 16.3978 1159.47 16.7095 1159.1 16.1072C1159.55 15.3924 1160.67 15.206 1160.82 14.1993C1158.38 14.6985 1155.98 15.1835 1153.59 15.6953C1143.75 17.7619 1133.98 20.2609 1123.67 19.2864C1122.11 19.1432 1120.63 19.2424 1120.25 17.5961C1119.86 15.8551 1121.57 15.7103 1122.79 15.386C1124.17 15.0313 1125.61 14.9195 1127.02 14.6997C1121.73 13.8491 1116.43 13.6227 1111.1 13.7493C1109.95 13.028 1108.75 13.311 1107.43 13.4882C1107.87 14.2383 1108.49 14.3606 1109.12 14.4422C1110.31 14.7966 1111.55 15.0958 1112.52 16.7974C1106.59 15.7977 1101.27 14.9071 1095.95 14.003C1095.48 13.9858 1095.03 13.9818 1094.56 13.9646C1093.77 13.2628 1092.75 13.4879 1091.79 13.4945C1091 12.8062 1089.99 12.9904 1089.03 13.038C1088.45 12.4671 1087.72 12.4826 1086.94 12.5805C1083.88 13.8116 1080.8 14.8669 1077.3 14.4666C1075.82 14.2947 1074.97 13.8517 1075.2 12.4499C1074.59 11.3917 1074.59 11.4324 1072.75 11.4443C1066 11.5062 1059.28 12.9099 1052.72 9.37422C1049.77 7.78243 1045.2 8.47604 1041.36 8.12365C1040.67 8.11109 1040 8.08465 1039.32 8.07209C1038.46 7.48 1037.48 7.60927 1036.5 7.73854C1035.04 7.5663 1033.58 7.23109 1032.11 7.27573C1021.66 7.52472 1011.21 7.8686 1000.84 9.21417C997.408 9.17849 993.978 9.15635 990.563 9.06612C989.908 9.0529 988.37 9.32962 988.818 8.38445C990.414 5.00114 987.044 5.61507 985.477 5.24151C979.993 3.92049 974.976 6.23731 969.774 7.1478C966.37 7.6404 962.967 8.13301 959.563 8.61205C953.659 8.05933 947.733 7.98168 941.8 8.24321C941.234 8.01114 940.683 7.77873 939.834 7.41707C944.729 6.68941 949.297 6.00935 953.881 5.32896C958.058 5.281 962.179 4.8274 966.852 3.8875C962.916 2.83194 959.496 2.53839 955.994 2.789C954.98 1.98335 953.56 2.65082 952.222 2.04188C953.341 1.90963 954.212 1.79623 955.067 1.69672C956.884 2.0921 958.698 2.36549 961.053 1.67818C958.683 1.67422 956.949 0.775346 955.01 1.22331C953.309 1.13737 951.608 1.03787 949.892 0.97936C943.98 0.779383 937.927 -0.17699 932.191 0.609193C925.399 1.53985 918.628 2.009 911.826 2.49237C910.58 2.57304 909.076 2.19815 907.956 3.79493C919.528 3.27814 930.74 2.76897 941.969 2.27302C939.259 3.8493 936.092 3.71311 933.211 4.57433C921.536 5.37807 909.893 6.8863 897.946 5.87871C898.999 4.0935 901.361 4.4502 902.495 2.81243C896.468 3.0895 890.783 3.33219 885.084 3.58876C885.049 3.42677 885.03 3.26445 885.042 3.10147C885.664 3.00691 886.301 2.92559 886.922 2.83103C870.176 4.10854 853.47 5.03264 836.685 3.01578C837.748 3.91532 838.879 4.32525 839.95 4.81783C841.556 5.57025 843.664 6.47474 843.233 8.20607C842.802 9.92383 840.47 8.76643 839.06 9.17605C838.735 9.26432 838.376 9.25837 838.049 9.29243C833.327 8.59258 828.436 8.77774 823.845 9.13282C817.791 9.60032 811.727 9.60696 805.64 10.0073C807.754 8.97257 809.952 8.2479 812.134 7.48289C812.738 7.28024 813.623 7.12585 813.373 6.35821C813.156 5.69834 812.285 5.77108 811.613 5.71753C810.738 4.85468 809.78 5.26826 808.366 5.50167C809.437 6.0078 810.38 5.62166 810.831 6.31723C808.342 6.57345 805.8 7.997 803.46 7.16524C800.036 5.94967 797.006 7.1666 793.785 7.41126C787.933 7.8609 782.172 9.62399 776.196 8.6253C770.251 7.63949 764.363 6.35418 758.262 6.07684C752.519 5.81901 746.893 5.88417 741.628 8.27406C739.641 8.62814 737.752 9.23776 735.912 9.96839C735.591 9.52771 734.942 9.81268 734.443 9.7826C734.232 10.1261 734.021 10.4696 733.81 10.8131C733.625 10.8848 733.439 10.9565 733.269 11.028C726.915 12.0442 720.481 11.5028 714.093 11.679C711.071 11.7567 708.044 11.6446 705.033 11.5187C700.601 10.5415 696.109 9.71471 691.505 9.43274C691.285 9.35604 691.066 9.33356 690.833 9.37918C690.009 8.71866 689.03 8.88859 688.082 9.00365C683.267 8.38712 678.452 7.70281 673.609 7.20893C671.499 6.98249 669.571 5.74872 667.309 6.39339C664.101 6.54284 660.908 6.6784 657.7 6.82784C657.679 6.55709 657.673 6.286 657.652 6.01525C659.785 5.91573 661.935 5.82943 664.068 5.72991C664.047 5.47271 664.011 5.21583 663.99 4.95863C660.452 4.27432 657.028 6.00136 653.5 5.76435C649.295 5.94851 645.075 6.14656 640.87 6.33072C638.778 6.18528 636.686 6.02627 634.578 5.88115C633.972 5.22955 633.124 4.94922 632.218 4.85996C627.999 4.39352 624.045 3.14852 619.45 4.08677C615.275 4.93477 610.677 4.24583 606.266 4.24454C602.649 3.49411 598.997 4.03267 595.365 4.0555C593.398 3.17514 591.146 4.30776 588.225 3.29848C592.57 3.09778 595.95 2.95825 599.33 2.80517C600.452 3.56784 601.587 3.42171 603.258 2.78961C601.569 2.55424 600.396 2.38928 599.224 2.22432C595.365 2.56386 591.391 1.87525 587.647 3.24294C581.331 3.81094 575.14 5.20343 568.736 5.31223C565.697 5.36316 562.563 5.3483 559.622 6.30572C558.938 6.37448 558.268 6.42936 557.599 6.4978C548.302 6.16627 539.264 7.82259 530.243 9.51925C528.824 9.48157 527.406 9.4981 526.142 10.1894C525.115 10.2654 524.086 10.2601 523.076 10.4036C510.412 12.3268 497.749 14.277 485.085 16.2001C484.634 16.2639 484.002 16.5757 483.631 15.9734C484.083 15.2586 485.201 15.0721 485.352 14.0655C482.915 14.5647 480.509 15.0497 478.119 15.5615C468.28 17.6281 458.512 20.1271 448.203 19.1525C446.641 19.0094 445.162 19.1086 444.784 17.4622C444.389 15.7213 446.101 15.5765 447.325 15.2522C448.705 14.8975 450.137 14.7857 451.551 14.5659C446.264 13.7153 440.959 13.4888 435.63 13.6155C434.477 12.8941 433.283 13.1771 431.961 13.3543C432.398 14.1045 433.024 14.2268 433.65 14.3084C434.842 14.6628 436.08 14.962 437.051 16.6636C431.122 15.6639 425.803 14.7733 420.484 13.8691C420.016 13.852 419.563 13.848 419.095 13.8308C418.301 13.129 417.277 13.3541 416.326 13.3607C415.532 12.6724 414.523 12.8566 413.557 12.9042C412.984 12.3332 412.252 12.3488 411.474 12.4466C408.414 13.6778 405.334 14.7331 401.834 14.3327C400.349 14.1608 399.498 13.7178 399.733 12.3161C399.119 11.2579 399.12 11.2986 397.28 11.3105C390.532 11.3723 383.812 12.7761 377.252 9.2404C374.303 7.64861 369.735 8.34222 365.892 7.98983C365.206 7.97727 364.535 7.95083 363.849 7.93827C362.995 7.34618 362.016 7.47545 361.036 7.60472C359.567 7.43248 358.111 7.09727 356.646 7.14191C346.192 7.3909 335.739 7.73478 325.37 9.08035C321.94 9.04467 318.51 9.02254 315.094 8.9323C314.439 8.91908 312.902 9.1958 313.349 8.25063C314.945 4.86732 311.576 5.48125 310.009 5.10769C304.525 3.78667 299.508 6.1035 294.305 7.01398C290.901 7.50658 287.498 7.99919 284.094 8.47823C278.19 7.92551 272.265 7.84786 266.331 8.10939C265.765 7.87732 265.215 7.64491 264.365 7.28325C269.26 6.55558 273.829 5.87553 278.413 5.19514C282.59 5.14718 286.711 4.69358 291.383 3.75368C287.448 2.69812 284.028 2.40457 280.526 2.65518C279.511 1.84953 278.091 2.517 276.753 1.90806C277.873 1.77581 278.743 1.66241 279.598 1.5629C281.415 1.95828 283.229 2.23167 285.584 1.54435C283.214 1.5404 281.481 0.641525 279.542 1.08949C277.841 1.00355 276.139 0.904046 274.423 0.84554C268.511 0.645563 262.458 -0.310811 256.723 0.475373C249.93 1.40603 243.159 1.87518 236.357 2.35855C235.112 2.43922 233.607 2.06433 232.488 3.66111C244.059 3.14433 255.272 2.63515 266.501 2.1392C263.791 3.71548 260.623 3.5793 257.742 4.44051C246.068 5.24425 234.424 6.75248 222.477 5.74489C223.531 3.95968 225.892 4.31638 227.026 2.67861C221 2.95568 215.315 3.19837 209.615 3.45494C209.58 3.29295 209.561 3.13063 209.573 2.96765C210.195 2.87309 210.832 2.79176 211.454 2.69721C194.708 3.97472 178.001 4.89882 161.216 2.88196C162.28 3.7815 163.411 4.19143 164.481 4.68401C166.087 5.43643 168.195 6.34092 167.764 8.07224C167.333 9.79001 165.001 8.63262 163.592 9.04223C163.266 9.1305 162.907 9.12455 162.581 9.1586C157.858 8.45876 152.967 8.64392 148.376 8.999C142.322 9.4665 136.258 9.47314 130.172 9.87352C132.286 8.83875 134.484 8.11408 136.665 7.34907C137.269 7.14642 138.154 6.99203 137.904 6.22439C137.688 5.56452 136.816 5.63726 136.145 5.58371C135.269 4.72086 134.311 5.13444 132.898 5.36785C133.969 5.87398 134.911 5.48784 135.362 6.18341C132.874 6.43963 130.332 7.86318 127.991 7.03142C124.567 5.81585 121.538 7.03278 118.316 7.27744C112.465 7.72708 106.703 9.49016 100.727 8.49147C94.7825 7.50567 88.8939 6.22036 82.7929 5.94302C77.0509 5.68519 71.4248 5.75035 66.1598 8.14024C63.5816 8.58821 61.1691 9.49372 58.8208 10.4928C51.0345 13.8041 43.0365 14.4891 34.655 12.5244C28.5451 11.0946 22.4038 9.65196 16.0356 9.27181C15.8157 9.19511 15.597 9.17263 15.3642 9.21826C14.5395 8.55773 13.5611 8.72767 12.6126 8.84272C7.76567 8.15908 2.94989 7.47477 -1.87774 6.96701C-3.987 6.74056 -5.91497 5.5068 -8.17721 6.15147C-11.3853 6.30091 -14.578 6.43647 -17.7861 6.58592C-17.8074 6.31516 -17.8132 6.04408 -17.8345 5.77332C-15.701 5.6738 -13.5516 5.5875 -11.4181 5.48798C-11.455 5.21756 -11.4761 4.96036 -11.4971 4.70315C-15.0347 4.01884 -18.4587 5.74589 -21.9867 5.50887C-28.3255 5.779 -34.664 6.06268 -41.0022 6.35992C-37.2451 7.83964 -33.4109 7.08024 -29.6229 7.08121C-24.292 7.79527 -18.9824 6.77403 -13.6501 6.82359C-12.1378 6.83218 -10.5014 6.07875 -9.10583 7.20177C-12.2828 8.08282 -15.5509 8.34202 -18.842 8.24914C-22.5856 8.13875 -26.317 7.86536 -30.0488 8.31069C-35.4268 8.31634 -40.7891 8.32166 -46.1517 8.31343C-48.5057 8.30914 -49.017 9.18786 -47.9204 10.9139L-47.9152 11.1579L-47.8012 11.386C-47.7375 12.1847 -47.6585 12.9695 -47.5948 13.7682C-47.4813 16.9118 -47.3681 20.0419 -47.2391 23.1852C-48.3297 26.8832 -47.4083 30.6335 -47.5632 34.3523C-47.8652 41.4237 -48.4157 48.5411 -47.4238 55.6121C-47.5149 63.0723 -45.5539 70.272 -42.4328 77.0402C-38.6093 85.3259 -36.8217 93.8988 -35.656 102.553C-38.6788 102.617 -41.7186 102.614 -44.7452 102.502C-45.6812 102.467 -47.2116 102.337 -46.6975 103.791C-45.5372 107.048 -46.3203 110.549 -44.9736 113.775C-44.6737 117.62 -45.0577 121.561 -43.3097 125.334C-41.907 124.586 -42.8871 123.21 -41.8783 122.266C-40.6423 123.948 -40.3542 125.773 -40.3845 127.279C-40.489 131.905 -36.7541 136.748 -41.3051 141.198C-41.5954 141.475 -41.4713 142.178 -41.3678 142.65C-39.6246 150.6 -40.1079 158.679 -39.4701 166.693C-39.4779 167.06 -39.4858 167.426 -39.4939 167.779C-39.91 168.004 -40.4405 166.51 -40.7554 167.832C-41.1269 169.427 -41.5606 171.023 -41.3071 172.685C-42.5244 171.884 -42.0662 170.708 -42.1345 169.692C-42.3613 166.348 -42.5103 163.002 -42.697 159.344C-43.7702 160.194 -43.9284 160.821 -43.7885 161.537C-43.7562 162.323 -44.8928 163.12 -43.7699 163.883C-41.6584 170.821 -43.0206 177.888 -43.0279 184.886C-43.0239 189.482 -42.9576 194.078 -42.6581 198.641C-43.0288 198.799 -43.3999 198.942 -43.8336 199.073C-43.3933 199.254 -42.9989 199.476 -42.6047 199.685C-42.473 201.485 -42.3104 203.272 -42.1007 205.071C-41.6474 208.804 -39.5144 212.352 -40.8959 216.3C-41.1756 217.079 -41.0449 218.094 -40.2809 218.837C-40.4271 222.23 -38.6663 225.135 -37.2928 228.157C-36.0992 230.776 -35.0612 233.412 -34.209 236.106C-34.4953 237.305 -34.7975 238.492 -35.0838 239.691C-36.1525 242.222 -36.7049 244.838 -36.7723 247.538L-36.8298 247.769L-36.7929 248.04C-37.6144 248.993 -37.2956 250.057 -37.1956 251.099C-37.2106 251.859 -37.2098 252.632 -37.2249 253.392C-37.8716 254.504 -37.8177 255.574 -37.0473 256.615C-36.5299 264.103 -32.5853 270.746 -30.2382 277.774C-30.457 283.624 -30.5823 289.471 -30.0997 295.319C-30.3935 296.898 -30.4539 298.459 -30.4205 300.031C-30.3641 301.223 -30.2606 302.428 -30.2197 303.62C-30.2177 303.715 -30.2001 303.81 -30.198 303.904C-30.068 305.624 -29.9221 307.357 -29.9479 309.079C-31.6441 306.281 -30.6343 303.181 -31.1641 300.25C-31.4468 298.683 -30.5487 296.928 -32.0124 295.535C-33.2491 299.698 -33.0976 303.898 -32.7742 308.122C-32.4288 312.644 -32.3015 317.171 -32.0808 321.695C-32.2519 321.712 -32.4392 321.703 -32.6109 321.693C-32.9077 320.926 -32.4131 319.993 -33.4435 319.188C-34.6496 327.73 -34.0825 336.084 -33.5311 344.44C-33.4792 345.415 -33.4271 346.404 -33.3752 347.379C-33.2041 347.362 -33.0174 347.344 -32.846 347.341C-32.8979 346.365 -32.9497 345.39 -33.0016 344.415C-32.4003 340.429 -32.9235 336.345 -31.5569 332.424C-31.2695 332.011 -31.1068 331.601 -31.0063 331.192C-30.6917 329.856 -31.1418 328.482 -31.1549 327.127C-31.0825 326.868 -31.1041 326.583 -31.079 326.298C-31.0712 325.932 -31.0008 325.578 -30.5699 325.311C-30.504 327.682 -29.6117 330.064 -30.7308 332.42C-30.3014 335.76 -30.5414 339.142 -29.7692 342.475C-29.1507 345.174 -28.3894 347.992 -28.6597 350.682C-29.1214 355.371 -28.6969 359.945 -27.9289 364.553C-27.8218 365.188 -27.3305 366.303 -28.1076 366.414C-30.6402 366.807 -29.319 368.094 -29.1422 369.081C-27.8996 375.482 -25.1804 381.676 -25.8497 388.334C-26.1894 389.955 -26.5294 391.563 -26.8536 393.183C-27.0749 393.771 -27.3116 394.373 -27.5329 394.961C-28.648 396.774 -27.8457 398.588 -27.3538 400.462C-27.0136 399.601 -26.6733 398.739 -26.2139 397.618C-25.8149 398.789 -25.5325 399.61 -25.2503 400.418C-25.3103 400.527 -25.308 400.636 -25.2281 400.729C-25.8315 409.76 -26.4351 418.777 -27.0541 427.807C-27.061 428.214 -27.068 428.621 -27.0747 429.042C-27.1647 429.206 -27.1921 429.383 -27.1105 429.558C-27.9009 430.51 -27.6132 431.575 -27.4976 432.617C-27.8013 435.2 -28.292 437.787 -27.7846 440.393C-27.755 441.789 -27.741 443.186 -27.7111 444.596C-27.9255 445.509 -27.4446 447.6 -28.5007 447.053C-30.014 446.258 -29.8372 446.512 -29.5196 447.522C-28.014 452.359 -29.3569 457.391 -27.662 462.332C-26.4985 465.738 -26.1415 469.337 -25.9865 472.968C-25.9915 473.47 -25.9653 473.971 -25.9076 474.485C-25.8675 475.637 -25.8431 476.789 -25.8031 477.941C-25.7139 477.736 -25.6868 477.545 -25.6287 477.341C-25.6285 477.354 -25.6282 477.368 -25.6279 477.381C-25.6236 477.584 -25.6977 477.762 -25.8031 477.941C-25.793 479.148 -25.7674 480.354 -25.7577 481.547C-26.2196 484.757 -26.2764 487.959 -25.7101 491.133C-25.748 491.554 -25.5827 491.998 -25.4171 492.456C-25.3311 492.834 -25.2763 493.212 -25.1592 493.59C-25.1203 493.955 -25.0816 494.307 -25.043 494.658C-25.0518 497.913 -24.2684 501.042 -23.0653 504.109C-21.4583 506.38 -23.4318 508.876 -22.3675 511.281C-20.9582 514.519 -19.6882 517.801 -17.9081 520.882C-12.0169 531.104 -3.69811 538.928 9.71823 541.613C11.4999 542.565 13.3686 541.739 15.2104 541.849C14.6818 541.182 13.8739 541.308 13.1263 541.337C12.6432 541.347 12.3916 541.244 12.2947 541.083C12.1813 540.882 12.2535 540.61 12.418 540.281C18.4899 539.189 24.0942 536.629 30.8999 535.59C28.8736 537.07 26.6019 537.268 25.4176 538.757C25.4038 538.839 25.3899 538.921 25.3763 539.016C25.314 539.017 25.2673 539.018 25.2049 539.019C24.9934 539.336 24.5196 539.78 24.6324 539.954C24.9397 540.476 25.6189 540.163 26.1496 540.193C26.3905 539.794 26.6318 539.41 26.8572 539.011C33.3651 537.897 39.9401 538.476 46.4835 538.297C51.3444 538.166 56.2158 538.538 61.0827 538.692C67.2515 539.958 73.4711 539.216 79.6694 538.935C80.7757 538.911 81.8823 538.901 82.9885 538.878C83.8091 539.349 84.7423 539.248 85.6457 539.215C92.4829 538.921 99.2989 539.101 106.104 539.499C112.441 539.867 118.775 540.112 125.126 540.411C126.906 540.563 128.686 540.715 130.467 540.894C131.404 540.983 131.405 541.01 132.251 544.138C130.188 543.884 128.093 543.63 125.999 543.362C117.099 541.965 108.038 541.777 99.0601 541.073C98.1856 540.264 97.2723 540.568 96.2684 541.01C97.7262 540.653 98.1589 541.946 99.1781 542.223C108.108 542.86 117.054 543.498 125.984 544.122C126.59 544.774 127.438 545.054 128.344 545.143C132.563 545.61 136.517 546.855 141.112 545.916C145.287 545.068 149.885 545.757 154.296 545.759C157.913 546.509 161.565 545.97 165.196 545.948C167.164 546.828 169.416 545.695 172.337 546.705C167.992 546.905 164.612 547.045 161.232 547.198C160.109 546.435 158.975 546.581 157.304 547.213C158.993 547.449 160.166 547.614 161.338 547.779C165.197 547.439 169.171 548.128 172.914 546.76C179.231 546.192 185.422 544.8 191.826 544.691C194.865 544.64 197.998 544.655 200.94 543.697C201.624 543.629 202.294 543.574 202.962 543.505C212.26 543.837 221.298 542.181 230.318 540.484C231.738 540.521 233.156 540.505 234.42 539.814C235.447 539.738 236.476 539.743 237.486 539.599C250.15 537.676 262.813 535.726 275.477 533.803C275.928 533.739 276.56 533.427 276.931 534.03C276.479 534.744 275.36 534.931 275.21 535.938C277.647 535.438 280.053 534.953 282.443 534.442C292.282 532.375 302.05 529.876 312.359 530.851C313.921 530.994 315.4 530.894 315.778 532.541C316.173 534.282 314.461 534.427 313.237 534.751C311.857 535.106 310.425 535.217 309.011 535.437C314.298 536.288 319.603 536.514 324.932 536.388C326.085 537.109 327.279 536.826 328.601 536.649C328.164 535.899 327.538 535.776 326.912 535.695C325.72 535.34 324.482 535.041 323.511 533.34C329.44 534.339 334.759 535.23 340.078 536.134C340.546 536.151 340.999 536.155 341.467 536.172C342.261 536.874 343.285 536.649 344.236 536.642C345.03 537.331 346.039 537.146 347.005 537.099C347.578 537.67 348.31 537.654 349.088 537.556C352.148 536.325 355.228 535.27 358.728 535.67C360.213 535.842 361.048 536.286 360.828 537.687C361.443 538.745 361.442 538.705 363.282 538.693C370.03 538.631 376.75 537.227 383.31 540.763C386.259 542.354 390.827 541.661 394.669 542.013C395.356 542.026 396.026 542.052 396.713 542.065C397.567 542.657 398.546 542.528 399.526 542.398C400.995 542.571 402.451 542.906 403.916 542.861C414.37 542.612 424.823 542.268 435.192 540.923C438.622 540.958 442.052 540.981 445.468 541.071C446.123 541.084 447.66 540.807 447.213 541.752C445.617 545.136 448.986 544.522 450.553 544.895C456.037 546.216 461.054 543.9 466.257 542.989C469.66 542.496 473.064 542.004 476.468 541.525C482.372 542.078 488.297 542.155 494.231 541.894C494.797 542.126 495.347 542.358 496.197 542.72C491.302 543.448 486.733 544.128 482.149 544.808C477.972 544.856 473.851 545.309 469.179 546.249C473.114 547.305 476.534 547.599 480.036 547.348C481.051 548.154 482.471 547.486 483.809 548.095C482.689 548.227 481.819 548.341 480.963 548.44C479.147 548.045 477.333 547.771 474.978 548.459C477.347 548.463 479.081 549.362 481.02 548.914C482.721 549 484.423 549.099 486.139 549.158C492.051 549.358 498.104 550.314 503.839 549.528C510.632 548.597 517.403 548.128 524.205 547.645C525.45 547.564 526.955 547.939 528.074 546.342C516.503 546.859 505.29 547.368 494.061 547.864C496.771 546.288 499.939 546.424 502.82 545.563C514.494 544.759 526.138 543.251 538.085 544.258C537.031 546.043 534.67 545.687 533.535 547.324C539.563 547.061 545.247 546.805 550.947 546.548C550.982 546.71 551.001 546.872 550.988 547.035C550.367 547.13 549.73 547.211 549.108 547.306C565.854 546.028 582.561 545.104 599.346 547.121C598.282 546.222 597.151 545.812 596.081 545.319C594.475 544.567 592.367 543.662 592.798 541.931C593.229 540.213 595.56 541.37 596.97 540.961C597.296 540.873 597.654 540.879 597.981 540.844C602.704 541.544 607.595 541.359 612.186 541.004C618.24 540.537 624.303 540.53 630.39 540.13C628.276 541.164 626.078 541.889 623.896 542.654C623.293 542.857 622.408 543.011 622.658 543.779C622.874 544.439 623.746 544.366 624.417 544.419C625.293 545.282 626.251 544.869 627.664 544.635C626.593 544.129 625.651 544.515 625.199 543.82C627.688 543.563 630.23 542.14 632.57 542.972C635.994 544.187 639.024 542.97 642.246 542.726C648.097 542.276 653.859 540.513 659.835 541.512C665.779 542.497 671.668 543.783 677.769 544.06C683.511 544.318 689.137 544.253 694.402 541.863C696.39 541.509 698.279 540.899 700.118 540.168C700.439 540.609 701.088 540.324 701.588 540.354C701.798 540.011 702.009 539.667 702.22 539.324C702.406 539.252 702.592 539.194 702.761 539.109C709.116 538.093 715.55 538.634 721.937 538.458C724.96 538.38 727.986 538.492 730.997 538.618C735.43 539.595 739.921 540.422 744.526 540.704C744.746 540.781 744.964 540.79 745.197 540.758C746.022 541.418 746.985 541.249 747.949 541.133C752.779 541.749 757.579 542.434 762.422 542.928C764.531 543.154 766.459 544.388 768.721 543.743C771.929 543.594 775.122 543.458 778.33 543.309C778.352 543.58 778.357 543.851 778.379 544.122C776.245 544.221 774.096 544.307 771.962 544.407C771.983 544.664 772.02 544.921 772.041 545.178C775.578 545.863 779.002 544.136 782.53 544.372C786.735 544.188 790.956 543.99 795.161 543.806C797.253 543.952 799.345 544.111 801.452 544.256C802.059 544.907 802.906 545.188 803.812 545.277C808.031 545.743 811.986 546.988 816.58 546.05C820.756 545.202 825.353 545.891 829.765 545.892C833.382 546.643 837.033 546.104 840.665 546.081C842.632 546.962 844.884 545.829 847.805 546.838C843.46 547.039 840.08 547.179 836.701 547.332C835.578 546.569 834.443 546.715 832.773 547.347C834.462 547.583 835.634 547.748 836.807 547.913C840.665 547.573 844.64 548.262 848.383 546.894C854.7 546.326 860.89 544.933 867.295 544.825C870.333 544.774 873.467 544.789 876.409 543.831C877.093 543.762 877.762 543.708 878.431 543.639C887.729 543.971 896.766 542.314 905.787 540.618C907.206 540.655 908.625 540.639 909.888 539.948C910.915 539.871 911.944 539.877 912.955 539.733C925.618 537.81 938.282 535.86 950.945 533.937C951.396 533.873 952.029 533.561 952.4 534.164C951.947 534.878 950.829 535.065 950.679 536.071C953.116 535.572 955.522 535.087 957.911 534.575C967.751 532.509 977.519 530.01 987.828 530.984C989.389 531.128 990.868 531.028 991.246 532.675C991.642 534.416 989.93 534.56 988.705 534.885C987.325 535.239 985.894 535.351 984.48 535.571C989.767 536.422 995.072 536.648 1000.4 536.521C1001.55 537.243 1002.75 536.96 1004.07 536.783C1003.63 536.032 1003.01 535.91 1002.38 535.828C1001.19 535.474 999.951 535.175 998.979 533.473C1004.91 534.473 1010.23 535.364 1015.55 536.268C1016.01 536.285 1016.47 536.289 1016.94 536.306C1017.73 537.008 1018.75 536.783 1019.7 536.776C1020.5 537.464 1021.51 537.28 1022.47 537.233C1023.05 537.804 1023.78 537.788 1024.56 537.69C1027.62 536.459 1030.7 535.404 1034.2 535.804C1035.68 535.976 1036.52 536.419 1036.3 537.821C1036.91 538.879 1036.91 538.838 1038.75 538.826C1045.5 538.765 1052.22 537.361 1058.78 540.897C1061.73 542.488 1066.3 541.795 1070.14 542.147C1070.82 542.16 1071.49 542.186 1072.18 542.199C1073.04 542.791 1074.01 542.661 1074.99 542.532C1076.46 542.704 1077.92 543.04 1079.38 542.995C1089.84 542.746 1100.29 542.402 1110.66 541.057C1114.09 541.092 1117.52 541.114 1120.94 541.205C1121.59 541.218 1123.13 540.941 1122.68 541.886C1121.09 545.27 1124.45 544.656 1126.02 545.029C1131.51 546.35 1136.52 544.033 1141.73 543.123C1145.13 542.63 1148.53 542.138 1151.94 541.659C1157.84 542.211 1163.77 542.289 1169.7 542.028C1170.27 542.26 1170.82 542.492 1171.67 542.854C1166.77 543.581 1162.2 544.261 1157.62 544.942C1153.44 544.99 1149.32 545.443 1144.65 546.383C1148.58 547.439 1152 547.732 1155.5 547.482C1156.52 548.287 1157.94 547.62 1159.28 548.229C1158.16 548.361 1157.29 548.474 1156.43 548.574C1154.62 548.179 1152.8 547.905 1150.45 548.593C1152.82 548.597 1154.55 549.495 1156.49 549.047C1158.19 549.133 1159.89 549.233 1161.61 549.291C1167.52 549.491 1173.57 550.448 1179.31 549.662C1186.1 548.731 1192.87 548.262 1199.67 547.778C1200.92 547.698 1202.42 548.073 1203.54 546.476C1191.97 546.993 1180.76 547.502 1169.53 547.998C1172.24 546.421 1175.41 546.558 1178.29 545.696C1189.96 544.893 1201.61 543.384 1213.55 544.392C1212.5 546.177 1210.14 545.821 1209 547.458C1215.03 547.195 1220.72 546.939 1226.42 546.682C1226.45 546.844 1226.47 547.006 1226.46 547.169C1225.84 547.264 1225.2 547.345 1224.58 547.44C1241.32 546.162 1258.03 545.238 1274.81 547.255C1273.75 546.355 1272.62 545.945 1271.55 545.453C1269.94 544.7 1267.84 543.796 1268.27 542.065C1268.7 540.347 1271.03 541.504 1272.44 541.095C1272.76 541.006 1273.12 541.012 1273.45 540.978C1278.17 541.678 1283.06 541.493 1287.65 541.138C1293.71 540.67 1299.77 540.664 1305.86 540.263C1303.74 541.298 1301.55 542.023 1299.37 542.788C1298.76 542.991 1297.88 543.145 1298.13 543.913C1298.34 544.572 1299.21 544.5 1299.89 544.553C1300.76 545.416 1301.72 545.002 1303.13 544.769C1302.06 544.263 1301.12 544.649 1300.67 543.954C1303.16 543.697 1305.7 542.274 1308.04 543.105C1311.46 544.321 1314.49 543.104 1317.71 542.859C1323.57 542.41 1329.33 540.647 1335.3 541.645C1341.25 542.631 1347.14 543.917 1353.24 544.194C1358.98 544.452 1364.61 544.387 1369.87 541.997C1372.45 541.549 1374.86 540.643 1377.21 539.644C1385 536.333 1392.99 535.648 1401.38 537.612C1407.49 539.042 1413.63 540.485 1419.99 540.865C1420.21 540.942 1420.43 540.951 1420.67 540.919C1421.49 541.579 1422.45 541.41 1423.42 541.294C1428.25 541.91 1433.05 542.595 1437.89 543.089C1440 543.315 1441.93 544.549 1444.19 543.904C1447.4 543.755 1450.59 543.619 1453.8 543.47C1453.82 543.741 1453.83 544.012 1453.85 544.283C1451.71 544.382 1449.56 544.468 1447.43 544.568C1447.45 544.825 1447.49 545.082 1447.51 545.339C1451.05 546.023 1454.47 544.296 1458 544.533C1464.34 544.25 1470.68 543.966 1477.02 543.682C1473.26 542.203 1469.44 542.962 1465.64 542.961C1460.3 542.247 1455 543.268 1449.66 543.219C1448.15 543.21 1446.51 543.964 1445.12 542.841C1448.3 541.96 1451.56 541.7 1454.85 541.793C1458.6 541.904 1462.33 542.177 1466.06 541.732C1471.42 541.726 1476.79 541.707 1482.15 541.716C1484.49 541.72 1485.01 540.841 1483.92 539.115L1483.91 538.871L1483.8 538.643C1483.73 537.844 1483.66 537.06 1483.59 536.261C1483.48 533.117 1483.37 529.987 1483.24 526.844C1484.33 523.146 1483.41 519.396 1483.56 515.677C1483.88 508.727 1484.43 501.623 1483.44 494.552ZM661.804 7.01196C663.316 7.02055 664.953 6.26712 666.348 7.39014C664.985 7.77165 663.587 8.01828 662.187 8.18358C661.934 7.98556 661.68 7.80109 661.367 7.72638C659.353 7.57927 657.324 7.44606 655.31 7.29896C657.473 7.14456 659.637 6.99015 661.804 7.01196ZM634.546 6.58697C636.794 7.44782 639.056 7.52186 641.33 7.44648C645.345 7.84945 649.372 8.08944 653.399 8.34298C650.731 8.25043 648.065 8.19854 645.39 8.51295C640.028 8.51827 634.666 8.53714 629.303 8.52891C629.241 8.53023 629.194 8.53122 629.132 8.53254C628.92 8.11666 628.701 7.3348 628.294 5.8111C630.357 6.06565 632.452 6.31953 634.546 6.58697ZM774.211 543.152C772.699 543.144 771.063 543.897 769.667 542.774C771.031 542.393 772.429 542.146 773.828 541.981C774.082 542.179 774.335 542.363 774.648 542.438C776.662 542.585 778.692 542.718 780.706 542.865C778.542 543.006 776.378 543.161 774.211 543.152ZM801.454 543.578C799.206 542.717 796.944 542.643 794.67 542.718C790.655 542.315 786.628 542.075 782.601 541.822C785.269 541.914 787.935 541.966 790.61 541.652C795.972 541.646 801.334 541.628 806.697 541.636C806.759 541.634 806.806 541.633 806.868 541.632C807.08 542.048 807.299 542.83 807.69 544.354C805.658 544.099 803.563 543.831 801.454 543.578Z" fill="#2B2B93"/>
</svg>
