<svg width="73" height="596" viewBox="0 0 73 596" fill="none" xmlns="http://www.w3.org/2000/svg">
<g clip-path="url(#clip0_132_3873)">
<path d="M54.4466 510.39C55.008 510.31 55.9216 510.094 56.2109 509.529C57.0584 507.853 57.9058 506.176 58.7631 504.51C60.4273 506.107 62.1016 507.695 63.7658 509.292C64.4059 509.903 67.194 508.818 66.603 508.258C64.3676 506.122 62.1223 503.975 59.8868 501.838C59.5521 501.513 58.7091 501.689 58.3275 501.783C57.8656 501.895 57.2121 502.104 56.9745 502.571C55.7242 505.031 54.4738 507.501 53.2235 509.96C52.9347 510.496 54.2362 510.417 54.4466 510.39Z" fill="#00AEEF" fill-opacity="0.1"/>
<path d="M21.6806 512.947C22.4195 513.019 23.2247 512.712 23.6745 512.109L27.8989 506.357C29.9412 508.071 31.9836 509.784 34.0259 511.498C34.8942 512.222 37.6449 510.977 36.4113 509.956C33.9349 507.876 31.4485 505.795 28.9621 503.714C28.2419 503.112 26.8114 503.739 26.3511 504.372L20.8379 511.883C20.3981 512.476 21.1812 512.908 21.6806 512.947Z" fill="#00AEEF" fill-opacity="0.1"/>
<path d="M-3.61734 512.004C-3.05595 511.923 -2.14232 511.708 -1.85306 511.143C-1.00562 509.466 -0.158165 507.79 0.699118 506.123C2.36329 507.721 4.03763 509.308 5.70181 510.906C6.34194 511.516 9.12999 510.432 8.53904 509.872C6.30359 507.735 4.05829 505.588 1.82284 503.451C1.4881 503.126 0.645111 503.302 0.263531 503.396C-0.198365 503.508 -0.851862 503.718 -1.0895 504.184C-2.33977 506.644 -3.59021 509.114 -4.84049 511.574C-5.12926 512.109 -3.8178 512.031 -3.61734 512.004Z" fill="#00AEEF" fill-opacity="0.1"/>
<path d="M41.7624 532.627C42.3238 532.546 43.2374 532.331 43.5267 531.765C44.3741 530.089 45.2216 528.412 46.0789 526.746C47.7431 528.344 49.4174 529.931 51.0816 531.528C51.7217 532.139 54.5098 531.054 53.9188 530.495C51.6833 528.358 49.4381 526.211 47.2026 524.074C46.8679 523.749 46.0249 523.925 45.6433 524.019C45.1814 524.131 44.5279 524.341 44.2903 524.807C43.04 527.267 41.7895 529.737 40.5393 532.197C40.2605 532.732 41.562 532.653 41.7624 532.627Z" fill="#00AEEF" fill-opacity="0.1"/>
<path d="M9.00637 535.183C9.74529 535.255 10.5504 534.948 11.0003 534.345L15.2246 528.593C17.267 530.307 19.3093 532.02 21.3516 533.734C22.2199 534.458 24.9706 533.213 23.7371 532.193C21.2607 530.112 18.7743 528.031 16.2879 525.95C15.5676 525.348 14.1372 525.975 13.6768 526.608L8.1636 534.119C7.72388 534.712 8.50692 535.145 9.00637 535.183Z" fill="#00AEEF" fill-opacity="0.1"/>
<path d="M56.8507 553.095C57.4121 553.014 58.3257 552.799 58.615 552.234C59.4624 550.558 60.3099 548.881 61.1671 547.215C62.8313 548.812 64.5056 550.4 66.1698 551.997C66.81 552.608 69.598 551.523 69.0071 550.963C66.7716 548.826 64.5263 546.68 62.2909 544.543C61.9561 544.217 61.1131 544.394 60.7316 544.487C60.2697 544.6 59.6162 544.809 59.3785 545.275C58.1282 547.735 56.8778 550.205 55.6275 552.665C55.3388 553.201 56.6402 553.122 56.8507 553.095Z" fill="#00AEEF" fill-opacity="0.1"/>
<path d="M24.0846 555.651C24.8235 555.723 25.6287 555.417 26.0785 554.814L30.3029 549.062C32.3452 550.775 34.3876 552.489 36.4299 554.202C37.2982 554.927 40.0489 553.681 38.8153 552.661C36.3389 550.581 33.8525 548.5 31.3661 546.419C30.6458 545.817 29.2154 546.444 28.7551 547.076L23.2419 554.587C22.8021 555.18 23.5952 555.613 24.0846 555.651Z" fill="#00AEEF" fill-opacity="0.1"/>
<path d="M-1.2034 554.709C-0.642009 554.628 0.271621 554.413 0.560878 553.848C1.40833 552.171 2.25577 550.495 3.11306 548.829C4.77723 550.426 6.45157 552.013 8.11574 553.611C8.75587 554.221 11.5439 553.137 10.953 552.577C8.71753 550.44 6.47224 548.293 4.23678 546.157C3.90204 545.831 3.05905 546.007 2.67747 546.101C2.21558 546.214 1.56208 546.423 1.32445 546.889C0.0741673 549.349 -1.17627 551.819 -2.42655 554.279C-2.71532 554.814 -1.41386 554.736 -1.2034 554.709Z" fill="#00AEEF" fill-opacity="0.1"/>
<path d="M47.8226 573.751C48.384 573.67 49.2976 573.455 49.5869 572.89C50.4343 571.213 51.2818 569.537 52.1391 567.87C53.8032 569.468 55.4776 571.055 57.1417 572.653C57.7819 573.263 60.5699 572.179 59.979 571.619C57.7435 569.482 55.4982 567.335 53.2628 565.198C52.928 564.873 52.0851 565.049 51.7035 565.143C51.2416 565.255 50.5881 565.465 50.3504 565.931C49.1002 568.391 47.8497 570.861 46.5995 573.321C46.3107 573.856 47.6121 573.777 47.8226 573.751Z" fill="#00AEEF" fill-opacity="0.1"/>
<path d="M15.0566 576.307C15.7955 576.379 16.6006 576.072 17.0505 575.469L21.2748 569.717C23.3172 571.431 25.3595 573.145 27.4018 574.858C28.2701 575.582 31.0108 574.337 29.7873 573.317C27.3109 571.236 24.8245 569.155 22.3381 567.074C21.6178 566.473 20.1874 567.099 19.727 567.732L14.2138 575.243C13.7741 575.836 14.5571 576.269 15.0566 576.307Z" fill="#00AEEF" fill-opacity="0.1"/>
<path d="M-10.4415 575.371C-10.3514 575.363 -10.2814 575.364 -10.2412 575.354C-9.67984 575.273 -8.76621 575.058 -8.47695 574.493C-7.6295 572.817 -6.78205 571.14 -5.92477 569.474C-4.26059 571.071 -2.58626 572.659 -0.922088 574.256C-0.281958 574.867 2.5061 573.782 1.91515 573.222C-0.320308 571.086 -2.5656 568.939 -4.80105 566.802C-5.13579 566.476 -5.97878 566.653 -6.36036 566.746C-6.82225 566.859 -7.47575 567.068 -7.71338 567.534C-8.81911 569.717 -9.93501 571.909 -11.0407 574.091C-10.9437 574.273 -10.8666 574.454 -10.7997 574.645C-10.6635 574.877 -10.5374 575.119 -10.4415 575.371Z" fill="#00AEEF" fill-opacity="0.1"/>
<path d="M33.2609 593.976C33.6987 594.113 34.0854 594.32 34.4316 594.555C34.5229 594.477 34.6144 594.388 34.696 594.29L38.9105 588.527C40.9528 590.241 42.9952 591.955 45.0375 593.668C45.077 593.699 45.1265 593.73 45.1662 593.75C45.3565 593.733 45.5569 593.707 45.7474 593.68C45.9969 593.714 46.2567 593.728 46.5062 593.762C47.4108 593.487 48.1927 592.759 47.4231 592.117C44.9367 590.036 42.4603 587.955 39.9739 585.874C39.2536 585.273 37.8232 585.899 37.3628 586.532L32.5144 593.144C32.6714 593.326 32.8185 593.509 32.9552 593.711C33.0639 593.793 33.1622 593.894 33.2609 593.976Z" fill="#00AEEF" fill-opacity="0.1"/>
<path d="M7.83523 591.661C8.40515 591.671 8.99328 591.79 9.55158 591.899C9.65124 591.921 9.74074 591.952 9.8404 591.974C10.4605 590.744 11.0907 589.514 11.7108 588.284C13.0894 589.607 14.478 590.929 15.8567 592.252C16.0973 592.216 16.3377 592.19 16.5684 592.154C17.1599 592.063 17.7618 591.953 18.3732 591.873C18.6446 591.787 18.9157 591.722 19.1965 591.676C17.0792 589.652 14.962 587.627 12.8447 585.602C12.51 585.277 11.667 585.453 11.2854 585.547C10.8235 585.659 10.17 585.869 9.93236 586.335C9.02313 588.12 8.11373 589.916 7.2145 591.701C7.4148 591.684 7.62526 591.658 7.83523 591.661Z" fill="#00AEEF" fill-opacity="0.1"/>
</g>
<g clip-path="url(#clip1_132_3873)">
<path d="M49.48 308.09C49.57 308.65 49.8 309.56 50.37 309.84C52.06 310.66 53.75 311.48 55.43 312.31C53.86 314 52.3 315.7 50.73 317.39C50.13 318.04 51.26 320.81 51.81 320.21C53.91 317.94 56.02 315.66 58.12 313.39C58.44 313.05 58.25 312.21 58.15 311.83C58.03 311.37 57.81 310.72 57.34 310.49C54.86 309.28 52.37 308.07 49.89 306.86C49.35 306.58 49.45 307.88 49.48 308.09Z" fill="#00AEEF" fill-opacity="0.1"/>
<path d="M46.39 275.37C46.33 276.11 46.65 276.91 47.26 277.35L53.08 281.48C51.4 283.55 49.72 285.62 48.04 287.69C47.33 288.57 48.62 291.3 49.62 290.05C51.66 287.54 53.7 285.02 55.74 282.5C56.33 281.77 55.68 280.35 55.04 279.9L47.44 274.51C46.84 274.08 46.42 274.87 46.39 275.37Z" fill="#00AEEF" fill-opacity="0.1"/>
<path d="M46.92 250.06C47.01 250.62 47.24 251.53 47.81 251.81C49.5 252.63 51.19 253.45 52.87 254.28C51.3 255.97 49.74 257.67 48.17 259.36C47.57 260.01 48.7 262.78 49.25 262.18C51.35 259.91 53.46 257.63 55.56 255.36C55.88 255.02 55.69 254.18 55.59 253.8C55.47 253.34 55.25 252.69 54.78 252.46C52.3 251.25 49.81 250.04 47.33 248.83C46.79 248.55 46.89 249.86 46.92 250.06Z" fill="#00AEEF" fill-opacity="0.1"/>
<path d="M43.83 217.34C43.77 218.08 44.09 218.88 44.7 219.32L50.52 223.45C48.84 225.52 47.16 227.59 45.48 229.66C44.77 230.54 46.06 233.27 47.06 232.02C49.1 229.5 51.14 226.99 53.18 224.47C53.77 223.74 53.12 222.32 52.48 221.87L44.88 216.48C44.29 216.05 43.87 216.85 43.83 217.34Z" fill="#00AEEF" fill-opacity="0.1"/>
<path d="M44.03 188.72C44.12 189.28 44.35 190.19 44.92 190.47C46.61 191.29 48.3 192.11 49.98 192.94C48.41 194.63 46.85 196.33 45.28 198.02C44.68 198.67 45.81 201.44 46.36 200.84C48.46 198.57 50.57 196.29 52.67 194.02C52.99 193.68 52.8 192.84 52.7 192.46C52.58 192 52.36 191.35 51.89 191.12C49.41 189.91 46.92 188.7 44.44 187.49C43.9 187.21 44 188.51 44.03 188.72Z" fill="#00AEEF" fill-opacity="0.1"/>
<path d="M40.94 156C40.88 156.74 41.2 157.54 41.81 157.98L47.63 162.11C45.95 164.18 44.27 166.25 42.59 168.32C41.88 169.2 43.17 171.93 44.17 170.68C46.21 168.17 48.25 165.65 50.29 163.13C50.88 162.4 50.23 160.98 49.59 160.53L41.99 155.14C41.39 154.71 40.98 155.5 40.94 156Z" fill="#00AEEF" fill-opacity="0.1"/>
<path d="M27.04 295.77C27.13 296.33 27.36 297.24 27.93 297.52C29.62 298.34 31.31 299.16 32.99 299.99C31.42 301.68 29.86 303.38 28.29 305.07C27.69 305.72 28.82 308.49 29.37 307.89C31.47 305.62 33.58 303.34 35.68 301.07C36 300.73 35.81 299.89 35.71 299.51C35.59 299.05 35.37 298.4 34.9 298.17C32.42 296.96 29.93 295.75 27.45 294.54C26.91 294.27 27.01 295.57 27.04 295.77Z" fill="#00AEEF" fill-opacity="0.1"/>
<path d="M23.95 263.06C23.89 263.8 24.21 264.6 24.82 265.04L30.64 269.17C28.96 271.24 27.28 273.31 25.6 275.38C24.89 276.26 26.18 278.99 27.18 277.74C29.22 275.23 31.26 272.71 33.3 270.19C33.89 269.46 33.24 268.04 32.6 267.59L25 262.2C24.4 261.77 23.98 262.56 23.95 263.06Z" fill="#00AEEF" fill-opacity="0.1"/>
<path d="M24.48 237.75C24.57 238.31 24.8 239.22 25.37 239.5C27.06 240.32 28.75 241.14 30.43 241.97C28.86 243.66 27.3 245.36 25.73 247.05C25.13 247.7 26.26 250.47 26.81 249.87C28.91 247.6 31.02 245.32 33.12 243.05C33.44 242.71 33.25 241.87 33.15 241.49C33.03 241.03 32.81 240.38 32.34 240.15C29.86 238.94 27.37 237.73 24.89 236.52C24.35 236.24 24.45 237.54 24.48 237.75Z" fill="#00AEEF" fill-opacity="0.1"/>
<path d="M21.39 205.03C21.33 205.77 21.65 206.57 22.26 207.01L28.08 211.14C26.4 213.21 24.72 215.28 23.04 217.35C22.33 218.23 23.62 220.96 24.62 219.71C26.66 217.2 28.7 214.68 30.74 212.16C31.33 211.43 30.68 210.01 30.04 209.56L22.44 204.17C21.84 203.74 21.42 204.54 21.39 205.03Z" fill="#00AEEF" fill-opacity="0.1"/>
<path d="M21.59 176.41C21.68 176.97 21.91 177.88 22.48 178.16C24.17 178.98 25.86 179.8 27.54 180.63C25.97 182.32 24.41 184.02 22.84 185.71C22.24 186.36 23.37 189.13 23.92 188.53C26.02 186.26 28.13 183.98 30.23 181.71C30.55 181.37 30.36 180.53 30.26 180.15C30.14 179.69 29.92 179.04 29.45 178.81C26.97 177.6 24.48 176.39 22 175.18C21.46 174.9 21.56 176.2 21.59 176.41Z" fill="#00AEEF" fill-opacity="0.1"/>
<path d="M6.82003 311.19C6.91003 311.75 7.14003 312.66 7.71003 312.94C9.40003 313.76 11.09 314.58 12.77 315.41C11.2 317.1 9.64003 318.8 8.07003 320.49C7.47003 321.14 8.60003 323.91 9.15003 323.31C11.25 321.04 13.36 318.76 15.46 316.49C15.78 316.15 15.59 315.31 15.49 314.93C15.37 314.47 15.15 313.82 14.68 313.59C12.2 312.38 9.71003 311.17 7.23003 309.96C6.69003 309.68 6.79003 310.98 6.82003 311.19Z" fill="#00AEEF" fill-opacity="0.1"/>
<path d="M3.72999 278.47C3.66999 279.21 3.98999 280.01 4.59999 280.45L10.42 284.58C8.73999 286.65 7.05999 288.72 5.37999 290.79C4.66999 291.67 5.95999 294.4 6.95999 293.15C8.99999 290.64 11.04 288.12 13.08 285.6C13.67 284.87 13.02 283.45 12.38 283L4.77999 277.61C4.17999 277.18 3.75999 277.98 3.72999 278.47Z" fill="#00AEEF" fill-opacity="0.1"/>
<path d="M4.25997 253.17C4.34997 253.73 4.57997 254.64 5.14997 254.92C6.83997 255.74 8.52997 256.56 10.21 257.39C8.63997 259.08 7.07997 260.78 5.50997 262.47C4.90997 263.12 6.03997 265.89 6.58997 265.29C8.68997 263.02 10.8 260.74 12.9 258.47C13.22 258.13 13.03 257.29 12.93 256.91C12.81 256.45 12.59 255.8 12.12 255.57C9.63997 254.36 7.14997 253.15 4.66997 251.94C4.12997 251.66 4.22997 252.96 4.25997 253.17Z" fill="#00AEEF" fill-opacity="0.1"/>
<path d="M1.16999 220.45C1.10999 221.19 1.42999 221.99 2.03999 222.43L7.85999 226.56C6.17999 228.63 4.49999 230.7 2.81999 232.77C2.10999 233.65 3.4 236.37 4.4 235.13C6.44 232.61 8.47999 230.1 10.52 227.58C11.11 226.85 10.46 225.43 9.81999 224.98L2.21999 219.59C1.61999 219.16 1.20999 219.95 1.16999 220.45Z" fill="#00AEEF" fill-opacity="0.1"/>
</g>
<g clip-path="url(#clip2_132_3873)">
<path d="M39.48 475.09C39.57 475.65 39.8 476.56 40.37 476.84C42.06 477.66 43.75 478.48 45.43 479.31C43.86 481 42.3 482.7 40.73 484.39C40.13 485.04 41.26 487.81 41.81 487.21C43.91 484.94 46.02 482.66 48.12 480.39C48.44 480.05 48.25 479.21 48.15 478.83C48.03 478.37 47.81 477.72 47.34 477.49C44.86 476.28 42.37 475.07 39.89 473.86C39.35 473.58 39.45 474.88 39.48 475.09Z" fill="#00AEEF" fill-opacity="0.1"/>
<path d="M36.39 442.37C36.33 443.11 36.65 443.91 37.26 444.35L43.08 448.48C41.4 450.55 39.72 452.62 38.04 454.69C37.33 455.57 38.62 458.3 39.62 457.05C41.66 454.54 43.7 452.02 45.74 449.5C46.33 448.77 45.68 447.35 45.04 446.9L37.44 441.51C36.84 441.08 36.42 441.87 36.39 442.37Z" fill="#00AEEF" fill-opacity="0.1"/>
<path d="M36.92 417.06C37.01 417.62 37.24 418.53 37.81 418.81C39.5 419.63 41.19 420.45 42.87 421.28C41.3 422.97 39.74 424.67 38.17 426.36C37.57 427.01 38.7 429.78 39.25 429.18C41.35 426.91 43.46 424.63 45.56 422.36C45.88 422.02 45.69 421.18 45.59 420.8C45.47 420.34 45.25 419.69 44.78 419.46C42.3 418.25 39.81 417.04 37.33 415.83C36.79 415.55 36.89 416.86 36.92 417.06Z" fill="#00AEEF" fill-opacity="0.1"/>
<path d="M33.83 384.34C33.77 385.08 34.09 385.88 34.7 386.32L40.52 390.45C38.84 392.52 37.16 394.59 35.48 396.66C34.77 397.54 36.06 400.27 37.06 399.02C39.1 396.5 41.14 393.99 43.18 391.47C43.77 390.74 43.12 389.32 42.48 388.87L34.88 383.48C34.29 383.05 33.87 383.85 33.83 384.34Z" fill="#00AEEF" fill-opacity="0.1"/>
<path d="M34.03 355.72C34.12 356.28 34.35 357.19 34.92 357.47C36.61 358.29 38.3 359.11 39.98 359.94C38.41 361.63 36.85 363.33 35.28 365.02C34.68 365.67 35.81 368.44 36.36 367.84C38.46 365.57 40.57 363.29 42.67 361.02C42.99 360.68 42.8 359.84 42.7 359.46C42.58 359 42.36 358.35 41.89 358.12C39.41 356.91 36.92 355.7 34.44 354.49C33.9 354.21 34 355.51 34.03 355.72Z" fill="#00AEEF" fill-opacity="0.1"/>
<path d="M30.94 323C30.88 323.74 31.2 324.54 31.81 324.98L37.63 329.11C35.95 331.18 34.27 333.25 32.59 335.32C31.88 336.2 33.17 338.93 34.17 337.68C36.21 335.17 38.25 332.65 40.29 330.13C40.88 329.4 40.23 327.98 39.59 327.53L31.99 322.14C31.39 321.71 30.98 322.5 30.94 323Z" fill="#00AEEF" fill-opacity="0.1"/>
<path d="M17.04 462.77C17.13 463.33 17.36 464.24 17.93 464.52C19.62 465.34 21.31 466.16 22.99 466.99C21.42 468.68 19.86 470.38 18.29 472.07C17.69 472.72 18.82 475.49 19.37 474.89C21.47 472.62 23.58 470.34 25.68 468.07C26 467.73 25.81 466.89 25.71 466.51C25.59 466.05 25.37 465.4 24.9 465.17C22.42 463.96 19.93 462.75 17.45 461.54C16.91 461.27 17.01 462.57 17.04 462.77Z" fill="#00AEEF" fill-opacity="0.1"/>
<path d="M13.95 430.06C13.89 430.8 14.21 431.6 14.82 432.04L20.64 436.17C18.96 438.24 17.28 440.31 15.6 442.38C14.89 443.26 16.18 445.99 17.18 444.74C19.22 442.23 21.26 439.71 23.3 437.19C23.89 436.46 23.24 435.04 22.6 434.59L15 429.2C14.4 428.77 13.98 429.56 13.95 430.06Z" fill="#00AEEF" fill-opacity="0.1"/>
<path d="M14.48 404.75C14.57 405.31 14.8 406.22 15.37 406.5C17.06 407.32 18.75 408.14 20.43 408.97C18.86 410.66 17.3 412.36 15.73 414.05C15.13 414.7 16.26 417.47 16.81 416.87C18.91 414.6 21.02 412.32 23.12 410.05C23.44 409.71 23.25 408.87 23.15 408.49C23.03 408.03 22.81 407.38 22.34 407.15C19.86 405.94 17.37 404.73 14.89 403.52C14.35 403.24 14.45 404.54 14.48 404.75Z" fill="#00AEEF" fill-opacity="0.1"/>
<path d="M11.39 372.03C11.33 372.77 11.65 373.57 12.26 374.01L18.08 378.14C16.4 380.21 14.72 382.28 13.04 384.35C12.33 385.23 13.62 387.96 14.62 386.71C16.66 384.2 18.7 381.68 20.74 379.16C21.33 378.43 20.68 377.01 20.04 376.56L12.44 371.17C11.84 370.74 11.42 371.54 11.39 372.03Z" fill="#00AEEF" fill-opacity="0.1"/>
<path d="M11.59 343.41C11.68 343.97 11.91 344.88 12.48 345.16C14.17 345.98 15.86 346.8 17.54 347.63C15.97 349.32 14.41 351.02 12.84 352.71C12.24 353.36 13.37 356.13 13.92 355.53C16.02 353.26 18.13 350.98 20.23 348.71C20.55 348.37 20.36 347.53 20.26 347.15C20.14 346.69 19.92 346.04 19.45 345.81C16.97 344.6 14.48 343.39 12 342.18C11.46 341.9 11.56 343.2 11.59 343.41Z" fill="#00AEEF" fill-opacity="0.1"/>
<path d="M-3.17997 478.19C-3.08997 478.75 -2.85997 479.66 -2.28997 479.94C-0.599973 480.76 1.09003 481.58 2.77003 482.41C1.20003 484.1 -0.359972 485.8 -1.92997 487.49C-2.52997 488.14 -1.39997 490.91 -0.84997 490.31C1.25003 488.04 3.36003 485.76 5.46003 483.49C5.78003 483.15 5.59003 482.31 5.49003 481.93C5.37003 481.47 5.15003 480.82 4.68003 480.59C2.20003 479.38 -0.289972 478.17 -2.76997 476.96C-3.30997 476.68 -3.20997 477.98 -3.17997 478.19Z" fill="#00AEEF" fill-opacity="0.1"/>
<path d="M-6.27001 445.47C-6.33001 446.21 -6.01001 447.01 -5.40001 447.45L0.419988 451.58C-1.26001 453.65 -2.94001 455.72 -4.62001 457.79C-5.33001 458.67 -4.04001 461.4 -3.04001 460.15C-1.00001 457.64 1.03999 455.12 3.07999 452.6C3.66999 451.87 3.01999 450.45 2.37999 450L-5.22001 444.61C-5.82001 444.18 -6.24001 444.98 -6.27001 445.47Z" fill="#00AEEF" fill-opacity="0.1"/>
<path d="M-5.74003 420.17C-5.65003 420.73 -5.42003 421.64 -4.85003 421.92C-3.16003 422.74 -1.47003 423.56 0.20997 424.39C-1.36003 426.08 -2.92003 427.78 -4.49003 429.47C-5.09003 430.12 -3.96003 432.89 -3.41003 432.29C-1.31003 430.02 0.799973 427.74 2.89997 425.47C3.21997 425.13 3.02997 424.29 2.92997 423.91C2.80997 423.45 2.58997 422.8 2.11997 422.57C-0.36003 421.36 -2.85003 420.15 -5.33003 418.94C-5.87003 418.66 -5.77003 419.96 -5.74003 420.17Z" fill="#00AEEF" fill-opacity="0.1"/>
<path d="M-8.83001 387.45C-8.89001 388.19 -8.57001 388.99 -7.96001 389.43L-2.14001 393.56C-3.82001 395.63 -5.50001 397.7 -7.18001 399.77C-7.89001 400.65 -6.6 403.37 -5.6 402.13C-3.56 399.61 -1.52001 397.1 0.519993 394.58C1.10999 393.85 0.459993 392.43 -0.180007 391.98L-7.78001 386.59C-8.38001 386.16 -8.79001 386.95 -8.83001 387.45Z" fill="#00AEEF" fill-opacity="0.1"/>
</g>
<g clip-path="url(#clip3_132_3873)">
<path d="M39.39 124.37C39.33 125.11 39.65 125.91 40.26 126.35L46.08 130.48C44.4 132.55 42.72 134.62 41.04 136.69C40.33 137.57 41.62 140.3 42.62 139.05C44.66 136.54 46.7 134.02 48.74 131.5C49.33 130.77 48.68 129.35 48.04 128.9L40.44 123.51C39.84 123.08 39.42 123.87 39.39 124.37Z" fill="#00AEEF" fill-opacity="0.1"/>
<path d="M39.92 99.06C40.01 99.62 40.24 100.53 40.81 100.81C42.5 101.63 44.19 102.45 45.87 103.28C44.3 104.97 42.74 106.67 41.17 108.36C40.57 109.01 41.7 111.78 42.25 111.18C44.35 108.91 46.46 106.63 48.56 104.36C48.88 104.02 48.69 103.18 48.59 102.8C48.47 102.34 48.25 101.69 47.78 101.46C45.3 100.25 42.81 99.04 40.33 97.83C39.79 97.55 39.89 98.86 39.92 99.06Z" fill="#00AEEF" fill-opacity="0.1"/>
<path d="M36.83 66.34C36.77 67.08 37.09 67.88 37.7 68.32L43.52 72.45C41.84 74.52 40.16 76.59 38.48 78.66C37.77 79.54 39.06 82.27 40.06 81.02C42.1 78.5 44.14 75.99 46.18 73.47C46.77 72.74 46.12 71.32 45.48 70.87L37.88 65.48C37.29 65.05 36.87 65.85 36.83 66.34Z" fill="#00AEEF" fill-opacity="0.1"/>
<path d="M20.04 144.77C20.13 145.33 20.36 146.24 20.93 146.52C22.62 147.34 24.31 148.16 25.99 148.99C24.42 150.68 22.86 152.38 21.29 154.07C20.69 154.72 21.82 157.49 22.37 156.89C24.47 154.62 26.58 152.34 28.68 150.07C29 149.73 28.81 148.89 28.71 148.51C28.59 148.05 28.37 147.4 27.9 147.17C25.42 145.96 22.93 144.75 20.45 143.54C19.91 143.27 20.01 144.57 20.04 144.77Z" fill="#00AEEF" fill-opacity="0.1"/>
<path d="M16.95 112.06C16.89 112.8 17.21 113.6 17.82 114.04L23.64 118.17C21.96 120.24 20.28 122.31 18.6 124.38C17.89 125.26 19.18 127.99 20.18 126.74C22.22 124.23 24.26 121.71 26.3 119.19C26.89 118.46 26.24 117.04 25.6 116.59L18 111.2C17.4 110.77 16.98 111.56 16.95 112.06Z" fill="#00AEEF" fill-opacity="0.1"/>
<path d="M17.48 86.75C17.57 87.31 17.8 88.22 18.37 88.5C20.06 89.32 21.75 90.14 23.43 90.97C21.86 92.66 20.3 94.36 18.73 96.05C18.13 96.7 19.26 99.47 19.81 98.87C21.91 96.6 24.02 94.32 26.12 92.05C26.44 91.71 26.25 90.87 26.15 90.49C26.03 90.03 25.81 89.38 25.34 89.15C22.86 87.94 20.37 86.73 17.89 85.52C17.35 85.24 17.45 86.54 17.48 86.75Z" fill="#00AEEF" fill-opacity="0.1"/>
<path d="M-0.179972 160.19C-0.0899722 160.75 0.140027 161.66 0.710027 161.94C2.40003 162.76 4.09003 163.58 5.77003 164.41C4.20003 166.1 2.64003 167.8 1.07003 169.49C0.470028 170.14 1.60003 172.91 2.15003 172.31C4.25003 170.04 6.36003 167.76 8.46003 165.49C8.78003 165.15 8.59003 164.31 8.49003 163.93C8.37003 163.47 8.15003 162.82 7.68003 162.59C5.20003 161.38 2.71003 160.17 0.230028 158.96C-0.309972 158.68 -0.209972 159.98 -0.179972 160.19Z" fill="#00AEEF" fill-opacity="0.1"/>
<path d="M-3.27001 127.47C-3.33001 128.21 -3.01001 129.01 -2.40001 129.45L3.41999 133.58C1.73999 135.65 0.0599907 137.72 -1.62001 139.79C-2.33001 140.67 -1.04001 143.4 -0.0400109 142.15C1.99999 139.64 4.03999 137.12 6.07999 134.6C6.66999 133.87 6.01999 132.45 5.37999 132L-2.22001 126.61C-2.82001 126.18 -3.24001 126.98 -3.27001 127.47Z" fill="#00AEEF" fill-opacity="0.1"/>
<path d="M-2.74003 102.17C-2.65003 102.73 -2.42003 103.64 -1.85003 103.92C-0.160027 104.74 1.52997 105.56 3.20997 106.39C1.63997 108.08 0.0799697 109.78 -1.49003 111.47C-2.09003 112.12 -0.960028 114.89 -0.410028 114.29C1.68997 112.02 3.79997 109.74 5.89997 107.47C6.21997 107.13 6.02997 106.29 5.92997 105.91C5.80997 105.45 5.58997 104.8 5.11997 104.57C2.63997 103.36 0.149969 102.15 -2.33003 100.94C-2.87003 100.66 -2.77003 101.96 -2.74003 102.17Z" fill="#00AEEF" fill-opacity="0.1"/>
<path d="M-5.83001 69.45C-5.89001 70.19 -5.57001 70.99 -4.96001 71.43L0.859994 75.56C-0.820006 77.63 -2.50001 79.7 -4.18001 81.77C-4.89001 82.65 -3.6 85.37 -2.6 84.13C-0.560005 81.61 1.47999 79.1 3.51999 76.58C4.10999 75.85 3.45999 74.43 2.81999 73.98L-4.78001 68.59C-5.38001 68.16 -5.79001 68.95 -5.83001 69.45Z" fill="#00AEEF" fill-opacity="0.1"/>
</g>
<defs>
<clipPath id="clip0_132_3873">
<rect width="174.71" height="93.31" fill="white" transform="translate(70.6868 595.147) rotate(-179.066)"/>
</clipPath>
<clipPath id="clip1_132_3873">
<rect width="174.71" height="93.31" fill="white" transform="translate(-35 325.71) rotate(-90)"/>
</clipPath>
<clipPath id="clip2_132_3873">
<rect width="174.71" height="93.31" fill="white" transform="translate(-45 492.71) rotate(-90)"/>
</clipPath>
<clipPath id="clip3_132_3873">
<rect width="174.71" height="93.31" fill="white" transform="translate(-42 174.71) rotate(-90)"/>
</clipPath>
</defs>
</svg>
