<svg width="83" height="180" viewBox="0 0 83 180" fill="none" xmlns="http://www.w3.org/2000/svg">
<g clip-path="url(#clip0_132_3856)">
<path d="M18.6591 128.176C18.754 128.913 18.4722 129.727 17.8837 130.195L12.2653 134.595C14.0413 136.584 15.8172 138.572 17.5932 140.56C18.344 141.406 17.1844 144.194 16.1265 142.992C13.9701 140.582 11.8133 138.161 9.65653 135.74C9.03269 135.039 9.61485 133.59 10.2329 133.11L17.5697 127.367C18.1487 126.909 18.6055 127.678 18.6591 128.176Z" fill="#00AEEF" fill-opacity="0.1"/>
<path d="M16.9336 102.919C16.8701 103.483 16.6834 104.403 16.1273 104.71C14.4779 105.609 12.8285 106.507 11.1896 107.416C12.8378 109.03 14.4764 110.654 16.1245 112.268C16.7545 112.889 15.7567 115.709 15.1789 115.136C12.974 112.968 10.7586 110.79 8.55369 108.622C8.21798 108.297 8.36807 107.449 8.45 107.065C8.54813 106.6 8.73716 105.94 9.19577 105.688C11.6158 104.362 14.0458 103.036 16.4659 101.71C16.9921 101.405 16.9541 102.718 16.9336 102.919Z" fill="#00AEEF" fill-opacity="0.1"/>
<path d="M18.4738 70.09C18.5687 70.8264 18.2869 71.6406 17.6984 72.109L12.0801 76.5094C13.856 78.4977 15.6319 80.486 17.4079 82.4743C18.1587 83.3197 16.9991 86.1076 15.9412 84.9063C13.7844 82.4855 11.628 80.0747 9.47123 77.6539C8.84739 76.9526 9.42955 75.5035 10.0476 75.0238L17.3844 69.2806C17.9534 68.8232 18.4107 69.6025 18.4738 70.09Z" fill="#00AEEF" fill-opacity="0.1"/>
<path d="M38.9516 147.639C38.8882 148.203 38.7015 149.122 38.1453 149.429C36.496 150.328 34.8466 151.227 33.2077 152.135C34.8558 153.749 36.4944 155.374 38.1425 156.988C38.7726 157.609 37.7747 160.429 37.197 159.856C34.9921 157.687 32.7767 155.51 30.5718 153.341C30.236 153.017 30.3861 152.169 30.4681 151.784C30.5662 151.319 30.7552 150.66 31.2138 150.408C33.6339 149.082 36.0639 147.756 38.484 146.43C39.0106 146.134 38.9721 147.438 38.9516 147.639Z" fill="#00AEEF" fill-opacity="0.1"/>
<path d="M40.4924 114.819C40.5873 115.556 40.3055 116.37 39.7169 116.838L34.0986 121.239C35.8746 123.227 37.6505 125.215 39.4264 127.204C40.1772 128.049 39.0177 130.837 37.9597 129.636C35.8034 127.225 33.6466 124.804 31.4898 122.383C30.8659 121.682 31.4481 120.233 32.0661 119.753L39.4029 114.01C39.9819 113.552 40.4388 114.321 40.4924 114.819Z" fill="#00AEEF" fill-opacity="0.1"/>
<path d="M38.7668 89.5628C38.7034 90.1264 38.5166 91.0463 37.9605 91.3529C36.3112 92.2519 34.6618 93.1508 33.0229 94.0593C34.671 95.6732 36.3096 97.2976 37.9577 98.9115C38.5878 99.5324 37.5899 102.353 37.0122 101.779C34.8073 99.6112 32.5919 97.4334 30.3869 95.2652C30.0512 94.9407 30.2013 94.0927 30.2832 93.7084C30.3814 93.2432 30.5704 92.5835 31.029 92.3316C33.4491 91.0057 35.8791 89.6794 38.2991 88.3536C38.8253 88.0483 38.7869 89.3516 38.7668 89.5628Z" fill="#00AEEF" fill-opacity="0.1"/>
<path d="M59.8777 162.086C59.8142 162.65 59.6275 163.57 59.0714 163.876C57.422 164.775 55.7726 165.674 54.1337 166.583C55.7818 168.197 57.4204 169.821 59.0686 171.435C59.6986 172.056 58.7008 174.876 58.123 174.303C55.9181 172.135 53.7027 169.957 51.4978 167.789C51.1621 167.464 51.3122 166.616 51.3941 166.232C51.4922 165.767 51.6813 165.107 52.1399 164.855C54.5599 163.529 56.9899 162.203 59.41 160.877C59.9362 160.572 59.8977 161.875 59.8777 162.086Z" fill="#00AEEF" fill-opacity="0.1"/>
<path d="M61.4179 129.257C61.5128 129.993 61.231 130.807 60.6425 131.276L55.0241 135.676C56.8001 137.664 58.576 139.653 60.352 141.641C61.1028 142.486 59.9432 145.274 58.8853 144.073C56.7289 141.662 54.5721 139.241 52.4153 136.821C51.7915 136.119 52.3736 134.67 52.9917 134.19L60.3285 128.447C60.9075 127.989 61.3648 128.769 61.4179 129.257Z" fill="#00AEEF" fill-opacity="0.1"/>
<path d="M59.6931 104.01C59.6297 104.574 59.4429 105.493 58.8868 105.8C57.2374 106.699 55.5881 107.598 53.9492 108.506C55.5973 110.12 57.2359 111.745 58.884 113.359C59.514 113.98 58.5162 116.8 57.9385 116.227C55.7335 114.058 53.5181 111.881 51.3132 109.712C50.9775 109.388 51.1276 108.54 51.2095 108.156C51.3076 107.69 51.4967 107.031 51.9553 106.779C54.3753 105.453 56.8054 104.127 59.2254 102.801C59.7516 102.496 59.7131 103.799 59.6931 104.01Z" fill="#00AEEF" fill-opacity="0.1"/>
<path d="M61.2333 71.1805C61.3282 71.9169 61.0463 72.7311 60.4578 73.1994L54.8395 77.5999C56.6154 79.5882 58.3914 81.5765 60.1673 83.5647C60.9181 84.4102 59.7581 87.1881 58.7006 85.9968C56.5438 83.576 54.3875 81.1652 52.2307 78.7444C51.6068 78.0431 52.189 76.594 52.807 76.1143L60.1438 70.3711C60.7228 69.9132 61.1697 70.683 61.2333 71.1805Z" fill="#00AEEF" fill-opacity="0.1"/>
<path d="M80.2439 152.423C80.1804 152.987 79.9937 153.906 79.4376 154.213C77.7882 155.112 76.1388 156.011 74.4999 156.919C76.1481 158.533 77.7867 160.158 79.4348 161.772C80.0648 162.393 79.067 165.213 78.4892 164.639C76.2843 162.471 74.0689 160.294 71.864 158.125C71.5283 157.801 71.6784 156.953 71.7603 156.568C71.8584 156.103 72.0475 155.444 72.5061 155.192C74.9261 153.866 77.3562 152.54 79.7762 151.214C80.3024 150.908 80.2639 152.212 80.2439 152.423Z" fill="#00AEEF" fill-opacity="0.1"/>
<path d="M81.7841 119.593C81.879 120.33 81.5971 121.144 81.0086 121.612L75.3903 126.013C77.1662 128.001 78.9422 129.989 80.7181 131.978C81.4689 132.823 80.3089 135.601 79.2514 134.41C77.0951 131.999 74.9383 129.578 72.7815 127.157C72.1576 126.456 72.7398 125.007 73.3578 124.527L80.6946 118.784C81.2736 118.326 81.7305 119.095 81.7841 119.593Z" fill="#00AEEF" fill-opacity="0.1"/>
<path d="M80.0591 94.1365C80.0533 94.2269 80.0566 94.2968 80.0485 94.3373C79.9851 94.9009 79.7984 95.8207 79.2422 96.1274C77.5929 97.0263 75.9435 97.9253 74.3046 98.8337C75.9527 100.448 77.5913 102.072 79.2394 103.686C79.8695 104.307 78.8716 107.127 78.2939 106.554C76.089 104.386 73.8736 102.208 71.6686 100.04C71.3329 99.7151 71.483 98.8671 71.565 98.4828C71.6631 98.0176 71.8521 97.358 72.3107 97.106C74.4577 95.9333 76.6142 94.75 78.7612 93.5772C78.9457 93.6686 79.1293 93.74 79.3224 93.801C79.5587 93.93 79.8046 94.0485 80.0591 94.1365Z" fill="#00AEEF" fill-opacity="0.1"/>
</g>
<defs>
<clipPath id="clip0_132_3856">
<rect width="174.71" height="93.31" fill="white" transform="matrix(-0.0472579 -0.998883 -0.998883 0.0472579 102.337 174.614)"/>
</clipPath>
</defs>
</svg>
