<svg xmlns="http://www.w3.org/2000/svg" xmlns:xlink="http://www.w3.org/1999/xlink" width="73" height="596" fill="none" xmlns:v="https://vecta.io/nano"><g fill="#00aeef"><g clip-path="url(#A)" fill-opacity=".1"><path d="M54.447 510.39c.561-.08 1.475-.296 1.764-.861l2.552-5.019 5.003 4.782c.64.611 3.428-.474 2.837-1.034l-6.716-6.42c-.335-.325-1.178-.149-1.559-.055-.462.112-1.115.321-1.353.788l-3.751 7.389c-.289.536 1.013.457 1.223.43zm-32.766 2.557c.739.072 1.544-.235 1.994-.838l4.224-5.752 6.127 5.141c.868.724 3.619-.521 2.385-1.542l-7.449-6.242c-.72-.602-2.151.025-2.611.658l-5.513 7.511c-.44.593.343 1.025.843 1.064zm-25.298-.943c.561-.081 1.475-.296 1.764-.861l2.552-5.02 5.003 4.783c.64.61 3.428-.474 2.837-1.034l-6.716-6.421c-.335-.325-1.178-.149-1.559-.055-.462.112-1.115.322-1.353.788l-3.751 7.39c-.289.535 1.023.457 1.223.43zm45.379 20.623c.561-.081 1.475-.296 1.764-.862l2.552-5.019 5.003 4.782c.64.611 3.428-.474 2.837-1.033l-6.716-6.421c-.335-.325-1.178-.149-1.559-.055-.462.112-1.115.322-1.353.788l-3.751 7.39c-.279.535 1.023.456 1.223.43zm-32.756 2.556c.739.072 1.544-.235 1.994-.838l4.224-5.752 6.127 5.141c.868.724 3.619-.521 2.386-1.541l-7.449-6.243c-.72-.602-2.151.025-2.611.658l-5.513 7.511c-.44.593.343 1.026.843 1.064zm47.845 17.912c.561-.081 1.475-.296 1.764-.861l2.552-5.019 5.003 4.782c.64.611 3.428-.474 2.837-1.034l-6.716-6.42c-.335-.326-1.178-.149-1.559-.056-.462.113-1.115.322-1.353.788l-3.751 7.39c-.289.536 1.013.457 1.223.43zm-32.766 2.556c.739.072 1.544-.234 1.994-.837l4.224-5.752 6.127 5.14c.868.725 3.619-.521 2.385-1.541l-7.449-6.242c-.72-.602-2.151.025-2.611.657l-5.513 7.511c-.44.593.353 1.026.843 1.064zm-25.288-.942c.561-.081 1.475-.296 1.764-.861l2.552-5.019 5.003 4.782c.64.61 3.428-.474 2.837-1.034l-6.716-6.42c-.335-.326-1.178-.15-1.559-.056-.462.113-1.115.322-1.353.788l-3.751 7.39c-.289.535 1.013.457 1.223.43zm49.026 19.042c.561-.081 1.475-.296 1.764-.861l2.552-5.02 5.003 4.783c.64.61 3.428-.474 2.837-1.034l-6.716-6.421c-.335-.325-1.178-.149-1.559-.055-.462.112-1.115.322-1.353.788l-3.751 7.39c-.289.535 1.013.456 1.223.43zm-32.766 2.556c.739.072 1.544-.235 1.994-.838l4.224-5.752 6.127 5.141c.868.724 3.609-.521 2.385-1.541l-7.449-6.243c-.72-.601-2.151.025-2.611.658l-5.513 7.511c-.44.593.343 1.026.843 1.064zm-25.498-.936l.2-.017c.561-.081 1.475-.296 1.764-.861l2.552-5.019 5.003 4.782c.64.611 3.428-.474 2.837-1.034l-6.716-6.42c-.335-.326-1.178-.149-1.559-.056-.462.113-1.115.322-1.353.788l-3.327 6.557a3.92 3.92 0 0 1 .241.554c.136.232.262.474.358.726zm43.702 18.605c.438.137.825.344 1.171.579a2.23 2.23 0 0 0 .264-.265l4.215-5.763 6.127 5.141a.83.83 0 0 0 .129.082l.581-.07.759.082c.905-.275 1.687-1.003.917-1.645l-7.449-6.243c-.72-.601-2.151.025-2.611.658l-4.848 6.612a6.08 6.08 0 0 1 .441.567c.109.082.207.183.306.265zm-25.426-2.315c.57.01 1.158.129 1.716.238l.289.075 1.87-3.69 4.146 3.968.712-.098 1.805-.281a5.82 5.82 0 0 1 .823-.197l-6.352-6.074c-.335-.325-1.178-.149-1.559-.055-.462.112-1.115.322-1.353.788l-2.718 5.366.621-.04z"/></g><g clip-path="url(#B)" fill-opacity=".1"><use xlink:href="#E"/><use xlink:href="#F"/><use xlink:href="#G"/><use xlink:href="#H"/><path d="M44.03 188.72c.09.56.32 1.47.89 1.75l5.06 2.47-4.7 5.08c-.6.65.53 3.42 1.08 2.82l6.31-6.82c.32-.34.13-1.18.03-1.56-.12-.46-.34-1.11-.81-1.34l-7.45-3.63c-.54-.28-.44 1.02-.41 1.23z"/><use xlink:href="#I"/><use xlink:href="#J"/><path d="M23.95 263.06c-.06.74.26 1.54.87 1.98l5.82 4.13-5.04 6.21c-.71.88.58 3.61 1.58 2.36l6.12-7.55c.59-.73-.06-2.15-.7-2.6L25 262.2c-.6-.43-1.02.36-1.05.86zm.53-25.31c.09.56.32 1.47.89 1.75l5.06 2.47-4.7 5.08c-.6.65.53 3.42 1.08 2.82l6.31-6.82c.32-.34.13-1.18.03-1.56-.12-.46-.34-1.11-.81-1.34l-7.45-3.63c-.54-.28-.44 1.02-.41 1.23z"/><use xlink:href="#K"/><path d="M21.59 176.41c.09.56.32 1.47.89 1.75l5.06 2.47-4.7 5.08c-.6.65.53 3.42 1.08 2.82l6.31-6.82c.32-.34.13-1.18.03-1.56-.12-.46-.34-1.11-.81-1.34L22 175.18c-.54-.28-.44 1.02-.41 1.23zM6.82 311.19c.09.56.32 1.47.89 1.75l5.06 2.47-4.7 5.08c-.6.65.53 3.42 1.08 2.82l6.31-6.82c.32-.34.13-1.18.03-1.56-.12-.46-.34-1.11-.81-1.34l-7.45-3.63c-.54-.28-.44 1.02-.41 1.23zm-3.09-32.72c-.06.74.26 1.54.87 1.98l5.82 4.13-5.04 6.21c-.71.88.58 3.61 1.58 2.36l6.12-7.55c.59-.73-.06-2.15-.7-2.6l-7.6-5.39c-.6-.43-1.02.37-1.05.86zm.53-25.3c.09.56.32 1.47.89 1.75l5.06 2.47-4.7 5.08c-.6.65.53 3.42 1.08 2.82l6.31-6.82c.32-.34.13-1.18.03-1.56-.12-.46-.34-1.11-.81-1.34l-7.45-3.63c-.54-.28-.44 1.02-.41 1.23z"/><use xlink:href="#L"/></g><g clip-path="url(#C)" fill-opacity=".1"><path d="M39.48 475.09c.09.56.32 1.47.89 1.75l5.06 2.47-4.7 5.08c-.6.65.53 3.42 1.08 2.82l6.31-6.82c.32-.34.13-1.18.03-1.56-.12-.46-.34-1.11-.81-1.34l-7.45-3.63c-.54-.28-.44 1.02-.41 1.23zm-3.09-32.72c-.06.74.26 1.54.87 1.98l5.82 4.13-5.04 6.21c-.71.88.58 3.61 1.58 2.36l6.12-7.55c.59-.73-.06-2.15-.7-2.6l-7.6-5.39c-.6-.43-1.02.36-1.05.86zm.53-25.31c.09.56.32 1.47.89 1.75l5.06 2.47-4.7 5.08c-.6.65.53 3.42 1.08 2.82l6.31-6.82c.32-.34.13-1.18.03-1.56-.12-.46-.34-1.11-.81-1.34l-7.45-3.63c-.54-.28-.44 1.03-.41 1.23zm-3.09-32.72c-.06.74.26 1.54.87 1.98l5.82 4.13-5.04 6.21c-.71.88.58 3.61 1.58 2.36l6.12-7.55c.59-.73-.06-2.15-.7-2.6l-7.6-5.39c-.59-.43-1.01.37-1.05.86zm.2-28.62c.09.56.32 1.47.89 1.75l5.06 2.47-4.7 5.08c-.6.65.53 3.42 1.08 2.82l6.31-6.82c.32-.34.13-1.18.03-1.56-.12-.46-.34-1.11-.81-1.34l-7.45-3.63c-.54-.28-.44 1.02-.41 1.23zM30.94 323c-.06.74.26 1.54.87 1.98l5.82 4.13-5.04 6.21c-.71.88.58 3.61 1.58 2.36l6.12-7.55c.59-.73-.06-2.15-.7-2.6l-7.6-5.39c-.6-.43-1.01.36-1.05.86zm-13.9 139.77c.09.56.32 1.47.89 1.75l5.06 2.47-4.7 5.08c-.6.65.53 3.42 1.08 2.82l6.31-6.82c.32-.34.13-1.18.03-1.56-.12-.46-.34-1.11-.81-1.34l-7.45-3.63c-.54-.27-.44 1.03-.41 1.23zm-3.09-32.71c-.06.74.26 1.54.87 1.98l5.82 4.13-5.04 6.21c-.71.88.58 3.61 1.58 2.36l6.12-7.55c.59-.73-.06-2.15-.7-2.6L15 429.2c-.6-.43-1.02.36-1.05.86zm.53-25.31c.09.56.32 1.47.89 1.75l5.06 2.47-4.7 5.08c-.6.65.53 3.42 1.08 2.82l6.31-6.82c.32-.34.13-1.18.03-1.56-.12-.46-.34-1.11-.81-1.34l-7.45-3.63c-.54-.28-.44 1.02-.41 1.23zm-3.09-32.72c-.06.74.26 1.54.87 1.98l5.82 4.13-5.04 6.21c-.71.88.58 3.61 1.58 2.36l6.12-7.55c.59-.73-.06-2.15-.7-2.6l-7.6-5.39c-.6-.43-1.02.37-1.05.86zm.2-28.62c.09.56.32 1.47.89 1.75l5.06 2.47-4.7 5.08c-.6.65.53 3.42 1.08 2.82l6.31-6.82c.32-.34.13-1.18.03-1.56-.12-.46-.34-1.11-.81-1.34L12 342.18c-.54-.28-.44 1.02-.41 1.23zM-3.18 478.19c.09.56.32 1.47.89 1.75l5.06 2.47-4.7 5.08c-.6.65.53 3.42 1.08 2.82l6.31-6.82c.32-.34.13-1.18.03-1.56-.12-.46-.34-1.11-.81-1.34l-7.45-3.63c-.54-.28-.44 1.02-.41 1.23zm-3.09-32.72c-.06.74.26 1.54.87 1.98l5.82 4.13-5.04 6.21c-.71.88.58 3.61 1.58 2.36l6.12-7.55c.59-.73-.06-2.15-.7-2.6l-7.6-5.39c-.6-.43-1.02.37-1.05.86zm.53-25.3c.09.56.32 1.47.89 1.75l5.06 2.47-4.7 5.08c-.6.65.53 3.42 1.08 2.82l6.31-6.82c.32-.34.13-1.18.03-1.56-.12-.46-.34-1.11-.81-1.34l-7.45-3.63c-.54-.28-.44 1.02-.41 1.23zm-3.09-32.72c-.06.74.26 1.54.87 1.98l5.82 4.13-5.04 6.21c-.71.88.58 3.6 1.58 2.36l6.12-7.55c.59-.73-.06-2.15-.7-2.6l-7.6-5.39c-.6-.43-1.01.36-1.05.86z"/></g><g clip-path="url(#D)" fill-opacity=".1"><path d="M39.39 124.37c-.06.74.26 1.54.87 1.98l5.82 4.13-5.04 6.21c-.71.88.58 3.61 1.58 2.36l6.12-7.55c.59-.73-.06-2.15-.7-2.6l-7.6-5.39c-.6-.43-1.02.36-1.05.86zm.53-25.31c.09.56.32 1.47.89 1.75l5.06 2.47-4.7 5.08c-.6.65.53 3.42 1.08 2.82l6.31-6.82c.32-.34.13-1.18.03-1.56-.12-.46-.34-1.11-.81-1.34l-7.45-3.63c-.54-.28-.44 1.03-.41 1.23zm-3.09-32.72c-.06.74.26 1.54.87 1.98l5.82 4.13-5.04 6.21c-.71.88.58 3.61 1.58 2.36l6.12-7.55c.59-.73-.06-2.15-.7-2.6l-7.6-5.39c-.59-.43-1.01.37-1.05.86zm-16.79 78.43c.09.56.32 1.47.89 1.75l5.06 2.47-4.7 5.08c-.6.65.53 3.42 1.08 2.82l6.31-6.82c.32-.34.13-1.18.03-1.56-.12-.46-.34-1.11-.81-1.34l-7.45-3.63c-.54-.27-.44 1.03-.41 1.23zm-3.09-32.71c-.06.74.26 1.54.87 1.98l5.82 4.13-5.04 6.21c-.71.88.58 3.61 1.58 2.36l6.12-7.55c.59-.73-.06-2.15-.7-2.6L18 111.2c-.6-.43-1.02.36-1.05.86zm.53-25.31c.09.56.32 1.47.89 1.75l5.06 2.47-4.7 5.08c-.6.65.53 3.42 1.08 2.82l6.31-6.82c.32-.34.13-1.18.03-1.56-.12-.46-.34-1.11-.81-1.34l-7.45-3.63c-.54-.28-.44 1.02-.41 1.23zM-.18 160.19c.09.56.32 1.47.89 1.75l5.06 2.47-4.7 5.08c-.6.65.53 3.42 1.08 2.82l6.31-6.82c.32-.34.13-1.18.03-1.56-.12-.46-.34-1.11-.81-1.34l-7.45-3.63c-.54-.28-.44 1.02-.41 1.23zm-3.09-32.72c-.06.74.26 1.54.87 1.98l5.82 4.13-5.04 6.21c-.71.88.58 3.61 1.58 2.36l6.12-7.55c.59-.73-.06-2.15-.7-2.6l-7.6-5.39c-.6-.43-1.02.37-1.05.86zm.53-25.3c.09.56.32 1.47.89 1.75l5.06 2.47-4.7 5.08c-.6.65.53 3.42 1.08 2.82l6.31-6.82c.32-.34.13-1.18.03-1.56-.12-.46-.34-1.11-.81-1.34l-7.45-3.63c-.54-.28-.44 1.02-.41 1.23zm-3.09-32.72c-.06.74.26 1.54.87 1.98l5.82 4.13-5.04 6.21c-.71.88.58 3.6 1.58 2.36l6.12-7.55c.59-.73-.06-2.15-.7-2.6l-7.6-5.39c-.6-.43-1.01.36-1.05.86z"/></g></g><defs><clipPath id="A"><path fill="#fff" transform="matrix(-.999867 -.016301 .016301 -.999867 70.6868 595.147)" d="M0 0h174.71v93.31H0z"/></clipPath><clipPath id="B"><path fill="#fff" transform="matrix(0 -1 1 0 -35 325.71)" d="M0 0h174.71v93.31H0z"/></clipPath><clipPath id="C"><path fill="#fff" transform="matrix(0 -1 1 0 -45 492.71)" d="M0 0h174.71v93.31H0z"/></clipPath><clipPath id="D"><path fill="#fff" transform="matrix(0 -1 1 0 -42 174.71)" d="M0 0h174.71v93.31H0z"/></clipPath><path id="E" d="M49.48 308.09c.09.56.32 1.47.89 1.75l5.06 2.47-4.7 5.08c-.6.65.53 3.42 1.08 2.82l6.31-6.82c.32-.34.13-1.18.03-1.56-.12-.46-.34-1.11-.81-1.34l-7.45-3.63c-.54-.28-.44 1.02-.41 1.23z"/><path id="F" d="M46.39 275.37c-.06.74.26 1.54.87 1.98l5.82 4.13-5.04 6.21c-.71.88.58 3.61 1.58 2.36l6.12-7.55c.59-.73-.06-2.15-.7-2.6l-7.6-5.39c-.6-.43-1.02.36-1.05.86z"/><path id="G" d="M46.92 250.06c.09.56.32 1.47.89 1.75l5.06 2.47-4.7 5.08c-.6.65.53 3.42 1.08 2.82l6.31-6.82c.32-.34.13-1.18.03-1.56-.12-.46-.34-1.11-.81-1.34l-7.45-3.63c-.54-.28-.44 1.03-.41 1.23z"/><path id="H" d="M43.83 217.34c-.06.74.26 1.54.87 1.98l5.82 4.13-5.04 6.21c-.71.88.58 3.61 1.58 2.36l6.12-7.55c.59-.73-.06-2.15-.7-2.6l-7.6-5.39c-.59-.43-1.01.37-1.05.86z"/><path id="I" d="M40.94 156c-.06.74.26 1.54.87 1.98l5.82 4.13-5.04 6.21c-.71.88.58 3.61 1.58 2.36l6.12-7.55c.59-.73-.06-2.15-.7-2.6l-7.6-5.39c-.6-.43-1.01.36-1.05.86z"/><path id="J" d="M27.04 295.77c.09.56.32 1.47.89 1.75l5.06 2.47-4.7 5.08c-.6.65.53 3.42 1.08 2.82l6.31-6.82c.32-.34.13-1.18.03-1.56-.12-.46-.34-1.11-.81-1.34l-7.45-3.63c-.54-.27-.44 1.03-.41 1.23z"/><path id="K" d="M21.39 205.03c-.06.74.26 1.54.87 1.98l5.82 4.13-5.04 6.21c-.71.88.58 3.61 1.58 2.36l6.12-7.55c.59-.73-.06-2.15-.7-2.6l-7.6-5.39c-.6-.43-1.02.37-1.05.86z"/><path id="L" d="M1.17 220.45c-.06.74.26 1.54.87 1.98l5.82 4.13-5.04 6.21c-.71.88.58 3.6 1.58 2.36l6.12-7.55c.59-.73-.06-2.15-.7-2.6l-7.6-5.39c-.6-.43-1.01.36-1.05.86z"/></defs></svg>