<svg width="390" height="507" viewBox="0 0 390 507" fill="none" xmlns="http://www.w3.org/2000/svg">
<path d="M1308.63 12.8104C1309.41 10.3992 1308.93 8.61131 1307.17 7.31552C1306.43 6.75783 1305.53 6.93826 1304.86 6.38057C1302.25 4.21544 1299.42 5.28161 1296.69 5.01917C1295.74 5.11758 1294.79 5.16679 1293.85 5.33081C1290.26 5.9049 1286.65 6.18374 1283.08 7.10228C1279.3 7.11869 1275.54 6.83984 1271.78 7.36472C1271.68 6.5446 1272.26 6.72503 1272.31 6.18374C1270.65 6.15094 1269.07 6.75783 1267.47 7.13509C1264.17 7.92241 1260.89 8.72613 1257.51 8.26686C1256.79 8.16845 1256.36 7.77479 1256.29 6.83984C1256.24 5.9213 1256.84 5.75728 1257.31 5.57685C1257.78 5.39642 1258.24 5.28161 1258.71 5.13398C1258.69 5.05197 1258.66 4.95356 1258.65 4.87154C1256.44 4.83874 1254.24 4.80593 1251.88 4.77313C1252.46 5.38002 1253.06 5.39642 1253.33 6.20015C1253.2 6.31496 1253.07 6.49539 1252.97 6.47899C1252.04 6.31496 1251.1 6.11813 1250.17 5.9213C1249.42 5.31441 1248.61 5.41283 1247.79 5.39642C1247.35 5.03557 1246.86 5.03557 1246.37 5.08478C1246.05 5.03557 1245.73 5.00276 1245.41 4.95356C1244.85 4.49429 1244.25 4.5927 1243.65 4.5763C1243.09 4.31386 1242.97 5.2652 1242.56 5.41283C1241.77 5.59325 1240.97 5.82289 1240.17 5.97051C1239.68 6.06893 1239.11 6.33137 1238.72 5.8885C1238.39 5.52764 1238.93 4.74032 1238.63 4.13343C1236.76 4.44508 1234.92 4.77313 1233.08 5.06837C1232.69 5.13398 1232.08 5.34722 1231.91 5.05197C1230.64 3.01806 1228.98 3.42812 1227.38 3.2805C1223.9 2.96885 1220.43 3.14928 1216.97 3.75617C1216.25 3.83819 1215.53 3.87099 1214.81 4.01861C1211.48 4.74032 1208.16 5.54405 1204.6 5.11758C1205.65 3.953 1205.24 3.2969 1204.35 3.01806C1203.43 2.73922 1202.52 2.34556 1201.55 2.72282C1199.72 3.42812 1197.88 4.06782 1196.05 4.74032C1192.65 5.52764 1189.25 4.77313 1185.85 4.92075C1185.84 4.70752 1185.84 4.51069 1185.83 4.29746C1189.37 3.59215 1192.89 2.90324 1196.43 2.19794C1196.43 2.13233 1196.43 2.08312 1196.44 2.01751C1195.6 1.82068 1194.77 1.62385 1193.93 1.44342C1193.51 1.44342 1193.08 1.42702 1192.66 1.42702C1192 1.41062 1191.35 1.41062 1190.7 1.39421C1190.79 1.14818 1190.89 0.98415 1191 0.869333C1190.96 0.85293 1190.91 0.85293 1190.87 0.836528C1190.88 0.803723 1190.89 0.78732 1190.9 0.770918C1190.99 0.754515 1191.08 0.754515 1191.16 0.754515C1191.5 0.557685 1191.91 0.688905 1192.31 0.72171C1192.33 0.639698 1192.37 0.557685 1192.38 0.45927C1192.38 0.426465 1192.33 0.344453 1192.29 0.344453C1191.48 0.32805 1190.65 0.32805 1189.83 0.311648C1189.97 0.475673 1190.11 0.6561 1190.24 0.820125C1190.08 0.820125 1189.92 0.820125 1189.78 0.803723C1189.18 0.770918 1188.56 0.885735 1188.02 0.410063C1187.96 0.344453 1187.94 0.278843 1187.93 0.19683C1187.93 0.19683 1187.92 0.19683 1187.91 0.19683C1187.46 0.738113 1187.02 0.738113 1186.58 0.360855C1186.42 0.377258 1186.25 0.39366 1186.09 0.426465C1186.05 0.442868 1186 0.45927 1185.94 0.475673C1185.65 0.574088 1185.35 0.59049 1185.06 0.557685C1183.96 0.705308 1182.85 0.836528 1181.75 0.934943C1182.39 0.951345 1183.03 0.98415 1183.66 1.00055L1186.86 1.04976C1183.76 2.78843 1180.5 2.80483 1177.3 3.2641C1174.82 3.06727 1172.31 3.57575 1169.69 3.01806C1169.67 2.96885 1169.65 2.95245 1169.64 2.90324C1169.64 2.88684 1169.64 2.87044 1169.63 2.85404C1170.17 1.88629 1170.93 1.88629 1171.51 1.23019C1170.76 1.21379 1170.1 1.21379 1169.44 1.19738C1167.63 1.01696 1165.8 0.836528 1163.99 0.6561C1158.65 1.03336 1153.3 1.39421 1147.99 0C1147.65 0.19683 1147.25 -0.06561 1146.91 0.0820125C1146.9 0.0820125 1146.88 0.098415 1146.87 0.114818C1146.78 0.164025 1146.69 0.229635 1146.61 0.360855C1147.14 0.836528 1147.71 1.2794 1148.08 2.05031C1148.27 2.46038 1148.61 2.90324 1148.41 3.44453C1148.23 3.9202 1147.84 3.67416 1147.55 3.67416C1145.88 3.65776 1144.21 3.54294 1142.55 3.60855C1141.87 3.64136 1141.25 2.50958 1140.54 3.41172V3.39532C1138.11 3.60855 1135.69 3.47733 1133.26 3.2969C1134.12 2.23074 1135.27 2.26355 1136.24 1.67306C1136.82 1.3286 1137.09 0.98415 1136.25 0.606893C1136.11 0.738113 1135.97 0.885735 1135.81 0.967748C1135.69 1.03336 1135.55 1.06616 1135.4 1.00055C1135.4 1.00055 1135.4 0.98415 1135.39 0.98415V1.00055C1134.55 1.08257 1133.66 1.82068 1132.88 1.16458C1131.84 0.278842 1130.75 0.442868 1129.71 0.623295C1126.52 1.14818 1123.34 1.55824 1120.12 1.18098C1118.67 1.01696 1117.26 1.03336 1116 2.27995C1115.02 2.54239 1114.04 2.80483 1113.05 3.06727C1110 3.01806 1106.96 2.96885 1103.91 2.91965C1098.58 2.42757 1093.25 2.32916 1087.93 2.29635C1085.91 1.82068 1083.85 2.23074 1081.84 1.91909C1081.59 1.85348 1081.34 1.77147 1081.09 1.68946C1080.71 1.78787 1080.33 1.88629 1079.95 1.9683C1079.23 2.13233 1078.48 2.26355 1077.74 2.36196C1077.7 2.36196 1077.64 2.37836 1077.59 2.37836C1077.55 2.37836 1077.5 2.39477 1077.46 2.39477C1077.27 2.42757 1077.08 2.46038 1076.88 2.49318C1076.31 2.73922 1075.71 2.77202 1075.11 2.77202C1069.51 2.75562 1063.91 2.72282 1058.31 2.73922C1055.69 2.75562 1053.08 2.50958 1050.46 2.90324C1049.86 2.69001 1049.25 2.75562 1048.65 2.91965C1048.06 2.77202 1047.45 2.67361 1046.86 2.88684C1044.53 2.47678 1042.18 2.47678 1039.83 2.78843C1039.34 2.73922 1038.85 2.65721 1038.35 2.67361C1028.45 2.85404 1018.54 2.29635 1008.63 3.13288C1001.77 3.70697 994.873 3.55934 987.99 3.72337C985.223 3.77258 982.456 3.85459 979.678 3.87099C978.091 3.88739 976.503 3.82178 974.916 3.78898C974.474 3.82178 974.02 3.85459 973.578 3.88739C973.396 3.88739 973.215 3.88739 973.033 3.88739C972.296 3.82178 971.571 3.75617 970.833 3.69056C970.119 3.85459 969.405 4.11703 968.69 4.14983C959.959 4.46148 951.228 4.69112 942.496 5.01917C935.624 5.2652 928.741 5.60966 921.87 5.9213C921.688 5.9213 921.507 5.9213 921.325 5.9213C920.225 5.8721 919.125 5.79008 918.025 6.00332C918.014 6.00332 918.003 6.00332 917.991 6.00332H917.98C917.867 6.01972 917.765 6.05252 917.651 6.06893C917.583 6.01972 917.504 6.03612 917.402 6.11813C917.164 6.13454 916.926 6.13454 916.687 6.15094C916.415 6.15094 916.143 6.16734 915.871 6.16734C915.78 6.16734 915.689 6.16734 915.599 6.18374C915.236 6.18374 914.873 6.20015 914.51 6.20015C913.512 6.13454 912.503 6.03612 911.517 6.38057C911.244 6.21655 910.972 6.24935 910.7 6.42978C906.595 6.5774 902.502 6.65942 898.408 6.92186C896.639 7.03667 894.87 6.87265 893.113 7.2007C892.852 7.2007 892.602 7.2171 892.353 7.34832C891.491 7.36472 890.618 7.39753 889.756 7.41393C888.633 7.36472 887.5 7.26631 886.388 7.65997C885.515 7.67637 884.642 7.70918 883.769 7.72558C882.737 7.67637 881.694 7.56155 880.673 7.97162C879.8 7.98802 878.927 8.02082 878.054 8.03723C877.135 8.00442 876.217 7.8732 875.31 8.28326V8.26686C875.139 8.28326 874.969 8.28326 874.799 8.29967C874.074 8.31607 873.348 8.33247 872.611 8.36528C871.84 8.33247 871.069 8.25046 870.309 8.44729C870.15 8.41448 869.935 8.5293 869.765 8.61131C868.903 8.62772 868.03 8.66052 867.168 8.67692C866.215 8.62772 865.263 8.5457 864.333 8.92296C863.551 8.93936 862.779 8.97217 861.997 8.98857C861.044 8.95577 860.081 8.80814 859.151 9.23461C856.622 9.05418 854.093 9.41504 851.576 9.57906C845.351 9.97272 839.114 10.4484 832.888 10.9077C832.707 10.9077 832.526 10.9077 832.333 10.9241C830.258 10.9897 828.194 11.0717 826.13 11.3013C824.735 11.2521 823.318 11.4653 821.923 11.3177C821.878 11.3177 821.821 11.3341 821.776 11.3341C821.039 11.1865 820.313 10.9569 819.599 10.6288C818.805 10.268 817.954 10.1531 817.127 9.92351C816.786 9.87431 816.458 9.8251 816.117 9.77589C814.927 9.26741 813.713 9.39863 812.5 9.44784C808.259 9.26741 804.222 10.6124 800.333 12.876H797.339C797.441 12.7775 797.543 12.6791 797.555 12.4823C796.625 12.4659 795.718 12.6463 794.81 12.876H781.577C781.645 12.1871 782.144 12.023 782.564 11.859C783.029 11.6786 783.494 11.5638 783.959 11.4161C783.936 11.3341 783.913 11.2357 783.902 11.1537C781.691 11.1209 779.491 11.0881 777.132 11.0553C777.711 11.6622 778.311 11.6786 778.584 12.4823C778.448 12.5971 778.323 12.7775 778.221 12.7611C777.291 12.5971 776.35 12.4003 775.42 12.2035C774.672 11.613 773.855 11.695 773.039 11.6786C772.596 11.3177 772.109 11.3177 771.621 11.3669C771.304 11.3177 770.975 11.2849 770.657 11.2357C770.102 10.7764 769.501 10.8749 768.9 10.8585C768.344 10.596 768.219 11.5474 767.811 11.695C767.017 11.8918 766.224 12.105 765.418 12.2527C764.931 12.3511 764.364 12.6135 763.967 12.1707C763.638 11.8098 764.182 11.0225 763.865 10.4156C761.994 10.7272 760.157 11.0553 758.32 11.3505C757.923 11.4161 757.322 11.6294 757.152 11.3341C755.882 9.30022 754.215 9.71028 752.616 9.56266C749.135 9.25101 745.665 9.43144 742.207 10.0383C741.492 10.1203 740.766 10.1531 740.052 10.3008C736.718 11.0225 733.396 11.8262 729.835 11.3997C730.89 10.2352 730.482 9.57906 729.586 9.30022C728.667 9.02138 727.76 8.62772 726.785 9.00497C724.959 9.71028 723.122 10.35 721.285 11.0225C717.883 11.8098 714.493 11.0553 711.091 11.2029C711.08 11.0061 711.08 10.7928 711.068 10.5796C714.606 9.87431 718.133 9.1854 721.671 8.48009C721.671 8.41448 721.671 8.36528 721.682 8.29967C720.843 8.10284 720.004 7.90601 719.165 7.72558C718.745 7.72558 718.314 7.70918 717.895 7.70918C717.237 7.69277 716.591 7.69277 715.933 7.67637C716.024 7.43033 716.126 7.26631 716.239 7.15149C716.194 7.13509 716.148 7.13509 716.103 7.11869C716.114 7.08588 716.126 7.06948 716.137 7.05308C716.228 7.03667 716.318 7.03667 716.398 7.03667C716.738 6.83984 717.146 6.97106 717.543 7.00387C717.566 6.92186 717.611 6.83984 717.623 6.74143C717.623 6.70862 717.566 6.62661 717.532 6.62661C716.738 6.561 715.91 6.561 715.094 6.5446C715.23 6.70862 715.366 6.88905 715.502 7.05308C715.343 7.05308 715.185 7.05308 715.037 7.03667C714.436 7.00387 713.824 7.11869 713.279 6.64301C713.223 6.5774 713.2 6.51179 713.189 6.42978C713.189 6.42978 713.177 6.42978 713.166 6.42978C712.724 6.97106 712.282 6.97106 711.839 6.59381C711.681 6.61021 711.51 6.62661 711.352 6.65942C711.306 6.67582 711.261 6.69222 711.204 6.70862C710.909 6.80704 710.615 6.82344 710.32 6.79064C709.22 6.93826 708.109 7.06948 707.009 7.16789C707.655 7.1843 708.29 7.2171 708.936 7.2335L712.134 7.28271C709.027 9.02138 705.773 9.03778 702.575 9.49705C700.092 9.30022 697.586 9.8087 694.966 9.25101C694.943 9.2018 694.921 9.1854 694.909 9.13619C694.909 9.11979 694.909 9.10339 694.898 9.08699C695.442 8.11924 696.202 8.11924 696.781 7.46314C696.032 7.44674 695.374 7.44674 694.717 7.43033C692.902 7.24991 691.077 7.06948 689.262 6.88905C683.922 7.26631 678.569 7.62716 673.262 6.23295C672.922 6.42978 672.525 6.16734 672.185 6.31496C672.174 6.31496 672.151 6.33137 672.14 6.34777C672.049 6.39698 671.958 6.46259 671.879 6.59381C672.412 7.06948 672.979 7.51235 673.353 8.28326C673.546 8.69333 673.886 9.13619 673.682 9.67748C673.501 10.1531 673.115 9.90711 672.82 9.90711C671.153 9.89071 669.486 9.77589 667.819 9.8415C667.139 9.87431 666.527 8.74253 665.812 9.64467V9.62827C663.386 9.8415 660.959 9.71028 658.532 9.52985C659.394 8.46369 660.539 8.4965 661.515 7.90601C662.093 7.56155 662.365 7.2171 661.526 6.83984C661.379 6.97106 661.242 7.11869 661.084 7.2007C660.959 7.26631 660.823 7.29911 660.676 7.2335C660.676 7.2335 660.676 7.2335 660.664 7.2171V7.2335C659.825 7.31552 658.929 8.05363 658.147 7.39753C657.115 6.51179 656.026 6.67582 654.983 6.85625C651.797 7.38113 648.61 7.79119 645.39 7.41393C643.938 7.24991 642.532 7.26631 641.274 8.5129C640.287 8.77534 639.312 9.03778 638.325 9.30022C635.275 9.25101 632.236 9.2018 629.186 9.1526C623.856 8.66052 618.527 8.56211 613.197 8.5293C611.179 8.05363 609.126 8.46369 607.108 8.15204C606.858 8.08643 606.609 8.00442 606.359 7.92241C605.985 8.02082 605.6 8.11924 605.225 8.20125C604.5 8.36528 603.751 8.4965 603.014 8.59491C602.958 8.59491 602.912 8.61131 602.867 8.61131C602.821 8.61131 602.776 8.62772 602.731 8.62772C602.538 8.66052 602.357 8.69333 602.152 8.72613C601.585 8.97217 600.984 9.00497 600.383 9.00497C594.782 8.98857 589.18 8.95577 583.578 8.97217C580.959 8.98857 578.339 8.74253 575.731 9.13619C575.13 8.92296 574.518 8.98857 573.917 9.1526C573.327 9.00497 572.726 8.90656 572.137 9.11979C569.801 8.70973 567.454 8.70973 565.106 9.02138C564.607 8.97217 564.12 8.89016 563.621 8.90656C553.721 9.08699 543.811 8.5293 533.9 9.36583C527.04 9.93992 520.145 9.79229 513.262 9.95632C510.495 10.0055 507.728 10.0875 504.95 10.1039C503.363 10.1203 501.775 10.0547 500.188 10.0219C499.745 10.0547 499.292 10.0875 498.85 10.1203C498.668 10.1203 498.487 10.1203 498.305 10.1203C497.568 10.0547 496.842 9.98912 496.105 9.92351C495.391 10.0875 494.677 10.35 493.962 10.3828C485.231 10.6944 476.499 10.9241 467.768 11.2521C460.896 11.4982 454.013 11.8426 447.141 12.1543C446.96 12.1543 446.779 12.1543 446.597 12.1543C445.497 12.105 444.397 12.023 443.297 12.2363C443.286 12.2363 443.275 12.2363 443.263 12.2363H443.252C443.139 12.2527 443.037 12.2855 442.923 12.3019C442.855 12.2527 442.776 12.2691 442.674 12.3511C442.436 12.3675 442.197 12.3675 441.959 12.3839C441.687 12.3839 441.415 12.4003 441.143 12.4003C441.052 12.4003 440.961 12.4003 440.871 12.4167C440.508 12.4167 440.145 12.4331 439.782 12.4331C438.784 12.3675 437.775 12.2691 436.789 12.6135C436.516 12.4495 436.244 12.4823 435.972 12.6627C434.192 12.7283 432.423 12.7775 430.643 12.8432H367.822C367.81 12.8268 367.788 12.8268 367.776 12.8104C365.168 10.6452 362.333 11.7114 359.601 11.4489C358.659 11.5474 357.707 11.5966 356.766 11.7606C354.294 12.1543 351.822 12.4167 349.35 12.8432H335.13C335.175 12.7775 335.209 12.7119 335.221 12.5971C334.529 12.5807 333.849 12.6955 333.168 12.8432H319.266C319.391 12.2855 319.844 12.1379 320.23 11.9902C320.695 11.8098 321.16 11.695 321.625 11.5474C321.602 11.4653 321.579 11.3669 321.568 11.2849C319.357 11.2521 317.157 11.2193 314.798 11.1865C315.377 11.7934 315.978 11.8098 316.25 12.6135C316.148 12.6955 316.068 12.794 315.978 12.8432H315.626C314.776 12.6955 313.936 12.5151 313.086 12.3347C312.338 11.7442 311.521 11.8262 310.705 11.8098C310.262 11.4489 309.775 11.4489 309.287 11.4982C308.97 11.4489 308.641 11.4161 308.323 11.3669C307.768 10.9077 307.167 11.0061 306.566 10.9897C306.01 10.7272 305.885 11.6786 305.477 11.8262C304.683 12.0066 303.89 12.2363 303.085 12.3839C302.597 12.4823 302.03 12.7447 301.633 12.3019C301.304 11.941 301.848 11.1537 301.542 10.5468C299.671 10.8585 297.834 11.1865 295.997 11.4818C295.6 11.5474 294.999 11.7606 294.829 11.4653C293.559 9.43144 291.892 9.8415 290.294 9.69388C286.812 9.38223 283.342 9.56266 279.884 10.1696C279.169 10.2516 278.444 10.2844 277.729 10.432C274.396 11.1537 271.073 11.9574 267.512 11.531C268.567 10.3664 268.159 9.71028 267.263 9.43144C266.345 9.1526 265.437 8.75894 264.462 9.13619C262.637 9.8415 260.8 10.4812 258.963 11.1537C255.561 11.941 252.17 11.1865 248.768 11.3341C248.757 11.1209 248.757 10.9241 248.746 10.7108C252.284 10.0055 255.81 9.31662 259.348 8.61131C259.348 8.5457 259.348 8.4965 259.359 8.43089C258.52 8.23406 257.681 8.03723 256.842 7.8568C256.422 7.8568 255.992 7.8404 255.572 7.8404C254.914 7.82399 254.268 7.82399 253.61 7.80759C253.701 7.56155 253.803 7.39753 253.916 7.28271C253.871 7.26631 253.826 7.26631 253.78 7.24991C253.792 7.2171 253.803 7.2007 253.814 7.1843C253.905 7.16789 253.996 7.16789 254.075 7.16789C254.415 6.97106 254.824 7.10228 255.22 7.13509C255.254 7.05308 255.289 6.97106 255.3 6.87265C255.3 6.83984 255.243 6.75783 255.209 6.75783C254.393 6.74143 253.565 6.74143 252.748 6.72503C252.885 6.88905 253.021 7.06948 253.157 7.2335C252.998 7.2335 252.839 7.2335 252.692 7.2171C252.091 7.1843 251.478 7.29911 250.934 6.82344C250.877 6.75783 250.855 6.69222 250.843 6.61021C250.843 6.61021 250.832 6.61021 250.821 6.61021C250.379 7.15149 249.936 7.15149 249.494 6.77423C249.335 6.79064 249.165 6.80704 249.006 6.83984C248.961 6.85625 248.916 6.87265 248.859 6.88905C248.564 6.98747 248.269 7.00387 247.975 6.97106C246.875 7.11869 245.763 7.24991 244.663 7.34832C245.31 7.36472 245.945 7.39753 246.58 7.41393L249.778 7.46314C246.671 9.2018 243.416 9.21821 240.218 9.67748C237.735 9.48065 235.229 9.98912 232.609 9.43144C232.587 9.38223 232.564 9.36583 232.553 9.31662C232.553 9.30022 232.553 9.28382 232.541 9.26741C233.086 8.29967 233.846 8.29967 234.424 7.64357C233.675 7.62716 233.018 7.62716 232.36 7.61076C230.546 7.43033 228.72 7.24991 226.906 7.06948C221.565 7.44674 216.213 7.80759 210.906 6.41338C210.566 6.61021 210.169 6.34777 209.828 6.49539C209.817 6.49539 209.794 6.51179 209.783 6.5282C209.692 6.5774 209.602 6.64301 209.522 6.77423C210.055 7.24991 210.622 7.69277 210.996 8.46369C211.189 8.87375 211.529 9.31662 211.325 9.8579C211.144 10.3336 210.758 10.0875 210.463 10.0875C208.797 10.0711 207.13 9.95632 205.463 10.0219C204.782 10.0547 204.17 8.92296 203.456 9.8251V9.8087C201.029 10.0219 198.602 9.89071 196.176 9.71028C197.038 8.64412 198.183 8.67692 199.158 8.08643C199.736 7.74198 200.008 7.39753 199.169 7.02027C199.022 7.15149 198.886 7.29911 198.727 7.38113C198.602 7.44674 198.466 7.47954 198.319 7.41393C198.319 7.41393 198.319 7.41393 198.308 7.39753V7.41393C197.468 7.49594 196.573 8.23406 195.79 7.57796C194.758 6.69222 193.67 6.85625 192.626 7.03667C189.44 7.56155 186.254 7.97162 183.033 7.59436C181.582 7.43033 180.176 7.44674 178.917 8.69333C177.93 8.95577 176.955 9.21821 175.969 9.48065C172.918 9.43144 169.879 9.38223 166.829 9.33302C161.5 8.84095 156.17 8.74253 150.84 8.70973C148.822 8.23406 146.77 8.64412 144.751 8.33247C144.502 8.26686 144.252 8.18485 144.003 8.10284C143.628 8.20125 143.243 8.29967 142.869 8.38168C142.143 8.5457 141.395 8.67692 140.658 8.77534C140.612 8.77534 140.555 8.79174 140.51 8.79174C140.465 8.79174 140.419 8.80814 140.374 8.80814C140.181 8.84095 140 8.87375 139.796 8.90656C139.229 9.1526 138.628 9.1854 138.027 9.1854C132.425 9.169 126.823 9.13619 121.222 9.1526C118.602 9.169 115.994 8.92296 113.375 9.31662C112.774 9.10339 112.161 9.169 111.56 9.33302C110.971 9.1854 110.37 9.08699 109.78 9.30022C107.433 8.89016 105.097 8.89016 102.75 9.2018C102.251 9.1526 101.763 9.07058 101.264 9.08699C91.3534 9.26741 81.454 8.70973 71.5433 9.54626C64.6829 10.1203 57.7885 9.97272 50.9054 10.1367C48.1386 10.186 45.3717 10.268 42.5936 10.2844C41.006 10.3008 39.4185 10.2352 37.831 10.2024C37.3887 10.2352 36.9351 10.268 36.4929 10.3008C36.3115 10.3008 36.13 10.3008 35.9486 10.3008C35.2115 10.2352 34.4858 10.1696 33.7487 10.1039C33.0343 10.268 32.32 10.5304 31.6056 10.5632C22.8742 10.8749 14.1428 11.1045 5.41135 11.4325C-1.46039 11.6786 -8.34346 12.023 -15.2152 12.3347C-15.3966 12.3347 -15.5781 12.3347 -15.7595 12.3347C-16.8594 12.2855 -17.9594 12.2035 -19.0593 12.4167C-19.0706 12.4167 -19.082 12.4167 -19.0933 12.4167C-19.0933 12.4167 -19.0933 12.4167 -19.1046 12.4167C-19.218 12.4331 -19.3201 12.4659 -19.4335 12.4823C-19.5015 12.4331 -19.5809 12.4495 -19.683 12.5315C-19.9211 12.5479 -20.1592 12.5479 -20.3973 12.5643C-20.6695 12.5643 -20.9416 12.5807 -21.2138 12.5807C-21.3045 12.5807 -21.3952 12.5807 -21.4859 12.5971C-21.8488 12.5971 -22.2117 12.6135 -22.5745 12.6135C-23.5724 12.5479 -24.5816 12.4495 -25.5682 12.794C-25.8403 12.6299 -26.1125 12.6627 -26.3846 12.8432C-26.5774 12.8432 -26.7701 12.8596 -26.9629 12.8596H-143V653H1309V12.8104H1308.63ZM914.272 6.46259C914.261 6.49539 914.249 6.5282 914.227 6.5446C914.215 6.51179 914.204 6.49539 914.181 6.46259C914.215 6.47899 914.238 6.47899 914.272 6.46259ZM439.453 12.7283C439.476 12.7283 439.51 12.7283 439.533 12.7119C439.521 12.7447 439.51 12.7775 439.487 12.794C439.487 12.7775 439.476 12.7447 439.453 12.7283Z" fill="#4E5058"/>
</svg>
