<svg xmlns="http://www.w3.org/2000/svg" width="390" height="507" fill="none" xmlns:v="https://vecta.io/nano"><path d="M1308.63 12.81c.78-2.411.3-4.199-1.46-5.495-.74-.558-1.64-.377-2.31-.935-2.61-2.165-5.44-1.099-8.17-1.361l-2.84.312c-3.59.574-7.2.853-10.77 1.771-3.78.016-7.54-.262-11.3.262-.1-.82.48-.64.53-1.181-1.66-.033-3.24.574-4.84.951-3.3.787-6.58 1.591-9.96 1.132-.72-.098-1.15-.492-1.22-1.427-.05-.919.55-1.083 1.02-1.263s.93-.295 1.4-.443c-.02-.082-.05-.18-.06-.262l-6.77-.098c.58.607 1.18.623 1.45 1.427-.13.115-.26.295-.36.279-.93-.164-1.87-.361-2.8-.558-.75-.607-1.56-.508-2.38-.525-.44-.361-.93-.361-1.42-.312-.32-.049-.64-.082-.96-.131-.56-.459-1.16-.361-1.76-.377-.56-.262-.68.689-1.09.837-.79.18-1.59.41-2.39.558-.49.098-1.06.361-1.45-.082-.33-.361.21-1.148-.09-1.755l-5.55.935c-.39.066-1 .279-1.17-.016-1.27-2.034-2.93-1.624-4.53-1.771-3.48-.312-6.95-.131-10.41.476-.72.082-1.44.115-2.16.262-3.33.722-6.65 1.525-10.21 1.099 1.05-1.165.64-1.821-.25-2.1-.92-.279-1.83-.673-2.8-.295-1.83.705-3.67 1.345-5.5 2.017-3.4.787-6.8.033-10.2.18-.01-.213-.01-.41-.02-.623l10.6-2.1c0-.066 0-.115.01-.18l-2.51-.574c-.42 0-.85-.016-1.27-.016l-1.96-.033c.09-.246.19-.41.3-.525-.04-.016-.09-.016-.13-.033a.25.25 0 0 1 .03-.066c.09-.016.18-.016.26-.016.34-.197.75-.066 1.15-.033.02-.082.06-.164.07-.262 0-.033-.05-.115-.09-.115l-2.46-.033c.14.164.28.344.41.508-.16 0-.32 0-.46-.016-.6-.033-1.22.082-1.76-.394a.35.35 0 0 1-.09-.213c-.47.541-.91.541-1.35.164a4.84 4.84 0 0 0-.49.066c-.04.016-.09.033-.15.049a2.02 2.02 0 0 1-.88.082c-1.1.148-2.21.279-3.31.377l1.91.066 3.2.049c-3.1 1.739-6.36 1.755-9.56 2.214-2.48-.197-4.99.312-7.61-.246-.02-.049-.04-.066-.05-.115 0-.016 0-.033-.01-.049.54-.968 1.3-.968 1.88-1.624l-2.07-.033-5.45-.541c-5.34.377-10.69.738-16-.656-.34.197-.74-.066-1.08.082-.01 0-.03.016-.04.033a.65.65 0 0 0-.26.246c.53.476 1.1.919 1.47 1.689.19.41.53.853.33 1.394-.18.476-.57.23-.86.23-1.67-.016-3.34-.131-5-.066-.68.033-1.3-1.099-2.01-.197v-.016c-2.43.213-4.85.082-7.28-.098.86-1.066 2.01-1.033 2.98-1.624.58-.344.85-.689.01-1.066-.14.131-.28.279-.44.361-.12.066-.26.098-.41.033h-.01c-.84.082-1.73.82-2.51.164-1.04-.886-2.13-.722-3.17-.541-3.19.525-6.37.935-9.59.558-1.45-.164-2.86-.148-4.12 1.099l-2.95.787-9.14-.148c-5.33-.492-10.66-.59-15.98-.623-2.02-.476-4.08-.066-6.09-.377-.25-.066-.5-.148-.75-.23l-1.14.279c-.72.164-1.47.295-2.21.394-.04 0-.1.016-.15.016-.04 0-.09.016-.13.016l-.58.098c-.57.246-1.17.279-1.77.279l-16.8-.033c-2.62.016-5.23-.23-7.85.164-.6-.213-1.21-.148-1.81.016-.59-.148-1.2-.246-1.79-.033-2.33-.41-4.68-.41-7.03-.098-.49-.049-.98-.131-1.48-.115-9.9.18-19.81-.377-29.72.459-6.86.574-13.757.426-20.64.59l-8.312.148c-1.587.016-3.175-.049-4.762-.082l-1.338.098h-.545l-2.2-.197c-.714.164-1.428.426-2.143.459l-26.194.869-20.626.902h-.545c-1.1-.049-2.2-.131-3.3.082h-.034-.011c-.113.016-.215.049-.329.066-.068-.049-.147-.033-.249.049-.238.016-.476.016-.715.033-.272 0-.544.016-.816.016-.091 0-.182 0-.272.016-.363 0-.726.016-1.089.016-.998-.066-2.007-.164-2.993.18-.273-.164-.545-.131-.817.049l-12.292.492c-1.769.115-3.538-.049-5.295.279-.261 0-.511.016-.76.148l-2.597.066c-1.123-.049-2.256-.148-3.368.246l-2.619.066c-1.032-.049-2.075-.164-3.096.246l-2.619.066c-.919-.033-1.837-.164-2.744.246v-.016c-.171.016-.341.016-.511.033l-2.188.066c-.771-.033-1.542-.115-2.302.082-.159-.033-.374.082-.544.164l-2.597.066c-.953-.049-1.905-.131-2.835.246l-2.336.066c-.953-.033-1.916-.18-2.846.246-2.529-.18-5.058.18-7.575.344l-18.688 1.329c-.181 0-.362 0-.555.016-2.075.066-4.139.148-6.203.377-1.395-.049-2.812.164-4.207.016-.045 0-.102.016-.147.016a9.82 9.82 0 0 1-2.177-.705c-.794-.361-1.645-.476-2.472-.705l-1.01-.148c-1.19-.508-2.404-.377-3.617-.328-4.241-.18-8.278 1.165-12.167 3.428h-2.994c.102-.098.204-.197.216-.394-.93-.016-1.837.164-2.745.394h-13.233c.068-.689.567-.853.987-1.017.465-.18.93-.295 1.395-.443a2.05 2.05 0 0 1-.057-.262l-6.77-.098c.579.607 1.179.623 1.452 1.427-.136.115-.261.295-.363.279-.93-.164-1.871-.361-2.801-.558-.748-.591-1.565-.508-2.381-.525-.443-.361-.93-.361-1.418-.312-.317-.049-.646-.082-.964-.131-.555-.459-1.156-.361-1.757-.377-.556-.262-.681.689-1.089.837-.794.197-1.587.41-2.393.558-.487.098-1.054.361-1.451-.082-.329-.361.215-1.148-.102-1.755l-5.545.935c-.397.066-.998.279-1.168-.016-1.27-2.034-2.937-1.624-4.536-1.771-3.481-.312-6.951-.131-10.409.476-.715.082-1.441.115-2.155.263-3.334.722-6.656 1.525-10.217 1.099 1.055-1.164.647-1.821-.249-2.099-.919-.279-1.826-.672-2.801-.295-1.826.705-3.663 1.345-5.5 2.018-3.402.787-6.792.033-10.194.18-.011-.197-.011-.41-.023-.623l10.603-2.1c0-.066 0-.115.011-.18l-2.517-.574c-.42 0-.851-.016-1.27-.016l-1.962-.033c.091-.246.193-.41.306-.525-.045-.016-.091-.016-.136-.033.011-.033.023-.049.034-.066.091-.016.181-.016.261-.016.34-.197.748-.066 1.145-.033.023-.082.068-.164.08-.262 0-.033-.057-.115-.091-.115-.794-.066-1.622-.066-2.438-.082.136.164.272.344.408.508-.159 0-.317 0-.465-.016-.601-.033-1.213.082-1.758-.394-.056-.066-.079-.131-.09-.213h-.023c-.442.541-.884.541-1.327.164-.158.016-.329.033-.487.066-.046.016-.091.033-.148.049-.295.098-.589.115-.884.082a74.52 74.52 0 0 1-3.311.377l1.927.066 3.198.049c-3.107 1.739-6.361 1.755-9.559 2.214-2.483-.197-4.989.312-7.609-.246-.023-.049-.045-.066-.057-.115 0-.016 0-.033-.011-.049.544-.968 1.304-.968 1.883-1.624l-2.064-.033-5.455-.541c-5.34.377-10.693.738-16-.656-.34.197-.737-.066-1.077.082-.011 0-.034.016-.045.033a.64.64 0 0 0-.261.246c.533.476 1.1.919 1.474 1.689.193.41.533.853.329 1.394-.181.476-.567.23-.862.23-1.667-.016-3.334-.131-5.001-.066-.68.033-1.292-1.099-2.007-.197V9.63c-2.426.213-4.853.082-7.28-.098.862-1.066 2.007-1.033 2.983-1.624.578-.344.85-.689.011-1.066-.147.131-.284.279-.442.361-.125.066-.261.098-.408.033l-.012-.016v.016c-.839.082-1.735.82-2.517.164-1.032-.886-2.121-.722-3.164-.541-3.186.525-6.373.935-9.593.558-1.452-.164-2.858-.148-4.116 1.099l-2.949.787-9.139-.148c-5.33-.492-10.659-.59-15.989-.623-2.018-.476-4.071-.066-6.089-.377-.25-.066-.499-.148-.749-.23a28.82 28.82 0 0 1-1.134.279 25.45 25.45 0 0 1-2.211.394c-.056 0-.102.016-.147.016s-.091.016-.136.016l-.579.098c-.567.246-1.168.279-1.769.279l-16.805-.033c-2.619.016-5.239-.23-7.847.164-.601-.213-1.213-.148-1.814.016-.59-.148-1.191-.246-1.78-.033-2.336-.41-4.683-.41-7.031-.098-.499-.049-.986-.131-1.485-.115-9.9.18-19.81-.377-29.721.459-6.86.574-13.755.426-20.638.59l-8.312.148c-1.587.016-3.175-.049-4.762-.082l-1.338.098h-.545l-2.2-.197c-.714.164-1.428.426-2.143.459l-26.194.869-20.627.902h-.544c-1.1-.049-2.2-.131-3.3.082h-.034-.011c-.113.016-.215.049-.329.066-.068-.049-.147-.033-.249.049-.238.016-.477.016-.715.033-.272 0-.544.016-.816.016-.091 0-.182 0-.272.016-.363 0-.726.016-1.089.016-.998-.066-2.007-.164-2.993.18-.273-.164-.545-.131-.817.049l-5.329.181h-62.821c-.012-.016-.034-.016-.046-.033-2.608-2.165-5.443-1.099-8.175-1.361-.942.098-1.894.148-2.835.312l-7.416 1.083h-14.22c.045-.066.079-.131.091-.246-.692-.016-1.372.098-2.053.246h-13.902c.125-.558.578-.705.964-.853.465-.18.93-.295 1.395-.443-.023-.082-.046-.181-.057-.262l-6.77-.098c.579.607 1.18.623 1.452 1.427-.102.082-.182.181-.272.23h-.352c-.85-.148-1.69-.328-2.54-.508-.748-.591-1.565-.508-2.381-.525-.443-.361-.93-.361-1.418-.312-.317-.049-.646-.082-.964-.131-.555-.459-1.156-.361-1.757-.377-.556-.262-.681.689-1.089.837-.794.18-1.587.41-2.392.558-.488.098-1.055.361-1.452-.082-.329-.361.215-1.148-.091-1.755l-5.545.935c-.397.066-.998.279-1.168-.017-1.27-2.034-2.937-1.624-4.535-1.771-3.482-.312-6.952-.131-10.41.476-.715.082-1.44.115-2.155.262-3.333.722-6.656 1.525-10.217 1.099 1.055-1.165.647-1.821-.249-2.1-.918-.279-1.826-.672-2.801-.295-1.825.705-3.662 1.345-5.499 2.018-3.402.787-6.793.033-10.195.18-.011-.213-.011-.41-.022-.623l10.602-2.099c0-.066 0-.115.011-.18l-2.517-.574c-.42 0-.85-.016-1.27-.016l-1.962-.033c.091-.246.193-.41.306-.525-.045-.016-.09-.016-.136-.033.012-.033.023-.049.034-.066.091-.016.182-.016.261-.016.34-.197.749-.066 1.145-.033.034-.082.069-.164.08-.262 0-.033-.057-.115-.091-.115l-2.461-.033c.137.164.273.344.409.508-.159 0-.318 0-.465-.016-.601-.033-1.214.082-1.758-.394-.057-.066-.079-.131-.091-.213h-.022c-.442.541-.885.541-1.327.164-.159.016-.329.033-.488.066a2.09 2.09 0 0 1-.147.049 2.04 2.04 0 0 1-.884.082c-1.1.148-2.212.279-3.312.377l1.917.066 3.198.049c-3.107 1.739-6.362 1.755-9.56 2.214-2.483-.197-4.989.312-7.609-.246-.022-.049-.045-.066-.056-.115 0-.016 0-.033-.012-.049.545-.968 1.305-.968 1.883-1.624l-2.064-.033-5.454-.541c-5.341.377-10.693.738-16-.656-.34.197-.737-.066-1.078.082-.011 0-.034.016-.045.033-.091.049-.181.115-.261.246.533.476 1.1.919 1.474 1.689.193.41.533.853.329 1.394-.181.476-.567.23-.862.23-1.666-.016-3.333-.131-5-.066-.681.033-1.293-1.099-2.007-.197v-.016c-2.427.213-4.854.082-7.28-.098.862-1.066 2.007-1.033 2.982-1.624.578-.344.85-.689.011-1.066-.147.131-.283.279-.442.361-.125.066-.261.098-.408.033h-.011c-.84.082-1.735.82-2.518.164-1.032-.886-2.12-.722-3.164-.541-3.186.525-6.372.935-9.593.558-1.451-.164-2.857-.148-4.116 1.099l-2.948.787-9.14-.148c-5.329-.492-10.659-.59-15.989-.623-2.018-.476-4.07-.066-6.089-.377a13.02 13.02 0 0 1-.748-.23 28.98 28.98 0 0 1-1.134.279 25.29 25.29 0 0 1-2.211.394c-.046 0-.103.016-.148.016s-.091.016-.136.016l-.578.098c-.567.246-1.168.279-1.769.279l-16.805-.033c-2.62.016-5.228-.23-7.847.164-.601-.213-1.214-.148-1.815.016-.589-.148-1.19-.246-1.78-.033-2.347-.41-4.683-.41-7.03-.098-.499-.049-.987-.131-1.486-.115-9.911.18-19.81-.377-29.721.459-6.86.574-13.755.426-20.638.59l-8.312.148c-1.588.016-3.175-.049-4.763-.082l-1.338.098h-.544l-2.2-.197c-.714.164-1.429.427-2.143.459l-26.194.869-20.627.902h-.544c-1.1-.049-2.2-.131-3.3.082h-.034c-.125.016-.227.049-.34.066-.068-.049-.147-.033-.25.049-.238.016-.476.016-.714.033-.272 0-.544.016-.816.016-.091 0-.181 0-.272.016-.363 0-.726.016-1.089.016-.998-.066-2.007-.164-2.994.181-.272-.164-.544-.131-.816.049-.193 0-.386.016-.578.016H-143V653h1452V12.81h-.37zM914.272 6.463c-.011.033-.023.066-.045.082-.012-.033-.023-.049-.046-.082a.09.09 0 0 0 .091 0zm-474.819 6.266c.023 0 .057 0 .08-.016-.012.033-.023.066-.046.082 0-.017-.011-.049-.034-.066z" fill="#4e5058"/></svg>