<svg width="1440" height="605" viewBox="0 0 1440 605" fill="none" xmlns="http://www.w3.org/2000/svg">
<g clip-path="url(#clip0_99_1554)">
<path d="M1483.44 521.552C1483.53 514.092 1481.57 506.892 1478.45 500.124C1474.64 491.838 1472.84 483.266 1471.67 474.612C1474.69 474.547 1477.73 474.551 1480.76 474.663C1481.7 474.697 1483.23 474.827 1482.71 473.374C1481.55 470.117 1482.34 466.615 1480.99 463.389C1480.69 459.544 1481.07 455.604 1479.33 451.83C1477.92 452.579 1478.9 453.955 1477.89 454.898C1476.66 453.216 1476.37 451.391 1476.4 449.885C1476.47 445.26 1472.74 440.417 1477.3 435.967C1477.6 435.689 1477.47 434.987 1477.37 434.514C1475.62 426.564 1476.11 418.486 1475.47 410.471C1475.48 410.105 1475.49 409.739 1475.49 409.386C1475.91 409.16 1476.44 410.654 1476.76 409.332C1477.13 407.738 1477.56 406.142 1477.31 404.479C1478.52 405.281 1478.07 406.457 1478.13 407.472C1478.36 410.817 1478.51 414.163 1478.7 417.82C1479.77 416.971 1479.93 416.343 1479.79 415.628C1479.76 414.842 1480.89 414.045 1479.77 413.282C1477.66 406.343 1479.02 399.277 1479.03 392.279C1479.02 387.682 1478.96 383.087 1478.66 378.523C1479.03 378.366 1479.4 378.223 1479.83 378.091C1479.39 377.911 1479 377.689 1478.6 377.48C1478.47 375.679 1478.31 373.893 1478.1 372.094C1477.65 368.361 1475.51 364.812 1476.9 360.864C1477.18 360.085 1477.04 359.071 1476.28 358.328C1476.43 354.935 1474.67 352.029 1473.29 349.007C1472.1 346.388 1471.06 343.753 1470.21 341.059C1470.5 339.859 1470.8 338.673 1471.08 337.474C1472.15 334.942 1472.7 332.327 1472.77 329.627L1472.86 329.381L1472.82 329.111C1473.65 328.158 1473.33 327.093 1473.23 326.051C1473.24 325.291 1473.24 324.518 1473.26 323.759C1473.9 322.647 1473.85 321.576 1473.08 320.535C1472.56 313.047 1468.62 306.405 1466.27 299.376C1466.49 293.527 1466.61 287.68 1466.13 281.832C1466.42 280.253 1466.48 278.692 1466.45 277.12C1466.39 275.927 1466.29 274.723 1466.25 273.53C1466.25 273.435 1466.23 273.341 1466.23 273.246C1466.1 271.527 1465.95 269.794 1465.98 268.071C1467.67 270.869 1466.67 273.969 1467.19 276.9C1467.48 278.467 1466.58 280.222 1468.04 281.615C1469.28 277.453 1469.13 273.252 1468.8 269.028C1468.46 264.506 1468.33 259.98 1468.11 255.455C1468.28 255.438 1468.47 255.448 1468.64 255.458C1468.94 256.224 1468.44 257.157 1469.47 257.962C1470.66 249.421 1470.1 241.066 1469.55 232.711C1469.49 231.736 1469.44 230.747 1469.39 229.772C1469.22 229.789 1469.03 229.807 1468.86 229.81C1468.91 230.786 1468.96 231.761 1469.02 232.736C1468.42 236.722 1468.94 240.806 1467.57 244.727C1467.28 245.14 1467.12 245.55 1467.02 245.959C1466.71 247.295 1467.16 248.668 1467.17 250.024C1467.1 250.283 1467.12 250.568 1467.09 250.853C1467.09 251.219 1467.02 251.573 1466.59 251.84C1466.52 249.468 1465.63 247.087 1466.75 244.731C1466.32 241.391 1466.56 238.009 1465.78 234.676C1465.17 231.977 1464.4 229.159 1464.67 226.468C1465.14 221.78 1464.71 217.206 1463.94 212.598C1463.84 211.963 1463.35 210.848 1464.12 210.736C1466.66 210.344 1465.33 209.056 1465.16 208.07C1463.91 201.669 1461.2 195.475 1461.86 188.816C1462.2 187.195 1462.54 185.588 1462.87 183.968C1463.09 183.38 1463.33 182.778 1463.55 182.19C1464.66 180.377 1463.86 178.563 1463.37 176.688C1463.03 177.55 1462.69 178.412 1462.23 179.533C1461.83 178.362 1461.55 177.541 1461.27 176.733C1461.33 176.623 1461.32 176.515 1461.24 176.422C1461.85 167.391 1462.45 158.374 1463.07 149.343C1463.08 148.936 1463.08 148.53 1463.09 148.109C1463.18 147.944 1463.21 147.768 1463.13 147.593C1463.92 146.641 1463.63 145.575 1463.51 144.534C1463.82 141.951 1464.31 139.364 1463.8 136.757C1463.77 135.361 1463.76 133.965 1463.73 132.555C1463.94 131.642 1463.46 129.55 1464.52 130.098C1466.03 130.893 1465.85 130.639 1465.53 129.628C1464.03 124.792 1465.37 119.76 1463.68 114.819C1462.51 111.413 1462.16 107.814 1462 104.183C1462.01 103.681 1461.98 103.18 1461.92 102.666C1461.88 101.514 1461.86 100.362 1461.82 99.2099C1461.73 99.4152 1461.7 99.6056 1461.64 99.8103C1461.64 99.7967 1461.64 99.7832 1461.64 99.7696C1461.64 99.5663 1461.71 99.3884 1461.82 99.2099C1461.81 98.0032 1461.78 96.7969 1461.77 95.6038C1462.23 92.3937 1462.29 89.1923 1461.73 86.0176C1461.76 85.5964 1461.6 85.1524 1461.43 84.6949C1461.35 84.317 1461.29 83.9385 1461.17 83.5613C1461.14 83.196 1461.1 82.8442 1461.06 82.4925C1461.07 79.2378 1460.28 76.1084 1459.08 73.0421C1457.47 70.7709 1459.45 68.2746 1458.4 65.8696C1456.99 62.6314 1455.72 59.3496 1453.94 56.2685C1448.05 46.0469 1439.73 38.2228 1426.31 35.5378C1424.53 34.5857 1422.66 35.4118 1420.82 35.3017C1421.35 35.9685 1422.16 35.8429 1422.9 35.8135C1423.39 35.8032 1423.64 35.9064 1423.74 36.067C1423.85 36.268 1423.78 36.5408 1423.61 36.8697C1417.54 37.9614 1411.94 40.5212 1405.13 41.5471C1407.16 40.0667 1409.43 39.8693 1410.61 38.3796C1410.63 38.298 1410.64 38.2163 1410.65 38.1211C1410.72 38.1198 1410.76 38.1188 1410.83 38.1175C1411.04 37.8011 1411.51 37.3571 1411.4 37.1832C1411.09 36.6609 1410.41 36.9736 1409.88 36.9442C1409.64 37.3426 1409.4 37.7274 1409.17 38.1254C1402.67 39.2399 1396.09 38.6472 1389.55 38.8403C1384.69 38.9705 1379.81 38.5993 1374.95 38.4449C1368.78 37.1791 1362.56 37.9214 1356.36 38.2021C1355.25 38.2255 1354.15 38.2355 1353.04 38.2589C1352.22 37.7882 1351.29 37.8893 1350.38 37.9221C1343.55 38.2164 1336.73 38.0356 1329.93 37.6376C1323.59 37.2703 1317.24 37.0254 1310.9 36.7259C1309.12 36.5738 1307.34 36.4218 1305.56 36.2426C1304.63 36.154 1304.63 36.1269 1303.78 32.9988C1305.84 33.2534 1307.94 33.5072 1310.03 33.7747C1318.93 35.1724 1327.99 35.3598 1336.97 36.0642C1337.84 36.8728 1338.76 36.5687 1339.76 36.127C1338.3 36.4834 1337.87 35.1908 1336.85 34.9141C1327.92 34.2764 1318.98 33.6391 1310.05 33.015C1309.44 32.3634 1308.59 32.083 1307.69 31.9938C1303.47 31.5273 1299.51 30.2823 1294.92 31.2206C1290.74 32.0686 1286.15 31.3797 1281.73 31.3784C1278.12 30.6279 1274.47 31.1665 1270.83 31.1893C1268.87 30.309 1266.61 31.4416 1263.69 30.4323C1268.04 30.2316 1271.42 30.0921 1274.8 29.939C1275.92 30.7017 1277.06 30.5555 1278.73 29.9234C1277.04 29.6881 1275.86 29.5231 1274.69 29.3581C1270.83 29.6977 1266.86 29.0091 1263.12 30.3768C1256.8 30.9448 1250.61 32.3372 1244.2 32.4461C1241.17 32.497 1238.03 32.4821 1235.09 33.4395C1234.41 33.5083 1233.74 33.5632 1233.07 33.6316C1223.77 33.3001 1214.73 34.9564 1205.71 36.6531C1204.29 36.6154 1202.87 36.6319 1201.61 37.3232C1200.58 37.3992 1199.55 37.394 1198.54 37.5374C1185.88 39.4606 1173.22 41.4108 1160.55 43.334C1160.1 43.3978 1159.47 43.7095 1159.1 43.1072C1159.55 42.3924 1160.67 42.206 1160.82 41.1993C1158.38 41.6985 1155.98 42.1835 1153.59 42.6953C1143.75 44.7619 1133.98 47.2609 1123.67 46.2864C1122.11 46.1432 1120.63 46.2424 1120.25 44.5961C1119.86 42.8551 1121.57 42.7103 1122.79 42.386C1124.17 42.0313 1125.61 41.9195 1127.02 41.6997C1121.73 40.8491 1116.43 40.6227 1111.1 40.7493C1109.95 40.028 1108.75 40.311 1107.43 40.4882C1107.87 41.2383 1108.49 41.3606 1109.12 41.4422C1110.31 41.7966 1111.55 42.0958 1112.52 43.7974C1106.59 42.7977 1101.27 41.9071 1095.95 41.003C1095.48 40.9858 1095.03 40.9818 1094.56 40.9646C1093.77 40.2628 1092.75 40.4879 1091.79 40.4945C1091 39.8062 1089.99 39.9904 1089.03 40.038C1088.45 39.4671 1087.72 39.4826 1086.94 39.5805C1083.88 40.8116 1080.8 41.8669 1077.3 41.4666C1075.82 41.2947 1074.97 40.8517 1075.2 39.4499C1074.59 38.3917 1074.59 38.4324 1072.75 38.4443C1066 38.5062 1059.28 39.9099 1052.72 36.3742C1049.77 34.7824 1045.2 35.476 1041.36 35.1236C1040.67 35.1111 1040 35.0846 1039.32 35.0721C1038.46 34.48 1037.48 34.6093 1036.5 34.7385C1035.04 34.5663 1033.58 34.2311 1032.11 34.2757C1021.66 34.5247 1011.21 34.8686 1000.84 36.2142C997.408 36.1785 993.978 36.1564 990.563 36.0661C989.908 36.0529 988.37 36.3296 988.818 35.3844C990.414 32.0011 987.044 32.6151 985.477 32.2415C979.993 30.9205 974.976 33.2373 969.774 34.1478C966.37 34.6404 962.967 35.133 959.563 35.6121C953.659 35.0593 947.733 34.9817 941.8 35.2432C941.234 35.0111 940.683 34.7787 939.834 34.4171C944.729 33.6894 949.297 33.0093 953.881 32.329C958.058 32.281 962.179 31.8274 966.852 30.8875C962.916 29.8319 959.496 29.5384 955.994 29.789C954.98 28.9833 953.56 29.6508 952.222 29.0419C953.341 28.9096 954.212 28.7962 955.067 28.6967C956.884 29.0921 958.698 29.3655 961.053 28.6782C958.683 28.6742 956.949 27.7753 955.01 28.2233C953.309 28.1374 951.608 28.0379 949.892 27.9794C943.98 27.7794 937.927 26.823 932.191 27.6092C925.399 28.5399 918.628 29.009 911.826 29.4924C910.58 29.573 909.076 29.1982 907.956 30.7949C919.528 30.2781 930.74 29.769 941.969 29.273C939.259 30.8493 936.092 30.7131 933.211 31.5743C921.536 32.3781 909.893 33.8863 897.946 32.8787C898.999 31.0935 901.361 31.4502 902.495 29.8124C896.468 30.0895 890.783 30.3322 885.084 30.5888C885.049 30.4268 885.03 30.2644 885.042 30.1015C885.664 30.0069 886.301 29.9256 886.922 29.831C870.176 31.1085 853.47 32.0326 836.685 30.0158C837.748 30.9153 838.879 31.3252 839.95 31.8178C841.556 32.5703 843.664 33.4747 843.233 35.2061C842.802 36.9238 840.47 35.7664 839.06 36.176C838.735 36.2643 838.376 36.2584 838.049 36.2924C833.327 35.5926 828.436 35.7777 823.845 36.1328C817.791 36.6003 811.727 36.607 805.64 37.0073C807.754 35.9726 809.952 35.2479 812.134 34.4829C812.738 34.2802 813.623 34.1258 813.373 33.3582C813.156 32.6983 812.285 32.7711 811.613 32.7175C810.738 31.8547 809.78 32.2683 808.366 32.5017C809.437 33.0078 810.38 32.6217 810.831 33.3172C808.342 33.5735 805.8 34.997 803.46 34.1652C800.036 32.9497 797.006 34.1666 793.785 34.4113C787.933 34.8609 782.172 36.624 776.196 35.6253C770.251 34.6395 764.363 33.3542 758.262 33.0768C752.519 32.819 746.893 32.8842 741.628 35.2741C739.641 35.6281 737.752 36.2378 735.912 36.9684C735.591 36.5277 734.942 36.8127 734.443 36.7826C734.232 37.1261 734.021 37.4696 733.81 37.8131C733.625 37.8848 733.439 37.9565 733.269 38.028C726.915 39.0442 720.481 38.5028 714.093 38.679C711.071 38.7567 708.044 38.6446 705.033 38.5187C700.601 37.5415 696.109 36.7147 691.505 36.4327C691.285 36.356 691.066 36.3336 690.833 36.3792C690.009 35.7187 689.03 35.8886 688.082 36.0036C683.267 35.3871 678.452 34.7028 673.609 34.2089C671.499 33.9825 669.571 32.7487 667.309 33.3934C664.101 33.5428 660.908 33.6784 657.7 33.8278C657.679 33.5571 657.673 33.286 657.652 33.0152C659.785 32.9157 661.935 32.8294 664.068 32.7299C664.047 32.4727 664.011 32.2158 663.99 31.9586C660.452 31.2743 657.028 33.0014 653.5 32.7643C649.295 32.9485 645.075 33.1466 640.87 33.3307C638.778 33.1853 636.686 33.0263 634.578 32.8812C633.972 32.2296 633.124 31.9492 632.218 31.86C627.999 31.3935 624.045 30.1485 619.45 31.0868C615.275 31.9348 610.677 31.2458 606.266 31.2445C602.649 30.4941 598.997 31.0327 595.365 31.0555C593.398 30.1751 591.146 31.3078 588.225 30.2985C592.57 30.0978 595.95 29.9583 599.33 29.8052C600.452 30.5678 601.587 30.4217 603.258 29.7896C601.569 29.5542 600.396 29.3893 599.224 29.2243C595.365 29.5639 591.391 28.8753 587.647 30.2429C581.331 30.8109 575.14 32.2034 568.736 32.3122C565.697 32.3632 562.563 32.3483 559.622 33.3057C558.938 33.3745 558.268 33.4294 557.599 33.4978C548.302 33.1663 539.264 34.8226 530.243 36.5192C528.824 36.4816 527.406 36.4981 526.142 37.1894C525.115 37.2654 524.086 37.2601 523.076 37.4036C510.412 39.3268 497.749 41.277 485.085 43.2001C484.634 43.2639 484.002 43.5757 483.631 42.9734C484.083 42.2586 485.201 42.0721 485.352 41.0655C482.915 41.5647 480.509 42.0497 478.119 42.5615C468.28 44.6281 458.512 47.1271 448.203 46.1525C446.641 46.0094 445.162 46.1086 444.784 44.4622C444.389 42.7213 446.101 42.5765 447.325 42.2522C448.705 41.8975 450.137 41.7857 451.551 41.5659C446.264 40.7153 440.959 40.4888 435.63 40.6155C434.477 39.8941 433.283 40.1771 431.961 40.3543C432.398 41.1045 433.024 41.2268 433.65 41.3084C434.842 41.6628 436.08 41.962 437.051 43.6636C431.122 42.6639 425.803 41.7733 420.484 40.8691C420.016 40.852 419.563 40.848 419.095 40.8308C418.301 40.129 417.277 40.3541 416.326 40.3607C415.532 39.6724 414.523 39.8566 413.557 39.9042C412.984 39.3332 412.252 39.3488 411.474 39.4466C408.414 40.6778 405.334 41.7331 401.834 41.3327C400.349 41.1608 399.498 40.7178 399.733 39.3161C399.119 38.2579 399.12 38.2986 397.28 38.3105C390.532 38.3723 383.812 39.7761 377.252 36.2404C374.303 34.6486 369.735 35.3422 365.892 34.9898C365.206 34.9773 364.535 34.9508 363.849 34.9383C362.995 34.3462 362.016 34.4754 361.036 34.6047C359.567 34.4325 358.111 34.0973 356.646 34.1419C346.192 34.3909 335.739 34.7348 325.37 36.0804C321.94 36.0447 318.51 36.0225 315.094 35.9323C314.439 35.9191 312.902 36.1958 313.349 35.2506C314.945 31.8673 311.576 32.4813 310.009 32.1077C304.525 30.7867 299.508 33.1035 294.305 34.014C290.901 34.5066 287.498 34.9992 284.094 35.4782C278.19 34.9255 272.265 34.8479 266.331 35.1094C265.765 34.8773 265.215 34.6449 264.365 34.2832C269.26 33.5556 273.829 32.8755 278.413 32.1951C282.59 32.1472 286.711 31.6936 291.383 30.7537C287.448 29.6981 284.028 29.4046 280.526 29.6552C279.511 28.8495 278.091 29.517 276.753 28.9081C277.873 28.7758 278.743 28.6624 279.598 28.5629C281.415 28.9583 283.229 29.2317 285.584 28.5444C283.214 28.5404 281.481 27.6415 279.542 28.0895C277.841 28.0035 276.139 27.904 274.423 27.8455C268.511 27.6456 262.458 26.6892 256.723 27.4754C249.93 28.406 243.159 28.8752 236.357 29.3585C235.112 29.4392 233.607 29.0643 232.488 30.6611C244.059 30.1443 255.272 29.6351 266.501 29.1392C263.791 30.7155 260.623 30.5793 257.742 31.4405C246.068 32.2442 234.424 33.7525 222.477 32.7449C223.531 30.9597 225.892 31.3164 227.026 29.6786C221 29.9557 215.315 30.1984 209.615 30.4549C209.58 30.293 209.561 30.1306 209.573 29.9676C210.195 29.8731 210.832 29.7918 211.454 29.6972C194.708 30.9747 178.001 31.8988 161.216 29.882C162.28 30.7815 163.411 31.1914 164.481 31.684C166.087 32.4364 168.195 33.3409 167.764 35.0722C167.333 36.79 165.001 35.6326 163.592 36.0422C163.266 36.1305 162.907 36.1245 162.581 36.1586C157.858 35.4588 152.967 35.6439 148.376 35.999C142.322 36.4665 136.258 36.4731 130.172 36.8735C132.286 35.8388 134.484 35.1141 136.665 34.3491C137.269 34.1464 138.154 33.992 137.904 33.2244C137.688 32.5645 136.816 32.6373 136.145 32.5837C135.269 31.7209 134.311 32.1344 132.898 32.3678C133.969 32.874 134.911 32.4878 135.362 33.1834C132.874 33.4396 130.332 34.8632 127.991 34.0314C124.567 32.8158 121.538 34.0328 118.316 34.2774C112.465 34.7271 106.703 36.4902 100.727 35.4915C94.7825 34.5057 88.8939 33.2204 82.7929 32.943C77.0509 32.6852 71.4248 32.7504 66.1598 35.1402C63.5816 35.5882 61.1691 36.4937 58.8208 37.4928C51.0345 40.8041 43.0365 41.4891 34.655 39.5244C28.5451 38.0946 22.4038 36.652 16.0356 36.2718C15.8157 36.1951 15.597 36.1726 15.3642 36.2183C14.5395 35.5577 13.5611 35.7277 12.6126 35.8427C7.76567 35.1591 2.94989 34.4748 -1.87774 33.967C-3.987 33.7406 -5.91497 32.5068 -8.17721 33.1515C-11.3853 33.3009 -14.578 33.4365 -17.7861 33.5859C-17.8074 33.3152 -17.8132 33.0441 -17.8345 32.7733C-15.701 32.6738 -13.5516 32.5875 -11.4181 32.488C-11.455 32.2176 -11.4761 31.9604 -11.4971 31.7032C-15.0347 31.0188 -18.4587 32.7459 -21.9867 32.5089C-28.3255 32.779 -34.664 33.0627 -41.0022 33.3599C-37.2451 34.8396 -33.4109 34.0802 -29.6229 34.0812C-24.292 34.7953 -18.9824 33.774 -13.6501 33.8236C-12.1378 33.8322 -10.5014 33.0787 -9.10583 34.2018C-12.2828 35.0828 -15.5509 35.342 -18.842 35.2491C-22.5856 35.1387 -26.317 34.8654 -30.0488 35.3107C-35.4268 35.3163 -40.7891 35.3217 -46.1517 35.3134C-48.5057 35.3091 -49.017 36.1879 -47.9204 37.9139L-47.9152 38.1579L-47.8012 38.386C-47.7375 39.1847 -47.6585 39.9695 -47.5948 40.7682C-47.4813 43.9118 -47.3681 47.0419 -47.2391 50.1852C-48.3297 53.8832 -47.4083 57.6335 -47.5632 61.3523C-47.8652 68.4237 -48.4157 75.5411 -47.4238 82.6121C-47.5149 90.0723 -45.5539 97.272 -42.4328 104.04C-38.6093 112.326 -36.8217 120.899 -35.656 129.553C-38.6788 129.617 -41.7186 129.614 -44.7452 129.502C-45.6812 129.467 -47.2116 129.337 -46.6975 130.791C-45.5372 134.048 -46.3203 137.549 -44.9736 140.775C-44.6737 144.62 -45.0577 148.561 -43.3097 152.334C-41.907 151.586 -42.8871 150.21 -41.8783 149.266C-40.6423 150.948 -40.3542 152.773 -40.3845 154.279C-40.489 158.905 -36.7541 163.748 -41.3051 168.198C-41.5954 168.475 -41.4713 169.178 -41.3678 169.65C-39.6246 177.6 -40.1079 185.679 -39.4701 193.693C-39.4779 194.06 -39.4858 194.426 -39.4939 194.779C-39.91 195.004 -40.4405 193.51 -40.7554 194.832C-41.1269 196.427 -41.5606 198.023 -41.3071 199.685C-42.5244 198.884 -42.0662 197.708 -42.1345 196.692C-42.3613 193.348 -42.5103 190.002 -42.697 186.344C-43.7702 187.194 -43.9284 187.821 -43.7885 188.537C-43.7562 189.323 -44.8928 190.12 -43.7699 190.883C-41.6584 197.821 -43.0206 204.888 -43.0279 211.886C-43.0239 216.482 -42.9576 221.078 -42.6581 225.641C-43.0288 225.799 -43.3999 225.942 -43.8336 226.073C-43.3933 226.254 -42.9989 226.476 -42.6047 226.685C-42.473 228.485 -42.3104 230.272 -42.1007 232.071C-41.6474 235.804 -39.5144 239.352 -40.8959 243.3C-41.1756 244.079 -41.0449 245.094 -40.2809 245.837C-40.4271 249.23 -38.6663 252.135 -37.2928 255.157C-36.0992 257.776 -35.0612 260.412 -34.209 263.106C-34.4953 264.305 -34.7975 265.492 -35.0838 266.691C-36.1525 269.222 -36.7049 271.838 -36.7723 274.538L-36.8298 274.769L-36.7929 275.04C-37.6144 275.993 -37.2956 277.057 -37.1956 278.099C-37.2106 278.859 -37.2098 279.632 -37.2249 280.392C-37.8716 281.504 -37.8177 282.574 -37.0473 283.615C-36.5299 291.103 -32.5853 297.746 -30.2382 304.774C-30.457 310.624 -30.5823 316.471 -30.0997 322.319C-30.3935 323.898 -30.4539 325.459 -30.4205 327.031C-30.3641 328.223 -30.2606 329.428 -30.2197 330.62C-30.2177 330.715 -30.2001 330.81 -30.198 330.904C-30.068 332.624 -29.9221 334.357 -29.9479 336.079C-31.6441 333.281 -30.6343 330.181 -31.1641 327.25C-31.4468 325.683 -30.5487 323.928 -32.0124 322.535C-33.2491 326.698 -33.0976 330.898 -32.7742 335.122C-32.4288 339.644 -32.3015 344.171 -32.0808 348.695C-32.2519 348.712 -32.4392 348.703 -32.6109 348.693C-32.9077 347.926 -32.4131 346.993 -33.4435 346.188C-34.6496 354.73 -34.0825 363.084 -33.5311 371.44C-33.4792 372.415 -33.4271 373.404 -33.3752 374.379C-33.2041 374.362 -33.0174 374.344 -32.846 374.341C-32.8979 373.365 -32.9497 372.39 -33.0016 371.415C-32.4003 367.429 -32.9235 363.345 -31.5569 359.424C-31.2695 359.011 -31.1068 358.601 -31.0063 358.192C-30.6917 356.856 -31.1418 355.482 -31.1549 354.127C-31.0825 353.868 -31.1041 353.583 -31.079 353.298C-31.0712 352.932 -31.0008 352.578 -30.5699 352.311C-30.504 354.682 -29.6117 357.064 -30.7308 359.42C-30.3014 362.76 -30.5414 366.142 -29.7692 369.475C-29.1507 372.174 -28.3894 374.992 -28.6597 377.682C-29.1214 382.371 -28.6969 386.945 -27.9289 391.553C-27.8218 392.188 -27.3305 393.303 -28.1076 393.414C-30.6402 393.807 -29.319 395.094 -29.1422 396.081C-27.8996 402.482 -25.1804 408.676 -25.8497 415.334C-26.1894 416.955 -26.5294 418.563 -26.8536 420.183C-27.0749 420.771 -27.3116 421.373 -27.5329 421.961C-28.648 423.774 -27.8457 425.588 -27.3538 427.462C-27.0136 426.601 -26.6733 425.739 -26.2139 424.618C-25.8149 425.789 -25.5325 426.61 -25.2503 427.418C-25.3103 427.527 -25.308 427.636 -25.2281 427.729C-25.8315 436.76 -26.4351 445.777 -27.0541 454.807C-27.061 455.214 -27.068 455.621 -27.0747 456.042C-27.1647 456.206 -27.1921 456.383 -27.1105 456.558C-27.9009 457.51 -27.6132 458.575 -27.4976 459.617C-27.8013 462.2 -28.292 464.787 -27.7846 467.393C-27.755 468.789 -27.741 470.186 -27.7111 471.596C-27.9255 472.509 -27.4446 474.6 -28.5007 474.053C-30.014 473.258 -29.8372 473.512 -29.5196 474.522C-28.014 479.359 -29.3569 484.391 -27.662 489.332C-26.4985 492.738 -26.1415 496.337 -25.9865 499.968C-25.9915 500.47 -25.9653 500.971 -25.9076 501.485C-25.8675 502.637 -25.8431 503.789 -25.8031 504.941C-25.7139 504.736 -25.6868 504.545 -25.6287 504.341C-25.6285 504.354 -25.6282 504.368 -25.6279 504.381C-25.6236 504.584 -25.6977 504.762 -25.8031 504.941C-25.793 506.148 -25.7674 507.354 -25.7577 508.547C-26.2196 511.757 -26.2764 514.959 -25.7101 518.133C-25.748 518.554 -25.5827 518.998 -25.4171 519.456C-25.3311 519.834 -25.2763 520.212 -25.1592 520.59C-25.1203 520.955 -25.0816 521.307 -25.043 521.658C-25.0518 524.913 -24.2684 528.042 -23.0653 531.109C-21.4583 533.38 -23.4318 535.876 -22.3675 538.281C-20.9582 541.519 -19.6882 544.801 -17.9081 547.882C-12.0169 558.104 -3.69811 565.928 9.71823 568.613C11.4999 569.565 13.3686 568.739 15.2104 568.849C14.6818 568.182 13.8739 568.308 13.1263 568.337C12.6432 568.347 12.3916 568.244 12.2947 568.083C12.1813 567.882 12.2535 567.61 12.418 567.281C18.4899 566.189 24.0942 563.629 30.8999 562.59C28.8736 564.07 26.6019 564.268 25.4176 565.757C25.4038 565.839 25.3899 565.921 25.3763 566.016C25.314 566.017 25.2673 566.018 25.2049 566.019C24.9934 566.336 24.5196 566.78 24.6324 566.954C24.9397 567.476 25.6189 567.163 26.1496 567.193C26.3905 566.794 26.6318 566.41 26.8572 566.011C33.3651 564.897 39.9401 565.476 46.4835 565.297C51.3444 565.166 56.2158 565.538 61.0827 565.692C67.2515 566.958 73.4711 566.216 79.6694 565.935C80.7757 565.911 81.8823 565.901 82.9885 565.878C83.8091 566.349 84.7423 566.248 85.6457 566.215C92.4829 565.921 99.2989 566.101 106.104 566.499C112.441 566.867 118.775 567.112 125.126 567.411C126.906 567.563 128.686 567.715 130.467 567.894C131.404 567.983 131.405 568.01 132.251 571.138C130.188 570.884 128.093 570.63 125.999 570.362C117.099 568.965 108.038 568.777 99.0601 568.073C98.1856 567.264 97.2723 567.568 96.2684 568.01C97.7262 567.653 98.1589 568.946 99.1781 569.223C108.108 569.86 117.054 570.498 125.984 571.122C126.59 571.774 127.438 572.054 128.344 572.143C132.563 572.61 136.517 573.855 141.112 572.916C145.287 572.068 149.885 572.757 154.296 572.759C157.913 573.509 161.565 572.97 165.196 572.948C167.164 573.828 169.416 572.695 172.337 573.705C167.992 573.905 164.612 574.045 161.232 574.198C160.109 573.435 158.975 573.581 157.304 574.213C158.993 574.449 160.166 574.614 161.338 574.779C165.197 574.439 169.171 575.128 172.914 573.76C179.231 573.192 185.422 571.8 191.826 571.691C194.865 571.64 197.998 571.655 200.94 570.697C201.624 570.629 202.294 570.574 202.962 570.505C212.26 570.837 221.298 569.181 230.318 567.484C231.738 567.521 233.156 567.505 234.42 566.814C235.447 566.738 236.476 566.743 237.486 566.599C250.15 564.676 262.813 562.726 275.477 560.803C275.928 560.739 276.56 560.427 276.931 561.03C276.479 561.744 275.36 561.931 275.21 562.938C277.647 562.438 280.053 561.953 282.443 561.442C292.282 559.375 302.05 556.876 312.359 557.851C313.921 557.994 315.4 557.894 315.778 559.541C316.173 561.282 314.461 561.427 313.237 561.751C311.857 562.106 310.425 562.217 309.011 562.437C314.298 563.288 319.603 563.514 324.932 563.388C326.085 564.109 327.279 563.826 328.601 563.649C328.164 562.899 327.538 562.776 326.912 562.695C325.72 562.34 324.482 562.041 323.511 560.34C329.44 561.339 334.759 562.23 340.078 563.134C340.546 563.151 340.999 563.155 341.467 563.172C342.261 563.874 343.285 563.649 344.236 563.642C345.03 564.331 346.039 564.146 347.005 564.099C347.578 564.67 348.31 564.654 349.088 564.556C352.148 563.325 355.228 562.27 358.728 562.67C360.213 562.842 361.048 563.286 360.828 564.687C361.443 565.745 361.442 565.705 363.282 565.693C370.03 565.631 376.75 564.227 383.31 567.763C386.259 569.354 390.827 568.661 394.669 569.013C395.356 569.026 396.026 569.052 396.713 569.065C397.567 569.657 398.546 569.528 399.526 569.398C400.995 569.571 402.451 569.906 403.916 569.861C414.37 569.612 424.823 569.268 435.192 567.923C438.622 567.958 442.052 567.981 445.468 568.071C446.123 568.084 447.66 567.807 447.213 568.752C445.617 572.136 448.986 571.522 450.553 571.895C456.037 573.216 461.054 570.9 466.257 569.989C469.66 569.496 473.064 569.004 476.468 568.525C482.372 569.078 488.297 569.155 494.231 568.894C494.797 569.126 495.347 569.358 496.197 569.72C491.302 570.448 486.733 571.128 482.149 571.808C477.972 571.856 473.851 572.309 469.179 573.249C473.114 574.305 476.534 574.599 480.036 574.348C481.051 575.154 482.471 574.486 483.809 575.095C482.689 575.227 481.819 575.341 480.963 575.44C479.147 575.045 477.333 574.771 474.978 575.459C477.347 575.463 479.081 576.362 481.02 575.914C482.721 576 484.423 576.099 486.139 576.158C492.051 576.358 498.104 577.314 503.839 576.528C510.632 575.597 517.403 575.128 524.205 574.645C525.45 574.564 526.955 574.939 528.074 573.342C516.503 573.859 505.29 574.368 494.061 574.864C496.771 573.288 499.939 573.424 502.82 572.563C514.494 571.759 526.138 570.251 538.085 571.258C537.031 573.043 534.67 572.687 533.535 574.324C539.563 574.061 545.247 573.805 550.947 573.548C550.982 573.71 551.001 573.872 550.988 574.035C550.367 574.13 549.73 574.211 549.108 574.306C565.854 573.028 582.561 572.104 599.346 574.121C598.282 573.222 597.151 572.812 596.081 572.319C594.475 571.567 592.367 570.662 592.798 568.931C593.229 567.213 595.56 568.37 596.97 567.961C597.296 567.873 597.654 567.879 597.981 567.844C602.704 568.544 607.595 568.359 612.186 568.004C618.24 567.537 624.303 567.53 630.39 567.13C628.276 568.164 626.078 568.889 623.896 569.654C623.293 569.857 622.408 570.011 622.658 570.779C622.874 571.439 623.746 571.366 624.417 571.419C625.293 572.282 626.251 571.869 627.664 571.635C626.593 571.129 625.651 571.515 625.199 570.82C627.688 570.563 630.23 569.14 632.57 569.972C635.994 571.187 639.024 569.97 642.246 569.726C648.097 569.276 653.859 567.513 659.835 568.512C665.779 569.497 671.668 570.783 677.769 571.06C683.511 571.318 689.137 571.253 694.402 568.863C696.39 568.509 698.279 567.899 700.118 567.168C700.439 567.609 701.088 567.324 701.588 567.354C701.798 567.011 702.009 566.667 702.22 566.324C702.406 566.252 702.592 566.194 702.761 566.109C709.116 565.093 715.55 565.634 721.937 565.458C724.96 565.38 727.986 565.492 730.997 565.618C735.43 566.595 739.921 567.422 744.526 567.704C744.746 567.781 744.964 567.79 745.197 567.758C746.022 568.418 746.985 568.249 747.949 568.133C752.779 568.749 757.579 569.434 762.422 569.928C764.531 570.154 766.459 571.388 768.721 570.743C771.929 570.594 775.122 570.458 778.33 570.309C778.352 570.58 778.357 570.851 778.379 571.122C776.245 571.221 774.096 571.307 771.962 571.407C771.983 571.664 772.02 571.921 772.041 572.178C775.578 572.863 779.002 571.136 782.53 571.372C786.735 571.188 790.956 570.99 795.161 570.806C797.253 570.952 799.345 571.111 801.452 571.256C802.059 571.907 802.906 572.188 803.812 572.277C808.031 572.743 811.986 573.988 816.58 573.05C820.756 572.202 825.353 572.891 829.765 572.892C833.382 573.643 837.033 573.104 840.665 573.081C842.632 573.962 844.884 572.829 847.805 573.838C843.46 574.039 840.08 574.179 836.701 574.332C835.578 573.569 834.443 573.715 832.773 574.347C834.462 574.583 835.634 574.748 836.807 574.913C840.665 574.573 844.64 575.262 848.383 573.894C854.7 573.326 860.89 571.933 867.295 571.825C870.333 571.774 873.467 571.789 876.409 570.831C877.093 570.762 877.762 570.708 878.431 570.639C887.729 570.971 896.766 569.314 905.787 567.618C907.206 567.655 908.625 567.639 909.888 566.948C910.915 566.871 911.944 566.877 912.955 566.733C925.618 564.81 938.282 562.86 950.945 560.937C951.396 560.873 952.029 560.561 952.4 561.164C951.947 561.878 950.829 562.065 950.679 563.071C953.116 562.572 955.522 562.087 957.911 561.575C967.751 559.509 977.519 557.01 987.828 557.984C989.389 558.128 990.868 558.028 991.246 559.675C991.642 561.416 989.93 561.56 988.705 561.885C987.325 562.239 985.894 562.351 984.48 562.571C989.767 563.422 995.072 563.648 1000.4 563.521C1001.55 564.243 1002.75 563.96 1004.07 563.783C1003.63 563.032 1003.01 562.91 1002.38 562.828C1001.19 562.474 999.951 562.175 998.979 560.473C1004.91 561.473 1010.23 562.364 1015.55 563.268C1016.01 563.285 1016.47 563.289 1016.94 563.306C1017.73 564.008 1018.75 563.783 1019.7 563.776C1020.5 564.464 1021.51 564.28 1022.47 564.233C1023.05 564.804 1023.78 564.788 1024.56 564.69C1027.62 563.459 1030.7 562.404 1034.2 562.804C1035.68 562.976 1036.52 563.419 1036.3 564.821C1036.91 565.879 1036.91 565.838 1038.75 565.826C1045.5 565.765 1052.22 564.361 1058.78 567.897C1061.73 569.488 1066.3 568.795 1070.14 569.147C1070.82 569.16 1071.49 569.186 1072.18 569.199C1073.04 569.791 1074.01 569.661 1074.99 569.532C1076.46 569.704 1077.92 570.04 1079.38 569.995C1089.84 569.746 1100.29 569.402 1110.66 568.057C1114.09 568.092 1117.52 568.114 1120.94 568.205C1121.59 568.218 1123.13 567.941 1122.68 568.886C1121.09 572.27 1124.45 571.656 1126.02 572.029C1131.51 573.35 1136.52 571.033 1141.73 570.123C1145.13 569.63 1148.53 569.138 1151.94 568.659C1157.84 569.211 1163.77 569.289 1169.7 569.028C1170.27 569.26 1170.82 569.492 1171.67 569.854C1166.77 570.581 1162.2 571.261 1157.62 571.942C1153.44 571.99 1149.32 572.443 1144.65 573.383C1148.58 574.439 1152 574.732 1155.5 574.482C1156.52 575.287 1157.94 574.62 1159.28 575.229C1158.16 575.361 1157.29 575.474 1156.43 575.574C1154.62 575.179 1152.8 574.905 1150.45 575.593C1152.82 575.597 1154.55 576.495 1156.49 576.047C1158.19 576.133 1159.89 576.233 1161.61 576.291C1167.52 576.491 1173.57 577.448 1179.31 576.662C1186.1 575.731 1192.87 575.262 1199.67 574.778C1200.92 574.698 1202.42 575.073 1203.54 573.476C1191.97 573.993 1180.76 574.502 1169.53 574.998C1172.24 573.421 1175.41 573.558 1178.29 572.696C1189.96 571.893 1201.61 570.384 1213.55 571.392C1212.5 573.177 1210.14 572.821 1209 574.458C1215.03 574.195 1220.72 573.939 1226.42 573.682C1226.45 573.844 1226.47 574.006 1226.46 574.169C1225.84 574.264 1225.2 574.345 1224.58 574.44C1241.32 573.162 1258.03 572.238 1274.81 574.255C1273.75 573.355 1272.62 572.945 1271.55 572.453C1269.94 571.7 1267.84 570.796 1268.27 569.065C1268.7 567.347 1271.03 568.504 1272.44 568.095C1272.76 568.006 1273.12 568.012 1273.45 567.978C1278.17 568.678 1283.06 568.493 1287.65 568.138C1293.71 567.67 1299.77 567.664 1305.86 567.263C1303.74 568.298 1301.55 569.023 1299.37 569.788C1298.76 569.991 1297.88 570.145 1298.13 570.913C1298.34 571.572 1299.21 571.5 1299.89 571.553C1300.76 572.416 1301.72 572.002 1303.13 571.769C1302.06 571.263 1301.12 571.649 1300.67 570.954C1303.16 570.697 1305.7 569.274 1308.04 570.105C1311.46 571.321 1314.49 570.104 1317.71 569.859C1323.57 569.41 1329.33 567.647 1335.3 568.645C1341.25 569.631 1347.14 570.917 1353.24 571.194C1358.98 571.452 1364.61 571.387 1369.87 568.997C1372.45 568.549 1374.86 567.643 1377.21 566.644C1385 563.333 1392.99 562.648 1401.38 564.612C1407.49 566.042 1413.63 567.485 1419.99 567.865C1420.21 567.942 1420.43 567.951 1420.67 567.919C1421.49 568.579 1422.45 568.41 1423.42 568.294C1428.25 568.91 1433.05 569.595 1437.89 570.089C1440 570.315 1441.93 571.549 1444.19 570.904C1447.4 570.755 1450.59 570.619 1453.8 570.47C1453.82 570.741 1453.83 571.012 1453.85 571.283C1451.71 571.382 1449.56 571.468 1447.43 571.568C1447.45 571.825 1447.49 572.082 1447.51 572.339C1451.05 573.023 1454.47 571.296 1458 571.533C1464.34 571.25 1470.68 570.966 1477.02 570.682C1473.26 569.203 1469.44 569.962 1465.64 569.961C1460.3 569.247 1455 570.268 1449.66 570.219C1448.15 570.21 1446.51 570.964 1445.12 569.841C1448.3 568.96 1451.56 568.7 1454.85 568.793C1458.6 568.904 1462.33 569.177 1466.06 568.732C1471.42 568.726 1476.79 568.707 1482.15 568.716C1484.49 568.72 1485.01 567.841 1483.92 566.115L1483.91 565.871L1483.8 565.643C1483.73 564.844 1483.66 564.06 1483.59 563.261C1483.48 560.117 1483.37 556.987 1483.24 553.844C1484.33 550.146 1483.41 546.396 1483.56 542.677C1483.88 535.727 1484.43 528.623 1483.44 521.552ZM661.804 34.012C663.316 34.0205 664.953 33.2671 666.348 34.3901C664.985 34.7717 663.587 35.0183 662.187 35.1836C661.934 34.9856 661.68 34.8011 661.367 34.7264C659.353 34.5793 657.324 34.4461 655.31 34.299C657.473 34.1446 659.637 33.9902 661.804 34.012ZM634.546 33.587C636.794 34.4478 639.056 34.5219 641.33 34.4465C645.345 34.8494 649.372 35.0894 653.399 35.343C650.731 35.2504 648.065 35.1985 645.39 35.5129C640.028 35.5183 634.666 35.5371 629.303 35.5289C629.241 35.5302 629.194 35.5312 629.132 35.5325C628.92 35.1167 628.701 34.3348 628.294 32.8111C630.357 33.0656 632.452 33.3195 634.546 33.587ZM774.211 570.152C772.699 570.144 771.063 570.897 769.667 569.774C771.031 569.393 772.429 569.146 773.828 568.981C774.082 569.179 774.335 569.363 774.648 569.438C776.662 569.585 778.692 569.718 780.706 569.865C778.542 570.006 776.378 570.161 774.211 570.152ZM801.454 570.578C799.206 569.717 796.944 569.643 794.67 569.718C790.655 569.315 786.628 569.075 782.601 568.822C785.269 568.914 787.935 568.966 790.61 568.652C795.972 568.646 801.334 568.628 806.697 568.636C806.759 568.634 806.806 568.633 806.868 568.632C807.08 569.048 807.299 569.83 807.69 571.354C805.658 571.099 803.563 570.831 801.454 570.578Z" fill="#2B2B93"/>
</g>
<defs>
<clipPath id="clip0_99_1554">
<rect width="1522" height="572" fill="white" transform="translate(-48.897 32.2935) rotate(-1.21578)"/>
</clipPath>
</defs>
</svg>
