<svg xmlns="http://www.w3.org/2000/svg" width="164" height="159" fill="none" xmlns:v="https://vecta.io/nano"><g clip-path="url(#A)" fill="#1f44fa"><path d="M82.2 44.5c-.15.67-.32 1.56-.02 2.06.5.83.22 1.52.26 2.31.22 3.76.34 7.6 2.94 10.76.35.43.32 1.17.45 1.73 2.82-.01 2.89-.06 4.14-2.26.15-.26.44-.73.55-.7 1.75.49 1.59-.91 1.82-1.84.67-2.74.77-5.78 2.08-8.17 1.19-2.17.82-4.01.66-6.07-.06-.81.03-1.64.16-2.45.27-1.6.88-3.35-.44-4.64-1.33-1.29-1.84-3.02-2.9-4.42-.33-.43-.69-.85-1.1-1.36l-2.05 4.63-2.76-2.01c-.83 1.29-1.45 2.14-1.94 3.06-.33.63-.79 1.44-.65 2.03.67 2.66-.66 4.92-1.2 7.34zM46.73 18.65c-3.1-1.8-6.58-2.78-9.43-5.21-2.5-2.14-2.33-4.73-2.57-7.35-.15-1.68.09-3.4.16-5.15 1.07-.87 2.18-1.18 3.56-.75 1.81.56 3.64 1.35 5.6.43.23-.11.83.04.89.19.61 1.78 1.61 2.18 3.14 1 .35.45.61 1.18 1.05 1.31 2.21.65 4.6.82 6.3 2.68 1.09-.66 2.08-.86 2.75.56L54.66 7.9l-.86-1.25-1.15 2.4c.85.18 1.48.24 2.05.44 2.82.95 2.78.99 2.82 4.27.01.57.65 1.13 1.08 1.82-1.79.49-3.55 1.27-5.34 1.37-1.6.09-2.73.38-3.84 1.63-.44.46-2.01.47-2.69.07zm5.8-6.82l-.07.69 3.43.41c.02-.26.05-.52.08-.78l-3.44-.32zM41.57 88.81c.01-.05-.43-.32-.51-.27-1.28.89-3-.65-3.82.23-1.39 1.5-2.81.33-4.27.62-2.29 3.88-1.91 8.17-1.96 12.45-.05 4.18 1.89 7.89 2.53 12.22 2.01-.86 2.06.67 2.25 2.18 1.04-2.28 5.03-1.84 4.33-5.29.82-.51 1.66-.99 2.44-1.54 1.4-1 2.28-2.12 2.15-4.13-.11-1.83.59-3.7 1.02-6.03-.14-.36-1.01-1.46-.75-2.09.74-1.79-.59-2.75-1.11-4.03-.59-1.53-2.84-2.17-2.3-4.32zm32.2 44.91l1.32-1.41c.03-.04-.06-.18-.03-.08-5.18-3.23-10.5-5.49-16.87-4.56-.51 2.66-2.89 5.31-.61 8.66l-3.22-1.67c-1.35 1.78-.16 2.68.98 3.45 2.38 1.59 4.7 3.32 7.25 4.59 4.2 2.09 8.23 5.26 13.58 3.17l-1.25-2.56 2.22-.79c-.85-1.03-1.36-1.89-.73-3.21.76-1.59 1.94.27 2.75-.54-.77-2.72-3.48-3.46-5.39-5.05zm90.05-81.38c.08-.17.02-.41.03-.61l-1.29-1.25c.01-1.19 2.5-2.11.3-3.33.52-2.61-2.32-.51-2.73-2.06l2.11-.79-.88-2.36c-2.97.13-5.46.67-7.05 3.3-.42.69-1.32 1.07-1.96 1.63l-5.5 4.95c-.51.49-.91 1.2-1.12 1.88-.36 1.16-.53 2.39-.81 3.75l1.69-.12c.05 1.12-.31 2.79.23 3.17 1.24.87.82 2.12 1.33 3.09 1.08 2.04 4.86 3.17 6.6 1.69 1.86-1.58 3.69-3.32 5.05-5.32 1.6-2.36 2.7-5.06 4-7.62zm-70.29 61.34l3.03-1.32c-.25-3.2-1.74-5.51-4.4-6.75-2-.94-4.41-1.02-6.38-2-2.9-1.44-5.79-2.27-9.12-1.64l-2.97 9.85c1.82 1.44 3.37 3.19 5.3 4.09 4.65 2.17 9.81 2.22 15.3 3.03l-.14-2.17 1.81-1.81-2.43-1.28zM77.59 84.7c-.09-2-.78-3.44-2.67-4.34 2.38-.8 3.57.72 5 1.53l.53-.55-2.36-1.82c-1.12-.85-1.27-1.96-.08-2.85 1.46-1.09-.17-1.64-.36-2.37l2.16-.05L76.3 68c-.59-1.04-.95-2.25-2.59-2.17-.51.02-1.15-.55-1.57-1-1.49-1.57-2.93-2.03-4.81-1.4-1.31.44-2.62.91-4.11.07l1.04 2.7-2.65-.42 1.79 5.77c-1.93 1.33-1.93 1.33-.77 4.05-.1.17-.18.37-.31.51-.71.79-.71.78.27 1.4.14.09.38.18.39.29.22 2.56 2.37 2.98 4.17 3.71 1.59.65 3.43.87 4.79 1.8 1.82 1.25 3.68 1.16 5.65 1.39zM20.93 63.08c-1.62-1.52-2.33-3.84-5.21-2.38.66-1.47 1.64-2.73-.04-3.77-.56.31-1.12.88-1.67.88-1.84 0-3.46.39-4.99 1.48-1.18.84-2.63 1.28-3.81 2.1-1.28.89-3.11 1.03-3.77 2.79L0 67.52c.83 1.92 2.04 3.54 2.13 5.22.11 1.96.95 2.78 2.47 3.44.57.25 1.09.63 1.74 1.02 5.7-2.13 9.98-6.36 14.71-10.93l-3.53-1.99 3.41-1.2zm10.66 74.44c1.27-1.59.43-2.7-.79-3.67-.01.01-.03.01-.04.02l.58 1.77-.54.35-1.48-1.48 1.44-.63c-.01-.02-.01-.04-.02-.07.02.02.04.03.06.05l.78.22.05.06c.01-.04.01-.07.02-.11-.02.01-.04.01-.06.02-.92-1.94-2.62-3.04-4.58-2.65-1.28.26-2.24.67-3.49-.06-.56-.33-1.49-.16-2.22-.03l-6.17 1.33c.02.87-.33 2.18.13 3.09.89 1.76-1.59 1.59-1.31 2.82.09.41.26.8.36 1.21.16.61.55 1.3.4 1.83-.52 1.83-.06 3.21 1.59 4.08 1.39.72 2.81 1.58 4.31 1.83 1.64.28 3.4-.16 5.1-.09 1.48.06 2.3-.6 3.18-1.71 1.17-1.48 2.64-2.72 4.04-4.11l-1.01-2.64 3.14.07-3.47-1.5zM43.7 53.36l9.1-1.41c1.34-.22 4.49-3.15 4.01-3.98-1.02-1.75.51-2.23 1.15-3.4-2.7-.03-2.57-2.95-4.58-3.93l2-1.47c-1.77-1.72-3.83-1.93-6.01-1.68-1.27.15-2.57.56-3.81.44-2.51-.24-4.24 1.34-6.18 2.37-.58.31-.97 1.4-1.05 2.17-.17 1.76-.1 3.55-.13 5.41l-2.42.92c.5.86 1.12 2.16 1.26 2.11 2.13-.74 2.58 1.57 3.97 2.04.85.3 1.82.52 2.69.41zm70.38 86.33c-2.52-1.42.28-3.45-.12-5.46-1.98.07-4.09-.23-5.95.31-1.51.44-2.85 1.75-4.05 2.91-1.22 1.18-2 2.84-3.27 3.95-1.41 1.23-.25 2.76-1.01 4.21-1.48 2.87-.89 4.76.55 6.94.62.94.88 2.23 1.69 2.9 1.41 1.15 3.09 1.98 4.72 2.82.2.1.99-.46 1.18-.87l5.53-12.63c.35-.87-.11-2.04-.03-3.06.05-.6.43-1.18.76-2.02zm43.2-32.71c.75-2.37 1.77-4.68.41-7.17-.19-.35-.24-.85-.16-1.24.29-1.55-.79-2.04-2.02-2.55l.79-2.61-5.3-.57-3.15 6.2c-.71 1.41-1.27 2.91-2.14 4.21-1.03 1.54-1.24 3.16-1.38 5.01l1.3-.49c.04 1.29-.35 2.75.19 3.32 1.07 1.13 1.16 2.44 1.59 3.72.17.5.41.99.68 1.45 1.77 3.07 4.37 3.16 6.11.16.63-1.1 1.07-2.33 1.45-3.54l1.63-5.9zm-38.74-27.12l-4.97-.83c.09-2.17.28-3.89 2.4-4.62l-1.21-1.84-.81 1.89c-.33-.15-.62-.2-.65-.31-.2-.82-.73-1.84-.44-2.44.82-1.66 0-2.54-1.49-3.47 1.17-2.3 2.56-4.39 3.29-6.68.69-2.17 3.5-3.01 3.22-5.81 1.52.39 3.13 1.04 4.42-.79l4.29 2.97-2.52.89.04.53 3.07.04c.68 2.9-.26 5.65-1.66 8-1.88 3.15-4.44 5.88-5.11 9.7-.17.96-1.15 1.75-1.87 2.77zm.39-2.92l-3.37-.47 2.18 1.89 1.19-1.42zm7.88 31.35l-2.06.05-.68 1.6c-.35 0-.67.08-.75-.02-.96-1.32-2.51-1.37-3.85-1.91l-9.04-3.92c-.84-.4-1.44-1.32-2.14-2l.4-.57 2.36.71c-.24-.63-.26-1.05-.46-1.16-.9-.5-2.07-.68-1.94-2.15.14-1.56-.05-3.2.35-4.68.34-1.28 1.79-1.54 2.89-.69.72.56 1.24 1.38 1.85 2.09l-.11.1.06.06-1.04 1.72 2.87.06-1.83-1.79c.02-.04.05-.08.07-.12l-.03-.03c.3-.28.63-.7.84-.65l5.05 1.53c.5.17.94.65 1.43.7 2.67.27 4.1 1.53 3.89 4.36-.02.3.48.65.65.87-.49.64-1.28 1.21-1.28 1.79-.01.65-.1 1.9 1.21 1.85 1.57-.05 1.32 1.02 1.29 2.2zm-15.76-10.27l.27-1.96c-1.39.55-1.69 1.1-.27 1.96zm13.32-43.13c.18.15.64-.04 1.24-.1-.31-.67-.39-1.2-.66-1.32-.25-.11-.88.16-.99.41s.15.79.41 1.01z" fill-opacity=".05"/><path d="M33.44 132.92l-1.52-.46-.27 1.57 1.77-.6.02-.51z" fill-opacity=".05"/></g><defs><clipPath id="A"><path fill="#fff" d="M0 0h163.87v158.29H0z"/></clipPath></defs></svg>