<svg xmlns="http://www.w3.org/2000/svg" width="1440" height="512" fill="none" xmlns:v="https://vecta.io/nano"><path d="M1643.74 273.369c-.26-1.303-.8-2.533-1.58-3.606-.79-1.074-1.79-1.965-2.95-2.614l-1.38-1.977c-.08-1.262-.51-2.475-1.26-3.497l-.68-2.035c-.33-1.744-.99-3.409-1.95-4.901-3.26-6.229-5.21-13.055-5.74-20.063-.22.321-.51.586-.86.774-.94.545-1.37-.659-1.89-1.605-.01-.047-.01-.096 0-.143-2.41-4.299-1.69-8.971-1.55-14.331.95 2.322.78 4.672 2.18 6.134.3.372.67.683 1.09.917-.77-3.572-.34-7.296 1.21-10.605 1.17-4.161 2.12-8.38 2.86-12.639.82-1.72 1.32-3.575 1.46-5.474 1.38-4.2 2.18-8.568 2.38-12.984.59-7.325.59-14.686 0-22.012.01-9.426-.95-18.829-2.86-28.059-.32-1.719-2.18-4.041 1.49-4.557l.34-.917c1.92 2.666.8 5.962 1.86 8.799.69 7.538 1.78 15.076 2.01 22.671a57.38 57.38 0 0 0-1.26-22.929c-.01-.162-.01-.325 0-.487 1.69-7.882-1.49-14.331-5.73-20.751a7.78 7.78 0 0 0-2.01-4.127c.43-4.958-.34-10.003.97-14.904a16.86 16.86 0 0 1 .49 6.592 8.57 8.57 0 0 0-.31 6.22l.97-4.844c-.17-2.866.83-5.531-.4-8.226.43-4.643-1.52-9.401.75-13.929 0 0-.26-.344-.38-.545a11.05 11.05 0 0 0 .69-4.729v-2.035a34.64 34.64 0 0 0 .86-6.879l.83-3.411a1.28 1.28 0 0 0 .54-.585c.12-.246.16-.521.12-.79a153.73 153.73 0 0 0 2.09-25.795c-.17-4.283-1.57-8.425-4.04-11.932a22.31 22.31 0 0 0-9.86-7.844 27.91 27.91 0 0 0-13.7-3.153c.23-1.404 2.18-.917 2.24-2.235a98.79 98.79 0 0 0-21.5 2.551l-6.19.487-8.86-.974c-.94-3.669-.86-3.726 6.25-5.016a80.53 80.53 0 0 0-17.37-1.404 7.17 7.17 0 0 0 .74.717c.95.659 2.87.745 2.38 2.264-.48 1.519-1.97 0-3.03 0a113.76 113.76 0 0 0-17.03-3.353c-2.52-2.15-3.64 1.261-5.73 1.519-.77.159-1.56.149-2.32-.029-.77-.178-1.48-.52-2.1-1.003-1.52-1.204.92-2.006.61-3.21a25.5 25.5 0 0 0-10.29-1.863 11.75 11.75 0 0 1-5.62-.589 11.71 11.71 0 0 1-4.7-3.137h-2.87L1507.16 0h-3.44v.631c-9.69-.315-18.77 2.866-27.98 5.13-4.09 1.032-8.19 1.949-12.35 2.694-1.29.229-3.55.659-3.84-.315-1.49-5.503-5.96-3.669-8.6-2.866-6.99 2.35-13.59 5.732-21.07 6.535-2.09.172-4.24-.688-6.22.459l-8.11.344a93.19 93.19 0 0 1 10.98-3.64l13.76-3.239c-4.62-1.146-8.6.315-12.18-1.347a3.83 3.83 0 0 0 2.86-.516h-2.86c-1.44 0-2.87-.573-4.22.487a25.83 25.83 0 0 0-9.03.573c-3.49 1.118-7.82.86-9.68 5.073-2.61 1.462-5.74-.172-8.29 1.175h-1.86c-1.72-.268-3.48.066-4.99.946a18.15 18.15 0 0 0 7.66-.172h1.92c2.17 0 4.47.717 6.3-1.175 3.46-2.425 7.49-3.925 11.7-4.356-3.36 2.092-6.83 2.866-9.06 5.732a9.59 9.59 0 0 1-6.22 2.866c-1.41 0-2.87-.487-4.19.373h-2.63-.75a13.29 13.29 0 0 0-6.19.43h-2.87-4.12a2.11 2.11 0 0 1-.8-.554 2.01 2.01 0 0 1-.46-.85l4.35-2.15a3.29 3.29 0 0 1-.2-.43l-8.31.43a42.66 42.66 0 0 1-4.67-.803c-4.87-.791-9.84-.586-14.62.602l-13.64-.229-8.23-.86a22.19 22.19 0 0 0-8.6-.688 13.62 13.62 0 0 1 5.73 4.557c.92 1.748.26 2.236-1.43 2.178a133.98 133.98 0 0 0-21.98 0h-2.87l-7.25-.172c2.32-2.579 5.93-1.634 7.82-4.442-1.34-.201-2.12-.917-3.61 0-.79.562-1.71.914-2.67 1.024a5.72 5.72 0 0 1-2.83-.393 10.55 10.55 0 0 0-4.25-1.164 10.53 10.53 0 0 0-4.35.677 17.68 17.68 0 0 0-7.91.975c-.06-.033-.13-.05-.2-.05s-.14.017-.2.05h-1.38-3.38c-1.92 0-3.87-.229-5.73-.201-2.47 0-5.11-.917-7.34.344-3.28 1.529-6.8 2.443-10.41 2.694-2.06 0-4.18-.717-6.19.459l-28.66-.745c-.8-.889-1.89-.659-2.87-.688l-32.13-.831h-.74c-2.38.43-4.36-2.092-6.85-.974-1.32-.201-2.87.545-3.99-.659l.75-.258c-.6-.975-1.41-.803-2.27-.401l-22.93 1.777c6.82 2.264 13.73.287 21.13.917-1.21-1.146-2.53-.287-3.21-1.404 3.06-.214 6.12.307 8.94 1.519a20.07 20.07 0 0 1-7.57 1.232h-1.37c-4.22 0-8.43-.373-12.64-.344a22.46 22.46 0 0 0-7.46.172 1.78 1.78 0 0 0-.6.229h-5.44-6.2c-12.35-.889-24.73.287-37.11-.373h-1.38-3.44l-14.33-.315-41.48-1.06a20 20 0 0 0-7.33 1.06l-64.61-.659-23.361-.688c-1.404 0-2.866-.573-4.156.487-2.035-.287-4.07-1.204-6.134 0-10.777-.716-21.526 0-32.303 0h-4.844c-7.08-.287-14.131-.172-21.211 0-8.599.201-17.398-.344-26.083-.516-1.204 0-2.522-.459-3.612.545l-6.134-.516h-2.092c-14.647-.917-29.322 0-43.998-.43-7.997-.716-16.022.172-24.019 0h-3.469-1.347c-2.866 0-5.732-.315-8.599-.229-4.07 0-8.14-.889-12.153.315a18.31 18.31 0 0 0-6.248-.688 11.78 11.78 0 0 1-10.29-3.698h-2.867l-6.191-.143h-3.439v.631c-7.405.066-14.758 1.244-21.813 3.497-7.252-.401-14.475 0-21.726 0a9.62 9.62 0 0 0-2.867.573c-2.106-.669-4.392-.484-6.363.516-6.965 2.35-13.586 5.732-21.067 6.506-2.064.172-4.214-.688-6.22.487l-8.112.315a88.37 88.37 0 0 1 11.093-3.697l13.787-3.353c-4.586-1.175-8.599.315-12.153-1.347.859 0 1.777.315 2.866-.516h-3.01c-1.404 0-2.866-.602-4.185.487a25.22 25.22 0 0 0-9.057.573c-3.497 1.089-7.796.831-9.688 5.073-2.609 1.433-5.733-.201-8.255 1.146h-1.892a7.51 7.51 0 0 0-4.959.974 17.69 17.69 0 0 0 7.883-.201h1.92c2.15 0 4.472.716 6.277-1.146a24.89 24.89 0 0 1 11.58-4.5c-3.382 2.064-6.85 2.866-9.057 5.732a9.69 9.69 0 0 1-6.249 2.866 6.48 6.48 0 0 0-4.156.373h-2.637-.745a13.33 13.33 0 0 0-6.191.43h-2.723-4.128a2.22 2.22 0 0 1-.81-.568c-.224-.248-.387-.544-.48-.865l4.357-2.15s-.143-.258-.201-.401l-8.312.43c-1.576-.172-3.153-.201-4.672-.516a35.4 35.4 0 0 0-14.618.602l-13.615-.373-8.284-.974c-2.798-.763-5.714-.996-8.599-.688 2.379 1.433 4.644 2.322 5.733 4.586.917 1.72.258 2.236-1.433 2.178a134.04 134.04 0 0 0-21.985 0h-2.866l-7.28-.172c2.35-2.608 5.933-1.634 7.853-4.442-1.375-.201-2.121-.917-3.64 0a5.73 5.73 0 0 1-5.503.63c-1.32-.679-2.769-1.07-4.251-1.149a10.51 10.51 0 0 0-4.348.691 17.57 17.57 0 0 0-7.882.946.46.46 0 0 0-.43 0h-1.376-3.382c-1.921 0-3.841-.258-5.733-.201-2.465 0-5.102-.946-7.366.344-3.274 1.5-6.787 2.412-10.376 2.694-2.064 0-4.214-.716-6.192.43l-28.663-.745c-.802-.889-1.891-.659-2.866-.688l-32.131-.688h-.717c-2.407.43-4.385-2.092-6.85-.946-1.347-.201-2.867.516-3.984-.688l.773-.287c-.63-.946-1.433-.803-2.293-.373l-22.93 1.748c6.851 2.264 13.758.287 21.153.917-1.232-1.118-2.522-.258-3.21-1.376a18.63 18.63 0 0 1 8.943 1.519 20.73 20.73 0 0 1-7.596 1.232h-1.376c-4.213 0-8.427-.372-12.64-.344-2.467-.359-4.976-.301-7.424.172a1.33 1.33 0 0 0-.602.229h-5.474-6.163c-12.382-.86-24.765.315-37.262-.344h-1.376-3.439l-14.332-.315-41.475-1.06a20.55 20.55 0 0 0-7.309 1.06l-64.635-.172-23.389-.602c-1.376 0-2.867-.573-4.128.516-2.035-.315-4.07-1.232-6.134 0-10.777-.716-21.554 0-32.303 0h-4.873c-7.051-.258-14.131-.172-21.211 0-8.599.172-17.37-.344-26.055-.516-1.233 0-2.551-.459-3.612.516h-6.163-2.064C23.76 22.928 9.084 23.787-5.591 23.3c-7.997-.716-15.994.172-23.991 0h-3.497-1.319c-2.866 0-5.733-.315-8.599-.258-4.041 0-8.14-.888-12.153.315h-2.866l-17.198-.373a66.1 66.1 0 0 0-13.042.258h-2.866l-3.784-.315h-4.127-4.844a232.39 232.39 0 0 0-23.647 0 11.47 11.47 0 0 0-5.217 1.548c-1.794 1.12-3.343 2.591-4.555 4.325a15.69 15.69 0 0 0-2.496 5.764 181.64 181.64 0 0 0-8.771 41.3h-.659v4.127l-.717 24.018v3.439h.631c.547 14.895 2.945 29.663 7.137 43.966.059.225.136.446.229.659 0 4.07 0 8.14-.2 12.181-1.778 4.844-.574 10.576-4.931 15.076-2.223 2.954-3.69 6.408-4.27 10.06-1.176 4.872-3.067 9.487-4.013 14.33v1.376l-2.179 5.446-1.003.659c-4.213.487-6.42 3.411-8.398 6.707-5.446 6.448-2.035 13.785-1.806 20.721.253 1.298.784 2.526 1.556 3.599a9.15 9.15 0 0 0 2.916 2.621l1.404 1.977a6.62 6.62 0 0 0 1.233 3.497c.258.688.487 1.376.716 2.035a13.26 13.26 0 0 0 1.949 4.901c3.267 6.224 5.218 13.053 5.733 20.063a3.75 3.75 0 0 1 .86-.774c.974-.545 1.404.659 1.92 1.605 2.379 4.328 1.691 8.971 1.548 14.33-.975-2.292-.774-4.671-2.178-6.133a3.78 3.78 0 0 0-1.061-.774c.74 3.582.318 7.307-1.204 10.633a117.52 117.52 0 0 0-2.866 12.611c-.838 1.713-1.335 3.572-1.462 5.474-1.392 4.197-2.192 8.567-2.379 12.984a134.37 134.37 0 0 0 0 22.012 137.62 137.62 0 0 0 2.866 28.059c.344 1.719 2.207 4.07-1.461 4.557l-.344.917c-1.949-2.637-.832-5.933-1.863-8.799-.688-7.538-1.778-15.076-2.007-22.671-1.125 7.65-.696 15.448 1.261 22.929a3.5 3.5 0 0 0 0 .458c-1.691 7.882 1.491 14.331 5.733 20.751.249 1.557.958 3.004 2.035 4.156-.43 4.958.344 10.003-1.003 14.875a16.87 16.87 0 0 1-.516-6.563c1.318-1.949.602-4.099.344-6.249l-.975 4.844c.172 2.866-.831 5.56.402 8.226-.43 4.643 1.49 9.401-.746 13.929 0 0 .23.373.373.545-.569 1.508-.804 3.121-.688 4.729v2.035c-.513 2.259-.801 4.563-.86 6.878l-.831 3.411c-.236.136-.426.34-.543.586s-.158.521-.116.79a153.42 153.42 0 0 0-2.093 25.795c.19 4.283 1.613 8.421 4.1 11.915a22.25 22.25 0 0 0 9.916 7.775 27.64 27.64 0 0 0 13.701 3.152c-.229 1.405-2.178.918-2.235 2.236 7.235-.065 14.443-.911 21.497-2.522l6.191-.516 8.857.974a.66.66 0 0 0 .201-.2l-.201.172c.917 3.668.86 3.726-6.249 5.015 5.721 1.111 11.546 1.582 17.37 1.405-.459-.43-.573-.602-.745-.717-.946-.659-2.866-.745-2.379-2.264s1.978 0 3.01 0a114.47 114.47 0 0 0 17.026 3.296c2.522 2.178 3.64-1.261 5.733-1.519a5.36 5.36 0 0 1 2.321.026 5.37 5.37 0 0 1 2.093 1.006c1.548 1.204-.889 2.006-.573 3.21a25.79 25.79 0 0 0 10.29 1.891 11.7 11.7 0 0 1 5.55.686 11.69 11.69 0 0 1 4.597 3.184h2.866l6.191.143h3.439v-.631c9.717.316 18.803-2.866 28.004-5.13 4.099-1.032 8.198-1.949 12.325-2.694 1.29-.229 3.583-.631 3.841.315 1.519 5.532 5.991 3.669 8.599 2.866 6.965-2.35 13.586-5.732 21.067-6.506 2.092-.172 4.242.688 6.22-.487l8.112-.315a86.86 86.86 0 0 1-10.978 3.582l-13.787 3.354c4.586 1.175 8.599-.315 12.153 1.347-.986-.205-2.013-.02-2.866.516h2.866c1.405 0 2.866.602 4.213-.487 3.02.357 6.079.162 9.029-.574 3.497-1.089 7.796-.86 9.688-5.073 2.608-1.433 5.733.172 8.255-1.175l1.892-.143a7.48 7.48 0 0 0 4.959-.946 18.15 18.15 0 0 0-7.653.172l-1.92.143c-2.15 0-4.472-.716-6.277 1.147-3.463 2.425-7.489 3.925-11.694 4.356 3.382-2.063 6.851-2.866 9.058-5.732 1.662-1.687 3.885-2.707 6.249-2.866a6.56 6.56 0 0 0 4.185-.373l2.637-.143h.745a13.29 13.29 0 0 0 6.191-.43h2.866 4.127a2.24 2.24 0 0 1 .802.558 2.25 2.25 0 0 1 .488.847l-4.357 2.178.201.401 8.312-.43c1.577.172 3.153.201 4.672.516 4.873.791 9.856.586 14.647-.602l13.644.229 8.226.889a22.7 22.7 0 0 0 8.599.659c-2.379-1.404-4.644-2.293-5.733-4.557-.917-1.72-.258-2.236 1.433-2.178a134.04 134.04 0 0 0 21.985 0h2.866l7.281.172c-2.351 2.579-5.934 1.633-7.854 4.442 1.376.201 2.121.917 3.64 0 .79-.561 1.708-.914 2.671-1.024s1.937.025 2.832.394a10.53 10.53 0 0 0 4.248 1.164c1.482.084 2.965-.147 4.351-.677a17.2 17.2 0 0 0 7.481-.201c.067.035.14.054.215.054a.46.46 0 0 0 .215-.054h1.376 3.382c1.921 0 3.841.258 5.733.201 2.465 0 5.102.917 7.366-.344a29.42 29.42 0 0 1 10.377-2.723c2.063 0 4.213.717 6.191-.43l28.663.745c.831.86 1.892.66 2.866.688l32.16.803h.717c2.407-.43 4.385 2.063 6.879.946 1.318.2 2.866-.545 3.955.688l-.774.257c.631.975 1.433.832 2.293.402l22.931-1.749c-6.822-2.292-13.73-.286-21.154-.945 1.233 1.146 2.523.286 3.239 1.404a19.04 19.04 0 0 1-8.971-1.519 20.23 20.23 0 0 1 7.596-1.232h1.375c4.214.143 8.427.372 12.641.343a22.41 22.41 0 0 0 7.452-.172 1.11 1.11 0 0 0 .573-.229h5.475l6.191.144c12.354.859 24.736-.316 37.119.343h1.376 3.411l14.331.287 41.475 1.089a21.52 21.52 0 0 0 7.338-1.06l64.635.172 23.361.602c1.376 0 2.866.601 4.127-.488 2.064.287 4.099 1.204 6.163 0 10.748.717 21.526 0 32.303 0h4.844c7.051.258 14.131.172 21.211 0 8.599-.2 17.369.344 26.083.516 1.204 0 2.522.459 3.612-.544h6.133 2.064c14.676.917 29.351 0 44.027.43 7.997.716 15.994-.172 24.019 0h3.468 1.606c2.866 0 5.732.315 8.598.257 4.042 0 8.141.86 12.154-.343a17.53 17.53 0 0 0 6.219.687 11.79 11.79 0 0 1 5.62.589c1.798.649 3.411 1.726 4.699 3.137h2.866l6.192.172h3.41v-.659a73.82 73.82 0 0 0 21.813-3.497c7.223.43 14.475 0 21.727 0 .98-.029 1.949-.223 2.866-.573 1.041.346 2.141.478 3.234.39s2.157-.397 3.129-.906c6.994-2.35 13.586-5.732 21.096-6.506 2.064-.172 4.214.688 6.22-.458l7.739.487a90.22 90.22 0 0 1-10.978 3.611l-13.787 3.325c4.586 1.175 8.599-.315 12.153 1.347-.831 0-1.748-.287-2.866.516h3.01c1.404 0 2.866.602 4.184-.487 3.029.357 6.098.163 9.058-.574 3.468-1.089 7.796-.831 9.688-5.073 2.58-1.433 5.733.201 8.255-1.146l1.892-.143c1.716.27 3.472-.075 4.959-.975-2.537-.479-5.146-.41-7.654.201h-1.92c-2.178 0-4.471-.717-6.306 1.146-3.466 2.424-7.489 3.932-11.694 4.385 3.382-2.063 6.85-2.866 9.057-5.732a9.46 9.46 0 0 1 6.249-2.866 6.68 6.68 0 0 0 4.156-.401l2.665-.143h.746c2.068.359 4.192.211 6.191-.43h2.723 4.127c.303.131.574.327.792.575a2.25 2.25 0 0 1 .47.858l-4.329 2.149.172.402 8.341-.43c1.548.172 3.153.2 4.672.516a35.42 35.42 0 0 0 14.619-.602l13.643.258 8.255.859c2.798.765 5.715.998 8.599.688-2.379-1.433-4.643-2.321-5.733-4.557-.945-1.748-.257-2.264 1.434-2.178a137.08 137.08 0 0 0 21.955 0h2.867l7.252.201c-2.322 2.579-5.934 1.605-7.825 4.442 1.347.201 2.121.917 3.611 0 .789-.561 1.708-.914 2.671-1.024s1.936.025 2.832.394c1.32.678 2.769 1.07 4.251 1.149a10.51 10.51 0 0 0 4.348-.691 17.62 17.62 0 0 0 7.911-.946c.074.013.149.007.22-.018a.43.43 0 0 0 .182-.125h1.375 3.383c1.949 0 3.869.258 5.732.201 2.462 0 5.102.945 7.362-.344 3.28-1.503 6.79-2.415 10.38-2.694 2.06 0 4.21.745 6.19-.43l28.66.745c.81.888 1.9.659 2.87.688l32.16.802h.72c2.38-.43 4.35 2.092 6.85.975 1.35.172 2.86-.545 3.98.659l-.77.258c.63.946 1.43.802 2.26.401l22.93-1.777c-6.85-2.264-13.76-.287-21.15-.917 1.2 1.118 2.52.258 3.21 1.376-3.06.233-6.13-.279-8.94-1.491 2.43-.89 5-1.318 7.59-1.261h1.38c4.21 0 8.4.344 12.61.315 2.48.374 5 .316 7.45-.172.21-.027.42-.095.6-.2h5.45l6.19.143c12.38.86 24.77-.315 37.12.344h1.38 3.44l14.33.315 41.5 1.061c2.48.091 4.96-.269 7.31-1.061l64.64.172 23.36.602c1.4 0 2.86.573 4.15-.516 2.04.316 4.07 1.233 6.14 0 10.77.745 21.55 0 32.3 0h4.84c7.08.258 14.16.172 21.24 0 8.6-.2 17.37.316 26.06.488 1.2 0 2.52.458 3.61-.516h6.13 2.1c14.64.917 29.35 0 43.99.43 8.03.687 16.03-.201 24.02 0h3.47 1.35c2.86 0 5.73.315 8.6.258 4.04 0 8.11.888 12.12-.316h2.87l17.2.373a64.02 64.02 0 0 0 13.04-.258h2.86 4.1 4.1l4.87.143c7.89.602 15.77 0 23.65 0a11.5 11.5 0 0 0 5.19-1.605 15.71 15.71 0 0 0 4.55-4.325c1.22-1.733 2.06-3.694 2.5-5.763a181.71 181.71 0 0 0 8.8-41.301h.52v-4.098l.6-24.047V402.8h-.6a182.85 182.85 0 0 0-7.23-43.938l-.23-.659c0-4.07 0-8.111.2-12.181 1.78-4.958.58-10.604 5.08-15.076 2.21-2.956 3.67-6.41 4.24-10.06 1.2-4.843 3.09-9.486 4.01-14.33v-1.347l2.18-5.446.77-.63c4.19-.459 6.42-3.411 8.37-6.707 5.54-4.786 2.27-12.123 2.04-19.059z" fill="#00aeef"/></svg>