<svg width="1440" height="512" viewBox="0 0 1440 512" fill="none" xmlns="http://www.w3.org/2000/svg">
<path d="M1643.74 273.369C1643.48 272.066 1642.94 270.836 1642.16 269.763C1641.37 268.689 1640.37 267.798 1639.21 267.149L1637.83 265.172C1637.75 263.91 1637.32 262.697 1636.57 261.675L1635.89 259.64C1635.56 257.896 1634.9 256.231 1633.94 254.739C1630.68 248.51 1628.73 241.684 1628.2 234.676C1627.98 234.997 1627.69 235.262 1627.34 235.45C1626.4 235.995 1625.97 234.791 1625.45 233.845C1625.44 233.798 1625.44 233.749 1625.45 233.702C1623.04 229.403 1623.76 224.731 1623.9 219.371C1624.85 221.693 1624.68 224.043 1626.08 225.505C1626.38 225.877 1626.75 226.188 1627.17 226.422C1626.4 222.85 1626.83 219.126 1628.38 215.817C1629.55 211.656 1630.5 207.437 1631.24 203.178C1632.06 201.458 1632.56 199.603 1632.7 197.704C1634.08 193.504 1634.88 189.136 1635.08 184.72C1635.67 177.395 1635.67 170.034 1635.08 162.708C1635.09 153.282 1634.13 143.879 1632.22 134.649C1631.9 132.93 1630.04 130.608 1633.71 130.092C1633.71 130.092 1633.94 129.49 1634.05 129.175C1635.97 131.841 1634.85 135.137 1635.91 137.974C1636.6 145.512 1637.69 153.05 1637.92 160.645C1639.05 152.995 1638.62 145.196 1636.66 137.716C1636.65 137.554 1636.65 137.391 1636.66 137.229C1638.35 129.347 1635.17 122.898 1630.93 116.478C1630.69 114.932 1629.99 113.493 1628.92 112.351C1629.35 107.393 1628.58 102.348 1629.89 97.4474C1630.49 99.5918 1630.65 101.831 1630.38 104.039C1629.5 106 1629.39 108.219 1630.07 110.259C1630.38 108.625 1630.7 107.02 1631.04 105.415C1630.87 102.549 1631.87 99.8836 1630.64 97.1894C1631.07 92.5463 1629.12 87.7886 1631.39 83.2602C1631.39 83.2602 1631.13 82.9163 1631.01 82.7156C1631.58 81.2082 1631.82 79.5942 1631.7 77.9866V75.9516C1632.22 73.6932 1632.5 71.3888 1632.56 69.073C1632.85 67.9266 1633.1 66.8088 1633.39 65.6623C1633.63 65.5265 1633.82 65.3224 1633.93 65.0768C1634.05 64.8312 1634.09 64.5557 1634.05 64.2866C1635.47 55.7627 1636.17 47.1336 1636.14 38.4917C1635.97 34.2088 1634.57 30.0666 1632.1 26.5598C1629.64 23.053 1626.21 20.3298 1622.24 18.7156C1618.02 16.5133 1613.3 15.4279 1608.54 15.5629C1608.77 14.1585 1610.72 14.6458 1610.78 13.3274C1603.54 13.3877 1596.33 14.2431 1589.28 15.8782L1583.09 16.3654L1574.23 15.391C1573.29 11.7223 1573.37 11.665 1580.48 10.3753C1574.76 9.28014 1568.93 8.80926 1563.11 8.97089C1563.34 9.22921 1563.59 9.46881 1563.85 9.68742C1564.8 10.3466 1566.72 10.4326 1566.23 11.9516C1565.75 13.4707 1564.26 11.9516 1563.2 11.9516C1557.61 10.4007 1551.92 9.27968 1546.17 8.5983C1543.65 6.44872 1542.53 9.85938 1540.44 10.1173C1539.67 10.2763 1538.88 10.2663 1538.12 10.0881C1537.35 9.90995 1536.64 9.56781 1536.02 9.08554C1534.5 7.88177 1536.94 7.07927 1536.63 5.8755C1533.36 4.54985 1529.86 3.91551 1526.34 4.01254C1524.44 4.2751 1522.51 4.0731 1520.72 3.42397C1518.92 2.77485 1517.3 1.69809 1516.02 0.28661H1513.15L1507.16 0H1503.72C1503.72 0.200627 1503.72 0.429915 1503.72 0.630542C1494.03 0.315271 1484.95 3.49664 1475.74 5.76086C1471.65 6.79266 1467.55 7.70981 1463.39 8.45499C1462.1 8.68428 1459.84 9.1142 1459.55 8.13972C1458.06 2.63681 1453.59 4.47112 1450.95 5.27362C1443.96 7.62382 1437.36 11.0058 1429.88 11.8083C1427.79 11.9803 1425.64 11.1205 1423.66 12.2669L1415.55 12.6108C1419.13 11.171 1422.8 9.95539 1426.53 8.97089L1440.29 5.7322C1435.67 4.58576 1431.69 6.04747 1428.11 4.38513C1429.09 4.59609 1430.12 4.41079 1430.97 3.86923H1428.11C1426.67 3.86923 1425.24 3.29601 1423.89 4.35647C1420.87 4.01423 1417.82 4.20828 1414.86 4.92969C1411.37 6.04747 1407.04 5.78952 1405.18 10.0027C1402.57 11.4644 1399.44 9.83072 1396.89 11.1778H1395.03C1393.31 10.9094 1391.55 11.2435 1390.04 12.1236C1392.58 12.612 1395.19 12.5534 1397.7 11.9516H1399.62C1401.79 11.9516 1404.09 12.6682 1405.92 10.7765C1409.38 8.35109 1413.41 6.85143 1417.62 6.42006C1414.26 8.51231 1410.79 9.28616 1408.56 12.1523C1406.91 13.8418 1404.69 14.8626 1402.34 15.0184C1400.93 15.0184 1399.47 14.5311 1398.15 15.391H1395.52H1394.77C1392.7 15.044 1390.58 15.1914 1388.58 15.8209H1385.71H1381.59C1381.28 15.7 1381.01 15.5103 1380.79 15.2667C1380.57 15.023 1380.41 14.732 1380.33 14.4165L1384.68 12.2669C1384.6 12.1294 1384.54 11.9856 1384.48 11.837L1376.17 12.2669C1374.6 12.0855 1373.04 11.8176 1371.5 11.4644C1366.63 10.6737 1361.66 10.8785 1356.88 12.0663L1343.24 11.837L1335.01 10.9772C1332.22 10.1875 1329.29 9.95379 1326.41 10.2893C1328.7 11.2563 1330.68 12.8323 1332.14 14.8464C1333.06 16.5947 1332.4 17.082 1330.71 17.0246C1323.39 16.4228 1316.04 16.4228 1308.73 17.0246H1305.86L1298.61 16.8527C1300.93 14.2732 1304.54 15.219 1306.43 12.4102C1305.09 12.2096 1304.31 11.4931 1302.82 12.4102C1302.03 12.9717 1301.11 13.324 1300.15 13.4343C1299.19 13.5445 1298.21 13.4091 1297.32 13.0408C1296 12.3575 1294.55 11.9608 1293.07 11.8768C1291.59 11.7929 1290.11 12.0235 1288.72 12.5535C1286.04 12.2722 1283.34 12.6054 1280.81 13.528C1280.75 13.4954 1280.68 13.4783 1280.61 13.4783C1280.54 13.4783 1280.47 13.4954 1280.41 13.528H1279.03H1275.65C1273.73 13.528 1271.78 13.2987 1269.92 13.3274C1267.45 13.3274 1264.81 12.4102 1262.58 13.6713C1259.3 15.2008 1255.78 16.1141 1252.17 16.3654C1250.11 16.3654 1247.99 15.6489 1245.98 16.824L1217.32 16.0788C1216.52 15.1903 1215.43 15.4196 1214.45 15.391L1182.32 14.5598H1181.58C1179.2 14.9897 1177.22 12.4675 1174.73 13.5853C1173.41 13.3847 1171.86 14.1299 1170.74 12.9261L1171.49 12.6682C1170.89 11.6937 1170.08 11.8657 1169.22 12.2669L1146.29 14.0439C1153.11 16.3081 1160.02 14.3305 1167.42 14.961C1166.21 13.8146 1164.89 14.6744 1164.21 13.5567C1167.27 13.3428 1170.33 13.8636 1173.15 15.0757C1170.73 15.969 1168.16 16.3875 1165.58 16.3081H1164.21C1159.99 16.3081 1155.78 15.9355 1151.57 15.9642C1149.09 15.6052 1146.57 15.6633 1144.11 16.1361C1143.9 16.174 1143.7 16.2518 1143.51 16.3654H1138.07H1131.87C1119.52 15.4769 1107.14 16.652 1094.76 15.9928H1093.38C1092.23 15.9928 1091.09 15.9928 1089.94 15.9928L1075.61 15.6776C1061.79 15.305 1047.95 14.8751 1034.13 14.6171C1031.64 14.5117 1029.15 14.8714 1026.8 15.6776L962.19 15.0184L938.829 14.3305C937.425 14.3305 935.963 13.7573 934.673 14.8177C932.638 14.5311 930.603 13.614 928.539 14.8177C917.762 14.1012 907.013 14.8177 896.236 14.8177H891.392C884.312 14.5311 877.261 14.6458 870.181 14.8177C861.582 15.0184 852.783 14.4738 844.098 14.3018C842.894 14.3018 841.576 13.8433 840.486 14.8464L834.352 14.3305H832.26C817.613 13.4133 802.938 14.3305 788.262 13.9006C780.265 13.1841 772.24 14.0725 764.243 13.9006H760.774H759.427C756.561 13.9006 753.695 13.5853 750.828 13.6713C746.758 13.6713 742.688 12.7828 738.675 13.9866C736.648 13.3989 734.534 13.1662 732.427 13.2987C730.54 13.5599 728.619 13.3601 726.827 12.7161C725.035 12.0722 723.425 11.0034 722.137 9.60143H719.27L713.079 9.45813H709.64C709.64 9.65875 709.64 9.85938 709.64 10.0887C702.235 10.1543 694.882 11.333 687.827 13.5853C680.575 13.1841 673.352 13.5853 666.101 13.5853C665.121 13.629 664.155 13.8223 663.234 14.1585C661.128 13.4894 658.842 13.6746 656.871 14.6744C649.906 17.0246 643.285 20.4066 635.804 21.1805C633.74 21.3524 631.59 20.4926 629.584 21.6677L621.472 21.983C625.084 20.507 628.79 19.2718 632.565 18.2857L646.352 14.9324C641.766 13.7573 637.753 15.2476 634.199 13.5853C635.058 13.5853 635.976 13.9006 637.065 13.0694H634.055C632.651 13.0694 631.189 12.4675 629.87 13.5567C626.841 13.1986 623.773 13.3928 620.813 14.1299C617.316 15.219 613.017 14.961 611.125 19.2029C608.516 20.6359 605.392 19.0022 602.87 20.3493H600.978C599.262 20.0916 597.51 20.4359 596.019 21.3238C598.628 21.8509 601.323 21.7823 603.902 21.1232H605.822C607.972 21.1232 610.294 21.8397 612.099 19.9767C615.517 17.5218 619.501 15.9736 623.679 15.4769C620.297 17.5405 616.829 18.343 614.622 21.2091C612.959 22.8962 610.736 23.9158 608.373 24.0752C606.985 23.7376 605.523 23.8686 604.217 24.4478H601.58H600.835C598.766 24.102 596.645 24.2493 594.644 24.8777H591.921H587.793C587.484 24.752 587.207 24.5577 586.983 24.3095C586.76 24.0613 586.596 23.7656 586.503 23.4447L590.86 21.2951C590.86 21.2951 590.717 21.0372 590.659 20.8939L582.347 21.3238C580.771 21.1518 579.194 21.1232 577.675 20.8079C572.814 19.9884 567.835 20.1934 563.057 21.4098L549.442 21.0372L541.158 20.0627C538.36 19.2996 535.444 19.0663 532.559 19.3748C534.938 20.8079 537.203 21.6964 538.292 23.9606C539.209 25.6803 538.55 26.1961 536.859 26.1388C529.543 25.537 522.19 25.537 514.874 26.1388H512.008L504.728 25.9669C507.078 23.3587 510.661 24.3332 512.581 21.5244C511.206 21.3238 510.46 20.6073 508.941 21.5244C508.152 22.0859 507.233 22.4382 506.271 22.5485C505.308 22.6587 504.334 22.5233 503.438 22.1549C502.118 21.4763 500.669 21.0846 499.187 21.0055C497.705 20.9265 496.223 21.1619 494.839 21.6964C492.174 21.4062 489.477 21.7297 486.957 22.6422C486.89 22.6071 486.817 22.5887 486.742 22.5887C486.667 22.5887 486.593 22.6071 486.527 22.6422H485.151H481.769C479.848 22.6422 477.928 22.3842 476.036 22.4416C473.571 22.4416 470.934 21.4957 468.67 22.7855C465.396 24.2851 461.883 25.1971 458.294 25.4796C456.23 25.4796 454.08 24.7631 452.102 25.9095L423.439 25.1644C422.637 24.2759 421.548 24.5051 420.573 24.4765L388.442 23.7886H387.725C385.318 24.2185 383.34 21.6964 380.875 22.8428C379.528 22.6422 378.008 23.3587 376.891 22.1549L377.664 21.8683C377.034 20.9225 376.231 21.0658 375.371 21.4957L352.441 23.2441C359.292 25.5083 366.199 23.5307 373.594 24.1612C372.362 23.0434 371.072 23.9033 370.384 22.7855C373.445 22.5474 376.517 23.0692 379.327 24.3045C376.894 25.1859 374.318 25.6039 371.731 25.5369H370.355C366.142 25.5369 361.928 25.1644 357.715 25.193C355.248 24.834 352.739 24.8921 350.291 25.365C350.075 25.3905 349.868 25.4693 349.689 25.5943H344.215H338.052C325.67 24.7344 313.287 25.9095 300.79 25.2503H299.414H295.975L281.643 24.9351C267.828 24.5625 254.012 24.1612 240.168 23.8746C237.688 23.7839 235.211 24.1431 232.859 24.9351L168.224 24.7631L144.835 24.1612C143.459 24.1612 141.968 23.588 140.707 24.6771C138.672 24.3618 136.637 23.4447 134.573 24.6771C123.796 23.9606 113.019 24.6771 102.27 24.6771H97.3974C90.3463 24.4192 83.2665 24.5051 76.1868 24.6771C67.5878 24.8491 58.817 24.3332 50.1321 24.1612C48.8996 24.1612 47.5811 23.7026 46.5205 24.6771H40.358H38.2942C23.7621 22.9288 9.08662 23.7886 -5.58885 23.3014C-13.5858 22.5849 -21.5828 23.4734 -29.5798 23.3014H-33.0767H-34.3952C-37.2615 23.3014 -40.1278 22.9861 -42.9941 23.0434C-47.0356 23.0434 -51.1344 22.1549 -55.1472 23.3587H-58.0135L-75.2113 22.9861C-79.5564 22.6419 -83.9249 22.7283 -88.253 23.2441H-91.1193L-94.9028 22.9288H-99.0303H-103.874C-111.752 22.5275 -119.644 22.5275 -127.521 22.9288C-129.359 23.0186 -131.149 23.5495 -132.738 24.4765C-134.532 25.5968 -136.081 27.0678 -137.293 28.8014C-138.505 30.535 -139.354 32.4955 -139.789 34.5652C-144.308 47.9444 -147.252 61.8048 -148.56 75.8656H-149.219C-149.219 77.2414 -149.219 78.7318 -149.219 79.9928L-149.936 104.011V107.45H-149.305C-148.758 122.345 -146.36 137.113 -142.168 151.416C-142.109 151.641 -142.032 151.862 -141.939 152.075C-141.939 156.145 -141.939 160.215 -142.139 164.256C-143.917 169.1 -142.713 174.832 -147.07 179.332C-149.293 182.286 -150.76 185.74 -151.34 189.392C-152.516 194.264 -154.407 198.879 -155.353 203.722C-155.353 204.181 -155.353 204.639 -155.353 205.098C-156.07 206.904 -156.786 208.709 -157.532 210.544L-158.535 211.203C-162.748 211.69 -164.955 214.614 -166.933 217.91C-172.379 224.358 -168.968 231.695 -168.739 238.631C-168.486 239.929 -167.955 241.157 -167.183 242.23C-166.412 243.304 -165.417 244.198 -164.267 244.851L-162.863 246.828C-162.793 248.088 -162.366 249.301 -161.63 250.325C-161.372 251.013 -161.143 251.701 -160.914 252.36C-160.599 254.108 -159.936 255.775 -158.965 257.261C-155.698 263.485 -153.747 270.314 -153.232 277.324C-152.987 277.023 -152.697 276.762 -152.372 276.55C-151.398 276.005 -150.968 277.209 -150.452 278.155C-148.073 282.483 -148.761 287.126 -148.904 292.485C-149.879 290.193 -149.678 287.814 -151.082 286.352C-151.388 286.034 -151.747 285.772 -152.143 285.578C-151.403 289.16 -151.825 292.885 -153.347 296.211C-154.533 300.359 -155.49 304.569 -156.213 308.822C-157.051 310.535 -157.548 312.394 -157.675 314.296C-159.067 318.493 -159.867 322.863 -160.054 327.28C-160.656 334.605 -160.656 341.967 -160.054 349.292C-160.062 358.718 -159.102 368.121 -157.188 377.351C-156.844 379.07 -154.981 381.421 -158.649 381.908C-158.649 381.908 -158.879 382.51 -158.993 382.825C-160.942 380.188 -159.825 376.892 -160.856 374.026C-161.544 366.488 -162.634 358.95 -162.863 351.355C-163.988 359.005 -163.559 366.803 -161.602 374.284C-161.612 374.437 -161.612 374.59 -161.602 374.742C-163.293 382.624 -160.111 389.073 -155.869 395.493C-155.62 397.05 -154.911 398.497 -153.834 399.649C-154.264 404.607 -153.49 409.652 -154.837 414.524C-155.438 412.391 -155.614 410.161 -155.353 407.961C-154.035 406.012 -154.751 403.862 -155.009 401.712C-155.324 403.346 -155.668 404.951 -155.984 406.556C-155.812 409.422 -156.815 412.116 -155.582 414.782C-156.012 419.425 -154.092 424.183 -156.328 428.711C-156.328 428.711 -156.098 429.084 -155.955 429.256C-156.524 430.764 -156.759 432.377 -156.643 433.985V436.02C-157.156 438.279 -157.444 440.583 -157.503 442.898C-157.79 444.045 -158.076 445.163 -158.334 446.309C-158.57 446.445 -158.76 446.649 -158.877 446.895C-158.995 447.14 -159.035 447.416 -158.993 447.685C-160.416 456.209 -161.116 464.838 -161.086 473.48C-160.896 477.763 -159.473 481.901 -156.986 485.395C-154.499 488.888 -151.055 491.588 -147.07 493.17C-142.851 495.384 -138.131 496.47 -133.369 496.322C-133.598 497.727 -135.547 497.24 -135.604 498.558C-128.369 498.493 -121.161 497.647 -114.107 496.036L-107.916 495.52L-99.059 496.494C-98.9783 496.443 -98.9099 496.374 -98.8583 496.294L-99.059 496.466C-98.1417 500.134 -98.1991 500.192 -105.308 501.481C-99.5875 502.592 -93.7618 503.063 -87.9377 502.886C-88.3963 502.456 -88.511 502.284 -88.683 502.169C-89.6288 501.51 -91.5493 501.424 -91.062 499.905C-90.5747 498.386 -89.0842 499.905 -88.0524 499.905C-82.4686 501.433 -76.777 502.534 -71.0265 503.201C-68.5042 505.379 -67.3863 501.94 -65.2939 501.682C-64.5275 501.521 -63.735 501.53 -62.9724 501.708C-62.2098 501.887 -61.4955 502.23 -60.8798 502.714C-59.332 503.918 -61.7684 504.72 -61.4531 505.924C-58.1883 507.251 -54.6863 507.894 -51.1631 507.815C-49.2849 507.592 -47.3806 507.827 -45.6133 508.501C-43.8461 509.175 -42.2686 510.267 -41.0163 511.685H-38.15L-31.9588 511.828H-28.5193C-28.5193 511.627 -28.5193 511.398 -28.5193 511.197C-18.8025 511.513 -9.71632 508.331 -0.515488 506.067C3.58333 505.035 7.68213 504.118 11.8096 503.373C13.0994 503.144 15.3925 502.742 15.6504 503.688C17.1696 509.22 21.641 507.357 24.2493 506.554C31.2145 504.204 37.8356 500.822 45.3167 500.048C47.4091 499.876 49.5588 500.736 51.5366 499.561L59.6482 499.246C56.0725 500.682 52.405 501.879 48.6703 502.828L34.8833 506.182C39.4694 507.357 43.4823 505.867 47.0365 507.529C46.0503 507.324 45.0231 507.509 44.1702 508.045H47.0365C48.441 508.045 49.9028 508.647 51.2499 507.558C54.2694 507.915 57.3287 507.72 60.2788 506.984C63.7757 505.895 68.0751 506.124 69.9669 501.911C72.5752 500.478 75.6995 502.083 78.2218 500.736L80.1136 500.593C81.8262 500.862 83.5789 500.527 85.0723 499.647C82.5381 499.16 79.929 499.218 77.4193 499.819L75.4989 499.962C73.3491 499.962 71.0274 499.246 69.2216 501.109C65.7587 503.534 61.733 505.034 57.5271 505.465C60.9094 503.402 64.3776 502.599 66.5847 499.733C68.2471 498.046 70.47 497.026 72.8332 496.867C74.2313 497.205 75.7016 497.074 77.018 496.494L79.655 496.351H80.4002C82.469 496.698 84.5905 496.551 86.5914 495.921H89.4577H93.5852C93.8905 496.046 94.1644 496.236 94.3874 496.479C94.6104 496.722 94.7769 497.011 94.8751 497.326L90.5183 499.504L90.7189 499.905L99.0312 499.475C100.608 499.647 102.184 499.676 103.703 499.991C108.576 500.782 113.559 500.577 118.35 499.389L131.994 499.618L140.22 500.507C143.018 501.274 145.937 501.498 148.819 501.166C146.44 499.762 144.175 498.873 143.086 496.609C142.169 494.889 142.828 494.373 144.519 494.431C151.835 495.033 159.188 495.033 166.504 494.431H169.37L176.651 494.603C174.3 497.182 170.717 496.236 168.797 499.045C170.173 499.246 170.918 499.962 172.437 499.045C173.227 498.484 174.145 498.131 175.108 498.021C176.07 497.911 177.045 498.046 177.94 498.415C179.258 499.098 180.706 499.495 182.188 499.579C183.67 499.663 185.153 499.432 186.539 498.902C189.018 499.385 191.572 499.316 194.02 498.701C194.087 498.736 194.16 498.755 194.235 498.755C194.31 498.755 194.384 498.736 194.45 498.701H195.826H199.208C201.129 498.701 203.049 498.959 204.941 498.902C207.406 498.902 210.043 499.819 212.307 498.558C215.57 497.022 219.087 496.099 222.684 495.835C224.747 495.835 226.897 496.552 228.875 495.405L257.538 496.15C258.369 497.01 259.43 496.81 260.404 496.838L292.564 497.641H293.281C295.688 497.211 297.666 499.704 300.16 498.587C301.478 498.787 303.026 498.042 304.115 499.275L303.341 499.532C303.972 500.507 304.774 500.364 305.634 499.934L328.565 498.185C321.743 495.893 314.835 497.899 307.411 497.24C308.644 498.386 309.934 497.526 310.65 498.644C307.581 498.87 304.502 498.349 301.679 497.125C304.109 496.232 306.687 495.814 309.275 495.893H310.65C314.864 496.036 319.077 496.265 323.291 496.236C325.767 496.595 328.286 496.537 330.743 496.064C330.952 496.043 331.151 495.964 331.316 495.835H336.791L342.982 495.979C355.336 496.838 367.718 495.663 380.101 496.322H381.477H384.888L399.219 496.609C413.035 496.982 426.879 497.412 440.694 497.698C443.183 497.772 445.666 497.413 448.032 496.638L512.667 496.81L536.028 497.412C537.404 497.412 538.894 498.013 540.155 496.924C542.219 497.211 544.254 498.128 546.318 496.924C557.066 497.641 567.844 496.924 578.621 496.924H583.465C590.516 497.182 597.596 497.096 604.676 496.924C613.275 496.724 622.045 497.268 630.759 497.44C631.963 497.44 633.281 497.899 634.371 496.896H640.504H642.568C657.244 497.813 671.919 496.896 686.595 497.326C694.592 498.042 702.589 497.154 710.614 497.326H714.082H715.688C718.554 497.326 721.42 497.641 724.286 497.583C728.328 497.583 732.427 498.443 736.44 497.24C738.455 497.84 740.562 498.073 742.659 497.927C744.553 497.665 746.481 497.867 748.279 498.516C750.077 499.165 751.69 500.242 752.978 501.653H755.844L762.036 501.825H765.446C765.446 501.596 765.446 501.395 765.446 501.166C772.852 501.101 780.205 499.922 787.259 497.669C794.482 498.099 801.734 497.669 808.986 497.669C809.966 497.64 810.935 497.446 811.852 497.096C812.893 497.442 813.993 497.574 815.086 497.486C816.179 497.397 817.243 497.089 818.215 496.58C825.209 494.23 831.801 490.848 839.311 490.074C841.375 489.902 843.525 490.762 845.531 489.616L853.27 490.103C849.692 491.54 846.025 492.746 842.292 493.714L828.505 497.039C833.091 498.214 837.104 496.724 840.658 498.386C839.827 498.386 838.91 498.099 837.792 498.902H840.802C842.206 498.902 843.668 499.504 844.986 498.415C848.015 498.772 851.084 498.578 854.044 497.841C857.512 496.752 861.84 497.01 863.732 492.768C866.312 491.335 869.465 492.969 871.987 491.622L873.879 491.479C875.595 491.749 877.351 491.404 878.838 490.504C876.301 490.025 873.692 490.094 871.184 490.705H869.264C867.086 490.705 864.793 489.988 862.958 491.851C859.492 494.275 855.469 495.783 851.264 496.236C854.646 494.173 858.114 493.37 860.321 490.504C861.971 488.799 864.201 487.776 866.57 487.638C867.962 487.952 869.419 487.811 870.726 487.237L873.391 487.094H874.137C876.205 487.453 878.329 487.305 880.328 486.664H883.051H887.178C887.481 486.795 887.752 486.991 887.97 487.239C888.188 487.487 888.348 487.78 888.44 488.097L884.111 490.246L884.283 490.648L892.624 490.218C894.172 490.39 895.777 490.418 897.296 490.734C902.158 491.553 907.137 491.348 911.915 490.132L925.558 490.39L933.813 491.249C936.611 492.014 939.528 492.247 942.412 491.937C940.033 490.504 937.769 489.616 936.679 487.38C935.734 485.632 936.422 485.116 938.113 485.202C945.419 485.789 952.762 485.789 960.068 485.202H962.935L970.187 485.403C967.865 487.982 964.253 487.008 962.362 489.845C963.709 490.046 964.483 490.762 965.973 489.845C966.762 489.284 967.681 488.931 968.644 488.821C969.606 488.711 970.58 488.846 971.476 489.215C972.796 489.893 974.245 490.285 975.727 490.364C977.209 490.443 978.691 490.208 980.075 489.673C982.75 489.966 985.456 489.642 987.986 488.727C988.06 488.74 988.135 488.734 988.206 488.709C988.276 488.684 988.339 488.641 988.388 488.584H989.763H993.146C995.095 488.584 997.015 488.842 998.878 488.785C1001.34 488.785 1003.98 489.73 1006.24 488.441C1009.52 486.938 1013.03 486.026 1016.62 485.747C1018.68 485.747 1020.83 486.492 1022.81 485.317L1051.47 486.062C1052.28 486.95 1053.37 486.721 1054.34 486.75L1086.5 487.552H1087.22C1089.6 487.122 1091.57 489.644 1094.07 488.527C1095.42 488.699 1096.93 487.982 1098.05 489.186L1097.28 489.444C1097.91 490.39 1098.71 490.246 1099.54 489.845L1122.47 488.068C1115.62 485.804 1108.71 487.781 1101.32 487.151C1102.52 488.269 1103.84 487.409 1104.53 488.527C1101.47 488.76 1098.4 488.248 1095.59 487.036C1098.02 486.146 1100.59 485.718 1103.18 485.775H1104.56C1108.77 485.775 1112.96 486.119 1117.17 486.09C1119.65 486.464 1122.17 486.406 1124.62 485.918C1124.83 485.891 1125.04 485.823 1125.22 485.718H1130.67L1136.86 485.861C1149.24 486.721 1161.63 485.546 1173.98 486.205H1175.36H1178.8L1193.13 486.52C1206.97 486.893 1220.79 487.323 1234.63 487.581C1237.11 487.672 1239.59 487.312 1241.94 486.52L1306.58 486.692L1329.94 487.294C1331.34 487.294 1332.8 487.867 1334.09 486.778C1336.13 487.094 1338.16 488.011 1340.23 486.778C1351 487.523 1361.78 486.778 1372.53 486.778H1377.37C1384.45 487.036 1391.53 486.95 1398.61 486.778C1407.21 486.578 1415.98 487.094 1424.67 487.266C1425.87 487.266 1427.19 487.724 1428.28 486.75H1434.41H1436.51C1451.15 487.667 1465.86 486.75 1480.5 487.18C1488.53 487.867 1496.53 486.979 1504.52 487.18H1507.99H1509.34C1512.2 487.18 1515.07 487.495 1517.94 487.438C1521.98 487.438 1526.05 488.326 1530.06 487.122H1532.93L1550.13 487.495C1554.47 487.853 1558.84 487.767 1563.17 487.237H1566.03H1570.13H1574.23L1579.1 487.38C1586.99 487.982 1594.87 487.38 1602.75 487.38C1604.58 487.268 1606.36 486.718 1607.94 485.775C1609.73 484.655 1611.28 483.184 1612.49 481.45C1613.71 479.717 1614.55 477.756 1614.99 475.687C1619.52 462.309 1622.47 448.449 1623.79 434.386H1624.31C1624.31 433.01 1624.31 431.52 1624.31 430.288L1624.91 406.241V402.802H1624.31C1623.7 387.916 1621.27 373.161 1617.08 358.864L1616.85 358.205C1616.85 354.135 1616.85 350.094 1617.05 346.024C1618.83 341.066 1617.63 335.42 1622.13 330.948C1624.34 327.992 1625.8 324.538 1626.37 320.888C1627.57 316.045 1629.46 311.402 1630.38 306.558C1630.38 306.099 1630.38 305.669 1630.38 305.211L1632.56 299.765L1633.33 299.135C1637.52 298.676 1639.75 295.724 1641.7 292.428C1647.24 287.642 1643.97 280.305 1643.74 273.369Z" fill="#00AEEF"/>
</svg>
