<svg width="57" height="66" viewBox="0 0 57 66" fill="none" xmlns="http://www.w3.org/2000/svg">
<g clip-path="url(#clip0_99_1731)">
<path d="M0.0687118 49.0026C-0.0279183 49.4297 -0.0150361 49.8567 0.0730032 50.2858C0.10951 50.621 0.193258 50.9456 0.322103 51.2573C0.324247 51.2744 0.326394 51.2915 0.328542 51.3085C0.549722 52.0259 0.770902 52.7412 0.992082 53.4586C1.18105 54.161 1.29916 54.8699 1.23903 55.6001C1.17675 56.3025 1.15743 57.005 1.15099 57.7096C1.14885 57.8462 1.14455 57.9828 1.1424 58.1195C1.1424 58.1366 1.1424 58.1537 1.1424 58.1707C1.12952 58.254 1.10589 58.3373 1.1016 58.4227C1.08442 58.9073 1.08012 59.3899 1.05436 59.8745C1.02644 60.3827 1.05006 60.893 1.14669 61.3947C1.14455 61.5719 1.1832 61.7427 1.24762 61.9071C1.26695 61.9968 1.28198 62.0865 1.3056 62.174C1.35499 62.3576 1.48169 62.5199 1.44518 62.7228C1.37432 63.0259 1.31419 63.3334 1.28842 63.6451C1.24118 63.9013 1.08871 64.1447 1.19178 64.418C1.32063 64.7447 1.63844 64.7767 1.91331 64.8771C1.93908 64.9155 1.97344 64.9262 2.01638 64.9219C2.40076 65.0756 2.78944 65.2144 3.19744 65.2977C3.51525 65.4172 3.84166 65.4984 4.17879 65.5432C4.415 65.6115 4.65121 65.6777 4.89816 65.6884C5.027 65.7396 5.16444 65.7546 5.30187 65.7524C5.48655 65.8186 5.68196 65.8272 5.87522 65.84C5.90958 65.8421 5.94394 65.8421 5.97829 65.8443C6.35408 65.9147 6.72987 65.9617 7.11211 65.9467C7.12714 65.9531 7.14432 65.9553 7.15935 65.9574C7.1615 65.9724 7.16365 65.9873 7.16365 66.0023C7.24954 66.0023 7.33544 66.0023 7.42133 66.0023C7.54158 66.0023 7.66184 66.0023 7.78209 66.0023C7.86799 66.0023 7.95388 66.0023 8.03978 66.0023C8.57233 66.0023 9.10273 66.0023 9.63528 66.0023C9.75553 66.0023 9.87579 66.0023 9.99604 66.0023C10.0819 66.0023 10.1678 66.0023 10.2537 66.0023C10.2537 65.9873 10.2537 65.9724 10.258 65.9574C10.8443 65.9297 11.4305 65.8998 12.0103 65.7994C12.0253 65.8037 12.0425 65.8016 12.0575 65.7952C12.2508 65.8165 12.4376 65.7631 12.6266 65.7375C12.7168 65.7418 12.8091 65.761 12.8886 65.6991C13.3717 65.6606 13.8527 65.6073 14.3273 65.4984C14.6902 65.4749 15.0488 65.4108 15.401 65.3297C16.1332 65.208 16.8655 65.0906 17.5956 64.9603C18.2742 64.8386 18.9506 64.7041 19.627 64.5739C19.7451 64.5525 19.8632 64.5333 19.9835 64.512C20.574 64.4351 21.1624 64.3433 21.7443 64.2152C21.899 64.2237 22.0493 64.1874 22.1974 64.1511C22.8481 64.0657 23.5009 63.9825 24.1516 63.8971C24.2589 63.8992 24.3706 63.9269 24.4694 63.8544C24.5381 63.8501 24.6047 63.8479 24.6734 63.8437C24.9203 63.8287 25.1716 63.8394 25.4121 63.7903C25.7664 63.7198 26.1293 63.8031 26.4772 63.7006C26.4772 63.7006 26.475 63.7006 26.475 63.6985C26.5588 63.6964 26.6425 63.6942 26.7263 63.6899C26.9839 63.6899 27.2416 63.6878 27.4972 63.6878C27.5659 63.6878 27.6368 63.6878 27.7055 63.6878C28.238 63.707 28.7706 63.7262 29.301 63.7455C29.4663 63.8245 29.6424 63.7882 29.8142 63.7924C30.3596 63.865 30.9072 63.9355 31.4548 64.0081C31.502 64.0551 31.56 64.0529 31.6201 64.0444C31.6695 64.0465 31.7189 64.0508 31.7683 64.0529C32.0045 64.1191 32.2429 64.1661 32.492 64.149C32.9708 64.2323 33.4497 64.2323 33.9221 64.1319C33.9629 64.1319 34.0059 64.1255 34.0467 64.1084C34.4096 64.0785 34.751 63.9782 35.0667 63.7946C35.1998 63.7775 35.3158 63.7134 35.4274 63.6451C36.3444 63.2031 37.1368 62.5519 38.0558 62.1121C38.2706 62.0438 38.4875 61.9755 38.6829 61.858C38.8589 61.8303 39.0243 61.7662 39.1875 61.6958C39.3013 61.6936 39.4065 61.6659 39.4989 61.5997C39.4989 61.5997 39.4989 61.5997 39.4989 61.6018C39.6427 61.6018 39.778 61.5613 39.9112 61.5036C39.9434 61.4972 39.9756 61.4929 40.0078 61.4865C40.0851 61.5036 40.1517 61.4759 40.2161 61.4374C40.3943 61.4353 40.564 61.3969 40.7293 61.3371C40.8367 61.3392 40.9441 61.3478 41.0385 61.2858C41.0557 61.2837 41.075 61.2816 41.0922 61.2816C41.3048 61.2858 41.511 61.2453 41.7128 61.1898C42.2132 61.1769 42.7028 61.0681 43.1988 61.0275C43.4071 60.9976 43.6218 61.004 43.8237 60.9357C43.9762 60.9186 44.1351 60.9592 44.2789 60.878C44.2961 60.8759 44.3133 60.8759 44.3326 60.8738C44.455 60.8695 44.5839 60.9079 44.6977 60.8311C44.7148 60.8332 44.7299 60.8311 44.7449 60.8225C45.0219 60.8118 45.2968 60.7905 45.5674 60.7243C46.0698 60.7094 46.5659 60.6389 47.0619 60.562C47.2208 60.5877 47.3733 60.5407 47.5258 60.5108C48.5071 60.4361 49.4842 60.3272 50.4591 60.2033C50.7361 60.1948 51.0131 60.1756 51.2858 60.1137C51.303 60.1158 51.3202 60.1158 51.3352 60.1073C52.0245 60.0688 52.7074 59.9856 53.3903 59.8959C53.6866 59.8916 53.9786 59.8617 54.2685 59.7977C54.3029 59.7977 54.3394 59.7955 54.3738 59.7955C54.6336 59.7785 54.8934 59.7699 55.1447 59.7016C55.4968 59.6653 55.8469 59.6183 56.0809 59.3045C56.141 59.266 56.1797 59.2148 56.1754 59.1401C56.257 58.918 56.1604 58.696 56.169 58.4718C56.1754 58.3287 56.2098 58.2348 56.3365 58.175C56.3687 58.1579 56.403 58.1387 56.4352 58.1216C56.5533 58.096 56.6307 58.017 56.6972 57.9231C56.7745 57.8676 56.8089 57.7928 56.7853 57.7032C56.6715 57.274 56.5555 56.8448 56.4395 56.4157C56.4395 56.3879 56.4395 56.3602 56.4395 56.3324C56.6006 56.0805 56.6822 55.7965 56.7509 55.5104C56.8712 55.2499 56.9012 54.966 56.9377 54.6841C56.9506 54.6457 56.9506 54.5987 57 54.5838C57 54.0884 57 53.5931 57 53.0999C56.9442 53.07 56.9549 53.0166 56.9463 52.9675C56.8046 52.1306 56.5383 51.3406 56.0423 50.6381C56.0229 50.5698 55.9864 50.5143 55.9242 50.4759C55.8211 50.3478 55.6622 50.3328 55.5312 50.3542C55.1082 50.4203 54.887 50.162 54.6722 49.8759C54.5928 49.6176 54.5112 49.3571 54.4317 49.0987C54.4231 48.8916 54.3995 48.6845 54.333 48.486C54.3158 48.3579 54.2256 48.3344 54.1182 48.3386C53.7295 48.202 53.3838 48.3771 53.0295 48.486C52.9801 48.4902 52.9286 48.4966 52.8792 48.5009C52.5184 48.5052 52.1577 48.503 51.8033 48.4304C51.6852 48.3941 51.565 48.36 51.4469 48.3237C51.3352 48.2532 51.2107 48.2127 51.0818 48.1806C50.9852 48.1273 50.8864 48.076 50.7941 48.0184C50.4913 47.8305 50.167 47.6682 49.9652 47.3565C49.7612 46.8249 49.5615 46.2911 49.351 45.7637C49.2931 45.6207 49.1878 45.5032 49.0246 45.4605C48.7476 45.3196 48.4728 45.326 48.1979 45.4733C48.1013 45.5075 48.0111 45.5481 47.9381 45.6228C47.7835 45.7039 47.6267 45.7829 47.4721 45.8641C47.0662 46.0221 46.6604 46.1801 46.2395 46.2975C46.1708 46.3146 46.1042 46.3295 46.0355 46.3466C45.8916 46.3573 45.7477 46.3786 45.6125 46.4363C45.4278 46.4576 45.241 46.479 45.0563 46.5003C44.9489 46.4982 44.8373 46.4747 44.7363 46.5387C43.9074 46.5537 43.0807 46.5622 42.2561 46.4491C41.818 46.3893 41.3778 46.3445 40.9376 46.2932C40.2698 46.1715 39.5998 46.0498 38.932 45.9281C38.4381 45.8043 37.942 45.6954 37.4374 45.6249C37.2892 45.563 37.1368 45.5224 36.9736 45.5224C36.8941 45.4733 36.8061 45.4627 36.7137 45.4712C36.5333 45.4007 36.3444 45.3666 36.1511 45.3559C36.0738 45.2897 35.9815 45.3196 35.8956 45.3111C35.8376 45.2449 35.7603 45.2662 35.6873 45.2662C35.5756 45.168 35.4167 45.247 35.3007 45.1702C35.2922 45.1659 35.2857 45.1616 35.2771 45.1552C35.0237 45.1018 34.7725 45.042 34.517 44.9929C34.0145 44.8947 33.5141 44.7986 33.0116 44.7026C32.8699 44.615 32.7089 44.6108 32.55 44.5958C32.5392 44.5702 32.5242 44.5552 32.4941 44.5659C32.4104 44.5574 32.3245 44.551 32.2407 44.5446C31.9723 44.4528 31.691 44.4592 31.4118 44.44C31.225 44.44 31.0382 44.4378 30.8514 44.4378C30.8149 44.4442 30.7805 44.4506 30.7462 44.457C30.6259 44.4592 30.4992 44.4207 30.3875 44.4997C30.2394 44.4805 30.1019 44.5467 29.9602 44.5659C29.812 44.5873 29.6682 44.7581 29.5372 44.6727C29.4234 44.5979 29.3654 44.4271 29.2988 44.2905C29.112 43.9083 28.8586 43.6436 28.384 43.7311C28.2595 43.7546 28.1392 43.8122 28.0147 43.825C27.8536 43.84 27.7463 44.1261 27.5895 43.9638C27.4929 43.8635 27.5186 43.6457 27.4907 43.4792C27.3769 42.845 27.261 42.2109 27.1472 41.5747C27.1214 41.4572 27.1665 41.3249 27.0827 41.2181C27.0784 41.0644 27.057 40.9128 27.0076 40.7676C27.0076 40.7484 27.0033 40.7292 26.9882 40.7078C26.9797 40.5818 26.9797 40.458 26.9582 40.3299C26.8701 39.826 26.795 39.32 26.7155 38.8161C26.6726 38.4724 26.5759 38.1372 26.5674 37.7891C26.4621 37.1422 26.3569 36.4953 26.2517 35.8483C26.198 35.4896 26.1465 35.1309 26.0928 34.7744C26.0627 34.5331 26.0305 34.294 26.0005 34.0527C25.9661 33.9716 25.9425 33.8905 25.9554 33.8008C25.9425 33.7965 25.9296 33.7944 25.9146 33.7922C25.906 33.7922 25.8995 33.7922 25.8909 33.7922C25.8995 33.788 25.906 33.7837 25.9146 33.7773C25.9124 33.6599 25.8802 33.5382 25.9532 33.4271C25.9747 33.0193 25.9962 32.6115 26.0176 32.2037C26.0112 32.1141 25.9962 32.0223 26.0563 31.9411C26.0563 31.8472 26.0563 31.7554 26.0563 31.6614C26.0563 31.5205 25.9403 31.3945 25.8523 31.4052C25.5431 31.4436 25.5924 31.2109 25.5495 31.0529C25.5259 30.9654 25.5388 30.8672 25.5366 30.7732C25.4765 30.6601 25.4915 30.5341 25.4851 30.4145C25.4486 30.3377 25.4507 30.2523 25.4314 30.1733C25.3799 29.9662 25.4314 29.742 25.3305 29.5413C25.3734 29.315 25.2489 29.1014 25.2789 28.8751C25.1802 28.7171 25.2983 28.5164 25.1759 28.3627C25.1372 27.9015 25.1179 27.4403 25.1243 26.9792L25.1394 26.9813C25.1394 26.6931 25.1394 26.4027 25.1394 26.1144C25.1329 26.0974 25.1265 26.0782 25.1222 26.0589C25.1243 25.6704 25.1265 25.2818 25.1286 24.8932C25.0599 24.7587 25.0921 24.6156 25.09 24.4768C25.0857 24.2057 25.0814 23.9367 25.0771 23.6655C25.062 23.6591 25.0492 23.6527 25.0341 23.6463C25.0341 23.6442 25.0341 23.642 25.0341 23.6399C25.0363 23.5438 25.0384 23.4477 25.0406 23.3516C25.0363 23.0976 25.032 22.8456 25.0255 22.5915C25.0148 22.5851 25.0019 22.5787 24.9912 22.5723C24.989 22.5723 24.9869 22.5745 24.9826 22.5745C24.9826 22.5723 24.9826 22.5702 24.9826 22.5681C24.9826 22.4528 24.9847 22.3396 24.9847 22.2243C24.9804 21.9553 24.9762 21.6841 24.9719 21.4151C24.959 21.4087 24.9461 21.4044 24.9332 21.4002C24.9289 21.4002 24.9268 21.4002 24.9225 21.4002C24.9268 21.398 24.9289 21.3938 24.9332 21.3916C24.9332 21.2763 24.9354 21.161 24.9354 21.0457C24.9311 20.7767 24.9268 20.5056 24.9203 20.2365C24.9074 20.228 24.8946 20.2216 24.8795 20.2152C24.8817 20.2109 24.8795 20.2066 24.8795 20.2024C24.8817 20.1938 24.8838 20.1832 24.8774 20.1746L24.8752 20.1746C24.8774 20.1725 24.8774 20.1704 24.8774 20.1682C24.8795 20.0529 24.8795 19.9355 24.8817 19.8202C24.8752 19.7327 24.8688 19.6451 24.8623 19.5576C24.8645 19.3569 24.8645 19.1583 24.8666 18.9576C24.8044 18.8786 24.8409 18.7804 24.8151 18.6929L24.8151 18.6907C24.8194 18.6566 24.8237 18.6245 24.8301 18.5925C24.8258 18.3043 24.8215 18.016 24.8172 17.7299C24.8022 17.7086 24.7893 17.6894 24.7743 17.668C24.7743 17.6573 24.7743 17.6467 24.7743 17.636C24.7743 17.6125 24.7722 17.589 24.7722 17.5655C24.77 17.5335 24.7679 17.5036 24.7657 17.4716C24.7657 17.4673 24.7657 17.4652 24.7657 17.4609C24.77 17.4289 24.7764 17.3947 24.7807 17.3627C24.7743 17.3264 24.7679 17.2922 24.7636 17.2559C24.7636 17.1876 24.7636 17.1193 24.7636 17.051C24.7657 16.8674 24.7657 16.6837 24.7679 16.5001C24.7528 16.4937 24.7399 16.4895 24.7228 16.4873C24.7228 16.4788 24.7228 16.4702 24.7228 16.4638C24.7249 16.3549 24.7292 16.246 24.7314 16.135C24.7249 15.9962 24.7185 15.8575 24.712 15.7208C24.7163 15.7037 24.7163 15.6867 24.7099 15.6717C24.712 15.5372 24.7142 15.4027 24.7163 15.2682C24.6433 15.155 24.6755 15.029 24.6734 14.9052C24.6691 14.8177 24.6648 14.7301 24.6583 14.6447C24.6583 14.4099 24.6605 14.175 24.6605 13.9402C24.5961 13.859 24.6197 13.7672 24.6218 13.6775C24.6175 13.5558 24.6132 13.4363 24.6068 13.3146C24.609 13.1288 24.609 12.9452 24.6111 12.7616C24.5359 12.6655 24.5746 12.5523 24.5703 12.4477L24.5574 12.4499C24.5574 12.3474 24.5574 12.2428 24.5574 12.1403C24.5596 11.9374 24.5617 11.7325 24.5617 11.5296C24.4801 11.4378 24.5231 11.3247 24.5166 11.2222C24.5123 11.0834 24.508 10.9446 24.5037 10.8058C24.5037 10.7738 24.5037 10.7418 24.5037 10.7098C24.5059 10.556 24.508 10.4044 24.508 10.2507C24.4994 10.2486 24.4908 10.2464 24.4823 10.2443C24.4758 10.2422 24.4694 10.2422 24.4651 10.24C24.4651 10.1589 24.4672 10.0778 24.4672 9.9945C24.4629 9.70626 24.4586 9.41589 24.4565 9.12765C24.3942 9.06787 24.42 8.98673 24.405 8.91628C24.405 8.90774 24.4071 8.89919 24.4071 8.88852C24.4092 8.84795 24.4135 8.80739 24.4157 8.76682C24.4114 8.71558 24.4071 8.6622 24.4007 8.61096C24.4028 8.37396 24.4028 8.13697 24.405 7.89997C24.3255 7.78681 24.3684 7.66084 24.362 7.53914C24.3577 7.43665 24.3534 7.33417 24.3491 7.23169C24.3491 7.19539 24.3491 7.16123 24.3491 7.12493C24.3513 6.97548 24.3534 6.82389 24.3534 6.67443C24.3405 6.66802 24.3255 6.66375 24.3105 6.65948C24.3105 6.65521 24.3105 6.65094 24.3105 6.64667C24.3105 6.61251 24.3083 6.58048 24.3062 6.54632C24.3062 6.53565 24.3062 6.52284 24.304 6.51216C24.3062 6.44597 24.3105 6.37765 24.3126 6.31146C24.3083 6.02322 24.304 5.73499 24.2997 5.44675C24.2868 5.44035 24.274 5.43607 24.2632 5.42967C24.2611 5.42967 24.2611 5.42967 24.2589 5.42967L24.2589 5.42753C24.2589 5.31223 24.2611 5.19694 24.2611 5.08165C24.2568 4.81049 24.2525 4.54147 24.2482 4.27031C24.1795 4.1358 24.2095 3.99062 24.2095 3.8497L24.1924 3.85397C24.1902 3.5636 24.1859 3.27109 24.1838 2.98071C24.1795 2.58786 23.939 2.37435 23.6018 2.37008C23.458 2.36795 23.3141 2.37222 23.1681 2.37435C23.0328 2.37008 22.8996 2.36581 22.7644 2.36367C22.7601 2.23771 22.7665 2.1096 22.7515 1.98363C22.7364 1.86834 22.8137 1.72314 22.6591 1.64415C22.6226 1.58223 22.5561 1.60998 22.5045 1.59717C22.4079 1.51604 22.2919 1.55021 22.1867 1.54807C21.7272 1.5438 21.2676 1.54593 20.8081 1.5438C20.7974 1.53739 20.7866 1.53526 20.7759 1.53526C20.5096 1.45626 20.2455 1.37726 19.9792 1.29826C19.7516 1.26623 19.5476 1.14026 19.3135 1.13386C18.985 0.982266 18.6242 0.945973 18.2806 0.845623C17.9607 0.751675 17.6429 0.638523 17.3036 0.627842C17.0759 0.512547 16.8204 0.501873 16.5778 0.437817C16.3222 0.386578 16.0645 0.335331 15.809 0.284092C15.6028 0.249928 15.3946 0.217899 15.1884 0.183743C14.7332 0.111149 14.2758 0.0535012 13.8141 0.0577736C13.3846 -0.0297661 12.9508 0.0257454 12.5171 0.0214805C12.3066 0.0236167 12.094 -0.02763 11.89 0.0599097L11.8686 0.0599097L11.8471 0.0641745C11.3897 0.0663107 10.9473 0.158123 10.5093 0.275554C10.3504 0.311855 10.185 0.326793 10.0433 0.418606C9.89297 0.437816 9.7491 0.476246 9.6267 0.570194C9.2552 0.683353 8.92021 0.864841 8.60454 1.08689C8.50362 1.13386 8.40698 1.18511 8.34471 1.28332C8.21157 1.31534 8.14286 1.43064 8.03978 1.50323C8.00328 1.53526 7.96677 1.56514 7.93027 1.59717C7.87873 1.64628 7.82719 1.69538 7.77566 1.74663C7.63178 1.86193 7.4965 1.98576 7.33544 2.08184C7.23452 2.14162 7.15077 2.2313 7.15507 2.36581C7.03266 2.5964 6.82437 2.77574 6.7535 3.03623C6.69767 3.11736 6.62896 3.19422 6.58386 3.28176C6.15439 4.12513 5.91173 5.02186 5.78074 5.9549C5.75497 6.05524 5.70773 6.15133 5.7292 6.25808C5.65619 6.63172 5.59821 7.00536 5.57244 7.38541C5.45863 8.04729 5.3663 8.71344 5.30188 9.38172C5.24819 9.58242 5.22028 9.78739 5.21169 9.99449C5.21383 9.99023 5.21383 9.98809 5.21598 9.98382C5.21383 9.98596 5.21383 9.99023 5.21169 9.99449C5.19451 10.1141 5.17947 10.2336 5.1623 10.3553C5.158 10.4194 5.15156 10.4834 5.14726 10.5453C5.08928 10.6286 5.10217 10.7204 5.10861 10.8122C5.10432 10.8464 5.10217 10.8806 5.09787 10.9147C5.02057 11.0407 5.06137 11.1816 5.04419 11.3161C5.0356 11.346 5.02916 11.3759 5.02271 11.4037C4.97977 11.5787 4.96474 11.7602 4.954 11.9396C4.90676 12.1211 4.88529 12.3047 4.88743 12.4904C4.81871 12.7445 4.78865 13.005 4.78221 13.2676C4.71135 13.3808 4.7543 13.5067 4.73926 13.6263C4.68128 13.6669 4.68987 13.7245 4.69631 13.7821C4.69846 13.9722 4.60827 14.1515 4.63619 14.3437C4.61901 14.4974 4.60183 14.6511 4.58465 14.8049C4.55029 15.0589 4.46225 15.3045 4.47728 15.565C4.3785 16.071 4.30978 16.5834 4.27113 17.098C4.20456 17.2837 4.20027 17.4759 4.18094 17.668C4.10364 18.1975 4.00915 18.7249 3.97265 19.2587C3.91896 19.391 3.91252 19.5277 3.91896 19.6686C3.8438 19.7946 3.87601 19.9376 3.85884 20.0721C3.79012 20.2387 3.80515 20.418 3.76865 20.5888C3.72999 20.9112 3.69134 21.2336 3.65269 21.556C3.5625 21.6841 3.62262 21.8315 3.60115 21.9681L3.6033 21.9702C3.53458 22.1517 3.52599 22.3439 3.51096 22.5339C3.49378 22.6535 3.4766 22.7752 3.45942 22.8947C3.45728 22.946 3.45513 22.9972 3.45298 23.0463C3.39286 23.1424 3.395 23.247 3.40574 23.3538C3.38856 23.4563 3.37353 23.5587 3.35635 23.6612C3.35205 23.7274 3.34776 23.7936 3.34561 23.8577C3.33273 23.8854 3.32629 23.9153 3.32199 23.9431C3.27904 24.1117 3.26831 24.2868 3.25542 24.4598C3.25542 24.4662 3.25542 24.4726 3.25328 24.479C3.25328 24.479 3.25328 24.479 3.25328 24.4811C3.2361 24.6177 3.17382 24.748 3.20174 24.8889C3.14376 25.207 3.09222 25.5252 3.08578 25.8497C3.07934 25.8839 3.07289 25.9159 3.06645 25.95C2.99774 26.3087 2.95264 26.6696 2.93331 27.0347C2.8689 27.3058 2.83024 27.5791 2.83239 27.8588C2.82595 27.8716 2.8238 27.8844 2.82595 27.8994C2.76582 28.1214 2.74864 28.3478 2.73576 28.5762C2.71428 28.7641 2.65845 28.9477 2.67778 29.1377C2.6198 29.2338 2.6198 29.3384 2.63269 29.4452C2.62839 29.5135 2.62194 29.5818 2.61765 29.6502C2.51887 30.2437 2.45875 30.8415 2.42439 31.4436C2.35782 31.8301 2.31487 32.2187 2.31272 32.6115C2.22898 32.7439 2.27837 32.8912 2.26977 33.03C2.20536 33.4207 2.17314 33.8136 2.16885 34.2107C2.14308 34.4477 2.08295 34.6847 2.11731 34.926C2.11302 35.0071 2.10872 35.0882 2.10443 35.1715C2.03142 35.306 2.06577 35.4491 2.06577 35.59C2.03356 36.049 1.99277 36.5059 2.00135 36.9671C1.9219 37.2041 1.96485 37.4475 1.9627 37.6888C1.97559 37.7571 1.99062 37.8233 2.0035 37.8916C1.94338 37.9322 1.95626 37.9962 1.95411 38.0518C1.92405 39.1257 1.86392 40.1997 1.95196 41.2736C1.95411 41.4786 1.95411 41.6835 1.95626 41.8885C1.94123 42.2963 1.92834 42.7063 1.91331 43.1141C1.87251 43.9275 1.75225 44.7282 1.53537 45.5139C1.45377 45.721 1.37002 45.9302 1.28842 46.1373C1.08227 46.5473 0.873979 46.9551 0.667833 47.365C0.392969 47.8283 0.199701 48.3215 0.0923286 48.8489C0.0536781 48.8916 0.0622688 48.9471 0.0687118 49.0026Z" fill="#1F44FA" fill-opacity="0.1"/>
<path opacity="0.38" d="M1.83171 41.44C1.87895 41.724 1.8854 42.008 1.86607 42.2919L5.00125 42.166C4.94112 45.012 4.90891 47.8603 4.89817 50.7085C3.33488 50.8174 1.77158 50.9476 0.212587 51.1077C0.216882 51.1355 0.219034 51.1611 0.223329 51.1889C0.304929 51.3511 0.375791 51.5155 0.438066 51.6885C0.457391 51.7397 0.468129 51.791 0.478868 51.8401C1.94768 51.6842 3.42077 51.554 4.89388 51.4451C4.89388 51.7162 4.89172 51.9895 4.89172 52.2607C4.89172 55.0427 4.9175 57.8226 4.96689 60.6046C3.63551 60.7349 2.30413 60.8758 0.97276 61.021C0.977055 61.1448 0.985646 61.2665 0.98135 61.3882C0.98135 61.3989 0.979203 61.4031 0.979203 61.4074C0.98135 61.416 0.983498 61.4224 0.987793 61.4373C1.00283 61.495 1.10375 61.7277 0.996384 61.5142C1.07155 61.6636 1.1102 61.8216 1.12308 61.9775C2.40936 61.8387 3.69778 61.7021 4.98621 61.5761C5.01413 62.9532 5.04848 64.3282 5.08714 65.7054C5.28255 65.7566 5.48011 65.8014 5.67981 65.8377C5.76141 65.8527 5.84087 65.8655 5.92247 65.8783C5.99118 65.8826 6.0599 65.8911 6.12862 65.8975C6.08567 64.4243 6.04702 62.949 6.01695 61.4757C9.13495 61.1747 12.2572 60.9078 15.3817 60.6601C15.3688 62.2252 15.3516 63.7902 15.3323 65.3531C15.6737 65.2698 16.0216 65.21 16.3716 65.1844C16.3888 63.6493 16.4081 62.1141 16.4189 60.5769C18.6715 60.4018 20.9262 60.2374 23.1809 60.0794C23.8445 60.0324 24.508 59.9876 25.1716 59.9427C25.163 61.2366 25.1394 62.5305 25.0964 63.8222C25.44 63.7688 25.7943 63.7496 26.1293 63.771C26.1443 63.771 26.1572 63.7752 26.1722 63.7774C26.213 62.475 26.2388 61.1726 26.2453 59.868C29.2344 59.663 32.2257 59.4623 35.217 59.2638C35.2149 59.7591 35.2149 60.2545 35.2127 60.7519C35.2106 61.7618 35.2084 62.7717 35.2063 63.7816C35.232 63.7667 35.2578 63.7518 35.2836 63.7368C35.5047 63.6215 35.7367 63.519 35.9707 63.4251C35.9858 63.4165 36.0029 63.408 36.018 63.3995C36.0566 63.3738 36.0974 63.3504 36.1382 63.329L36.149 59.204C39.0522 59.0118 41.9555 58.8218 44.8609 58.6318C44.8695 58.8538 44.8802 59.0759 44.8888 59.2979L44.9554 60.8843C45.0391 60.8736 45.125 60.8694 45.2109 60.8801C45.2324 60.8822 45.2517 60.8886 45.2732 60.8929C45.2882 60.895 45.3032 60.895 45.3183 60.8971C45.4578 60.863 45.5953 60.8245 45.7327 60.7797C45.8229 60.7519 45.9109 60.7413 46.0011 60.7391C45.9711 60.0153 45.9389 59.2894 45.9088 58.5656C46.4242 58.5315 46.9374 58.4973 47.4528 58.4631C49.6882 58.3115 51.9279 58.1642 54.1655 58.0148C54.1826 58.1706 54.1977 58.3286 54.2149 58.4845C54.2642 58.9328 54.3158 59.3812 54.3673 59.8296C54.6508 59.7741 54.9299 59.7591 55.2134 59.7848C55.2821 59.7741 55.3465 59.7677 55.4109 59.7655C55.3422 59.1592 55.2735 58.5528 55.2091 57.9464C55.7459 57.9101 56.2828 57.876 56.8196 57.8397C56.7939 57.7073 56.7788 57.5749 56.7724 57.4404C56.7595 57.402 56.7488 57.3636 56.7423 57.323C56.7359 57.2931 56.7316 57.2632 56.7273 57.2312C56.7101 57.1863 56.6908 57.1415 56.6779 57.0945C56.6564 57.0241 56.6435 56.9536 56.6307 56.881C56.1239 56.9152 55.6149 56.9472 55.1082 56.9814C54.8333 54.2997 54.6035 51.6116 54.4232 48.9235C54.4382 48.9235 54.4339 48.8851 54.4296 48.8509C54.4017 48.7698 54.3888 48.6844 54.3866 48.5969C54.3652 48.5115 54.3458 48.4282 54.3351 48.4197C54.2149 48.3065 54.29 48.3962 54.1118 48.283C54.0624 48.251 53.736 48.2659 53.6888 48.236C53.6222 48.251 53.5556 48.2595 53.489 48.2595C53.4375 48.2595 53.3817 48.2574 53.328 48.2552C50.7146 48.3855 48.1013 48.5136 45.4879 48.6438C45.4836 48.5371 45.4793 48.4282 45.475 48.3214C45.4471 47.6852 45.4213 47.0489 45.3934 46.4127C45.0434 46.4233 44.6955 46.4575 44.3455 46.4468L44.44 48.6951C41.6849 48.8317 38.9298 48.9684 36.1726 49.105L36.1769 47.3606C36.179 46.671 36.1812 45.9814 36.1812 45.2917C35.8741 45.1978 35.5627 45.1231 35.2514 45.0526C35.2471 46.4191 35.2449 47.7834 35.2406 49.1499C34.6716 49.1776 34.1047 49.2054 33.5356 49.2353C31.0167 49.3591 28.4979 49.4829 25.9811 49.6046C25.8351 46.8461 25.6504 44.0918 25.4636 41.3354C26.0026 41.3141 26.5437 41.2927 27.0827 41.2692C27.0591 41.0877 27.0355 40.9084 27.0076 40.729C26.9797 40.6287 26.956 40.5241 26.9346 40.4216C26.4256 40.4429 25.9146 40.4622 25.4056 40.4835C25.3713 39.9732 25.3369 39.4629 25.3026 38.9526C25.1329 36.4332 24.9633 33.916 24.7958 31.3966C25.0857 31.3581 25.3734 31.3154 25.6633 31.2749C25.6612 31.2684 25.659 31.2642 25.6569 31.2578C25.5903 30.9717 25.5624 30.6792 25.5345 30.3888C25.2682 30.4272 25.0019 30.4657 24.7357 30.502C24.5596 27.8758 24.3835 25.2496 24.2074 22.6235C24.4844 22.6128 24.7636 22.6 25.0406 22.5893C25.0234 22.363 25.0105 22.1345 24.9869 21.9082C24.9847 21.8826 24.9869 21.857 24.9869 21.8313L24.1559 21.8655C24.0055 19.6215 23.8552 17.3797 23.7049 15.1357C24.0378 15.14 24.3727 15.1485 24.7056 15.1549C24.697 14.9521 24.6991 14.7514 24.7013 14.5613C24.6991 14.4909 24.6991 14.4183 24.6991 14.3478C24.6927 14.3051 24.6863 14.2624 24.6798 14.2176C24.3319 14.2112 23.9862 14.2026 23.6383 14.1962C23.5975 13.5877 23.5567 12.9814 23.5159 12.3729C23.4086 10.7673 23.3012 9.16169 23.1917 7.5561C23.589 7.5497 23.9862 7.5433 24.3835 7.53476C24.3792 7.31698 24.3685 7.10133 24.3556 6.88569C24.3534 6.8558 24.3513 6.82591 24.347 6.79601C23.9454 6.80242 23.5439 6.80669 23.1423 6.81523C23.0242 5.0495 22.9061 3.28378 22.7858 1.51806C22.4508 1.47963 22.1223 1.50739 21.7444 1.52874C21.7336 1.52874 21.725 1.52874 21.7164 1.52874C21.8345 3.2966 21.9548 5.06445 22.0729 6.83231C19.9083 6.87288 17.7459 6.92839 15.5814 6.99244C15.4933 4.7143 15.3946 2.43615 15.2936 0.158009C15.1476 0.115307 14.9994 0.0726053 14.8534 0.027775C14.8105 0.0320398 14.7675 0.0341684 14.7289 0.0299035C14.5721 0.00854886 14.4154 0.00214778 14.2586 -0.00212469C14.3617 2.33794 14.4605 4.68013 14.5506 7.02233C12.3238 7.09065 10.0948 7.16752 7.868 7.26147C7.70909 7.26787 7.55018 7.27641 7.39128 7.28281C7.39987 5.49574 7.37195 3.7108 7.29679 1.92586C7.20016 2.04756 7.10138 2.16499 6.99616 2.27815C6.93604 2.35075 6.87591 2.42334 6.81363 2.4938C6.78142 2.53223 6.74921 2.57067 6.717 2.6091C6.68908 2.64326 6.65902 2.67315 6.62896 2.7009C6.57742 2.87812 6.51085 3.04893 6.4679 3.22827C6.46361 3.34997 6.4357 3.46313 6.39705 3.56989C6.37772 3.64675 6.3541 3.71934 6.32189 3.7898C6.35195 4.96838 6.36698 6.14908 6.36269 7.32978C6.05561 7.34259 5.75068 7.35754 5.44361 7.37035C5.44146 7.38316 5.44146 7.39597 5.43931 7.40878C5.48011 7.57318 5.47797 7.75894 5.41354 7.96178C5.38992 8.01942 5.37489 8.07921 5.36201 8.14112C5.6927 8.12618 6.0234 8.1091 6.35624 8.09415C6.33906 10.2848 6.2725 12.4732 6.17801 14.6638C5.59822 14.7044 5.01628 14.7492 4.43649 14.7962C4.39784 15.1271 4.3463 15.4559 4.29261 15.7848C4.90676 15.7356 5.52091 15.6865 6.13506 15.6417C6.0277 17.9732 5.89456 20.3069 5.76571 22.6363L3.38857 22.7366C3.38642 22.7537 3.38427 22.7686 3.37997 22.7836C3.35206 22.9288 3.31985 23.074 3.28979 23.2191C3.2769 23.2811 3.26617 23.3451 3.25328 23.407C3.25113 23.4391 3.24469 23.4711 3.24254 23.5031C4.06929 23.469 4.89602 23.4348 5.72062 23.3985C5.68196 24.1009 5.64331 24.8034 5.60681 25.5058C5.4887 27.7626 5.38563 30.0216 5.29544 32.2805L5.29329 32.2805C4.29905 32.3253 3.30482 32.3637 2.31058 32.3936C2.36212 32.6477 2.32991 32.9125 2.18174 33.1174C2.171 33.1302 2.16456 33.1452 2.15597 33.158C2.15597 33.1729 2.15382 33.19 2.15382 33.205C2.15382 33.2135 2.15168 33.2221 2.15168 33.2306C3.18886 33.2028 4.22819 33.1665 5.26537 33.1238C5.16015 35.8504 5.0764 38.579 5.01628 41.3077C3.95762 41.3546 2.89467 41.3973 1.83171 41.44ZM53.3752 48.9769C53.5578 51.6735 53.7875 54.3659 54.0645 57.054C51.3309 57.2354 48.5995 57.4169 45.8659 57.5963C45.7499 54.8527 45.6339 52.1091 45.518 49.3655C48.1378 49.2353 50.7554 49.105 53.3752 48.9769ZM36.1704 49.8267C38.9363 49.69 41.7021 49.5534 44.4701 49.4167C44.586 52.1667 44.702 54.9146 44.8201 57.6646C42.0671 57.8461 39.3142 58.0297 36.5634 58.2112C36.426 58.2197 36.2907 58.2283 36.1533 58.2389L36.1704 49.8267ZM35.2406 49.8736C35.2342 52.6834 35.2277 55.4911 35.2213 58.3009C32.2321 58.4973 29.2408 58.6937 26.2517 58.8965C26.2495 56.659 26.2002 54.4193 26.1057 52.1817C26.0799 51.5646 26.0498 50.9476 26.0198 50.3306C29.0927 50.1768 32.1656 50.0252 35.2406 49.8736ZM24.9633 50.6658C25.0986 53.4328 25.1716 56.2021 25.1716 58.9691C22.2554 59.1698 19.3393 59.3791 16.4253 59.6033C16.4446 56.6675 16.4511 53.7339 16.4489 50.7981C17.9285 50.7256 19.408 50.6551 20.8875 50.5825C22.2404 50.5163 23.5932 50.448 24.9482 50.3818C24.9525 50.4779 24.959 50.5718 24.9633 50.6658ZM24.9096 49.6601C22.0901 49.7968 19.2684 49.9356 16.4489 50.0765C16.4446 47.2859 16.4317 44.4953 16.4081 41.7069C19.0172 41.6023 21.6241 41.4955 24.2332 41.3909C24.289 41.3888 24.3427 41.3867 24.3985 41.3845C24.5853 44.1388 24.7657 46.8995 24.9096 49.6601ZM23.7328 31.5417C23.8638 33.506 23.997 35.4682 24.1279 37.4325C24.1967 38.4658 24.2675 39.4971 24.3384 40.5305C22.3864 40.6095 20.4366 40.6885 18.4846 40.7675L16.3995 40.8529C16.3952 40.5091 16.3952 40.1675 16.3909 39.8238C16.3652 37.3407 16.3287 34.8597 16.2879 32.3766C18.2592 32.1908 20.2262 31.9794 22.191 31.7382C22.7064 31.6741 23.2196 31.6079 23.7328 31.5417ZM23.2368 24.1415C23.3828 26.3086 23.5288 28.4779 23.6727 30.645C21.3385 30.9546 19 31.23 16.6572 31.4627C16.5284 31.4756 16.4017 31.4862 16.2728 31.499C16.2234 28.6551 16.1612 25.8111 16.0903 22.9672C17.7137 22.8989 19.335 22.8306 20.9584 22.7622C21.6842 22.7323 22.4122 22.7003 23.138 22.6704C23.1702 23.1615 23.2024 23.6526 23.2368 24.1415ZM23.0865 21.9125C20.748 22.0107 18.4095 22.1089 16.071 22.2071C16.0109 19.8606 15.9443 17.5163 15.8691 15.1698C17.8705 15.1207 19.8718 15.0994 21.8732 15.1122C22.1266 15.1143 22.3778 15.1207 22.6312 15.1229C22.7815 17.3861 22.934 19.6493 23.0865 21.9125ZM22.1244 7.57746C22.2726 9.77874 22.4208 11.9822 22.5689 14.1834C20.3271 14.1557 18.0831 14.1685 15.8412 14.2176C15.824 13.6667 15.809 13.1159 15.7897 12.565C15.736 10.9573 15.6759 9.35172 15.6136 7.74613C17.7824 7.67994 19.9534 7.62016 22.1244 7.57746ZM7.25385 13.3657C7.32256 11.5957 7.37195 9.82357 7.38913 8.05145C9.78561 7.94683 12.1842 7.85715 14.5828 7.77816C14.6644 9.93246 14.7396 12.0846 14.8105 14.2389C12.3388 14.3051 9.86721 14.4183 7.39987 14.5806C7.3333 14.5848 7.26673 14.5912 7.20016 14.5955C7.21734 14.1856 7.23881 13.7756 7.25385 13.3657ZM7.15507 15.5691C9.71474 15.394 12.2766 15.2702 14.8405 15.1955C14.9157 17.5462 14.9823 19.8991 15.0424 22.2498C12.2894 22.3651 9.53651 22.4804 6.78572 22.5957C6.91456 20.2556 7.04555 17.9134 7.15507 15.5691ZM6.56668 26.6993C6.62252 25.5848 6.68264 24.4724 6.74277 23.3579C9.51719 23.2405 12.2894 23.1252 15.0639 23.0078C15.0746 23.4604 15.0896 23.9131 15.1004 24.3657C15.1562 26.7741 15.2056 29.1846 15.2464 31.593C12.2766 31.8684 9.30244 32.0798 6.32403 32.2292C6.39489 30.3867 6.47435 28.5419 6.56668 26.6993ZM6.06849 40.0714C6.12647 37.7399 6.19948 35.4084 6.28752 33.0769C7.81216 33.0064 9.33465 32.921 10.8571 32.8185C12.3259 32.7182 13.7926 32.5965 15.2571 32.4662C15.3044 35.2739 15.3387 38.0837 15.3645 40.8913C12.2572 41.0173 9.14998 41.1433 6.04272 41.2692C6.05346 40.87 6.0599 40.4707 6.06849 40.0714ZM6.02554 42.1254L11.3231 41.9119C12.6738 41.8564 14.0224 41.803 15.3731 41.7475C15.3967 44.5402 15.4117 47.335 15.416 50.1277C13.4877 50.2238 11.5615 50.322 9.63314 50.4245C8.39625 50.4886 7.15936 50.5611 5.92462 50.6401C5.93321 47.8005 5.96756 44.9629 6.02554 42.1254ZM8.96101 51.1825C11.1127 51.0629 13.2644 50.954 15.4182 50.8494C15.4182 51.1077 15.4203 51.3682 15.4203 51.6266C15.4203 54.3125 15.4096 56.9985 15.3903 59.6844C14.3767 59.7634 13.3653 59.8467 12.3539 59.9299C10.2344 60.1071 8.11494 60.2972 5.99763 60.5C5.9418 57.4575 5.92032 54.4129 5.92462 51.3682C6.93603 51.2999 7.94745 51.2401 8.96101 51.1825Z" fill="#1F44FA" fill-opacity="0.1"/>
</g>
<defs>
<clipPath id="clip0_99_1731">
<rect width="57" height="66" fill="white" transform="translate(57 66) rotate(-180)"/>
</clipPath>
</defs>
</svg>
