<svg xmlns="http://www.w3.org/2000/svg" width="49" height="58" fill="none" xmlns:v="https://vecta.io/nano"><g clip-path="url(#A)" fill="#1f44fa"><path d="M48.941 14.937c.083-.375.072-.75-.004-1.128a3.16 3.16 0 0 0-.214-.854l-.006-.045-.57-1.889c-.163-.617-.264-1.24-.212-1.882l.076-1.854.007-.36V6.88c.011-.073.031-.146.035-.221l.041-1.276a5.59 5.59 0 0 0-.079-1.336 1.21 1.21 0 0 0-.087-.45l-.05-.235c-.042-.161-.151-.304-.12-.482a5.69 5.69 0 0 0 .135-.811c.041-.225.172-.439.083-.679-.111-.287-.384-.315-.62-.403-.022-.034-.052-.043-.089-.039a5.84 5.84 0 0 0-1.015-.33 3.78 3.78 0 0 0-.844-.216c-.203-.06-.406-.118-.618-.128-.111-.045-.229-.058-.347-.056-.159-.058-.327-.066-.493-.077l-.089-.004c-.323-.062-.646-.103-.975-.09-.013-.006-.028-.008-.041-.009-.002-.013-.004-.026-.004-.039h-.221-.31-.221-1.372-.31-.221c0 .013 0 .026-.004.039l-1.506.139c-.013-.004-.028-.002-.041.004-.166-.019-.327.028-.489.051-.078-.004-.157-.021-.225.034a8.49 8.49 0 0 0-1.237.176c-.312.021-.62.077-.923.148l-1.887.325-1.746.34-.306.054-1.514.261c-.133-.008-.262.024-.39.056l-1.68.223c-.092-.002-.188-.026-.273.038l-.175.009c-.212.013-.428.004-.635.047-.305.062-.616-.011-.916.079l-.214.009-.663.002h-.179l-1.372-.051c-.142-.069-.293-.038-.441-.041l-1.41-.19c-.041-.041-.09-.039-.142-.032l-.127-.008a1.79 1.79 0 0 0-.622-.084 3.15 3.15 0 0 0-1.229.015c-.035 0-.072.006-.107.021-.312.026-.605.114-.877.276-.114.015-.214.071-.31.131-.788.388-1.469.961-2.259 1.347-.185.06-.371.12-.539.223-.151.024-.293.081-.434.143-.098.002-.188.026-.268.084-.124-.002-.24.034-.354.084l-.083.015c-.066-.015-.124.009-.179.043a1.31 1.31 0 0 0-.441.088c-.092-.002-.185-.009-.266.045l-.046.004a1.83 1.83 0 0 0-.534.081c-.43.011-.851.107-1.277.143-.179.026-.364.021-.537.081-.131.015-.268-.021-.391.051l-.046.004c-.105.004-.216-.03-.314.038-.015-.002-.028 0-.041.007-.238.009-.474.028-.707.086-.432.013-.858.075-1.285.143-.137-.023-.268.019-.399.045l-2.522.27c-.238.008-.476.024-.711.079-.015-.002-.03-.002-.042.006l-1.767.186c-.255.004-.506.03-.755.086l-.09.002c-.223.015-.447.023-.663.083-.303.032-.604.073-.805.349-.052.034-.085.079-.081.144-.07.195.013.39.006.587-.006.126-.035.208-.144.261l-.085.047c-.102.023-.168.092-.225.174-.066.049-.096.114-.076.193l.297 1.131v.073c-.138.221-.209.471-.268.722-.103.229-.129.478-.161.726-.011.034-.011.075-.054.088v1.304c.048.026.039.073.046.116.122.736.351 1.43.777 2.047.017.06.048.109.102.143.089.112.225.126.338.107.364-.058.554.169.738.42l.207.683c.007.182.028.364.085.538.015.113.092.133.185.129.334.12.631-.034.936-.129l.129-.013c.31-.004.62-.002.925.062l.306.094c.096.062.203.098.314.126l.247.143c.26.165.539.308.713.582l.528 1.4a.42.42 0 0 0 .281.267.71.71 0 0 0 .711-.011c.083-.03.161-.066.223-.131l.401-.212 1.06-.381.175-.043a1.11 1.11 0 0 0 .364-.079l.478-.056c.092.002.188.023.275-.034.713-.013 1.423-.021 2.132.079l1.133.137 1.724.321 1.285.266a1.01 1.01 0 0 0 .399.09c.068.043.144.052.223.045a1.51 1.51 0 0 0 .484.101c.067.058.146.032.22.039.05.058.116.039.179.039.096.086.233.017.332.084.007.004.013.008.02.013l.653.143 1.294.255c.122.077.26.081.397.094.009.023.022.036.048.026l.218.019c.231.081.473.075.712.092l.482.002.09-.017c.103-.002.212.032.308-.037.127.017.245-.041.367-.058s.251-.169.364-.094c.098.066.148.216.205.336.161.336.378.569.786.492.107-.021.21-.071.318-.083.138-.013.231-.264.365-.122.083.088.061.279.085.426l.295 1.674c.022.103-.017.22.055.313a1.36 1.36 0 0 0 .065.396c0 .017.004.034.017.053l.026.332.209 1.33c.037.302.12.597.127.902l.271 1.706.137.944.079.634c.03.071.05.143.039.221a.18.18 0 0 0 .035.008h.02c-.007.004-.013.008-.02.013.002.103.029.21-.033.308l-.055 1.075c.006.079.018.16-.033.231v.246c0 .124.1.234.175.225.266-.034.223.171.26.31.02.077.009.163.011.246.052.099.039.21.044.315.031.068.03.143.046.212.044.182 0 .379.087.555-.037.199.07.386.044.585.085.139-.017.315.089.45l.044 1.216-.013-.002v.762a.35.35 0 0 1 .015.049l-.006 1.024c.059.118.031.244.033.366l.011.713.037.017-.005.259.013.668.03.017.006.306.011.711c.011.006.022.009.033.013l-.002.312.013.711c.011.008.022.013.035.019-.002.019-.004.028.002.036h.002l-.006.312.017.231-.004.527c.054.069.022.156.044.233v.002l-.013.086.011.758.037.054v.028l.002.062.006.082-.013.096.015.094v.18l-.004.484c.013.006.024.009.039.011v.021l-.007.289.017.364c-.004.015-.004.03.002.043l-.006.355c.063.099.035.21.037.319l.013.229-.002.619c.055.071.035.152.033.231l.013.319-.004.486c.065.084.031.184.035.276l.011-.002v.272l-.004.537c.07.081.033.18.039.27l.011.366v.084l-.004.403.022.006c.015.075.013.146.013.22l.009.762c.053.052.031.124.044.186 0 .008-.002.015-.002.024l-.007.107.013.137-.004.625c.068.099.031.21.037.317l.011.27v.094l-.004.396c.011.006.024.009.037.013l.004.099c0 .009 0 .021.002.03l-.007.176.011.76.031.015.004.002-.002.304.011.713c.059.118.033.246.033.37l.015-.004.007.767c.004.345.21.533.5.537l.373-.004.347.009.011.334c.013.101-.053.229.079.298.031.054.089.03.133.041.083.071.183.041.273.043l1.185.004c.009.006.018.007.028.007l.685.208c.196.028.371.139.572.144.282.133.593.165.888.253.275.083.548.182.84.191.196.101.415.111.624.167l.661.135.534.088c.391.064.785.114 1.181.111.369.077.742.028 1.115.032.181-.002.364.043.539-.034h.018l.019-.004c.393-.002.773-.083 1.15-.186.137-.032.279-.045.401-.126a.71.71 0 0 0 .358-.133c.319-.099.607-.259.879-.454.087-.041.17-.086.223-.173.114-.028.173-.13.262-.193l.094-.082.133-.131c.124-.101.24-.21.378-.295.087-.053.159-.131.155-.249.105-.203.284-.36.345-.589.048-.071.107-.139.146-.216.369-.741.578-1.529.69-2.349.022-.088.063-.173.044-.267.063-.328.113-.657.135-.991l.233-1.754c.046-.176.07-.357.078-.538l.042-.317.013-.167c.05-.073.039-.154.033-.234l.009-.09c.066-.111.031-.235.046-.353l.018-.077a2.69 2.69 0 0 0 .059-.471 1.84 1.84 0 0 0 .057-.484 2.94 2.94 0 0 0 .091-.683c.061-.099.024-.21.037-.315.05-.036.043-.086.037-.137-.002-.167.076-.325.052-.493l.044-.405c.029-.223.105-.439.092-.668.085-.445.144-.895.177-1.347.057-.163.061-.332.078-.501l.179-1.398c.046-.116.052-.236.046-.36.065-.111.037-.236.052-.355.059-.146.046-.304.078-.454l.1-.85c.078-.113.026-.242.044-.362l-.002-.002c.059-.16.066-.328.079-.495l.044-.317.005-.133c.052-.084.05-.176.041-.27l.042-.27.009-.173a.26.26 0 0 0 .02-.075c.037-.148.046-.302.057-.454.017-.139.07-.253.046-.377.05-.28.094-.559.1-.844l.017-.088a7.08 7.08 0 0 0 .114-.953 3.08 3.08 0 0 0 .087-.724c.006-.011.007-.023.006-.036.052-.195.066-.394.078-.595.018-.165.066-.327.05-.494.05-.084.05-.176.039-.27l.013-.18a14.99 14.99 0 0 0 .166-1.576 6.42 6.42 0 0 0 .096-1.026c.072-.116.03-.246.037-.368a6.95 6.95 0 0 0 .087-1.038c.022-.208.074-.417.044-.629l.011-.216c.063-.118.033-.244.033-.368l.055-1.21c.068-.208.031-.422.033-.634l-.035-.178c.052-.036.041-.092.042-.141l.002-2.831-.004-.54.037-1.077c.035-.715.138-1.418.325-2.109l.212-.548.533-1.079a4.25 4.25 0 0 0 .495-1.304c.033-.038.026-.086.02-.135z" fill-opacity=".1"/><path opacity=".38" d="M47.425 21.583c-.041-.249-.046-.499-.03-.749l-2.695.111.089-7.507 4.028-.351-.009-.071a4.15 4.15 0 0 1-.185-.439c-.017-.045-.026-.09-.035-.133l-3.795.347.002-.717-.065-7.333 3.434-.366-.007-.323c0-.024-.002-.03-.006-.043-.013-.051-.1-.255-.007-.068a1.11 1.11 0 0 1-.109-.407l-3.321.353-.087-3.629-.51-.116-.209-.036-.177-.017.096 3.886-8.05.717.042-4.124a5.35 5.35 0 0 1-.893.148l-.041 4.049-5.813.437-1.711.12.065-3.409a4.03 4.03 0 0 1-.888.045c-.013 0-.024-.004-.037-.006l-.063 3.435-7.713.531.004-1.308.006-2.662-.066.039a6.52 6.52 0 0 1-.591.274l-.041.023a1.08 1.08 0 0 1-.103.062l-.009 3.625-7.489.503-.024-.585-.057-1.394a.86.86 0 0 1-.22.004c-.018-.002-.035-.008-.053-.011l-.039-.004-.356.103a.82.82 0 0 1-.231.036l.079 1.91-1.327.09-5.771.394-.042-.413-.131-1.182c-.244.049-.484.062-.727.039a1.46 1.46 0 0 1-.17.017l.174 1.599-1.384.094a2.49 2.49 0 0 1 .041.351.65.65 0 0 1 .026.103l.013.081.042.12a1.7 1.7 0 0 1 .041.188l1.309-.088.589 7.081c-.013 0-.009.034-.006.064.024.071.035.146.037.223l.044.156c.103.099.039.021.192.12.042.028.323.015.364.041a.77.77 0 0 1 .172-.021l.138.004 6.74-.341.011.283.07 1.677.901-.03-.081-1.976 7.107-.36-.004 1.533-.004 1.818.799.21.009-3.601 1.466-.075 6.494-.325.445 7.267-1.392.058.065.475.063.27 1.314-.054.089 1.345.436 6.64-.746.107c.063.267.087.524.111.779l.687-.099.454 6.924-.716.03.046.599c.002.023 0 .045 0 .068l.714-.03.388 5.914-.86-.017.004.522.002.188.017.114.895.019.105 1.602.279 4.233-1.025.019.024.57.007.079 1.036-.017.306 4.655c.288.034.57.009.895-.009h.024l-.306-4.661 5.581-.141.247 6.006.378.114c.037-.004.074-.006.107-.002.135.019.27.024.404.028l-.251-6.173 5.745-.21.41-.019.081 4.708.258-.31.157-.189.083-.101c.024-.03.05-.056.076-.081l.139-.464a1 1 0 0 1 .061-.3c.017-.068.037-.131.065-.193l-.035-3.111.79-.036c.002-.011.002-.023.004-.034-.035-.145-.033-.308.022-.486a.9.9 0 0 0 .044-.158l-.855.041.153-5.773 1.497-.116.124-.869-1.584.126.318-6.147 2.044-.088.007-.041.078-.383.031-.165.009-.084-2.13.092.098-1.852.268-5.953h.002l2.564-.099a.82.82 0 0 1 .111-.636c.009-.011.015-.024.022-.036l.002-.041c0-.008.002-.015.002-.023l-2.677.094.214-7.192 2.738-.116zM3.116 14.96l-.593-7.098 7.048-.477.299 7.233-6.754.341zm14.79-.747l-7.135.36-.301-7.248 7.098-.48.353-.024-.015 7.393zm.799-.041l.017-7.406 7.711-.523.126 5.901.074 1.627-7.927.402zm8.835-.696l-.179-7.297 7.519-.557-.02 7.738-3.816.19-3.491.176-.013-.25zm.046.884l7.273-.366.035 7.355-6.727.278-.142.006-.439-7.272zm1.012 15.922l-.34-5.177-.181-2.722 5.032-.208 1.793-.075.007.904.089 6.544-5.075.561-1.325.173zm.426 6.503l-.375-5.715 6.031-.719.331-.032.157 7.498-4.185.18-1.874.081-.085-1.293zm.129 1.959l6.031-.259.173 6.184-5.161.051-.652-.009-.391-5.967zm.827 12.597l-.382-5.805 5.784-.03.044 1.452.151 4.235-5.597.148zm12.784-5.087l-.116 4.67-6.184.24-.196-5.678 6.371-.3.172-.013-.046 1.081zm.085-1.936l-6.607.328-.173-6.199 7.098-.304-.317 6.175zm.506-9.781l-.151 2.936-7.153.308-.031-1.193-.125-6.351 7.67-.559-.209 4.86zm.428-11.751l-.188 6.147-3.928.227-3.782.31-.092-7.404 8.014-.332-.022 1.053zm.037-1.805l-4.554.188-3.482.145-.037-7.364 4.971-.261 3.188-.189-.087 7.483zm-2.523-7.959l-5.551.293-.002-.683.026-7.081 2.61-.216 5.464-.501.063 8.025-2.61.163z" fill-opacity=".1"/></g><defs><clipPath id="A"><path fill="#fff" d="M0 0h49v58H0z"/></clipPath></defs></svg>