<svg width="103" height="603" viewBox="0 0 103 603" fill="none" xmlns="http://www.w3.org/2000/svg">
<g clip-path="url(#clip0_99_1556)">
<path d="M41.8619 517.477C41.2973 517.423 40.3745 517.251 40.0589 516.7C39.1331 515.065 38.2074 513.431 37.2724 511.807C35.6855 513.481 34.0881 515.146 32.5013 516.82C31.8907 517.46 29.0545 516.509 29.6183 515.922C31.7503 513.682 33.8916 511.431 36.0236 509.191C36.3426 508.85 37.193 508.986 37.5786 509.062C38.0452 509.153 38.7079 509.331 38.9673 509.785C40.3324 512.183 41.6982 514.591 43.0633 516.99C43.3771 517.511 42.0734 517.493 41.8619 517.477Z" fill="#00AEEF" fill-opacity="0.1"/>
<path d="M74.7121 518.482C73.9774 518.589 73.1587 518.32 72.6808 517.739L68.1894 512.193C66.2303 514.002 64.2712 515.81 62.3122 517.618C61.4791 518.382 58.6726 517.268 59.8565 516.191C62.2318 513.996 64.6171 511.8 67.0024 509.604C67.6935 508.968 69.1519 509.527 69.6416 510.137L75.5037 517.379C75.9709 517.951 75.2092 518.42 74.7121 518.482Z" fill="#00AEEF" fill-opacity="0.1"/>
<path d="M99.9373 516.345C99.3727 516.29 98.4499 516.119 98.1343 515.567C97.2085 513.933 96.2828 512.299 95.3477 510.675C93.7609 512.349 92.1635 514.014 90.5766 515.688C89.9661 516.328 87.1299 515.376 87.6937 514.789C89.8257 512.549 91.967 510.299 94.099 508.059C94.418 507.718 95.2684 507.854 95.6539 507.93C96.1206 508.02 96.7833 508.198 97.0427 508.653C98.4078 511.051 99.7736 513.459 101.139 515.857C101.452 516.378 100.139 516.362 99.9373 516.345Z" fill="#00AEEF" fill-opacity="0.1"/>
<path d="M55.5828 539.089C55.0182 539.034 54.0954 538.863 53.7798 538.312C52.854 536.677 51.9283 535.043 50.9932 533.419C49.4064 535.093 47.809 536.758 46.2221 538.432C45.6116 539.072 42.7754 538.121 43.3392 537.534C45.4712 535.294 47.6125 533.043 49.7445 530.803C50.0635 530.462 50.9139 530.598 51.2994 530.674C51.7661 530.764 52.4288 530.943 52.6882 531.397C54.0533 533.795 55.4191 536.203 56.7842 538.601C57.088 539.123 55.7843 539.106 55.5828 539.089Z" fill="#00AEEF" fill-opacity="0.1"/>
<path d="M88.423 540.094C87.6884 540.201 86.8696 539.932 86.3918 539.352L81.9003 533.806C79.9412 535.614 77.9822 537.422 76.0231 539.23C75.19 539.995 72.3835 538.881 73.5675 537.803C75.9428 535.608 78.3281 533.412 80.7134 531.216C81.4044 530.581 82.8628 531.139 83.3526 531.749L89.2146 538.992C89.6818 539.563 88.9201 540.032 88.423 540.094Z" fill="#00AEEF" fill-opacity="0.1"/>
<path d="M113.648 537.957C113.084 537.903 112.161 537.731 111.845 537.18C110.919 535.545 109.994 533.911 109.059 532.287C107.472 533.961 105.874 535.626 104.288 537.3C103.677 537.941 100.841 536.989 101.405 536.402C103.537 534.162 105.678 531.911 107.81 529.671C108.129 529.33 108.979 529.466 109.365 529.542C109.832 529.633 110.494 529.811 110.754 530.265C112.119 532.663 113.485 535.072 114.85 537.47C115.163 537.991 113.86 537.974 113.648 537.957Z" fill="#00AEEF" fill-opacity="0.1"/>
<path d="M41.4787 560.248C40.9141 560.193 39.9913 560.022 39.6757 559.471C38.75 557.836 37.8242 556.202 36.8892 554.578C35.3023 556.252 33.7049 557.917 32.1181 559.591C31.5075 560.231 28.6713 559.279 29.2351 558.692C31.3671 556.452 33.5085 554.202 35.6404 551.962C35.9594 551.621 36.8098 551.757 37.1954 551.833C37.6621 551.923 38.3247 552.102 38.5841 552.556C39.9493 554.954 41.315 557.362 42.6802 559.76C42.9939 560.281 41.6902 560.264 41.4787 560.248Z" fill="#00AEEF" fill-opacity="0.1"/>
<path d="M74.3289 561.252C73.5942 561.359 72.7755 561.091 72.2976 560.51L67.8062 554.964C65.8471 556.772 63.8881 558.58 61.929 560.389C61.0959 561.153 58.2894 560.039 59.4734 558.962C61.8487 556.766 64.234 554.57 66.6192 552.374C67.3103 551.739 68.7687 552.298 69.2585 552.908L75.1205 560.15C75.5877 560.721 74.816 561.191 74.3289 561.252Z" fill="#00AEEF" fill-opacity="0.1"/>
<path d="M99.5441 559.116C98.9795 559.062 98.0568 558.89 97.7411 558.339C96.8154 556.704 95.8897 555.07 94.9546 553.446C93.3678 555.12 91.7703 556.785 90.1835 558.459C89.5729 559.099 86.7367 558.148 87.3006 557.561C89.4326 555.321 91.5739 553.07 93.7059 550.83C94.0248 550.489 94.8752 550.625 95.2608 550.701C95.7275 550.792 96.3902 550.97 96.6496 551.424C98.0147 553.822 99.3805 556.23 100.746 558.629C101.059 559.15 99.7556 559.133 99.5441 559.116Z" fill="#00AEEF" fill-opacity="0.1"/>
<path d="M51.4728 580.453C50.9082 580.399 49.9854 580.227 49.6698 579.676C48.744 578.042 47.8183 576.407 46.8833 574.784C45.2964 576.458 43.699 578.123 42.1122 579.797C41.5016 580.437 38.6654 579.485 39.2292 578.898C41.3612 576.658 43.5025 574.408 45.6345 572.168C45.9535 571.827 46.8039 571.963 47.1895 572.039C47.6561 572.129 48.3188 572.307 48.5782 572.762C49.9433 575.16 51.3091 577.568 52.6742 579.966C52.988 580.487 51.6843 580.47 51.4728 580.453Z" fill="#00AEEF" fill-opacity="0.1"/>
<path d="M84.323 581.458C83.5883 581.565 82.7696 581.297 82.2917 580.716L77.8002 575.17C75.8412 576.978 73.8821 578.786 71.923 580.594C71.0899 581.359 68.2935 580.244 69.4674 579.167C71.8427 576.972 74.228 574.776 76.6133 572.58C77.3043 571.945 78.7628 572.503 79.2525 573.114L85.1145 580.356C85.5818 580.927 84.8201 581.396 84.323 581.458Z" fill="#00AEEF" fill-opacity="0.1"/>
<path d="M109.748 579.318C109.658 579.314 109.588 579.319 109.548 579.311C108.983 579.257 108.06 579.085 107.744 578.534C106.819 576.9 105.893 575.265 104.958 573.641C103.371 575.316 101.774 576.98 100.187 578.655C99.5763 579.295 96.7401 578.343 97.304 577.756C99.4359 575.516 101.577 573.265 103.709 571.025C104.028 570.684 104.879 570.821 105.264 570.896C105.731 570.987 106.394 571.165 106.653 571.62C107.861 573.747 109.079 575.884 110.286 578.012C110.198 578.198 110.13 578.382 110.072 578.576C109.947 578.815 109.832 579.063 109.748 579.318Z" fill="#00AEEF" fill-opacity="0.1"/>
<path d="M66.9741 599.968C66.5432 600.126 66.1667 600.35 65.832 600.602C65.7371 600.528 65.6416 600.444 65.5554 600.349L61.0733 594.792C59.1142 596.601 57.1551 598.409 55.1961 600.217C55.1581 600.249 55.1101 600.282 55.0714 600.305C54.8805 600.297 54.679 600.28 54.4875 600.262C54.2399 600.308 53.9811 600.334 53.7335 600.38C52.8169 600.148 52.0014 599.458 52.7398 598.78C55.1251 596.584 57.5004 594.389 59.8857 592.193C60.5767 591.557 62.0352 592.116 62.5249 592.726L67.6804 599.101C67.5322 599.291 67.3939 599.48 67.2669 599.689C67.1622 599.776 67.0688 599.882 66.9741 599.968Z" fill="#00AEEF" fill-opacity="0.1"/>
<path d="M92.2619 596.454C91.693 596.49 91.1112 596.638 90.5587 596.773C90.4601 596.799 90.3722 596.835 90.2737 596.861C89.5961 595.662 88.9086 594.463 88.231 593.264C86.9164 594.65 85.5919 596.037 84.2773 597.423C84.0353 597.399 83.7938 597.384 83.5618 597.359C82.9666 597.296 82.3602 597.215 81.7457 597.164C81.4705 597.091 81.1966 597.038 80.914 597.006C82.9332 594.884 84.9524 592.761 86.9716 590.638C87.2906 590.297 88.141 590.434 88.5266 590.509C88.9933 590.6 89.6559 590.778 89.9153 591.233C90.9079 592.973 91.9012 594.723 92.8838 596.465C92.6829 596.457 92.4714 596.441 92.2619 596.454Z" fill="#00AEEF" fill-opacity="0.1"/>
</g>
<g clip-path="url(#clip1_99_1556)">
<path d="M37.2627 315.168C37.1992 315.731 37.0125 316.651 36.4564 316.958C34.807 317.857 33.1576 318.756 31.5187 319.664C33.1669 321.278 34.8054 322.903 36.4536 324.516C37.0836 325.137 36.0858 327.958 35.508 327.384C33.3031 325.216 31.0877 323.038 28.8828 320.87C28.5471 320.546 28.6972 319.698 28.7791 319.313C28.8772 318.848 29.0663 318.188 29.5249 317.937C31.9449 316.611 34.375 315.284 36.795 313.959C37.3212 313.653 37.2827 314.957 37.2627 315.168Z" fill="#00AEEF" fill-opacity="0.1"/>
<path d="M38.8029 282.338C38.8978 283.075 38.616 283.889 38.0275 284.357L32.4091 288.758C34.1851 290.746 35.961 292.734 37.737 294.722C38.4878 295.568 37.3282 298.356 36.2703 297.155C34.1139 294.744 31.9571 292.323 29.8003 289.902C29.1765 289.201 29.7587 287.752 30.3767 287.272L37.7135 281.529C38.2925 281.071 38.7493 281.84 38.8029 282.338Z" fill="#00AEEF" fill-opacity="0.1"/>
<path d="M37.0774 257.082C37.014 257.645 36.8273 258.565 36.2711 258.872C34.6218 259.771 32.9724 260.67 31.3335 261.578C32.9816 263.192 34.6202 264.816 36.2683 266.43C36.8984 267.051 35.9005 269.872 35.3228 269.298C33.1179 267.13 30.9025 264.952 28.6975 262.784C28.3618 262.459 28.5119 261.611 28.5939 261.227C28.692 260.762 28.881 260.102 29.3396 259.85C31.7597 258.525 34.1897 257.198 36.6098 255.872C37.1359 255.567 37.0979 256.88 37.0774 257.082Z" fill="#00AEEF" fill-opacity="0.1"/>
<path d="M38.6177 224.252C38.7126 224.988 38.4308 225.803 37.8422 226.271L32.2239 230.671C33.9999 232.66 35.7758 234.648 37.5517 236.636C38.3025 237.482 37.143 240.27 36.085 239.068C33.9282 236.648 31.7719 234.237 29.6151 231.816C28.9912 231.115 29.5734 229.666 30.1914 229.186L37.5282 223.443C38.0972 222.985 38.5546 223.765 38.6177 224.252Z" fill="#00AEEF" fill-opacity="0.1"/>
<path d="M37.0654 195.674C37.002 196.237 36.8152 197.157 36.2591 197.464C34.6097 198.363 32.9604 199.262 31.3215 200.17C32.9696 201.784 34.6082 203.408 36.2563 205.022C36.8863 205.643 35.8885 208.463 35.3108 207.89C33.1058 205.722 30.8905 203.544 28.6855 201.376C28.3498 201.051 28.4999 200.203 28.5818 199.819C28.68 199.354 28.869 198.694 29.3276 198.442C31.7477 197.116 34.1777 195.79 36.5977 194.464C37.1239 194.159 37.0854 195.462 37.0654 195.674Z" fill="#00AEEF" fill-opacity="0.1"/>
<path d="M38.6057 162.844C38.7006 163.58 38.4187 164.395 37.8302 164.863L32.2119 169.263C33.9878 171.252 35.7638 173.24 37.5397 175.228C38.2905 176.074 37.131 178.862 36.073 177.66C33.9167 175.25 31.7599 172.829 29.6031 170.408C28.9792 169.707 29.5614 168.258 30.1794 167.778L37.5162 162.035C38.0952 161.577 38.5421 162.347 38.6057 162.844Z" fill="#00AEEF" fill-opacity="0.1"/>
<path d="M59.0954 301.801C59.0319 302.365 58.8452 303.285 58.2891 303.591C56.6397 304.49 54.9903 305.389 53.3514 306.298C54.9996 307.911 56.6382 309.536 58.2863 311.15C58.9163 311.771 57.9185 314.591 57.3407 314.018C55.1358 311.849 52.9204 309.672 50.7155 307.503C50.3798 307.179 50.5299 306.331 50.6118 305.947C50.7099 305.481 50.899 304.822 51.3576 304.57C53.7776 303.244 56.2077 301.918 58.6277 300.592C59.1543 300.297 59.1159 301.6 59.0954 301.801Z" fill="#00AEEF" fill-opacity="0.1"/>
<path d="M60.6361 268.982C60.731 269.718 60.4492 270.532 59.8607 271L54.2423 275.401C56.0183 277.389 57.7942 279.377 59.5702 281.366C60.321 282.211 59.1614 284.999 58.1035 283.798C55.9471 281.387 53.7903 278.966 51.6335 276.545C51.0097 275.844 51.5918 274.395 52.2099 273.915L59.5467 268.172C60.1257 267.714 60.5825 268.484 60.6361 268.982Z" fill="#00AEEF" fill-opacity="0.1"/>
<path d="M58.9106 243.725C58.8472 244.289 58.6604 245.208 58.1043 245.515C56.455 246.414 54.8056 247.313 53.1667 248.221C54.8148 249.835 56.4534 251.46 58.1015 253.074C58.7316 253.695 57.7337 256.515 57.156 255.941C54.9511 253.773 52.7357 251.596 50.5307 249.427C50.195 249.103 50.3451 248.255 50.427 247.87C50.5252 247.405 50.7142 246.746 51.1728 246.494C53.5929 245.168 56.0229 243.842 58.4429 242.516C58.9691 242.21 58.9307 243.514 58.9106 243.725Z" fill="#00AEEF" fill-opacity="0.1"/>
<path d="M60.4509 210.895C60.5458 211.632 60.2639 212.446 59.6754 212.914L54.0571 217.315C55.833 219.303 57.609 221.291 59.3849 223.28C60.1357 224.125 58.9762 226.913 57.9182 225.712C55.7619 223.301 53.6051 220.88 51.4483 218.459C50.8244 217.758 51.4066 216.309 52.0246 215.829L59.3614 210.086C59.9404 209.628 60.3978 210.407 60.4509 210.895Z" fill="#00AEEF" fill-opacity="0.1"/>
<path d="M58.8986 182.317C58.8352 182.88 58.6484 183.8 58.0923 184.107C56.4429 185.006 54.7936 185.905 53.1547 186.813C54.8028 188.427 56.4414 190.052 58.0895 191.666C58.7195 192.286 57.7217 195.107 57.144 194.533C54.939 192.365 52.7236 190.187 50.5187 188.019C50.183 187.695 50.3331 186.847 50.415 186.462C50.5131 185.997 50.7022 185.338 51.1608 185.086C53.5808 183.76 56.0109 182.433 58.4309 181.108C58.9571 180.802 58.9186 182.106 58.8986 182.317Z" fill="#00AEEF" fill-opacity="0.1"/>
<path d="M80.0215 316.248C79.958 316.812 79.7713 317.732 79.2152 318.038C77.5658 318.937 75.9164 319.836 74.2775 320.745C75.9256 322.359 77.5642 323.983 79.2124 325.597C79.8424 326.218 78.8446 329.038 78.2668 328.465C76.0619 326.297 73.8465 324.119 71.6416 321.951C71.3059 321.626 71.456 320.778 71.5379 320.394C71.636 319.929 71.8251 319.269 72.2837 319.017C74.7037 317.691 77.1337 316.365 79.5538 315.039C80.08 314.734 80.0415 316.037 80.0215 316.248Z" fill="#00AEEF" fill-opacity="0.1"/>
<path d="M81.5618 283.419C81.6567 284.155 81.3748 284.969 80.7863 285.438L75.168 289.838C76.9439 291.826 78.7199 293.815 80.4958 295.803C81.2466 296.648 80.0871 299.436 79.0291 298.235C76.8728 295.824 74.716 293.403 72.5592 290.983C71.9353 290.281 72.5175 288.832 73.1355 288.353L80.4723 282.609C81.0513 282.152 81.5087 282.931 81.5618 283.419Z" fill="#00AEEF" fill-opacity="0.1"/>
<path d="M79.8367 258.172C79.7733 258.736 79.5865 259.656 79.0304 259.962C77.381 260.861 75.7317 261.76 74.0928 262.669C75.7409 264.283 77.3795 265.907 79.0276 267.521C79.6576 268.142 78.6598 270.962 78.0821 270.389C75.8771 268.22 73.6617 266.043 71.4568 263.875C71.1211 263.55 71.2712 262.702 71.3531 262.318C71.4513 261.853 71.6403 261.193 72.0989 260.941C74.519 259.615 76.949 258.289 79.369 256.963C79.8952 256.658 79.8567 257.961 79.8367 258.172Z" fill="#00AEEF" fill-opacity="0.1"/>
<path d="M81.377 225.343C81.4719 226.079 81.1901 226.893 80.6016 227.362L74.9832 231.762C76.7592 233.75 78.5351 235.739 80.3111 237.727C81.0619 238.572 79.9019 241.35 78.8444 240.159C76.6876 237.738 74.5312 235.327 72.3744 232.907C71.7506 232.205 72.3327 230.756 72.9508 230.276L80.2875 224.533C80.8666 224.075 81.3134 224.845 81.377 225.343Z" fill="#00AEEF" fill-opacity="0.1"/>
<path d="M100.388 306.585C100.324 307.149 100.137 308.069 99.5813 308.375C97.9319 309.274 96.2826 310.173 94.6437 311.081C96.2918 312.695 97.9304 314.32 99.5785 315.934C100.209 316.555 99.2107 319.375 98.633 318.802C96.428 316.633 94.2127 314.456 92.0077 312.287C91.672 311.963 91.8221 311.115 91.904 310.731C92.0022 310.265 92.1912 309.606 92.6498 309.354C95.0699 308.028 97.4999 306.702 99.9199 305.376C100.446 305.071 100.408 306.374 100.388 306.585Z" fill="#00AEEF" fill-opacity="0.1"/>
<path d="M101.928 273.756C102.023 274.492 101.741 275.306 101.152 275.774L95.5341 280.175C97.31 282.163 99.086 284.151 100.862 286.14C101.613 286.985 100.453 289.763 99.3952 288.572C97.2389 286.161 95.0821 283.74 92.9253 281.319C92.3014 280.618 92.8836 279.169 93.5016 278.689L100.838 272.946C101.417 272.488 101.874 273.258 101.928 273.756Z" fill="#00AEEF" fill-opacity="0.1"/>
<path d="M100.203 248.299C100.197 248.389 100.2 248.459 100.192 248.499C100.129 249.063 99.9422 249.983 99.386 250.289C97.7367 251.188 96.0873 252.087 94.4484 252.996C96.0965 254.61 97.7351 256.234 99.3832 257.848C100.013 258.469 99.0154 261.289 98.4377 260.716C96.2328 258.548 94.0174 256.37 91.8124 254.202C91.4767 253.877 91.6268 253.029 91.7088 252.645C91.8069 252.18 91.9959 251.52 92.4545 251.268C94.6015 250.095 96.758 248.912 98.905 247.739C99.0895 247.831 99.2731 247.902 99.4662 247.963C99.7025 248.092 99.9484 248.211 100.203 248.299Z" fill="#00AEEF" fill-opacity="0.1"/>
</g>
<g clip-path="url(#clip2_99_1556)">
<path d="M55.1435 481.509C55.0801 482.072 54.8934 482.992 54.3372 483.299C52.6879 484.198 51.0385 485.097 49.3996 486.005C51.0477 487.619 52.6863 489.243 54.3344 490.857C54.9645 491.478 53.9666 494.299 53.3889 493.725C51.184 491.557 48.9686 489.379 46.7636 487.211C46.4279 486.886 46.578 486.038 46.66 485.654C46.7581 485.189 46.9471 484.529 47.4057 484.277C49.8258 482.952 52.2558 481.625 54.6759 480.299C55.202 479.994 55.1636 481.297 55.1435 481.509Z" fill="#00AEEF" fill-opacity="0.1"/>
<path d="M56.6838 448.679C56.7787 449.415 56.4969 450.23 55.9083 450.698L50.29 455.098C52.066 457.087 53.8419 459.075 55.6178 461.063C56.3686 461.909 55.2091 464.697 54.1511 463.495C51.9948 461.085 49.838 458.664 47.6812 456.243C47.0573 455.542 47.6395 454.093 48.2575 453.613L55.5943 447.87C56.1733 447.412 56.6302 448.181 56.6838 448.679Z" fill="#00AEEF" fill-opacity="0.1"/>
<path d="M54.9583 423.422C54.8949 423.986 54.7081 424.906 54.152 425.213C52.5026 426.112 50.8533 427.01 49.2144 427.919C50.8625 429.533 52.5011 431.157 54.1492 432.771C54.7792 433.392 53.7814 436.212 53.2037 435.639C50.9987 433.471 48.7833 431.293 46.5784 429.125C46.2427 428.8 46.3928 427.952 46.4747 427.568C46.5728 427.103 46.7619 426.443 47.2205 426.191C49.6405 424.865 52.0706 423.539 54.4906 422.213C55.0168 421.908 54.9788 423.221 54.9583 423.422Z" fill="#00AEEF" fill-opacity="0.1"/>
<path d="M56.4985 390.593C56.5935 391.329 56.3116 392.144 55.7231 392.612L50.1048 397.012C51.8807 399.001 53.6567 400.989 55.4326 402.977C56.1834 403.823 55.0239 406.611 53.9659 405.409C51.8091 402.988 49.6528 400.578 47.4959 398.157C46.8721 397.456 47.4543 396.006 48.0723 395.527L55.4091 389.784C55.9781 389.326 56.4354 390.105 56.4985 390.593Z" fill="#00AEEF" fill-opacity="0.1"/>
<path d="M54.9463 362.014C54.8828 362.578 54.6961 363.498 54.14 363.805C52.4906 364.703 50.8412 365.602 49.2023 366.511C50.8504 368.125 52.489 369.749 54.1372 371.363C54.7672 371.984 53.7694 374.804 53.1916 374.231C50.9867 372.063 48.7713 369.885 46.5664 367.717C46.2307 367.392 46.3808 366.544 46.4627 366.16C46.5608 365.695 46.7499 365.035 47.2085 364.783C49.6285 363.457 52.0585 362.131 54.4786 360.805C55.0048 360.5 54.9663 361.803 54.9463 362.014Z" fill="#00AEEF" fill-opacity="0.1"/>
<path d="M56.4865 329.185C56.5814 329.921 56.2996 330.735 55.7111 331.204L50.0927 335.604C51.8687 337.593 53.6446 339.581 55.4206 341.569C56.1714 342.415 55.0118 345.203 53.9539 344.001C51.7975 341.59 49.6407 339.17 47.4839 336.749C46.8601 336.048 47.4423 334.598 48.0603 334.119L55.3971 328.376C55.9761 327.918 56.4229 328.687 56.4865 329.185Z" fill="#00AEEF" fill-opacity="0.1"/>
<path d="M76.9762 468.142C76.9128 468.706 76.7261 469.625 76.1699 469.932C74.5206 470.831 72.8712 471.73 71.2323 472.638C72.8804 474.252 74.519 475.877 76.1671 477.491C76.7972 478.112 75.7993 480.932 75.2216 480.358C73.0167 478.19 70.8013 476.013 68.5964 473.844C68.2606 473.52 68.4107 472.672 68.4927 472.287C68.5908 471.822 68.7798 471.163 69.2384 470.911C71.6585 469.585 74.0885 468.259 76.5086 466.933C77.0352 466.637 76.9967 467.941 76.9762 468.142Z" fill="#00AEEF" fill-opacity="0.1"/>
<path d="M78.517 435.322C78.6119 436.059 78.33 436.873 77.7415 437.341L72.1232 441.742C73.8991 443.73 75.6751 445.718 77.451 447.707C78.2018 448.552 77.0423 451.34 75.9843 450.139C73.828 447.728 71.6712 445.307 69.5144 442.886C68.8905 442.185 69.4727 440.736 70.0907 440.256L77.4275 434.513C78.0065 434.055 78.4634 434.824 78.517 435.322Z" fill="#00AEEF" fill-opacity="0.1"/>
<path d="M76.7915 410.066C76.728 410.629 76.5413 411.549 75.9852 411.856C74.3358 412.755 72.6865 413.654 71.0476 414.562C72.6957 416.176 74.3343 417.8 75.9824 419.414C76.6124 420.035 75.6146 422.856 75.0368 422.282C72.8319 420.114 70.6165 417.936 68.4116 415.768C68.0759 415.444 68.226 414.596 68.3079 414.211C68.406 413.746 68.5951 413.086 69.0537 412.835C71.4737 411.509 73.9038 410.182 76.3238 408.856C76.85 408.551 76.8115 409.855 76.7915 410.066Z" fill="#00AEEF" fill-opacity="0.1"/>
<path d="M78.3317 377.236C78.4266 377.973 78.1448 378.787 77.5563 379.255L71.938 383.656C73.7139 385.644 75.4899 387.632 77.2658 389.621C78.0166 390.466 76.857 393.254 75.7991 392.053C73.6428 389.642 71.4859 387.221 69.3291 384.8C68.7053 384.099 69.2875 382.65 69.9055 382.17L77.2423 376.427C77.8213 375.969 78.2786 376.748 78.3317 377.236Z" fill="#00AEEF" fill-opacity="0.1"/>
<path d="M76.7795 348.658C76.716 349.221 76.5293 350.141 75.9731 350.448C74.3238 351.347 72.6744 352.246 71.0355 353.154C72.6836 354.768 74.3222 356.392 75.9703 358.006C76.6004 358.627 75.6026 361.448 75.0248 360.874C72.8199 358.706 70.6045 356.528 68.3996 354.36C68.0639 354.036 68.214 353.188 68.2959 352.803C68.394 352.338 68.5831 351.678 69.0417 351.426C71.4617 350.101 73.8917 348.774 76.3118 347.448C76.8379 347.143 76.7995 348.446 76.7795 348.658Z" fill="#00AEEF" fill-opacity="0.1"/>
<path d="M97.9023 482.589C97.8389 483.153 97.6521 484.073 97.096 484.379C95.4467 485.278 93.7973 486.177 92.1584 487.086C93.8065 488.7 95.4451 490.324 97.0932 491.938C97.7233 492.559 96.7254 495.379 96.1477 494.806C93.9428 492.637 91.7274 490.46 89.5224 488.292C89.1867 487.967 89.3368 487.119 89.4187 486.735C89.5169 486.27 89.7059 485.61 90.1645 485.358C92.5846 484.032 95.0146 482.706 97.4346 481.38C97.9608 481.075 97.9224 482.378 97.9023 482.589Z" fill="#00AEEF" fill-opacity="0.1"/>
<path d="M99.4426 449.76C99.5375 450.496 99.2557 451.31 98.6672 451.779L93.0489 456.179C94.8248 458.167 96.6008 460.156 98.3767 462.144C99.1275 462.989 97.968 465.777 96.91 464.576C94.7537 462.165 92.5968 459.744 90.44 457.324C89.8162 456.622 90.3984 455.173 91.0164 454.693L98.3532 448.95C98.9322 448.492 99.3895 449.272 99.4426 449.76Z" fill="#00AEEF" fill-opacity="0.1"/>
<path d="M97.7176 424.513C97.6541 425.077 97.4674 425.996 96.9113 426.303C95.2619 427.202 93.6125 428.101 91.9736 429.009C93.6217 430.623 95.2603 432.248 96.9085 433.862C97.5385 434.483 96.5407 437.303 95.9629 436.73C93.758 434.561 91.5426 432.384 89.3377 430.215C89.002 429.891 89.1521 429.043 89.234 428.659C89.3321 428.193 89.5212 427.534 89.9798 427.282C92.3998 425.956 94.8298 424.63 97.2499 423.304C97.7761 422.999 97.7376 424.302 97.7176 424.513Z" fill="#00AEEF" fill-opacity="0.1"/>
<path d="M99.2579 391.683C99.3528 392.42 99.0709 393.234 98.4824 393.702L92.8641 398.103C94.64 400.091 96.416 402.079 98.1919 404.068C98.9427 404.913 97.7827 407.691 96.7252 406.5C94.5684 404.079 92.4121 401.668 90.2553 399.247C89.6314 398.546 90.2136 397.097 90.8316 396.617L98.1684 390.874C98.7474 390.416 99.1943 391.186 99.2579 391.683Z" fill="#00AEEF" fill-opacity="0.1"/>
</g>
<g clip-path="url(#clip3_99_1556)">
<path d="M38.6591 131.176C38.754 131.913 38.4722 132.727 37.8837 133.195L32.2653 137.595C34.0413 139.584 35.8172 141.572 37.5932 143.56C38.344 144.406 37.1844 147.194 36.1265 145.992C33.9701 143.582 31.8133 141.161 29.6565 138.74C29.0327 138.039 29.6149 136.59 30.2329 136.11L37.5697 130.367C38.1487 129.909 38.6055 130.678 38.6591 131.176Z" fill="#00AEEF" fill-opacity="0.1"/>
<path d="M36.9336 105.919C36.8702 106.483 36.6835 107.403 36.1273 107.71C34.478 108.609 32.8286 109.507 31.1897 110.416C32.8378 112.03 34.4764 113.654 36.1245 115.268C36.7546 115.889 35.7567 118.709 35.179 118.136C32.9741 115.968 30.7587 113.79 28.5537 111.622C28.218 111.297 28.3681 110.449 28.4501 110.065C28.5482 109.6 28.7372 108.94 29.1958 108.688C31.6159 107.362 34.0459 106.036 36.466 104.71C36.9921 104.405 36.9541 105.718 36.9336 105.919Z" fill="#00AEEF" fill-opacity="0.1"/>
<path d="M38.4739 73.09C38.5688 73.8264 38.287 74.6406 37.6984 75.109L32.0801 79.5094C33.8561 81.4977 35.632 83.486 37.4079 85.4743C38.1587 86.3197 36.9992 89.1076 35.9412 87.9063C33.7844 85.4855 31.6281 83.0747 29.4713 80.6539C28.8474 79.9526 29.4296 78.5035 30.0476 78.0238L37.3844 72.2806C37.9534 71.8232 38.4108 72.6025 38.4739 73.09Z" fill="#00AEEF" fill-opacity="0.1"/>
<path d="M58.9516 150.639C58.8881 151.203 58.7014 152.122 58.1453 152.429C56.4959 153.328 54.8465 154.227 53.2077 155.135C54.8558 156.749 56.4944 158.374 58.1425 159.988C58.7725 160.609 57.7747 163.429 57.1969 162.856C54.992 160.687 52.7766 158.51 50.5717 156.341C50.236 156.017 50.3861 155.169 50.468 154.784C50.5661 154.319 50.7552 153.66 51.2138 153.408C53.6338 152.082 56.0639 150.756 58.4839 149.43C59.0105 149.134 58.9721 150.438 58.9516 150.639Z" fill="#00AEEF" fill-opacity="0.1"/>
<path d="M60.4923 117.819C60.5872 118.556 60.3054 119.37 59.7169 119.838L54.0985 124.239C55.8745 126.227 57.6504 128.215 59.4264 130.204C60.1772 131.049 59.0176 133.837 57.9597 132.636C55.8033 130.225 53.6465 127.804 51.4897 125.383C50.8659 124.682 51.448 123.233 52.0661 122.753L59.4029 117.01C59.9819 116.552 60.4387 117.321 60.4923 117.819Z" fill="#00AEEF" fill-opacity="0.1"/>
<path d="M58.7668 92.5628C58.7034 93.1264 58.5166 94.0463 57.9605 94.3529C56.3112 95.2519 54.6618 96.1508 53.0229 97.0593C54.671 98.6732 56.3096 100.298 57.9577 101.911C58.5878 102.532 57.5899 105.353 57.0122 104.779C54.8073 102.611 52.5919 100.433 50.3869 98.2652C50.0512 97.9407 50.2013 97.0927 50.2832 96.7084C50.3814 96.2432 50.5704 95.5835 51.029 95.3316C53.4491 94.0057 55.8791 92.6794 58.2991 91.3536C58.8253 91.0483 58.7869 92.3516 58.7668 92.5628Z" fill="#00AEEF" fill-opacity="0.1"/>
<path d="M79.8777 165.086C79.8142 165.65 79.6275 166.57 79.0714 166.876C77.422 167.775 75.7726 168.674 74.1337 169.583C75.7818 171.197 77.4204 172.821 79.0686 174.435C79.6986 175.056 78.7008 177.876 78.123 177.303C75.9181 175.135 73.7027 172.957 71.4978 170.789C71.1621 170.464 71.3122 169.616 71.3941 169.232C71.4922 168.767 71.6813 168.107 72.1399 167.855C74.5599 166.529 76.9899 165.203 79.41 163.877C79.9362 163.572 79.8977 164.875 79.8777 165.086Z" fill="#00AEEF" fill-opacity="0.1"/>
<path d="M81.418 132.257C81.5129 132.993 81.2311 133.807 80.6425 134.276L75.0242 138.676C76.8002 140.664 78.5761 142.653 80.352 144.641C81.1028 145.486 79.9433 148.274 78.8853 147.073C76.729 144.662 74.5722 142.241 72.4154 139.821C71.7915 139.119 72.3737 137.67 72.9917 137.19L80.3285 131.447C80.9075 130.989 81.3649 131.769 81.418 132.257Z" fill="#00AEEF" fill-opacity="0.1"/>
<path d="M79.6929 107.01C79.6295 107.574 79.4427 108.493 78.8866 108.8C77.2372 109.699 75.5879 110.598 73.949 111.506C75.5971 113.12 77.2357 114.745 78.8838 116.359C79.5138 116.98 78.516 119.8 77.9383 119.227C75.7333 117.058 73.518 114.881 71.313 112.712C70.9773 112.388 71.1274 111.54 71.2093 111.156C71.3075 110.69 71.4965 110.031 71.9551 109.779C74.3752 108.453 76.8052 107.127 79.2252 105.801C79.7514 105.496 79.7129 106.799 79.6929 107.01Z" fill="#00AEEF" fill-opacity="0.1"/>
<path d="M81.2332 74.1805C81.3281 74.9169 81.0463 75.7311 80.4578 76.1994L74.8394 80.5999C76.6154 82.5882 78.3913 84.5765 80.1673 86.5647C80.9181 87.4102 79.7581 90.1881 78.7006 88.9968C76.5438 86.576 74.3874 84.1652 72.2306 81.7444C71.6068 81.0431 72.1889 79.594 72.807 79.1143L80.1437 73.3711C80.7228 72.9132 81.1696 73.683 81.2332 74.1805Z" fill="#00AEEF" fill-opacity="0.1"/>
<path d="M100.244 155.423C100.18 155.987 99.9936 156.906 99.4375 157.213C97.7881 158.112 96.1388 159.011 94.4999 159.919C96.148 161.533 97.7866 163.158 99.4347 164.772C100.065 165.393 99.0669 168.213 98.4892 167.639C96.2842 165.471 94.0689 163.294 91.8639 161.125C91.5282 160.801 91.6783 159.953 91.7602 159.568C91.8584 159.103 92.0474 158.444 92.506 158.192C94.9261 156.866 97.3561 155.54 99.7761 154.214C100.302 153.908 100.264 155.212 100.244 155.423Z" fill="#00AEEF" fill-opacity="0.1"/>
<path d="M101.784 122.593C101.879 123.33 101.597 124.144 101.009 124.612L95.3903 129.013C97.1662 131.001 98.9422 132.989 100.718 134.978C101.469 135.823 100.309 138.601 99.2514 137.41C97.0951 134.999 94.9383 132.578 92.7815 130.157C92.1576 129.456 92.7398 128.007 93.3578 127.527L100.695 121.784C101.274 121.326 101.73 122.095 101.784 122.593Z" fill="#00AEEF" fill-opacity="0.1"/>
<path d="M100.059 97.1365C100.053 97.2269 100.057 97.2968 100.049 97.3373C99.9851 97.9009 99.7984 98.8207 99.2422 99.1274C97.5929 100.026 95.9435 100.925 94.3046 101.834C95.9527 103.448 97.5913 105.072 99.2394 106.686C99.8695 107.307 98.8716 110.127 98.2939 109.554C96.089 107.386 93.8736 105.208 91.6686 103.04C91.3329 102.715 91.483 101.867 91.565 101.483C91.6631 101.018 91.8521 100.358 92.3107 100.106C94.4577 98.9333 96.6142 97.75 98.7612 96.5772C98.9457 96.6686 99.1293 96.74 99.3224 96.801C99.5587 96.93 99.8046 97.0485 100.059 97.1365Z" fill="#00AEEF" fill-opacity="0.1"/>
</g>
<defs>
<clipPath id="clip0_99_1556">
<rect width="174.71" height="93.31" fill="white" transform="matrix(0.997979 -0.0635394 -0.0635394 -0.997979 29.6453 602.906)"/>
</clipPath>
<clipPath id="clip1_99_1556">
<rect width="174.71" height="93.31" fill="white" transform="matrix(-0.0472579 -0.998883 -0.998883 0.0472579 122.481 328.776)"/>
</clipPath>
<clipPath id="clip2_99_1556">
<rect width="174.71" height="93.31" fill="white" transform="matrix(-0.0472579 -0.998883 -0.998883 0.0472579 140.362 495.117)"/>
</clipPath>
<clipPath id="clip3_99_1556">
<rect width="174.71" height="93.31" fill="white" transform="matrix(-0.0472579 -0.998883 -0.998883 0.0472579 122.337 177.614)"/>
</clipPath>
</defs>
</svg>
