<svg xmlns="http://www.w3.org/2000/svg" xmlns:xlink="http://www.w3.org/1999/xlink" width="103" height="603" fill="none" xmlns:v="https://vecta.io/nano"><style><![CDATA[.B{fill-opacity:.1}.C{fill:#00aeef}]]></style><g clip-path="url(#A)" class="C B"><path d="M41.862 517.477c-.565-.054-1.487-.226-1.803-.777l-2.787-4.893-4.771 5.013c-.611.64-3.447-.311-2.883-.898l6.405-6.731c.319-.341 1.169-.205 1.555-.129.467.091 1.129.269 1.389.723l4.096 7.205c.314.521-.99.503-1.201.487zm32.85 1.005c-.735.107-1.553-.162-2.031-.743l-4.491-5.546-5.877 5.425c-.833.764-3.64-.35-2.456-1.427l7.146-6.587c.691-.636 2.15-.077 2.639.533l5.862 7.242c.467.572-.294 1.041-.792 1.103zm25.225-2.137c-.565-.055-1.487-.226-1.803-.778l-2.787-4.892-4.771 5.013c-.611.64-3.447-.312-2.883-.899l6.405-6.73c.319-.341 1.169-.205 1.555-.129.467.09 1.129.268 1.389.723l4.096 7.204c.313.521-1 .505-1.202.488zm-44.354 22.744c-.565-.055-1.487-.226-1.803-.777l-2.787-4.893-4.771 5.013c-.61.64-3.447-.311-2.883-.898l6.405-6.731c.319-.341 1.169-.205 1.555-.129.467.09 1.129.269 1.389.723l4.096 7.204c.304.522-1 .505-1.201.488zm32.84 1.005c-.735.107-1.553-.162-2.031-.742l-4.492-5.546-5.877 5.424c-.833.765-3.64-.349-2.456-1.427l7.146-6.587c.691-.635 2.149-.077 2.639.533l5.862 7.243c.467.571-.294 1.04-.792 1.102zm25.225-2.137c-.564-.054-1.487-.226-1.803-.777l-2.786-4.893-4.771 5.013c-.611.641-3.447-.311-2.883-.898l6.405-6.731c.319-.341 1.169-.205 1.555-.129.467.091 1.129.269 1.389.723l4.096 7.205c.313.521-.99.504-1.202.487zm-72.169 22.291c-.565-.055-1.487-.226-1.803-.777l-2.786-4.893-4.771 5.013c-.611.64-3.447-.312-2.883-.899l6.405-6.73c.319-.341 1.169-.205 1.555-.129.467.09 1.129.269 1.389.723l4.096 7.204c.314.521-.99.504-1.201.488zm32.85 1.004c-.735.107-1.553-.161-2.031-.742l-4.491-5.546-5.877 5.425c-.833.764-3.64-.35-2.456-1.427l7.146-6.588c.691-.635 2.149-.076 2.639.534l5.862 7.242c.467.571-.305 1.041-.792 1.102zm25.215-2.136c-.565-.054-1.487-.226-1.803-.777l-2.787-4.893-4.771 5.013c-.611.64-3.447-.311-2.883-.898l6.405-6.731c.319-.341 1.169-.205 1.555-.129.467.091 1.129.269 1.389.723l4.096 7.205c.313.521-.99.504-1.202.487zm-48.071 21.337c-.565-.054-1.487-.226-1.803-.777l-2.787-4.892-4.771 5.013c-.611.64-3.447-.312-2.883-.899l6.405-6.73c.319-.341 1.169-.205 1.555-.129.467.09 1.129.268 1.389.723l4.096 7.204c.314.521-.99.504-1.201.487zm32.85 1.005c-.735.107-1.553-.161-2.031-.742L77.8 575.17l-5.877 5.424c-.833.765-3.63-.35-2.456-1.427l7.146-6.587c.691-.635 2.15-.077 2.639.534l5.862 7.242c.467.571-.294 1.04-.792 1.102zm25.425-2.14c-.09-.004-.16.001-.2-.007-.565-.054-1.488-.226-1.804-.777l-2.786-4.893-4.771 5.014c-.611.64-3.447-.312-2.883-.899l6.405-6.731c.319-.341 1.17-.204 1.555-.129.467.091 1.13.269 1.389.724l3.633 6.392c-.088.186-.156.37-.214.564-.125.239-.24.487-.324.742zm-42.774 20.65c-.431.158-.807.382-1.142.634a2.25 2.25 0 0 1-.277-.253l-4.482-5.557-5.877 5.425a1 1 0 0 1-.125.088l-.584-.043-.754.118c-.917-.232-1.732-.922-.994-1.6l7.146-6.587c.691-.636 2.15-.077 2.639.533l5.156 6.375-.413.588c-.105.087-.198.193-.293.279zm25.288-3.514c-.569.036-1.151.184-1.703.319l-.285.088-2.043-3.597-3.954 4.159-.715-.064-1.816-.195a5.74 5.74 0 0 0-.832-.158l6.058-6.368c.319-.341 1.169-.204 1.555-.129.467.091 1.129.269 1.389.724l2.968 5.232-.622-.011z"/></g><g clip-path="url(#B)" class="C B"><path d="M37.263 315.168c-.064.563-.25 1.483-.806 1.79l-4.938 2.706 4.935 4.852c.63.621-.368 3.442-.946 2.868l-6.625-6.514c-.336-.324-.186-1.172-.104-1.557.098-.465.287-1.125.746-1.376l7.27-3.978c.526-.306.488.998.468 1.209zm1.54-32.83c.095.737-.187 1.551-.775 2.019l-5.618 4.401 5.328 5.964c.751.846-.409 3.634-1.467 2.433l-6.47-7.253c-.624-.701-.042-2.15.576-2.63l7.337-5.743c.579-.458 1.036.311 1.089.809zm-1.726-25.256c-.063.563-.25 1.483-.806 1.79l-4.938 2.706 4.935 4.852c.63.621-.368 3.442-.946 2.868l-6.625-6.514c-.336-.325-.186-1.173-.104-1.557.098-.465.287-1.125.746-1.377l7.27-3.978c.526-.305.488 1.008.468 1.21zm1.541-32.83c.095.736-.187 1.551-.776 2.019l-5.618 4.4 5.328 5.965c.751.846-.409 3.634-1.467 2.432l-6.47-7.252c-.624-.701-.042-2.15.576-2.63l7.337-5.743c.569-.458 1.026.322 1.09.809zm-1.553-28.578c-.063.563-.25 1.483-.806 1.79l-4.938 2.706 4.935 4.852c.63.621-.368 3.441-.946 2.868l-6.625-6.514c-.336-.325-.186-1.173-.104-1.557.098-.465.287-1.125.746-1.377l7.27-3.978c.526-.305.488.998.468 1.21zm1.541-32.83c.095.736-.187 1.551-.776 2.019l-5.618 4.4 5.328 5.965c.751.846-.409 3.634-1.467 2.432l-6.47-7.252c-.624-.701-.042-2.15.576-2.63l7.337-5.743c.579-.458 1.026.312 1.09.809zm20.489 138.957c-.063.564-.25 1.484-.806 1.79l-4.938 2.707 4.935 4.852c.63.621-.368 3.441-.946 2.868l-6.625-6.515c-.336-.324-.186-1.172-.104-1.556.098-.466.287-1.125.746-1.377l7.27-3.978c.527-.295.488 1.008.468 1.209zm1.541-32.819c.095.736-.187 1.55-.775 2.018l-5.618 4.401 5.328 5.965c.751.845-.409 3.633-1.467 2.432l-6.47-7.253c-.624-.701-.042-2.15.576-2.63l7.337-5.743c.579-.458 1.036.312 1.089.81zm-1.725-25.257c-.063.564-.25 1.483-.806 1.79l-4.938 2.706 4.935 4.853c.63.621-.368 3.441-.946 2.867l-6.625-6.514c-.336-.324-.186-1.172-.104-1.557.098-.465.287-1.124.746-1.376l7.27-3.978c.526-.306.488.998.468 1.209z"/><use xlink:href="#E"/><path d="M58.899 182.317c-.063.563-.25 1.483-.806 1.79l-4.938 2.706 4.935 4.853c.63.62-.368 3.441-.946 2.867l-6.625-6.514c-.336-.324-.186-1.172-.104-1.557.098-.465.287-1.124.746-1.376l7.27-3.978c.526-.306.488.998.468 1.209z"/><use xlink:href="#F"/><path d="M81.562 283.419c.095.736-.187 1.55-.776 2.019l-5.618 4.4 5.328 5.965c.751.845-.409 3.633-1.467 2.432l-6.47-7.252c-.624-.702-.042-2.151.576-2.63l7.337-5.744c.579-.457 1.036.322 1.09.81zm-1.725-25.247c-.063.564-.25 1.484-.806 1.79l-4.938 2.707 4.935 4.852c.63.621-.368 3.441-.946 2.868l-6.625-6.514c-.336-.325-.186-1.173-.104-1.557.098-.465.287-1.125.746-1.377l7.27-3.978c.526-.305.488.998.468 1.209zm1.54-32.829c.095.736-.187 1.55-.775 2.019l-5.618 4.4 5.328 5.965c.751.845-.409 3.623-1.467 2.432l-6.47-7.252c-.624-.702-.042-2.151.576-2.631l7.337-5.743c.579-.458 1.026.312 1.09.81zm19.011 81.242c-.064.564-.251 1.484-.807 1.79l-4.938 2.706 4.935 4.853c.63.621-.368 3.441-.946 2.868l-6.625-6.515c-.336-.324-.186-1.172-.104-1.556.098-.466.287-1.125.746-1.377l7.27-3.978c.526-.305.488.998.468 1.209zm1.54-32.829c.095.736-.187 1.55-.776 2.018l-5.618 4.401 5.328 5.965c.751.845-.409 3.623-1.467 2.432l-6.47-7.253c-.624-.701-.042-2.15.576-2.63l7.336-5.743c.579-.458 1.036.312 1.09.81zm-1.725-25.457l-.011.2c-.063.564-.25 1.484-.806 1.79l-4.938 2.707 4.935 4.852c.63.621-.368 3.441-.945 2.868l-6.625-6.514c-.336-.325-.186-1.173-.104-1.557.098-.465.287-1.125.746-1.377l6.451-3.529a3.81 3.81 0 0 0 .561.224c.236.129.482.248.737.336z"/></g><g clip-path="url(#C)" class="C B"><path d="M55.144 481.509c-.063.563-.25 1.483-.806 1.79l-4.938 2.706 4.935 4.852c.63.621-.368 3.442-.946 2.868l-6.625-6.514c-.336-.325-.186-1.173-.104-1.557.098-.465.287-1.125.746-1.377l7.27-3.978c.526-.305.488.998.468 1.21zm1.54-32.83c.095.736-.187 1.551-.776 2.019l-5.618 4.4 5.328 5.965c.751.846-.409 3.634-1.467 2.432l-6.47-7.252c-.624-.701-.042-2.15.576-2.63l7.337-5.743c.579-.458 1.036.311 1.09.809zm-1.726-25.257c-.063.564-.25 1.484-.806 1.791l-4.938 2.706 4.935 4.852c.63.621-.368 3.441-.946 2.868l-6.625-6.514c-.336-.325-.186-1.173-.104-1.557.098-.465.287-1.125.746-1.377l7.27-3.978c.526-.305.488 1.008.468 1.209zm1.541-32.829c.095.736-.187 1.551-.775 2.019l-5.618 4.4 5.328 5.965c.751.846-.409 3.634-1.467 2.432l-6.47-7.252c-.624-.701-.042-2.151.576-2.63l7.337-5.743c.569-.458 1.026.321 1.089.809zm-1.553-28.579c-.063.564-.25 1.484-.806 1.791l-4.938 2.706 4.935 4.852c.63.621-.368 3.441-.946 2.868l-6.625-6.514c-.336-.325-.186-1.173-.104-1.557.098-.465.287-1.125.746-1.377l7.27-3.978c.526-.305.488.998.468 1.209zm1.541-32.829c.095.736-.187 1.55-.775 2.019l-5.618 4.4 5.328 5.965c.751.846-.409 3.634-1.467 2.432l-6.47-7.252c-.624-.701-.042-2.151.576-2.63l7.337-5.743c.579-.458 1.026.311 1.089.809zm20.489 138.957c-.063.564-.25 1.483-.806 1.79l-4.938 2.706 4.935 4.853c.63.621-.368 3.441-.946 2.867l-6.625-6.514c-.336-.324-.186-1.172-.104-1.557.098-.465.287-1.124.746-1.376l7.27-3.978c.527-.296.488 1.008.468 1.209zm1.541-32.82c.095.737-.187 1.551-.775 2.019l-5.618 4.401 5.328 5.965c.751.845-.409 3.633-1.467 2.432l-6.47-7.253c-.624-.701-.042-2.15.576-2.63l7.337-5.743c.579-.458 1.036.311 1.09.809zm-1.725-25.256c-.064.563-.25 1.483-.806 1.79l-4.938 2.706 4.935 4.852c.63.621-.368 3.442-.946 2.868l-6.625-6.514c-.336-.324-.186-1.172-.104-1.557.098-.465.287-1.125.746-1.376l7.27-3.979c.526-.305.488.999.468 1.21zm1.54-32.83c.095.737-.187 1.551-.775 2.019l-5.618 4.401 5.328 5.965c.751.845-.409 3.633-1.467 2.432l-6.47-7.253c-.624-.701-.042-2.15.576-2.63l7.337-5.743c.579-.458 1.036.321 1.089.809zm-1.552-28.578c-.064.563-.25 1.483-.806 1.79l-4.938 2.706 4.935 4.852c.63.621-.368 3.442-.945 2.868L68.4 354.36c-.336-.324-.186-1.172-.104-1.557.098-.465.287-1.125.746-1.377l7.27-3.978c.526-.305.488.998.468 1.21zm21.122 133.931c-.063.564-.25 1.484-.806 1.79l-4.938 2.707 4.935 4.852c.63.621-.368 3.441-.945 2.868l-6.625-6.514c-.336-.325-.186-1.173-.104-1.557.098-.465.287-1.125.746-1.377l7.27-3.978c.526-.305.488.998.468 1.209zm1.541-32.829c.095.736-.187 1.55-.775 2.019l-5.618 4.4 5.328 5.965c.751.845-.409 3.633-1.467 2.432l-6.47-7.252c-.624-.702-.042-2.151.576-2.631l7.337-5.743c.579-.458 1.036.322 1.089.81zm-1.725-25.247c-.064.564-.25 1.483-.806 1.79l-4.938 2.706 4.935 4.853c.63.621-.368 3.441-.946 2.868l-6.625-6.515c-.336-.324-.186-1.172-.104-1.556.098-.466.287-1.125.746-1.377l7.27-3.978c.526-.305.488.998.468 1.209zm1.54-32.83c.095.737-.187 1.551-.776 2.019l-5.618 4.401 5.328 5.965c.751.845-.409 3.623-1.467 2.432l-6.47-7.253c-.624-.701-.042-2.15.576-2.63l7.337-5.743c.579-.458 1.026.312 1.09.809z"/></g><g clip-path="url(#D)" class="C B"><path d="M38.659 131.176c.095.737-.187 1.551-.775 2.019l-5.618 4.4 5.328 5.965c.751.846-.409 3.634-1.467 2.432l-6.47-7.252c-.624-.701-.042-2.15.576-2.63l7.337-5.743c.579-.458 1.036.311 1.089.809zm-1.725-25.257c-.063.564-.25 1.484-.806 1.791l-4.938 2.706 4.935 4.852c.63.621-.368 3.441-.945 2.868l-6.625-6.514c-.336-.325-.186-1.173-.104-1.557.098-.465.287-1.125.746-1.377l7.27-3.978c.526-.305.488 1.008.468 1.209zm1.54-32.829c.095.736-.187 1.551-.776 2.019l-5.618 4.4 5.328 5.965c.751.845-.409 3.633-1.467 2.432l-6.47-7.252c-.624-.701-.042-2.15.576-2.63l7.337-5.743c.569-.457 1.026.322 1.09.809zm20.478 77.549c-.063.564-.25 1.483-.806 1.79l-4.938 2.706 4.935 4.853c.63.621-.368 3.441-.946 2.868l-6.625-6.515c-.336-.324-.186-1.172-.104-1.557.098-.465.287-1.124.746-1.376l7.27-3.978c.527-.296.488 1.008.468 1.209zm1.54-32.82c.095.737-.187 1.551-.775 2.019l-5.618 4.401 5.328 5.965c.751.845-.409 3.633-1.467 2.432l-6.47-7.253c-.624-.701-.042-2.15.576-2.63l7.337-5.743c.579-.458 1.036.311 1.089.809zm-1.725-25.256c-.063.564-.25 1.484-.806 1.79l-4.938 2.706 4.935 4.852c.63.621-.368 3.442-.946 2.868l-6.625-6.514c-.336-.324-.186-1.172-.104-1.557.098-.465.287-1.125.746-1.377l7.27-3.978c.526-.305.488.998.468 1.209zm21.111 72.523c-.064.564-.25 1.484-.806 1.79l-4.938 2.707 4.935 4.852c.63.621-.368 3.441-.946 2.868l-6.625-6.514c-.336-.325-.186-1.173-.104-1.557.098-.465.287-1.125.746-1.377l7.27-3.978c.526-.305.488.998.468 1.209zm1.54-32.829c.095.736-.187 1.55-.776 2.019l-5.618 4.4 5.328 5.965c.751.845-.409 3.633-1.467 2.432l-6.47-7.252c-.624-.702-.042-2.151.576-2.631l7.337-5.743c.579-.458 1.036.322 1.09.81zm-1.725-25.247c-.063.564-.25 1.483-.806 1.79l-4.938 2.706 4.935 4.853c.63.621-.368 3.441-.945 2.868l-6.625-6.515c-.336-.324-.186-1.172-.104-1.556.098-.466.287-1.125.746-1.377l7.27-3.978c.526-.305.488.998.468 1.209zm1.54-32.829c.095.736-.187 1.551-.775 2.019l-5.619 4.4 5.328 5.965c.751.846-.409 3.623-1.467 2.432l-6.47-7.252c-.624-.701-.042-2.15.576-2.63l7.337-5.743c.579-.458 1.026.312 1.09.809zm19.011 81.242c-.064.564-.25 1.483-.806 1.79l-4.938 2.706 4.935 4.853c.63.621-.368 3.441-.946 2.867l-6.625-6.514c-.336-.324-.186-1.172-.104-1.557.098-.465.287-1.124.746-1.376l7.27-3.978c.526-.306.488.998.468 1.209zm1.54-32.83c.095.737-.187 1.551-.775 2.019l-5.619 4.401 5.328 5.965c.751.845-.409 3.623-1.467 2.432l-6.47-7.253c-.624-.701-.042-2.15.576-2.63l7.337-5.743c.579-.458 1.035.311 1.089.809zm-1.725-25.456l-.01.201c-.064.564-.251 1.483-.807 1.79l-4.938 2.707 4.935 4.852c.63.621-.368 3.441-.946 2.868l-6.625-6.514c-.336-.325-.186-1.173-.104-1.557.098-.465.287-1.125.746-1.377l6.451-3.529a3.88 3.88 0 0 0 .561.224 4.88 4.88 0 0 0 .737.335z"/></g><defs><clipPath id="A"><path fill="#fff" transform="matrix(.997979 -.063539 -.063539 -.997979 29.6453 602.906)" d="M0 0h174.71v93.31H0z"/></clipPath><clipPath id="B"><path fill="#fff" transform="matrix(-.047258 -.998883 -.998883 .047258 122.481 328.776)" d="M0 0h174.71v93.31H0z"/></clipPath><clipPath id="C"><path fill="#fff" transform="matrix(-.047258 -.998883 -.998883 .047258 140.362 495.117)" d="M0 0h174.71v93.31H0z"/></clipPath><clipPath id="D"><path fill="#fff" transform="matrix(-.047258 -.998883 -.998883 .047258 122.337 177.614)" d="M0 0h174.71v93.31H0z"/></clipPath><path id="E" d="M60.451 210.895c.095.737-.187 1.551-.775 2.019l-5.618 4.401 5.328 5.965c.751.845-.409 3.633-1.467 2.432l-6.47-7.253c-.624-.701-.042-2.15.576-2.63l7.337-5.743c.579-.458 1.036.321 1.089.809z"/><path id="F" d="M80.022 316.248c-.064.564-.25 1.484-.806 1.79l-4.938 2.707 4.935 4.852c.63.621-.368 3.441-.946 2.868l-6.625-6.514c-.336-.325-.186-1.173-.104-1.557.098-.465.287-1.125.746-1.377l7.27-3.978c.526-.305.488.998.468 1.209z"/></defs></svg>