<svg xmlns="http://www.w3.org/2000/svg" width="57" height="66" fill="none" xmlns:v="https://vecta.io/nano"><g clip-path="url(#A)" fill="#1f44fa"><path d="M.069 49.003a3 3 0 0 0 .004 1.283 3.54 3.54 0 0 0 .249.971l.006.051.664 2.15c.189.702.307 1.411.247 2.142l-.088 2.11-.009.41v.051c-.013.083-.037.167-.041.252l-.047 1.452c-.028.508-.004 1.019.092 1.52-.002.177.037.348.101.512l.058.267c.049.184.176.346.14.549-.071.303-.131.611-.157.922-.047.256-.2.5-.097.773.129.327.447.359.722.459.026.038.06.049.103.045a6.91 6.91 0 0 0 1.181.376 4.42 4.42 0 0 0 .981.245c.236.068.472.135.719.145a1.04 1.04 0 0 0 .404.064c.185.066.38.075.573.088l.103.004c.376.07.752.117 1.134.102a.2.2 0 0 0 .047.011l.004.045h.258.361.258 1.595.361.258c0-.015 0-.03.004-.045l1.752-.158c.015.004.032.002.047-.004.193.021.38-.032.569-.058.09.004.183.023.262-.038.483-.038.964-.092 1.439-.201a6.69 6.69 0 0 0 1.074-.169l2.195-.369 2.031-.386.357-.062 1.761-.297a1.55 1.55 0 0 0 .453-.064l1.954-.254c.107.002.219.03.318-.043l.204-.011c.247-.015.498-.004.739-.053.354-.071.717.013 1.065-.09l.249-.011.771-.002h.208l1.595.058c.165.079.341.043.513.047l1.641.216c.047.047.105.045.165.036l.148.008c.236.066.475.113.724.096.479.083.958.083 1.43-.017.041 0 .084-.006.125-.023a2.39 2.39 0 0 0 1.02-.314c.133-.017.249-.081.361-.15.917-.442 1.709-1.093 2.628-1.533.215-.068.432-.137.627-.254a2.11 2.11 0 0 0 .505-.162c.114-.002.219-.03.311-.096a.99.99 0 0 0 .412-.096l.097-.017c.077.017.144-.011.208-.049.178-.002.348-.04.513-.1.107.002.215.011.309-.051l.054-.004c.213.004.419-.036.621-.092.5-.013.99-.122 1.486-.162.208-.03.423-.024.625-.092.152-.017.311.024.455-.058l.054-.004c.122-.004.251.034.365-.043.017.002.032 0 .047-.009a4.13 4.13 0 0 0 .822-.098c.502-.015.999-.085 1.495-.162.159.026.311-.021.464-.051l2.933-.308c.277-.008.554-.028.827-.09.017.002.034.002.049-.006l2.055-.211c.296-.004.588-.034.878-.098l.105-.002c.26-.017.52-.026.771-.094.352-.036.702-.083.936-.397.06-.038.099-.09.095-.164.082-.222-.015-.444-.006-.668.006-.143.041-.237.168-.297l.099-.053c.118-.026.195-.105.262-.199.077-.055.112-.13.088-.22l-.346-1.288v-.083c.161-.252.243-.536.311-.822.12-.261.15-.544.187-.826.013-.038.013-.085.062-.1V53.1c-.056-.03-.045-.083-.054-.132-.142-.837-.408-1.627-.904-2.329-.019-.068-.056-.124-.118-.162-.103-.128-.262-.143-.393-.122-.423.066-.644-.192-.859-.478l-.24-.777c-.009-.207-.032-.414-.099-.613-.017-.128-.107-.152-.215-.147-.389-.137-.734.038-1.089.147l-.15.015c-.361.004-.721.002-1.076-.071l-.356-.107c-.112-.071-.236-.111-.365-.143l-.288-.162c-.303-.188-.627-.35-.829-.662l-.614-1.593a.48.48 0 0 0-.326-.303.84.84 0 0 0-.827.013.65.65 0 0 0-.26.149l-.466.241-1.233.433-.204.049c-.144.011-.288.032-.423.09l-.556.064c-.107-.002-.219-.026-.32.038-.829.015-1.656.023-2.48-.09l-1.319-.156-2.006-.365-1.495-.303a1.19 1.19 0 0 0-.464-.102c-.079-.049-.167-.06-.26-.051a1.81 1.81 0 0 0-.563-.115c-.077-.066-.17-.036-.255-.045-.058-.066-.135-.045-.208-.045-.112-.098-.271-.019-.387-.096-.008-.004-.015-.009-.024-.015l-.76-.162-1.505-.29c-.142-.088-.303-.092-.462-.107-.011-.026-.026-.041-.056-.03l-.253-.021c-.268-.092-.55-.085-.829-.105-.187 0-.374-.002-.56-.002l-.105.019c-.12.002-.247-.036-.359.043-.148-.019-.286.047-.427.066-.148.021-.292.192-.423.107-.114-.075-.172-.246-.238-.382-.187-.382-.44-.647-.915-.559-.125.024-.245.081-.369.094-.161.015-.268.301-.425.139-.097-.1-.071-.318-.099-.485l-.343-1.904c-.026-.117.019-.25-.065-.357a1.52 1.52 0 0 0-.075-.45.1.1 0 0 0-.019-.06l-.03-.378-.243-1.514c-.043-.344-.14-.679-.148-1.027l-.316-1.941-.159-1.074-.092-.722c-.034-.081-.058-.162-.045-.252-.013-.004-.026-.006-.041-.009h-.024a.14.14 0 0 0 .024-.015c-.002-.117-.034-.239.039-.35l.064-1.223c-.006-.09-.021-.181.039-.263v-.28c0-.141-.116-.267-.204-.256-.309.038-.26-.194-.303-.352-.024-.088-.011-.186-.013-.28-.06-.113-.045-.239-.052-.359-.037-.077-.034-.162-.054-.241-.052-.207 0-.431-.101-.632.043-.226-.082-.44-.052-.666-.099-.158.019-.359-.103-.512l-.052-1.384.015.002v-.867l-.017-.055.006-1.166c-.069-.134-.037-.278-.039-.416l-.013-.811-.043-.019.007-.295-.015-.76-.034-.019c-.009-.119-.006-.233-.006-.348l-.013-.809a.28.28 0 0 0-.039-.015l.002-.355-.015-.809c-.013-.008-.026-.015-.041-.021.002-.021.004-.032-.002-.041h-.002l.006-.354-.019-.263.004-.6c-.062-.079-.026-.177-.051-.265v-.002l.015-.098-.013-.863-.043-.062v-.032l-.002-.07-.007-.094.015-.109-.017-.107v-.205l.004-.551a.16.16 0 0 0-.045-.013v-.024l.009-.329-.019-.414c.004-.017.004-.034-.002-.049l.006-.403c-.073-.113-.041-.239-.043-.363l-.015-.261.002-.704c-.064-.081-.041-.173-.039-.263l-.015-.363.004-.553c-.075-.096-.037-.209-.041-.314l-.013.002v-.31l.004-.611c-.082-.092-.039-.205-.045-.307l-.013-.416v-.096l.004-.459-.026-.006c-.017-.085-.015-.167-.015-.25l-.011-.867c-.062-.06-.036-.141-.051-.211 0-.009.002-.017.002-.028l.009-.122-.015-.156.004-.711c-.079-.113-.037-.239-.043-.361l-.013-.307v-.107l.004-.45c-.013-.006-.028-.011-.043-.015l-.004-.113c0-.011 0-.023-.002-.034l.009-.201-.013-.865-.037-.017-.004-.002.002-.346-.013-.811c-.069-.135-.039-.28-.039-.421l-.017.004-.009-.873c-.004-.393-.245-.606-.582-.611-.144-.002-.288.002-.434.004l-.404-.011-.013-.38c-.015-.115.062-.26-.092-.339-.037-.062-.103-.034-.155-.047-.097-.081-.213-.047-.318-.049l-1.379-.004c-.011-.006-.021-.009-.032-.009l-.797-.237c-.228-.032-.432-.158-.666-.164-.329-.152-.689-.188-1.033-.288-.32-.094-.638-.207-.977-.218-.228-.115-.483-.126-.726-.19l-.769-.154-.621-.1c-.455-.073-.913-.13-1.374-.126-.429-.088-.863-.032-1.297-.036-.21.002-.423-.049-.627.038h-.021l-.022.004c-.457.002-.9.094-1.338.211-.159.036-.324.051-.466.143-.15.019-.294.058-.417.152-.371.113-.706.295-1.022.517-.101.047-.198.098-.26.196-.133.032-.202.147-.305.22l-.11.094-.155.149c-.144.115-.279.239-.44.335-.101.06-.185.149-.18.284-.122.231-.331.41-.402.67-.056.081-.125.158-.17.246-.429.843-.672 1.74-.803 2.673-.026.1-.073.196-.052.303a9.12 9.12 0 0 0-.157 1.127l-.271 1.996c-.054.201-.082.406-.09.613l-.049.361-.015.19c-.058.083-.045.175-.039.267l-.011.102c-.077.126-.037.267-.054.401l-.021.088a3 3 0 0 0-.069.536 2.08 2.08 0 0 0-.067.551 3.24 3.24 0 0 0-.105.777c-.071.113-.028.239-.043.359-.058.041-.049.098-.043.156.002.19-.088.369-.06.562l-.052.461c-.034.254-.122.5-.107.76a13.14 13.14 0 0 0-.206 1.533c-.067.186-.071.378-.09.57l-.208 1.591c-.054.132-.06.269-.054.41-.075.126-.043.269-.06.403-.069.167-.054.346-.09.517l-.116.967c-.09.128-.03.275-.052.412l.002.002c-.069.182-.077.374-.092.564l-.052.361-.006.152c-.06.096-.058.201-.047.308l-.049.307-.011.197a.35.35 0 0 0-.024.085c-.043.169-.054.344-.067.517l-.002.021c-.017.137-.079.267-.052.408-.058.318-.11.636-.116.961l-.019.1a7.92 7.92 0 0 0-.133 1.085 3.46 3.46 0 0 0-.101.824c-.006.013-.009.026-.006.041-.06.222-.077.448-.09.677-.021.188-.077.372-.058.561-.058.096-.058.201-.045.308l-.015.205a16.54 16.54 0 0 0-.193 1.793 7.1 7.1 0 0 0-.112 1.168c-.084.132-.034.28-.043.419a7.78 7.78 0 0 0-.101 1.181c-.026.237-.086.474-.052.715l-.013.245c-.073.134-.039.278-.039.419l-.064 1.377c-.079.237-.036.48-.039.722l.041.203c-.06.041-.047.105-.049.16l-.002 3.222.004.615-.043 1.226a11.07 11.07 0 0 1-.378 2.4l-.247.623-.621 1.228A4.74 4.74 0 0 0 .08 48.85c-.039.043-.03.098-.024.154z" fill-opacity=".1"/><path opacity=".38" d="M1.832 41.44c.047.284.054.568.034.852l3.135-.126-.103 8.543-4.686.399.011.081a4.48 4.48 0 0 1 .215.5c.019.051.03.102.041.152l4.415-.395-.002.816.075 8.344-3.994.416.009.367c0 .028.002.034.006.049.015.058.116.29.009.077.075.149.114.307.127.463l3.863-.401.101 4.129.593.132.243.041.206.019-.112-4.422 9.365-.816-.049 4.693a6.41 6.41 0 0 1 1.039-.169l.047-4.607 6.762-.498 1.991-.137-.075 3.88c.344-.053.698-.073 1.033-.051.015 0 .028.004.043.006l.073-3.909 8.972-.604-.004 1.488-.006 3.03.077-.045a7.65 7.65 0 0 1 .687-.312l.047-.026c.039-.026.079-.049.12-.071l.011-4.125 8.712-.572.028.666.067 1.586a1.02 1.02 0 0 1 .256-.004c.021.002.041.008.062.013l.045.004.414-.117c.09-.028.178-.038.268-.041l-.092-2.173 1.544-.103 6.713-.448.049.47.152 1.345c.283-.056.563-.071.846-.045a1.54 1.54 0 0 1 .197-.019l-.202-1.819 1.611-.107a2.78 2.78 0 0 1-.047-.399.67.67 0 0 1-.03-.117l-.015-.092-.049-.137a1.78 1.78 0 0 1-.047-.213l-1.523.1-.685-8.058c.015 0 .011-.038.006-.073-.028-.081-.041-.167-.043-.254l-.052-.177c-.12-.113-.045-.023-.223-.137-.049-.032-.376-.017-.423-.047a.91.91 0 0 1-.2.024 4.04 4.04 0 0 1-.161-.004l-7.84.389-.013-.322-.082-1.909-1.048.034.094 2.248-8.267.41.004-1.744.004-2.069-.93-.239-.011 4.097-1.705.085-7.555.369-.518-8.269 1.619-.066-.075-.54-.073-.307-1.529.062-.103-1.531-.507-7.556.867-.122c-.073-.303-.101-.596-.129-.886l-.799.113-.528-7.878.833-.034-.054-.681c-.002-.026 0-.051 0-.077l-.831.034-.451-6.73 1.001.019-.004-.594-.002-.213-.019-.13-1.041-.021-.122-1.823-.324-4.817 1.192-.021-.028-.649-.009-.09-1.205.019-.357-5.297c-.335-.038-.663-.011-1.041.011h-.028l.357 5.304-6.491.16L15.293.16l-.44-.13c-.043.004-.086.006-.125.002a4.35 4.35 0 0 0-.47-.032l.292 7.024-6.683.239-.477.021-.094-5.357-.301.352-.183.216-.097.115c-.028.034-.058.064-.088.092l-.161.527c-.004.122-.032.235-.071.342-.019.077-.043.149-.075.22l.041 3.54-.919.041-.004.038c.041.164.039.35-.026.553a1.01 1.01 0 0 0-.052.179l.994-.047-.178 6.57-1.742.132-.144.989 1.842-.143-.369 6.995-2.377.1a.23.23 0 0 1-.009.047l-.09.436-.037.188-.011.096 2.478-.105-.114 2.107-.311 6.775H5.29l-2.983.113c.052.254.019.519-.129.724-.011.013-.017.028-.026.041l-.002.047c0 .009-.002.017-.002.026l3.114-.107-.249 8.184-3.185.132zm51.543 7.537l.689 8.077-8.199.542-.348-8.231 7.857-.389zm-17.205.85l8.3-.41.35 8.248-8.257.547-.41.028.017-8.412zm-.93.047l-.019 8.427-8.97.596-.146-6.715-.086-1.851 9.221-.457zm-10.277.792l.208 8.303-8.746.634.024-8.805 4.439-.216 4.061-.201.015.284zm-.054-1.006l-8.461.416-.041-8.37 7.825-.316.165-.006.511 8.276zm-1.177-18.118l.395 5.891.21 3.098-5.854.237-2.085.085-.009-1.029-.103-7.447 5.903-.638 1.542-.197zm-.496-7.4l.436 6.503-7.015.818-.384.036-.183-8.532 4.868-.205 2.18-.092.099 1.471zm-.15-2.229l-7.015.295-.202-7.037 6.004-.058.758.011.455 6.79zm-.962-14.335l.444 6.606a195.98 195.98 0 0 0-6.728.034l-.052-1.653-.176-4.819 6.511-.169zm-14.87 5.788l.135-5.314 7.194-.273.228 6.461-7.411.342-.2.015.054-1.23zm-.099 2.203l7.685-.374.202 7.054-8.257.346.369-7.027zm-.588 11.13l.176-3.341 8.321-.35.037 1.358.146 7.227-8.922.636.243-5.53zm-.498 13.372l.219-6.994 4.57-.258 4.4-.352.107 8.425-9.322.378.026-1.198zm-.043 2.054l5.298-.213 4.05-.164.043 8.38-5.783.297-3.709.216.101-8.515zm2.935 9.057l6.457-.333.002.777-.03 8.058-3.036.246-6.356.57-.073-9.132 3.036-.186z" fill-opacity=".1"/></g><defs><clipPath id="A"><path fill="#fff" transform="matrix(-1 0 0 -1 57 66)" d="M0 0h57v66H0z"/></clipPath></defs></svg>