<svg width="80" height="37" viewBox="0 0 80 37" fill="none" xmlns="http://www.w3.org/2000/svg">
<g id="logo" clip-path="url(#clip0_132_406)">
<g id="Group">
<path id="Vector" d="M41.5132 7.36133H45.7052C45.7729 7.36133 45.8276 7.41611 45.8276 7.4854V25.8362C45.8276 25.9055 45.8824 25.9602 45.9501 25.9602H54.3082C54.3759 25.9602 54.4307 25.9055 54.4307 25.8362V7.4854C54.4307 7.41611 54.4855 7.36133 54.5532 7.36133H58.7452C58.8129 7.36133 58.8677 7.41611 58.8677 7.4854V25.8362C58.8677 25.9055 58.9225 25.9602 58.9901 25.9602H60.5744C60.6421 25.9602 60.6969 26.015 60.6969 26.0843V32.9435C60.6969 33.0128 60.6421 33.0676 60.5744 33.0676H57.1319C57.0642 33.0676 57.0094 33.0128 57.0094 32.9435V29.8353C57.0094 29.7661 56.9546 29.7113 56.8869 29.7113H41.5148C41.4471 29.7113 41.3923 29.6565 41.3923 29.5872V7.4854C41.3923 7.41772 41.4471 7.36133 41.5132 7.36133Z" fill="white"/>
<path id="Vector_2" d="M63.498 29.6724V7.58349C63.498 7.5126 63.5561 7.45459 63.627 7.45459H79.8726C79.9435 7.45459 80.0015 7.5126 80.0015 7.58349V11.1057C80.0015 11.1766 79.9435 11.2346 79.8726 11.2346H68.1219C68.051 11.2346 67.993 11.2926 67.993 11.3635V16.0588C67.993 16.1297 68.051 16.1877 68.1219 16.1877H79.7324C79.8033 16.1877 79.8613 16.2457 79.8613 16.3166V19.8227C79.8613 19.8936 79.8033 19.9516 79.7324 19.9516H68.1219C68.051 19.9516 67.993 20.0096 67.993 20.0805V25.9053C67.993 25.9762 68.051 26.0342 68.1219 26.0342H79.8726C79.9435 26.0342 80.0015 26.0922 80.0015 26.1631V29.6692C80.0015 29.7401 79.9435 29.7981 79.8726 29.7981H63.627C63.5545 29.8029 63.498 29.7449 63.498 29.6724Z" fill="white"/>
<path id="Vector_3" d="M33.1166 1.4528C33.1166 1.40285 33.1102 1.35452 33.1021 1.30779C33.1005 1.29973 33.0989 1.29168 33.0973 1.28523C33.0763 1.18694 33.0376 1.09832 32.9844 1.01937C32.9828 1.01615 32.9812 1.01454 32.9796 1.01132C32.9522 0.972645 32.9232 0.935586 32.891 0.903361C32.8861 0.898527 32.8813 0.893693 32.8765 0.888859C32.8491 0.861468 32.8184 0.837299 32.7878 0.814741C32.7798 0.808296 32.7717 0.801851 32.7636 0.797017C32.7298 0.774459 32.6943 0.755124 32.6573 0.739011C32.6444 0.732566 32.6315 0.727732 32.6186 0.722898C32.5783 0.706786 32.538 0.693896 32.4961 0.684228C32.4913 0.682617 32.4864 0.682617 32.48 0.681005C32.4316 0.671338 32.3833 0.666504 32.3349 0.666504H32.3333C32.3333 0.666504 32.3333 0.666504 32.3317 0.666504C32.2818 0.666504 32.2302 0.671338 32.1786 0.682617C32.1754 0.682617 32.1722 0.684228 32.1673 0.684228C32.119 0.693896 32.0706 0.708397 32.0223 0.729343L0.422294 14.8344C-0.0902164 15.089 -0.167576 15.8527 0.370721 16.2008L11.5235 23.3419C11.704 23.4612 11.8974 23.3677 11.9828 23.2453L13.8443 20.3772C13.9232 20.2547 13.9168 20.0437 13.7443 19.9276L7.76022 16.0944C7.54587 15.9591 7.58455 15.6223 7.80696 15.5224L18.4053 10.8562L28.8666 6.12066C29.0649 6.03204 29.3227 6.18511 29.3131 6.44452L29.3243 17.9039L29.3131 29.273C29.326 29.526 29.0907 29.7322 28.8151 29.5872L22.9985 25.8539C22.9018 25.7943 22.6923 25.7492 22.5489 25.9473L20.6842 28.8283C20.5649 29.0039 20.6681 29.2053 20.7873 29.2827L31.8869 36.3916C32.4429 36.7493 33.1166 36.3513 33.1166 35.7407L33.1005 18.7031L33.1166 1.4528Z" fill="white"/>
</g>
</g>
<defs>
<clipPath id="clip0_132_406">
<rect width="80" height="35.8621" fill="white" transform="translate(0 0.666504)"/>
</clipPath>
</defs>
</svg>
