<svg width="164" height="188" viewBox="0 0 164 188" fill="none" xmlns="http://www.w3.org/2000/svg">
<g id="Group 53">
<g id="Group">
<path id="Vector" d="M91.4009 69.3372C91.1287 69.3372 91.0724 69.6132 91.0724 69.8343C90.9548 70.3353 90.7964 70.8223 90.6801 71.322C89.9784 72.6601 89.8199 74.1733 89.9899 75.6469C89.6589 76.3396 89.7777 77.1819 89.7011 77.9282C89.6039 79.3073 89.5426 80.6045 89.3087 82.073C88.4652 87.892 88.4064 93.8106 87.9399 99.6628C87.6664 103.494 87.1347 107.321 86.8101 111.142C86.3807 116.455 86.3385 121.787 86.1161 127.107C86.0343 129.323 86.1072 131.531 86.3002 133.731C86.3487 135.818 86.8382 137.705 87.8159 139.55C88.5444 141.083 89.3355 142.649 90.7504 143.661C92.2904 145.213 94.2714 146.358 96.1846 147.371C97.11 147.707 97.9944 148.03 98.9478 148.299C99.7862 148.518 100.746 148.501 101.588 148.766C102.41 149.053 103.412 149.221 103.243 147.962C103.19 142.898 103.591 137.74 103.852 132.683C103.871 131.006 104.575 129.438 104.514 127.76C107.626 129.286 111.815 127.715 114.576 125.969L114.575 125.968L114.581 125.965C114.58 125.965 114.577 125.968 114.577 125.968C114.578 125.966 114.58 125.965 114.581 125.965C114.581 125.966 114.582 125.965 114.582 125.964L114.596 125.952L114.598 125.954C117.817 123.835 120.094 120.572 122.087 117.283C123.812 113.291 124.556 109.009 125.2 104.737C126.942 97.595 127.629 90.3024 127.517 82.9638C128.215 82.2072 127.064 81.7113 126.431 81.5886C124.975 80.9994 123.474 80.4256 121.958 79.9604C120.59 79.6306 119.273 79.2063 117.919 78.9136C117.486 78.6951 116.922 79.0619 117.126 79.5565C116.531 82.3311 116.4 85.1697 115.888 87.952C115.363 90.5017 114.617 93.0119 114.182 95.5782C113.757 98.7925 113.052 101.963 112.588 105.173C112.394 100.776 112.234 96.3527 111.769 91.96C111.427 89.4371 110.477 87.1481 109.914 84.6904C109.475 82.9191 108.743 81.1617 108.262 79.4095C107.852 77.7698 107 75.9485 105.397 75.1894C104.695 74.8903 103.732 75.1894 103.076 75.3364C102.487 74.5849 101.055 76.0495 100.823 76.64C100.548 77.4745 99.9779 78.1519 99.6252 78.9456C99.3964 79.3955 99.1945 79.8504 98.9376 80.2812C98.8379 80.4115 98.7701 80.6441 98.5874 80.6671V80.6658C97.4755 80.0715 98.2883 77.9615 97.4001 78.0842C96.9412 78.1276 96.1271 80.4307 95.7603 79.7035C95.2785 79.0056 96.0402 75.4667 94.6765 76.4291C94.2497 76.9454 94.2062 77.8119 93.4879 78.0714C93.0611 77.3531 93.208 76.4265 93.2937 75.6482C93.4407 75.1421 93.4956 73.6979 92.6598 74.4187C92.4387 74.7855 92.0783 74.9951 91.7255 75.2073C91.4252 75.3696 91.2105 75.7249 90.8296 75.6329C90.7465 75.5025 90.6021 75.4156 90.4475 75.4079C90.4283 74.866 90.4296 74.1797 90.496 73.6877C90.983 73.6889 91.1568 71.8115 91.337 71.3578C91.567 70.7507 92.215 70.4031 92.2278 69.7525C92.1882 69.5238 91.8853 69.4317 91.714 69.5966C91.6744 69.4547 91.5568 69.3359 91.4009 69.3372Z" fill="#F7BA21"/>
<path id="Vector_2" d="M2.45072 37.511C1.14072 36.996 0.886382 45.5807 0.538752 46.6823C-0.0964415 51.599 -0.330326 56.6435 0.741962 61.4733C1.35415 64.1252 2.00596 66.5011 3.04885 69.2451C4.02145 71.7118 5.49633 73.8218 6.82806 76.0674C12.0361 82.9586 19.615 87.8894 27.7319 90.65C31.7949 91.6865 35.8514 92.8508 40.0319 93.3352C45.2707 94.0534 50.5656 94.0598 55.8351 93.9627C56.4063 97.0671 58.9279 99.227 61.4559 100.883C60.9038 102.523 61.0163 104.426 60.8016 106.144C60.5664 108.644 60.4003 111.294 60.0284 113.748C59.751 115.898 59.043 118.078 58.6327 120.231C58.2097 122.528 57.8352 124.797 57.0876 127.052C56.3591 129.093 56.0574 131.112 55.2357 133.124C54.3666 134.973 53.7352 136.971 53.146 138.911C52.5875 140.641 51.9792 142.37 51.5881 144.146C51.5255 145.063 50.3931 147.741 51.2174 148.191C51.4552 148.343 51.7542 148.353 52.0277 148.385C53.8106 148.472 55.766 148.782 57.3789 147.899C59.7178 146.739 60.9422 143.993 62.6663 142.19C64.2523 139.877 65.662 137.413 66.595 134.739C67.4436 132.678 68.3638 130.607 68.769 128.424C70.6861 123.136 70.6222 117.475 71.2919 111.973C72.4268 102.676 72.4804 93.5039 71.9296 84.1894C71.7929 80.7374 71.5986 77.2905 71.242 73.85C71.0324 72.2255 71.3481 70.4784 70.75 68.9486C70.2911 68.0834 68.36 68.9192 67.5587 69.01C66.0314 69.332 64.8568 70.1206 63.6082 71.0791C60.0207 73.8257 60.9882 75.3683 59.1197 78.9698C58.4282 79.0631 57.8454 77.5052 57.2435 78.3551C55.8261 78.782 56.299 76.8726 55.7379 76.277C55.0529 75.9587 54.9724 76.8368 55.159 77.316H55.1577C55.1091 78.0918 54.3794 78.2043 53.7531 78.1966C53.6585 77.5793 53.6445 76.1441 52.6629 76.815C52.4048 77.017 52.2846 77.3812 51.914 77.3863C51.8756 77.3582 51.8066 77.2943 51.7696 77.2636L51.7938 77.2879C50.9324 76.5275 51.0066 74.7612 50.0761 74.2602C47.6376 74.241 45.1914 74.2385 42.7465 74.0711C36.8419 73.4627 30.9104 72.3022 25.6167 69.5327C23.2523 68.3019 20.7397 67.0571 18.8482 65.1528C16.6844 63.3098 15.3195 60.9058 14.1206 58.4034C11.8393 54.0989 11.3741 49.0813 10.8169 44.3116V44.3128C10.8156 44.3001 10.8156 44.2847 10.813 44.2732C10.8118 44.2732 10.8118 44.2668 10.8118 44.2668V44.2387L10.8105 44.2502C10.7939 43.0885 10.6226 41.9612 10.7504 40.8148C10.8169 40.2665 11.3153 39.3361 10.6085 39.046C7.85945 38.7341 5.17681 37.7807 2.45072 37.511Z" fill="#F7BA21"/>
<path id="Vector_3" d="M75.2692 41.4679C74.7197 41.4001 74.2826 42.0072 74.8091 42.3804C75.429 42.8201 76.5511 43.1932 77.2259 42.7536C77.4176 42.4239 77.0917 42.1031 76.8425 41.9203C76.4681 41.441 75.8226 41.4551 75.2692 41.4679Z" fill="#F7BA21"/>
<path id="Vector_4" d="M87.0414 43.5997C84.1875 44.0968 89.8825 46.7744 90.6545 45.6343C91.7421 44.116 87.9948 43.5664 87.0414 43.5997Z" fill="#F7BA21"/>
<path id="Vector_5" d="M75.199 41.1354C73.0391 41.3974 74.5651 43.0909 75.8636 43.3171C76.5575 43.395 77.5672 43.6046 78.1078 43.0768C78.4708 42.4173 77.6873 41.8371 77.1314 41.6454C76.509 41.3847 75.8981 41.069 75.199 41.1354ZM75.8367 42.0429C76.0872 42.0518 76.3377 42.0812 76.5805 42.1464C76.5141 42.2026 76.4668 42.2742 76.4463 42.3598C76.008 42.3394 75.5466 42.2908 75.167 42.0582C75.3881 42.025 75.6131 42.0416 75.8367 42.0429ZM77.4496 42.5234C77.6707 42.6947 77.6656 42.8583 77.3589 42.8391C77.4407 42.7535 77.4713 42.6359 77.4496 42.5234ZM77.649 42.7765C77.6477 42.779 77.6452 42.7803 77.6439 42.7829C77.6452 42.7803 77.6464 42.7777 77.649 42.7765Z" fill="#F7BA21"/>
<path id="Vector_6" d="M77.2911 42.5186C77.116 42.5914 77.0917 42.8573 77.2527 42.9595C77.0304 43.4515 77.7013 43.5129 77.778 43.04C78.2305 43.0247 78.0068 42.608 77.6617 42.6259C77.5774 42.5173 77.4214 42.4508 77.2911 42.5186ZM77.277 42.9761C77.2757 42.9787 77.2732 42.9799 77.2719 42.9825C77.2732 42.9812 77.2745 42.9787 77.277 42.9761Z" fill="#F7BA21"/>
<path id="Vector_7" d="M125.577 0.00647778C122.362 -0.154557 120.556 2.72107 118.715 4.81707L118.699 4.81196L118.7 4.81068C117.473 3.8777 116.434 2.55108 114.845 2.23413C110.117 0.564988 106.078 4.89504 106.499 9.52415C105.41 8.75732 103.937 8.86723 102.742 9.31071L102.767 9.30433V9.3056C99.2737 10.6309 98.7126 16.6455 102.885 17.4481C102.636 18.0079 102.753 18.7849 103.449 18.9639C102.761 20.8554 104.468 22.8402 106.447 22.5859C108.019 22.5475 110.085 21.0151 111.368 20.0694C111.184 22.7622 114.527 23.3246 116.549 22.7507C117.923 22.3942 119.179 21.5979 120.152 20.5717C121.153 24.572 126.859 23.4562 129.474 21.759C129.24 23.9457 131.519 25.073 133.404 24.9758C132.279 27.4898 131.798 30.2925 131.465 33.0135C131.304 34.404 130.936 35.9863 131.421 37.341C131.739 37.8395 132.428 37.7781 132.665 37.1889C133.495 35.2706 133.908 33.1924 135.301 31.545C137.665 30.0523 138.36 32.0626 137.941 34.1599C137.682 35.5824 136.8 36.8298 135.988 38.003C135.356 38.6344 135.128 39.4971 134.934 40.3547C134.524 43.252 136.128 44.9735 136.744 41.0116C138.46 41.8283 139.204 38.6421 139.307 37.4292C141.958 38.0452 141.756 28.7103 140.446 27.5281C142.256 25.9178 143.755 22.182 141.819 20.1985C143.786 17.5107 143.537 12.1978 139.6 11.5844C139.908 10.1491 139.869 8.57839 139.102 7.2965C137.567 4.91037 134.24 4.4835 132.296 6.63575C132.268 3.30258 128.958 -0.13283 125.577 0.00647778Z" fill="#F7BA21"/>
<path id="Vector_8" d="M154.95 57.6633C147.344 58.3624 139.674 58.8378 132.152 60.2795C131.804 60.3332 131.883 60.8904 132.246 60.829C138.699 59.7274 145.23 59.0321 151.774 58.7215C153.044 58.6551 154.392 58.6653 155.613 58.3407C156.019 57.9036 155.352 57.5828 154.95 57.6633ZM151.725 58.7241C151.711 58.7241 151.698 58.7254 151.684 58.7254C151.697 58.7241 151.711 58.7241 151.725 58.7241Z" fill="#F7BA21"/>
<path id="Vector_9" d="M158.809 62.4715C151.866 63.3175 144.914 64.1329 137.982 65.0864C137.513 65.1311 126.551 66.505 129.804 67.1261C129.799 67.1274 129.794 67.13 129.787 67.1313C137.734 65.4762 145.9 65.0314 153.946 64.0141C155.724 63.692 157.575 63.7751 159.328 63.3815C159.944 63.0428 159.398 62.2619 158.809 62.4715ZM129.872 67.1044C129.852 67.1108 129.832 67.1172 129.813 67.1223C129.833 67.1172 129.852 67.1108 129.872 67.1044Z" fill="#F7BA21"/>
<path id="Vector_10" d="M116.523 66.2506C114.148 66.4884 111.798 66.9242 109.474 67.4673C109.002 67.7115 107.559 67.4494 107.563 68.0846C107.592 68.2559 107.753 68.3581 107.921 68.3377C110.862 67.9108 113.762 67.2105 116.739 67.0584C118.071 67.112 117.699 65.9337 116.523 66.2506Z" fill="#F7BA21"/>
<path id="Vector_11" d="M113.75 60.4009C111.784 60.9223 109.699 61.2265 107.66 61.1613C107.476 61.1511 107.309 61.2751 107.29 61.4642C107.359 62.3563 110.656 61.6035 111.378 61.6151C112.085 61.4093 114.19 61.6879 114.243 60.7473C114.209 60.5261 113.976 60.3523 113.75 60.4009Z" fill="#F7BA21"/>
<path id="Vector_12" d="M116.405 74.181C115.877 74.3727 114.108 74.0417 114.113 74.7497C114.194 75.2916 116.038 74.7957 116.512 74.806C116.916 74.7344 116.808 74.1094 116.405 74.181Z" fill="#F7BA21"/>
<path id="Vector_13" d="M161.907 71.9534C153.714 72.526 145.502 72.8033 137.316 73.5127C134.388 73.6571 131.45 73.7568 128.536 74.0916C128.001 74.2769 126.123 73.8769 126.152 74.5722C126.361 75.2291 130.338 74.4111 131.187 74.5262C131.156 74.5274 131.125 74.5287 131.096 74.5287C138.943 74.2501 146.776 73.7069 154.62 73.358C157.144 73.2302 159.708 73.2302 162.206 72.9056C162.721 72.6717 162.472 71.8461 161.907 71.9534ZM151.955 72.5516C151.937 72.5528 151.918 72.5528 151.9 72.5541C151.918 72.5528 151.936 72.5528 151.955 72.5516ZM159.663 73.1254C159.635 73.1267 159.606 73.128 159.577 73.1292C159.606 73.128 159.634 73.1267 159.663 73.1254ZM155.397 73.3273C155.373 73.3286 155.347 73.3299 155.323 73.3299C155.347 73.3286 155.373 73.3273 155.397 73.3273ZM134.205 74.3766C134.194 74.3766 134.184 74.3779 134.172 74.3779C134.184 74.3779 134.195 74.3779 134.205 74.3766Z" fill="#F7BA21"/>
<path id="Vector_14" d="M159.779 81.4416C158.606 81.4838 157.433 81.5196 156.258 81.5643C156.275 81.5643 156.29 81.5631 156.307 81.5618C156.28 81.5631 156.254 81.5643 156.228 81.5643C156.237 81.5643 156.246 81.5631 156.254 81.5631C156.225 81.5643 156.196 81.5656 156.166 81.5669C156.175 81.5669 156.185 81.5656 156.194 81.5656C156.17 81.5669 156.146 81.5669 156.122 81.5682C156.128 81.5682 156.133 81.5682 156.139 81.5682C154.207 81.6385 152.273 81.71 150.34 81.7803C150.35 81.7803 150.359 81.779 150.369 81.779C146.045 81.9682 141.72 82.1356 137.402 82.39C134.266 82.5127 131.132 83.0686 127.992 82.8501C127.779 82.8334 127.586 82.9843 127.565 83.2002C127.625 83.9696 128.965 83.5734 129.504 83.6961C137.215 83.291 144.93 82.8258 152.655 82.6954C155.229 82.5702 157.844 82.6967 160.397 82.4219C161.084 81.981 160.44 81.2768 159.779 81.4416ZM155.94 81.5771C155.95 81.5771 155.962 81.5758 155.972 81.5758C155.962 81.5758 155.952 81.5758 155.94 81.5771ZM155.972 81.5758C155.999 81.5746 156.024 81.5746 156.051 81.5733C156.061 81.5733 156.07 81.572 156.081 81.572C156.045 81.5733 156.008 81.5746 155.972 81.5758ZM156.051 81.5733C156.076 81.572 156.099 81.572 156.123 81.5707C156.099 81.5707 156.076 81.572 156.051 81.5733ZM156.196 81.5682C156.207 81.5682 156.217 81.5669 156.229 81.5669C156.217 81.5669 156.207 81.5669 156.196 81.5682Z" fill="#F7BA21"/>
<path id="Vector_15" d="M150.836 91.018C148.32 90.9988 145.809 91.1688 143.295 91.2455C143.306 91.2455 143.318 91.2455 143.328 91.2442C138.41 91.3554 133.504 91.5509 128.599 91.9228C128.176 92.0391 127.254 91.8845 127.249 92.4929C127.28 92.6705 127.462 92.8136 127.644 92.7728C128.531 92.558 129.451 92.5465 130.359 92.5095C130.343 92.5095 130.328 92.5108 130.313 92.5108C138.959 92.0749 147.63 91.8602 156.283 92.1452C157.003 92.3344 157.66 91.5254 156.856 91.1036C154.86 91.1292 152.842 91.0295 150.836 91.018ZM136.473 92.19C136.442 92.1912 136.413 92.1925 136.382 92.1938C136.413 92.1925 136.443 92.1912 136.473 92.19Z" fill="#F7BA21"/>
<path id="Vector_16" d="M151.196 97.5054C144.31 97.6242 137.434 97.9744 130.554 98.3144C130.259 98.3336 129.965 98.3668 129.671 98.4013C129.192 98.478 129.307 99.2384 129.8 99.1541C132.154 98.9253 134.53 99.0058 136.892 98.9521C142.584 98.9905 148.296 98.3399 153.973 98.7323C154.419 98.7783 154.718 98.23 154.419 97.8862C153.517 97.3967 152.222 97.536 151.196 97.5054ZM131.288 99.0442C131.277 99.0442 131.266 99.0454 131.256 99.0454C131.266 99.0454 131.277 99.0454 131.288 99.0442Z" fill="#F7BA21"/>
<path id="Vector_17" d="M156.083 105.109C152.998 105.369 149.892 105.054 146.801 105.141C142.748 105.197 138.691 105.433 134.64 105.23C134.417 105.211 134.214 105.372 134.193 105.597C134.18 106.203 134.953 106.043 135.357 106.095C139.839 106.236 144.319 106.107 148.802 106.19C149.86 106.045 157.231 107.008 156.728 105.565C156.682 105.263 156.378 105.058 156.083 105.109Z" fill="#F7BA21"/>
<path id="Vector_18" d="M155.543 97.8467C155.054 98.4052 155.916 98.6008 156.339 98.634C156.63 98.6468 156.977 98.8385 157.23 98.6314C157.741 98.032 156.905 97.7905 156.415 97.8595C156.129 97.871 155.793 97.6397 155.543 97.8467Z" fill="#F7BA21"/>
<path id="Vector_19" d="M153.224 113.102C153.238 113.102 153.252 113.1 153.266 113.1C153.202 113.103 153.137 113.105 153.073 113.108C153.086 113.108 153.098 113.107 153.11 113.107C153.064 113.108 153.02 113.11 152.974 113.112C153.006 113.11 153.038 113.109 153.071 113.108C148.523 113.238 143.92 112.861 139.405 113.517C138.941 113.595 139.057 114.328 139.53 114.242C141.208 113.917 142.935 113.977 144.637 113.974C148.544 113.978 152.491 114.156 156.373 114.153C157.755 112.609 153.954 113.109 153.224 113.102Z" fill="#F7BA21"/>
<path id="Vector_20" d="M120.18 121.129C120.246 121.932 121.931 121.548 122.52 121.644C123.243 121.57 124.05 121.749 124.73 121.523C125.364 120.416 123.371 120.877 122.802 120.838C122.198 121.026 120.19 120.456 120.18 121.129Z" fill="#F7BA21"/>
<path id="Vector_21" d="M154.115 128.327C147.661 128.456 141.21 129.119 134.75 129.32C129.48 129.379 124.212 128.933 118.944 129.118C118.948 129.118 118.952 129.118 118.956 129.118C118.92 129.119 118.883 129.121 118.847 129.122C118.855 129.122 118.862 129.121 118.871 129.121C118.843 129.122 118.816 129.123 118.788 129.123C118.792 129.123 118.797 129.123 118.801 129.123C118.769 129.124 118.736 129.126 118.704 129.127C118.713 129.127 118.722 129.127 118.731 129.126C118.726 129.126 118.72 129.126 118.717 129.126C118.728 129.126 118.74 129.124 118.751 129.124C118.715 129.126 118.68 129.127 118.644 129.128C118.651 129.128 118.659 129.127 118.667 129.127C114.553 129.236 110.436 129.608 106.327 129.234C105.925 129.192 105.831 129.847 106.263 129.882C107.297 129.922 108.326 130.051 109.36 130.089C116.656 129.978 123.945 129.808 131.239 130.219C136.937 130.465 142.612 129.841 148.298 129.594C150.37 129.398 152.505 129.767 154.544 129.379C155.22 129.095 154.82 128.004 154.115 128.327ZM148.221 129.596C148.199 129.597 148.177 129.597 148.155 129.599C148.178 129.597 148.199 129.596 148.221 129.596ZM118.712 129.126C118.696 129.126 118.681 129.127 118.665 129.127C118.682 129.126 118.7 129.126 118.717 129.124C118.714 129.126 118.713 129.126 118.712 129.126ZM118.871 129.121C118.896 129.119 118.92 129.119 118.944 129.118C118.92 129.118 118.896 129.119 118.871 129.121ZM119.209 129.108C119.233 129.107 119.259 129.107 119.283 129.105C119.257 129.107 119.233 129.107 119.209 129.108Z" fill="#F7BA21"/>
<path id="Vector_22" d="M146.17 121.584C146.183 122.429 148.227 122.084 148.857 122.272C150.953 122.243 152.999 122.78 155.08 122.816C155.659 122.729 155.628 121.84 155.043 121.791C153.57 121.778 152.125 121.44 150.65 121.428C149.731 121.409 148.811 121.391 147.895 121.318C147.355 121.396 146.36 120.843 146.17 121.584Z" fill="#F7BA21"/>
<path id="Vector_23" d="M156.141 128.064C155.664 128.172 154.583 128.353 154.787 129.031C155.165 129.623 155.868 128.866 156.376 128.813C156.786 128.63 156.58 127.979 156.141 128.064Z" fill="#F7BA21"/>
<path id="Vector_24" d="M156.833 121.96C156.433 122.093 155.578 122.034 155.62 122.623C155.81 123.267 156.627 122.761 157.049 122.647C157.428 122.48 157.238 121.884 156.833 121.96Z" fill="#F7BA21"/>
<path id="Vector_25" d="M157.047 112.74C156.725 112.891 155.994 112.978 156.173 113.479C156.442 113.931 156.973 113.427 157.322 113.326C157.702 113.149 157.424 112.557 157.047 112.74Z" fill="#F7BA21"/>
<path id="Vector_26" d="M157.321 105.207C156.906 105.296 155.978 105.368 156.192 105.989C156.473 106.493 157.036 105.958 157.45 105.96C157.939 105.879 157.807 105.119 157.321 105.207Z" fill="#F7BA21"/>
<path id="Vector_27" d="M104.234 137.739C104.181 138.373 105.787 138.058 106.227 138.259C109.219 138.527 112.223 138.762 115.228 138.815C120.62 138.686 126.004 139.022 131.387 139.276C133.196 139.445 159.248 141.531 156.433 138.563C146.22 139.94 135.666 138.493 125.337 138.166C120.882 137.87 116.421 138.189 111.966 137.967C110.271 137.872 108.575 137.791 106.883 137.656C106.212 137.716 104.488 137.045 104.234 137.739Z" fill="#F7BA21"/>
<path id="Vector_28" d="M83.0768 35.2744C82.8953 35.3498 83.0295 35.5671 83.0397 35.7064C83.0371 35.6936 83.0346 35.6808 83.032 35.6681C83.0576 35.8022 83.0576 35.9403 83.0423 36.0758C83.0435 36.0604 83.0448 36.0464 83.0461 36.031C83.0014 37.1123 82.6116 38.1488 81.9674 39.014C81.9789 38.9974 81.9904 38.9821 82.0006 38.9654C81.1162 40.6461 77.8367 42.9261 77.8751 44.5084C78.1256 45.9053 80.0963 46.0714 81.0421 45.2854C81.0268 45.2995 81.0102 45.3135 80.9935 45.3276C81.244 45.0081 82.1093 44.7141 81.7885 44.2259C81.3693 43.969 80.5667 45.1742 79.8663 45.1512C76.2302 45.0004 80.9169 41.6085 81.5597 40.402C81.5559 40.4084 81.552 40.4135 81.5469 40.4186C82.4122 39.221 83.3107 37.9456 83.3605 36.4106C83.3503 36.109 83.4525 35.3166 83.0768 35.2744ZM79.5429 45.1704C79.5506 45.1704 79.557 45.1717 79.5647 45.1717C79.557 45.1717 79.5506 45.1717 79.5429 45.1704ZM81.5597 40.402C81.5687 40.3905 81.5763 40.3777 81.584 40.3662C81.5763 40.379 81.5687 40.3905 81.5597 40.402Z" fill="#161616"/>
<path id="Vector_29" d="M89.0069 38.8223C88.2069 38.8734 87.1384 38.9795 86.7256 39.7668C86.4764 39.9278 86.5531 40.2793 86.6131 40.5221C86.6106 40.5081 86.608 40.4953 86.6055 40.4812C86.9135 42.2539 90.4013 42.8226 91.8877 42.4916C94.7058 41.0947 90.7732 38.5782 89.0069 38.8223ZM89.0683 39.3195C90.2799 39.4524 91.7496 40.0454 92.2238 41.2442C92.1931 42.6616 89.0044 41.7938 88.1839 41.4666C87.5717 41.2455 87.1052 40.8532 87.0425 40.1732C87.04 39.2824 88.4203 39.3335 89.0683 39.3195ZM90.7349 39.7911C90.7476 39.8 90.7617 39.809 90.7745 39.8192C90.7604 39.8103 90.7476 39.8013 90.7349 39.7911ZM86.6003 40.4557C86.6016 40.4621 86.6029 40.4697 86.6042 40.4761C86.6016 40.4685 86.6003 40.4621 86.6003 40.4557Z" fill="#161616"/>
<path id="Vector_30" d="M89.0377 37.658C88.423 37.7053 86.842 37.9417 86.8753 38.6996C86.9302 38.7494 87.0235 38.7482 87.0721 38.6894C87.6638 38.012 88.7489 38.0363 89.5847 38.081C89.5656 38.0797 89.5464 38.0785 89.5272 38.0759C89.5554 38.0785 89.5835 38.081 89.6116 38.0836C89.6065 38.0836 89.6014 38.0823 89.5975 38.0823C90.6289 38.1769 91.6603 38.5539 92.3952 39.3054C92.6086 39.4422 92.7786 39.8729 93.0726 39.7246C93.3818 39.4639 92.8924 39.1993 92.7262 39.014C91.7715 38.0427 90.3886 37.5813 89.0377 37.658Z" fill="#161616"/>
<path id="Vector_31" d="M92.1675 38.2574C91.6985 38.6166 91.177 38.9003 90.6441 39.1546C90.5738 39.1802 90.5291 39.2582 90.5546 39.3323C90.731 39.5905 91.0914 39.1828 91.3176 39.1355C91.572 39.0473 93.0443 38.315 92.1675 38.2574ZM90.7412 39.1086C90.7348 39.1125 90.7285 39.115 90.7208 39.1189C90.7272 39.115 90.7348 39.1125 90.7412 39.1086ZM91.3406 39.1252C91.3368 39.1278 91.3317 39.1291 91.3279 39.1316C91.3317 39.1291 91.3355 39.1278 91.3406 39.1252Z" fill="#161616"/>
<path id="Vector_32" d="M92.9574 38.83C92.4245 39.0191 91.9886 39.4294 91.4646 39.6441C91.2972 39.6952 91.3841 39.9598 91.549 39.901C91.765 39.7297 93.8635 39.0587 92.9574 38.83ZM93.0315 39.1929C93.0303 39.1942 93.0277 39.1942 93.0264 39.1955C93.0277 39.1942 93.029 39.1942 93.0315 39.1929ZM92.4436 39.4664C92.4398 39.4677 92.436 39.4703 92.4334 39.4715C92.4372 39.4703 92.4411 39.4677 92.4436 39.4664ZM91.9644 39.7105C91.958 39.7131 91.9529 39.7169 91.9465 39.7195C91.958 39.7144 91.9682 39.7093 91.9797 39.7041C91.9746 39.7054 91.9695 39.708 91.9644 39.7105Z" fill="#161616"/>
<path id="Vector_33" d="M93.4954 39.6516C93.0813 39.9277 92.6864 40.2434 92.2122 40.421C92.1458 40.4453 92.1049 40.5181 92.1291 40.5872C92.3911 40.8351 93.0225 40.251 93.3484 40.1641C93.6015 40.0938 93.9708 39.6491 93.4954 39.6516Z" fill="#161616"/>
<path id="Vector_34" d="M89.4889 33.3214C88.832 33.2793 85.8042 34.0512 87.1142 34.9305C88.6083 34.1816 90.0781 34.0499 91.7715 34.3797C93.1275 34.6289 94.6931 35.4967 95.1264 36.8732C95.1443 36.9971 95.2133 37.1339 95.3577 37.1237C95.9175 36.8859 95.0471 35.6807 94.7161 35.4468C93.4508 33.9349 91.4302 33.2294 89.4889 33.3214ZM94.3084 35.0187C94.3212 35.034 94.3352 35.0494 94.348 35.0647C94.334 35.0494 94.3212 35.034 94.3084 35.0187Z" fill="#161616"/>
<path id="Vector_35" d="M76.2954 46.6221C75.8941 46.6425 75.4723 46.5799 75.0838 46.7039C74.3106 46.8981 74.3374 49.4095 74.3591 50.1278C74.7221 54.546 80.867 55.7512 83.7196 52.8858C83.7004 52.9024 83.6813 52.919 83.6621 52.9357C84.365 52.5459 87.2419 48.3883 85.8603 48.0612C82.7355 47.3084 79.5059 46.7997 76.2954 46.6221ZM75.7497 47.1563C79.0943 47.2739 82.4492 47.8656 85.7121 48.5852C83.4372 56.7839 72.1864 54.9166 75.2972 47.187C75.4468 47.1627 75.5976 47.1589 75.7497 47.1563ZM75.3317 47.1793C75.3266 47.1806 75.3215 47.1806 75.3164 47.1819C75.3215 47.1819 75.3266 47.1806 75.3317 47.1793ZM75.3036 47.1844C75.3062 47.1844 75.3087 47.1831 75.31 47.1831C75.3087 47.1844 75.3049 47.1844 75.3036 47.1844Z" fill="#161616"/>
<path id="Vector_36" d="M75.3599 46.9469C74.5483 48.9419 79.0509 49.1848 80.2919 49.4774C81.823 49.558 85.6252 50.7133 86.1492 48.6863C86.0636 48.4052 85.6341 48.4128 85.5613 48.6978C84.2091 50.0014 78.3863 48.6135 76.5306 48.1547C76.5382 48.1572 76.5459 48.1611 76.5536 48.1636C76.5344 48.1572 76.5165 48.1495 76.4973 48.1432C76.5063 48.1457 76.5152 48.1495 76.5242 48.1521C76.1472 47.9847 75.3318 47.6307 75.6922 47.1194C75.8059 46.9073 75.4736 46.7309 75.3599 46.9469ZM76.5267 48.1534C76.528 48.1534 76.5293 48.1547 76.5306 48.1547C76.528 48.1534 76.5255 48.1534 76.5242 48.1521C76.5242 48.1534 76.5255 48.1534 76.5267 48.1534Z" fill="#161616"/>
<path id="Vector_37" d="M114.974 29.1436C114.283 30.4383 114.463 32.0819 114.08 33.4929C112.638 34.2699 110.872 34.8744 109.984 36.3455C108.139 40.6091 112.071 41.004 115.166 39.7643C115.498 39.6505 115.864 39.5828 116.168 39.4051C116.468 39.2045 116.37 38.6907 116.005 38.637C115.419 38.6511 114.877 38.9834 114.302 39.0958C111.963 40.2461 108.923 39.639 110.632 36.5193C111.544 35.3754 112.984 34.8118 114.278 34.215C115.391 33.4967 114.963 31.5502 115.36 30.3923C115.455 29.9322 115.888 28.8101 114.974 29.1436ZM110.667 36.4631C110.662 36.4707 110.657 36.4784 110.653 36.4861C110.658 36.4771 110.662 36.4707 110.667 36.4631Z" fill="#161616"/>
<path id="Vector_38" d="M112.431 41.79C111.557 43.3978 112.091 46.3962 113.618 47.4774C115.489 48.3107 118.639 47.6768 119.266 45.5053C119.265 45.5117 119.262 45.5168 119.261 45.5232C119.455 44.828 120.269 42.4866 119.318 42.2195C117.199 42.0137 115.049 41.9178 112.941 41.7555C112.78 41.6942 112.574 41.6789 112.431 41.79ZM112.945 42.4572C114.972 42.7933 117.032 42.8419 119.085 42.9339C119.145 45.3162 118.282 47.0505 115.703 47.1924C113.024 47.7266 112.432 44.4331 112.945 42.4572Z" fill="#161616"/>
<path id="Vector_39" d="M112.623 42.268C111.958 43.1192 113.408 44.0279 114.177 44.125C115.107 44.3998 119.735 44.9174 119.299 43.2904C118.944 43.0208 118.653 43.6802 118.196 43.6815C116.586 43.6917 114.007 44.0803 112.872 42.7434C112.919 42.5709 112.881 42.1926 112.623 42.268Z" fill="#161616"/>
<path id="Vector_40" d="M110.241 29.1284C109.166 29.2383 107.948 29.5846 107.613 30.7464C107.118 30.9291 107.365 31.6832 107.618 31.9925C108.703 33.4316 110.786 33.438 112.401 33.0993C116.579 31.6244 113.088 28.7756 110.241 29.1284ZM109.999 29.7789C111.178 29.5156 115.24 30.7451 113.009 32.1484C111.661 32.6034 110.043 32.6379 108.72 32.0755C106.978 31.0851 108.616 29.7405 109.999 29.7789ZM107.944 31.1426C107.944 31.1502 107.943 31.1592 107.943 31.1668C107.943 31.1592 107.943 31.1515 107.944 31.1426Z" fill="#161616"/>
<path id="Vector_41" d="M122.658 30.203C121.395 30.2772 119.73 30.7219 119.333 32.0792C118.37 34.6634 124.548 34.6622 125.98 33.8941C127.447 33.6001 127.965 32.253 126.947 31.1207C125.752 30.1864 124.114 30.134 122.658 30.203ZM122.594 30.9878C123.913 31.044 125.972 30.828 126.694 32.1534C126.933 32.5278 126.758 32.8844 126.366 33.0454C124.639 33.7356 121.132 34.0091 119.896 32.4115C120.169 31.2766 121.587 31.0351 122.594 30.9878Z" fill="#161616"/>
<path id="Vector_42" d="M113.386 32.0026C112.786 33.0416 111.453 33.8392 110.256 33.8698C110.085 33.834 109.949 34.0385 110.053 34.1817C110.255 34.3593 110.611 34.2673 110.862 34.2366C110.857 34.2379 110.851 34.2392 110.848 34.2405C110.865 34.2366 110.883 34.2328 110.9 34.229C110.892 34.2302 110.886 34.2315 110.88 34.2328C111.995 33.8826 113.29 33.3228 113.817 32.2096C113.949 31.9323 113.523 31.7227 113.386 32.0026Z" fill="#161616"/>
<path id="Vector_43" d="M119.27 32.46C118.603 34.3541 123.364 35.9197 123.025 34.8193C122.566 34.5944 121.931 34.7043 121.431 34.4883C120.668 34.064 119.405 33.6141 119.615 32.5265C119.659 32.3041 119.31 32.2364 119.27 32.46Z" fill="#161616"/>
<path id="Vector_44" d="M119.771 24.0326C119.218 24.1732 118.623 24.7663 118.944 25.358C118.689 27.6253 122.4 27.2278 123.865 27.6521C125.273 27.7339 126.899 28.4074 128.216 27.7416C128.831 27.1524 129.202 25.9114 128.466 25.2775C126.802 24.2755 121.762 23.823 119.771 24.0326ZM128.087 26.2322C128.085 26.2565 128.081 26.2807 128.077 26.305C128.069 26.2935 128.06 26.282 128.052 26.2718C128.064 26.2577 128.077 26.245 128.087 26.2322Z" fill="#161616"/>
<path id="Vector_45" d="M110.171 30.2006C110.036 30.2159 109.89 30.2542 109.791 30.3514C108.8 30.4281 109.213 31.9911 110.127 31.8135C111.029 31.8084 111.065 30.2376 110.171 30.2006Z" fill="#161616"/>
<path id="Vector_46" d="M122.362 31.4773C120.808 31.5322 121.107 33.3624 122.546 33.2282C123.638 33.1451 123.466 31.3188 122.362 31.4773ZM122.325 32.1585C122.317 32.1636 122.309 32.1674 122.3 32.1713C122.309 32.1674 122.317 32.1623 122.325 32.1585Z" fill="#161616"/>
<path id="Vector_47" d="M110.43 27.8719C109.368 27.9307 108.367 28.1556 107.539 28.856C107.417 28.948 107.153 29.0426 107.265 29.2317C107.578 29.4183 108.174 28.7294 108.531 28.6234C109.533 28.2911 110.665 28.2591 111.714 28.3422C112.4 28.4713 113.139 28.5914 113.735 28.9723C113.827 29.0439 113.958 29.04 114.036 28.948C114.22 28.0521 111.099 27.73 110.43 27.8719Z" fill="#161616"/>
<path id="Vector_48" d="M123.064 28.8483C122.583 28.8623 122.097 28.8841 121.622 28.9646C121.307 28.9927 118.803 29.872 119.923 30.0918C120.438 29.8362 120.968 29.5959 121.527 29.4515C123.319 29.2687 125.483 29.1933 126.96 30.3615C127.037 30.4292 127.159 30.4356 127.242 30.3755C127.613 29.8336 126.398 29.3787 125.99 29.2572C126.01 29.2636 126.032 29.2713 126.053 29.2777C125.104 28.916 124.073 28.8662 123.064 28.8483ZM123.637 29.3608C123.646 29.3608 123.655 29.362 123.665 29.362C123.656 29.362 123.647 29.3608 123.637 29.3608Z" fill="#161616"/>
<path id="Vector_49" d="M114.655 37.7091C113.422 37.5813 112.514 39.8754 113.354 39.547C113.415 39.069 113.589 38.5578 114.034 38.2855C115.475 37.6619 114.802 38.8619 115.438 39.1303C116.017 38.9156 115.215 37.5302 114.655 37.7091ZM113.606 38.7405C113.601 38.7482 113.595 38.7571 113.589 38.7648C113.595 38.7571 113.601 38.7495 113.606 38.7405ZM113.459 38.9974C113.455 39.0089 113.451 39.0192 113.448 39.0307C113.451 39.0192 113.455 39.0076 113.459 38.9974Z" fill="#161616"/>
<path id="Vector_50" d="M80.6114 43.9702C80.0733 43.905 79.571 45.4668 80.1909 45.1895C80.2778 44.9326 80.1781 44.5952 80.4439 44.4047C80.9833 43.9523 80.8044 44.7818 81.1366 44.8316C81.5418 44.6501 81.014 43.8143 80.6114 43.9702Z" fill="#161616"/>
<path id="Vector_51" d="M78.3044 37.0318C77.5274 37.1609 77.5133 38.6958 78.4501 38.4836C79.0278 38.2447 79.0866 36.9807 78.3044 37.0318Z" fill="#161616"/>
<path id="Vector_52" d="M88.9597 39.8665C88.2925 40.1157 88.46 41.3541 89.2294 41.2672C90.1048 41.1509 89.8837 39.2172 88.9597 39.8665Z" fill="#161616"/>
<path id="Vector_53" d="M86.148 39.6057C85.877 40.1156 85.6764 41.6327 86.47 41.6583C86.7052 41.395 86.1914 41.1036 86.2451 40.7802C86.2183 40.4288 86.2681 40.0569 86.4253 39.7386C86.5135 39.5622 86.2349 39.4255 86.148 39.6057Z" fill="#161616"/>
<path id="Vector_54" d="M78.1781 40.421C78.1538 40.922 79.3258 40.968 79.6888 40.8236C79.9559 40.6958 79.7156 40.3699 79.4804 40.5092C79.4919 40.5067 79.5022 40.5041 79.5137 40.5028C79.0612 40.7431 78.4491 40.1475 78.1781 40.421Z" fill="#161616"/>
<path id="Vector_55" d="M107.389 21.7717C107.016 21.7692 106.944 22.1411 106.948 22.4414C106.877 22.9156 106.764 23.3795 106.686 23.8524C105.91 27.5537 105.49 31.4108 105.251 35.2079C104.57 33.7343 104.048 32.0422 103.053 30.7603C102.122 29.4081 101.133 27.9614 99.7566 27.0399C96.9385 25.2225 93.4034 24.1758 90.0422 24.2576C88.2414 24.2384 86.1543 24.4339 84.3893 25.05C81.6466 26.0852 79.2541 27.8783 77.3907 30.1341C75.7599 32.0805 74.5905 34.3836 73.5961 36.7186C72.2325 39.4856 71.5896 42.4328 70.8943 45.4413C69.3977 52.6764 68.7868 60.1032 69.9102 67.4302L69.8987 67.3382C69.9754 67.6565 69.9601 68.0642 70.3026 68.2009C70.3077 68.3734 70.4611 68.514 70.6413 68.5217C69.8834 73.0499 73.7853 76.8278 77.7511 78.2336C81.2836 79.8938 85.7696 80.6735 89.3584 78.7001C89.9271 78.5378 90.253 77.6981 89.5399 77.4924C89.0491 77.4285 88.382 78.001 87.8643 78.1378C84.521 79.596 80.7392 78.3793 77.5671 77.054C74.3911 75.8386 71.449 73.1176 71.2075 69.5595C71.4554 69.4317 71.1154 68.7134 71.1257 68.4489C76.9498 67.4737 76.8398 64.4958 77.1185 59.5076L77.1057 59.6009C77.608 54.8478 77.2488 58.5784 73.9003 54.357C71.1116 49.6793 74.1572 40.2908 76.4232 35.6668C76.5139 35.9339 76.6124 36.2048 76.7453 36.4502C74.2582 38.3762 79.6656 41.2736 80.7635 39.3872C80.9871 38.7929 81.0255 38.0797 80.6906 37.5225L80.7009 37.5544C80.297 36.6585 79.2234 36.3774 78.3492 36.1665C78.3377 35.9415 78.3122 35.7166 78.2879 35.4917C79.4266 35.5313 80.5552 36.0272 81.0766 37.0841C82.2409 37.5851 80.6433 34.905 78.2585 35.1351C78.3262 34.7721 77.8252 34.7759 77.893 35.1364C77.8188 35.1389 77.7166 35.1415 77.622 35.1696V35.1683C77.5798 35.1747 77.5313 35.1862 77.4865 35.1964C77.4329 35.0495 77.4316 34.8961 77.3869 34.7517C77.2872 34.5983 77.0469 34.6929 77.038 34.8654C77.0252 35.0124 77.0942 35.1517 77.1389 35.2884C76.7044 35.3268 76.8654 35.7869 77.2437 35.5875C77.2987 35.7894 77.3715 36.0093 77.4278 36.2125C77.2731 36.2368 77.144 36.2674 76.9804 36.3288C76.8258 36.0221 76.698 35.6322 76.5842 35.2872C76.9919 34.2724 77.5172 33.3177 78.0553 32.3694C79.4343 31.9578 80.8823 32.5509 81.9303 33.4506C82.085 33.5976 82.2665 33.7356 82.3815 33.926C82.4825 34.2366 82.8122 34.5612 83.0627 34.1791C83.0819 33.218 81.9061 32.5509 81.1546 32.0524C80.2804 31.554 79.1787 31.6907 78.2534 31.9885C78.7659 30.9571 79.4816 30.0727 80.2561 29.2343C81.3169 28.3614 82.3968 27.6649 83.6199 27.0335C84.6961 26.4648 85.8885 25.9638 87.0873 25.7184C87.7736 25.6481 88.4727 25.8027 89.1539 25.873C99.7042 27.3977 99.694 34.9446 97.0152 43.4322C96.2727 45.2828 95.6745 47.1322 95.0227 48.9994C94.2853 50.9293 93.4354 52.8809 92.8066 54.8721C91.8519 57.5151 90.8307 60.1696 90.4844 62.9711C90.0677 65.3828 90.1418 68.059 91.9707 69.879C90.5585 71.2759 89.9744 73.3528 90.2926 75.2877C90.7885 76.9684 92.8488 75.2967 93.3843 74.4327C92.1024 77.2138 92.8411 80.1661 95.5467 76.5479C94.817 79.8644 95.8535 81.1489 98.0019 77.8413C97.713 78.9621 97.6504 81.8454 99.3873 80.1201C100.237 79.2574 100.825 78.1071 101.421 77.077L101.401 77.1051C103.22 73.4448 106.409 76.0827 107.511 78.7589C108.023 79.697 108.316 80.7399 108.551 81.7764C109.222 84.4603 110.117 87.0011 110.963 89.6505L110.937 89.547C111.694 92.4405 112.459 95.2752 113.474 98.0972C113.583 98.4001 113.626 99.4762 114.119 98.9164C114.297 98.9778 114.443 98.8103 114.461 98.6429L114.453 98.6582C114.473 98.3732 114.798 97.9285 114.463 97.7419C114.578 97.3572 114.31 96.9993 114.247 96.6249C114.249 96.6351 114.251 96.644 114.252 96.6542C113.848 95.0976 113.154 93.6431 112.752 92.0826C112.091 90.0071 111.522 87.8868 110.664 85.856C109.794 83.0302 109.416 80.0587 107.767 77.5537L107.78 77.5793C107.295 76.9121 106.9 75.9625 106.195 75.5561C101.214 72.2856 101.173 78.1633 98.4684 80.1009C98.2102 78.7845 98.7955 77.2495 99.3183 76.0724C99.5841 75.4615 99.8972 74.8315 100.21 74.2563C100.394 73.8346 99.763 73.5125 99.5176 73.9062C98.8876 73.9982 98.6256 75.096 98.3981 75.6264C97.9405 76.9722 97.1328 78.2042 96.026 79.1206C95.8023 77.5499 96.2842 75.8756 96.9117 74.4468C97.0868 73.9368 97.6581 73.2888 97.428 72.7521C97.3117 72.5719 97.0395 72.5476 96.8836 72.6767C95.7282 74.2244 95.3333 76.438 93.5376 77.4412C93.3319 75.3414 94.7633 73.6556 95.4854 71.8101C95.8624 71.2657 95.1646 70.7327 94.7761 71.3002C93.5836 72.43 92.6711 74.8417 91.0838 75.1906C90.8614 74.1004 91.0914 72.8633 91.5055 71.8446C91.9183 71.1916 92.5676 70.5909 93.029 69.9493C94.3377 68.5306 96.4887 68.1089 98.2677 67.6731C100.001 67.4021 101.781 67.6884 103.527 67.8993C104.592 68.0514 105.585 68.4706 106.615 68.6981C107.853 69.24 108.983 70.1065 109.994 71.0101C110.611 71.4357 111.301 71.8804 111.745 72.4645C112.269 73.2492 112.899 73.9662 113.473 74.7152C114.576 76.259 115.343 78.0662 116.393 79.6612L116.365 79.6088C116.706 80.028 116.806 80.8179 117.401 80.9316C118.327 80.8013 117.566 79.8465 117.315 79.4043C117.318 79.4133 117.324 79.421 117.327 79.4299C115.994 77.3901 115.006 75.0653 113.4 73.2441C112.809 72.5846 112.333 71.6811 111.614 71.1724C112.959 70.904 114.292 70.1691 115.466 69.4457C116.332 68.9064 117.336 68.5664 118.185 67.9581C118.343 68.1447 118.461 68.3594 118.722 68.4233C118.161 71.6171 117.561 74.8315 117.366 78.0726C117.427 78.5212 117.23 79.1768 117.548 79.5411C118.264 79.9015 118.186 78.9762 118.157 78.5416L118.156 78.5557L118.154 78.5634C118.452 74.6538 119.215 70.8516 119.891 66.9829C120.56 63.9399 120.491 60.5045 122.643 58.0327C123.126 57.5317 123.412 56.6473 124.17 56.5374C124.47 57.7477 123.165 58.82 122.929 59.937C122.696 60.6259 120.792 64.7975 122.047 64.7872C122.404 64.7885 122.874 63.3865 123.089 63.0746C123.913 61.27 124.945 59.5153 126.325 58.1119C127.121 57.5407 127.175 58.7114 126.795 59.1932C126.61 59.5012 126.393 59.79 126.184 60.0789C125.619 60.8227 125.253 61.8618 124.786 62.6324C124.362 63.4478 123.659 64.322 123.568 65.2601C123.096 65.6384 123.729 66.2634 124.049 65.7291C124.822 64.4051 126.538 64.4383 125.718 66.248C125.628 66.4397 125.483 66.6609 125.578 66.8705C125.817 67.4469 126.899 66.4615 127.547 66.7912C127.99 67.8635 126.597 68.0859 126.756 68.7211C126.873 68.9882 127.17 68.932 127.379 68.8259C129.369 67.9849 128.817 70.0234 127.979 70.9564C127.493 71.4881 126.768 71.6568 126.15 71.9865C125.645 72.6281 125.958 73.7847 125.803 74.4826C125.637 76.7754 125.474 79.0823 125.544 81.3815C125.562 81.6537 125.488 81.9477 125.584 82.2071C125.727 82.5918 126.347 82.5931 126.485 82.1982C126.583 81.6205 126.49 80.9993 126.529 80.4102C126.481 77.8387 126.85 75.2788 126.853 72.7086C128.439 72.4044 130.406 69.7614 129.158 68.3453C129.307 68.0987 129.399 67.8239 129.511 67.5632C130.149 68.1881 131.043 68.523 131.773 69.0291C132.581 69.6221 133.391 70.2292 134.296 70.6957C135.184 71.2082 136.683 72.5131 137.004 70.7378C137.66 65.9694 138.771 61.2317 139.37 56.4466C139.355 55.906 139.787 55.0893 139.301 54.6944C145.4 54.7545 151.88 55.6657 156.959 59.2814C161.645 62.7794 162.469 68.9703 162.069 74.4263C161.742 79.4018 160.017 83.9146 158.695 88.7341C158.201 90.3815 157.352 92.1606 156.741 93.7876C156.222 95.0848 155.928 96.4382 155.291 97.6959C153.871 100.465 153.02 103.428 151.77 106.274C148.157 103.184 144.634 99.9273 140.778 97.1258C141.056 95.2126 141.777 93.2188 142.228 91.2634C142.97 88.1961 143.6 85.0585 144.278 81.9668C144.967 79.1973 145.443 76.259 146.058 73.4703C146.168 72.6997 146.817 71.2593 146.559 70.6484C145.678 69.9493 145.521 71.5187 145.365 72.0696C144.849 73.5777 144.521 75.1663 144.147 76.769C143.618 79.7239 142.609 82.6033 141.889 85.5671C141.249 88.5795 140.722 91.62 139.92 94.5979C139.756 95.2037 139.617 95.8337 139.471 96.4485C138.539 96.29 138.027 98.5956 137.472 99.2653C136.075 101.368 134.973 103.363 134.143 105.663C132.964 103.335 131.622 101.095 130.31 98.8576C129.772 97.6409 128.895 96.6121 128.205 95.481C127.736 94.9391 127.453 93.9997 126.725 93.7952C125.527 94.0828 127.047 95.2279 127.268 95.7941C127.974 96.9533 128.853 98.0179 129.419 99.2551C130.433 101.181 131.739 102.889 132.627 104.894C132.903 105.349 133.536 106.985 134.08 106.856C134.788 107.525 135.15 108.401 135.618 109.235C136.236 110.289 136.878 110.92 137.59 111.97C139.771 114.964 142.145 117.815 144.046 121.017C143.512 121.046 143.354 121.656 142.966 121.964C141.78 123.052 141.049 124.578 139.636 125.436C138.833 125.94 138.33 126.71 137.412 127.036C135.784 127.689 133.68 128.005 132.128 127.017C131.288 126.567 130.323 125.644 129.625 124.851C128.671 123.913 127.712 122.932 127.06 121.741L127.071 121.764C126.211 120.283 125.146 118.889 124.355 117.377C123.994 116.694 123.805 115.227 122.961 115.085C121.439 114.473 123.912 118.935 124.16 119.365C123.807 126.269 123.304 133.173 122.996 140.083C122.679 140.203 122.546 140.604 122.717 140.895C119.586 142.586 114.689 142.138 111.296 141.602C109.327 141.229 107.445 141.444 105.416 140.962C104.682 140.838 104.347 140.141 103.731 139.855C103.437 139.81 103.158 140.081 103.197 140.378C102.833 140.692 103.173 141.881 103.133 142.35L103.135 142.326C103.177 144.135 103.253 145.987 103.276 147.801V147.803C103.276 147.813 103.276 147.824 103.276 147.833L103.279 147.803C103.248 155.141 103.48 162.409 103.027 169.741C102.892 174.936 103.112 180.073 102.784 185.249C102.204 185.455 102.498 186.241 103.09 186.196C103.924 186.204 104.762 186.283 105.596 186.279C107.797 186.37 110.005 186.337 112.216 186.427C113.3 186.427 114.342 186.404 115.447 186.453C116.342 186.464 117.878 186.91 117.782 185.517C118.501 179.278 119.774 173.385 120.645 167.131C121.145 164.334 121.992 161.656 122.732 158.921C123.203 157.154 123.536 155.483 124.23 153.855C124.809 152.501 125.123 150.951 126.11 149.837C129.691 149.853 129.039 176.782 129.851 181.161C130.015 182.263 130.059 186.618 130.824 187.073C131.654 187.532 132.741 187.445 133.735 187.478C136.237 187.539 138.719 187.556 141.227 187.615L141.171 187.613C144.42 187.516 147.465 187.543 150.697 187.332C151.232 187.357 151.828 187.405 152.416 187.472C152.953 187.491 153.742 187.826 154.047 187.202C154.63 182.883 154.4 178.386 154.611 174.049C154.792 167.287 154.877 160.428 155.077 153.645C155.108 150.244 154.983 146.786 155.691 143.443C157.785 143.128 156.975 141.033 157.238 139.553C157.475 135.957 157.655 132.38 157.899 128.786C158.543 119.093 159.144 109.362 159.407 99.673C159.458 97.0798 159.416 93.8272 159.429 91.2238C159.346 89.7131 160.151 88.2267 160.423 86.8886C160.742 85.6975 161.038 84.6086 161.373 83.535C163.143 78.2733 163.753 72.6064 162.878 67.0775C162.208 63.9527 160.725 61.0834 158.338 58.9069C152.125 53.9302 142.956 53.1672 135.285 53.7103C135.187 52.7786 135.224 51.7038 135.211 50.7491C135.211 50.7401 135.211 50.7312 135.211 50.7222C135.21 50.7299 135.21 50.7363 135.209 50.744C135.152 48.3131 135.117 45.9922 135.193 43.6201C135.077 42.9325 135.641 40.3866 134.794 40.3534C134.527 40.3125 134.237 40.5221 134.217 40.7981C134.231 41.9484 134.124 43.0999 134.124 44.2463C133.984 47.2958 134.074 50.5612 134.134 53.6273C134.129 53.9468 134.273 54.3059 134.129 54.5999C133.785 54.9654 133.589 55.3667 133.344 55.8447C132.558 57.4831 132.016 59.1484 131.187 60.7716C129.928 63.0031 129.25 65.5451 128.379 67.9568C128.279 67.9466 128.151 67.9606 128.067 67.9696C128.744 66.7605 127.91 65.6742 126.547 66.1611C127.035 65.0569 126.156 63.5411 124.853 64.1597C125.673 62.4292 126.726 60.6195 127.557 58.8826C127.857 57.6084 126.75 56.8492 125.737 57.8116C124.744 58.8724 123.986 60.0405 123.192 61.293C123.574 59.7517 124.813 58.319 124.922 56.7495C124.216 53.4049 120.514 59.3402 120.275 60.5696C119.587 62.7347 119.437 65.016 118.94 67.2232C118.331 65.6116 117.778 63.8338 117.007 62.2631C116.15 60.7639 115.397 59.2571 114.732 57.6608C114.444 52.9921 116.186 53.3001 112.623 52.486C110.324 51.9786 108.239 50.3772 107.534 48.0792C106.836 46.6082 107.045 44.8496 106.806 43.2929C106.698 41.9177 106.415 40.5553 106.146 39.207C105.858 34.868 106.5 30.4945 107.095 26.2028C108.288 26.9862 110.97 26.5708 112.458 26.6641C113.339 26.5593 114.364 26.774 115.082 26.1274C115.67 25.4346 115.054 24.3687 114.275 24.1285C112.03 23.5687 109.8 23.6441 107.54 23.9074C107.55 23.3872 108.23 21.828 107.389 21.7717ZM114.508 25.6685C114.536 25.6327 114.558 25.5982 114.574 25.5612C114.574 25.5752 114.573 25.6046 114.569 25.6174C114.553 25.6391 114.53 25.6532 114.508 25.6685ZM77.585 35.5044C77.7025 35.4814 77.8227 35.475 77.9441 35.4763C77.9786 35.6936 78.0067 35.9224 78.0208 36.1358C77.9351 36.1205 77.8188 36.1422 77.7422 36.1575C77.6744 35.9185 77.622 35.714 77.5709 35.5057L77.585 35.5044ZM79.6247 39.4383C78.4885 39.3322 77.1568 39.0229 76.6111 37.9327C76.2187 35.6578 80.5398 36.9423 80.4657 38.5897C80.4095 39.1456 80.2433 39.4754 79.6247 39.4383ZM107.309 56.8224C107.411 54.458 107.461 52.1153 107.311 49.7381C109.02 52.3786 111.085 53.1199 114.041 53.7308C113.958 54.5935 113.861 55.46 113.893 56.3291C111.675 56.347 109.511 56.669 107.309 56.8224ZM137.591 54.6995C137.987 54.6983 138.401 54.697 138.797 54.6983C138.266 55.3296 138.427 56.9988 138.179 57.8653C137.53 61.9972 136.58 66.2416 135.966 70.3864C133.915 69.1773 131.883 67.8367 129.902 66.5433C130.533 64.2722 131.69 62.1353 132.618 60.0035C133.292 58.4123 133.729 56.6997 134.702 55.2555C134.982 55.2977 135.274 55.097 135.326 54.8363C136.09 54.7085 136.833 54.6983 137.599 54.7021L137.591 54.6995ZM111.971 69.5493C111.655 65.5515 110.78 61.5755 110.662 57.5701C111.603 57.4141 112.551 57.2467 113.51 57.2876C114.362 58.5708 114.599 60.1044 115.433 61.417C116.435 63.1513 116.975 65.1336 117.717 67.0085C117.059 67.4405 116.255 67.5862 115.537 67.8903C114.315 68.3108 113.147 69.0035 111.971 69.5493ZM111.08 70.7685C109.723 69.8189 108.639 68.6482 107.033 68.0987C107.135 67.9926 107.151 67.8443 107.135 67.705C107.074 66.4244 107.158 65.223 107.097 63.9348C107.086 61.9244 107.192 59.937 107.268 57.9305C108.046 57.8589 108.824 57.7809 109.6 57.68C109.821 60.1517 110.187 62.6311 110.363 65.1106C110.71 66.8845 110.373 68.8348 111.016 70.5436C111.029 70.6241 111.051 70.7021 111.08 70.7685ZM145.577 122.713C147.116 122.277 147.707 119.884 148.697 118.729C149.638 117.343 150.816 116.09 151.485 114.53C152.336 112.944 153.296 111.406 153.97 109.708C154.837 107.998 153.797 107.844 152.613 106.994C153.676 105.264 154.138 103.167 154.902 101.28C156.244 98.5637 157.236 95.7788 158.29 92.9415C158.384 109.38 156.758 125.754 155.969 142.126C148.894 144.267 141.362 143.514 134.13 142.687C130.691 142.199 126.942 142.089 123.874 140.264C124.118 133.719 124.777 127.175 124.939 120.633C126.077 122.376 126.878 124.369 128.547 125.704C129.978 127.462 130.573 127.515 132.507 128.448C137.331 130.401 140.638 126.337 143.456 123.055L143.378 123.132C143.529 122.982 143.68 122.824 143.827 122.67L143.823 122.674C144.108 122.412 144.32 122.102 144.533 121.794C144.825 122.186 145.047 122.683 145.577 122.713ZM145.643 121.378C143.558 117.968 141.185 114.791 138.7 111.665C137.991 110.602 137.096 109.698 136.395 108.582C135.959 107.839 135.621 107.091 134.987 106.448C135.998 103.291 138.089 100.456 139.475 97.4569C142.262 99.241 144.71 101.669 147.285 103.79C149.254 105.437 151.058 107.35 153.273 108.654C152.135 111.326 150.724 113.893 149.106 116.289C147.776 117.838 146.844 119.701 145.643 121.378ZM114.015 98.2262C114.01 98.2007 113.998 98.147 113.993 98.1215H114.006C114.02 98.1189 114.035 98.1163 114.049 98.1138C114.034 98.1483 114.024 98.1879 114.015 98.2262Z" fill="#161616"/>
<path id="Vector_56" d="M60.9294 67.3101C58.5459 67.4724 56.0869 67.8175 53.9308 68.9025C47.9585 72.4836 50.5964 81.7368 53.288 76.5862C53.44 80.267 55.6613 78.3359 55.9476 75.9421C56.0179 76.7383 55.9859 77.601 56.3604 78.3244C56.823 79.15 57.5694 78.5467 57.7343 77.8579C57.9592 78.911 59.2156 79.2279 59.9952 78.5455C60.7186 77.8246 60.8208 76.7063 61.1531 75.7785C61.8126 74.1234 62.6497 72.3571 64.0722 71.2273C64.8978 70.6241 65.9956 70.5218 66.875 70.1359C68.3025 69.8943 67.1842 68.652 66.4059 68.353C64.724 67.5312 62.7826 67.3075 60.9294 67.3101ZM62.1858 68.4897C63.4587 68.6137 64.7738 68.8067 65.9254 69.392C65.8218 69.4304 65.717 69.4687 65.6135 69.5071C65.6225 69.5045 65.6314 69.5007 65.6416 69.4981C62.9705 70.0822 61.4879 72.5603 60.399 74.8621C59.8559 75.712 60.0092 78.1045 58.7414 78.0483C57.4659 76.7012 59.4673 74.0096 58.882 73.1431C58.1024 72.6996 57.4991 75.7312 57.3547 76.2846C57.3611 76.2539 57.3662 76.222 57.3726 76.1913C57.2614 76.7549 57.1477 77.3211 56.9138 77.8489C56.6441 76.9172 56.5789 75.8897 56.7694 74.9337C56.7885 74.1771 57.2883 73.193 56.8448 72.5309C55.5501 72.0811 55.3788 77.3377 54.2337 77.8783C53.8989 76.8188 53.9461 75.6558 54.0893 74.5643C54.1455 74.0467 54.6708 71.9622 53.5602 72.7444C53.0592 74.2269 53.0835 76.4098 51.6239 77.3083C50.2053 74.7062 51.9013 71.6746 54.0752 70.0835C56.5061 68.7658 59.4507 68.4003 62.1858 68.4897ZM59.0303 73.5189C59.0277 73.5342 59.0239 73.5495 59.0213 73.5662C59.0239 73.5508 59.0264 73.5342 59.0303 73.5189ZM51.5971 77.2955C51.5996 77.2968 51.6009 77.2994 51.6035 77.3006C51.6009 77.2994 51.5984 77.2968 51.5971 77.2955ZM51.6648 77.3096C51.6546 77.3109 51.6456 77.3121 51.6354 77.3121C51.6444 77.3109 51.6546 77.3109 51.6648 77.3096ZM51.661 77.3403C51.6725 77.3454 51.6827 77.3505 51.6942 77.3569C51.6827 77.3518 51.6725 77.3466 51.661 77.3403ZM54.2197 77.8694C54.2222 77.8732 54.2248 77.8758 54.2273 77.8796C54.2248 77.877 54.2222 77.8732 54.2197 77.8694ZM54.1545 77.9026C54.1583 77.9039 54.1634 77.9039 54.1673 77.9052C54.1621 77.9039 54.1583 77.9039 54.1545 77.9026ZM58.712 78.0445C58.7274 78.0521 58.744 78.0598 58.7593 78.0675C58.744 78.0611 58.7286 78.0534 58.712 78.0445Z" fill="#161616"/>
<path id="Vector_57" d="M21.3006 18.1152C16.1986 18.3657 11.8993 21.9149 8.67473 25.6161C6.4228 28.9761 4.006 32.3732 2.88642 36.3045C2.78162 36.7736 2.49406 37.2758 2.59247 37.7551C2.72411 38.0299 3.17015 38.0056 3.25706 37.704C3.37719 37.0943 3.59063 36.5013 3.77339 35.9083C4.53128 33.6462 5.78505 31.5962 7.04265 29.5871C8.89072 26.7664 10.9535 24.1246 13.7908 22.1794C16.6063 20.1959 20.3689 18.1689 23.8325 19.5032C22.8522 19.9071 21.7607 19.9224 20.7626 20.2688C20.3191 20.4477 19.7133 20.5563 19.3605 20.9257C19.1791 21.2005 19.3759 21.5187 19.7286 21.4957C21.091 21.3359 22.8675 20.3109 24.0817 21.3692C23.674 21.7206 17.9802 22.5935 20.1708 23.3859C21.5256 23.2505 22.8714 22.6868 24.2325 23.0792C23.7008 23.262 18.6947 24.1425 20.2194 25.1471C21.4962 25.1969 22.9263 24.7074 24.1903 25.0794C20.6003 25.5126 18.7279 26.9376 16.0593 29.1934C14.8132 30.2823 13.9237 31.7904 12.8642 33.0621C12.1434 34.2047 11.7216 35.4725 11.0609 36.6483C11.0698 36.633 11.0775 36.6176 11.0851 36.6036C10.8027 37.157 10.6161 37.7947 10.3975 38.3813C10.1675 38.743 10.0346 39.469 10.6468 39.3974C11.3561 38.9808 11.3701 37.8765 11.7727 37.1979C12.4961 36.0106 12.9831 34.5638 13.755 33.4366C14.7889 32.2237 15.5353 30.8792 16.7814 29.8414C17.5393 29.2241 18.3573 28.6694 19.0883 28.0176C18.2908 31.862 18.3969 31.1169 21.886 31.8556C23.982 32.4128 26.1457 32.4806 28.2711 32.8346C30.4937 33.1988 32.5718 33.7688 34.7867 34.1906L34.7509 34.1817C35.988 34.4245 37.1984 34.7517 38.4304 35.029L38.3882 35.0188C39.0081 35.0891 39.5921 35.3294 40.1737 35.1402C41.6076 35.8252 42.0396 33.9043 42.2058 32.8461C42.786 30.7105 43.5311 28.7512 44.0193 26.6117C44.1855 25.4078 45.0686 23.7987 43.9145 22.8466C41.715 21.7078 39.1908 21.4049 36.7932 20.9129C34.5975 20.6419 32.3622 20.2509 30.224 19.6425C28.2469 19.2591 26.2058 19.0674 24.2312 18.7568C23.366 18.2073 22.3052 18.1485 21.3006 18.1152Z" fill="#161616"/>
<path id="Vector_58" d="M68.9339 127.871C68.9275 127.989 68.9761 128.098 69.0579 128.174C68.9582 130.115 81.3719 128.958 83.2481 128.933C83.8386 128.705 86.3781 129.075 85.7506 127.988C83.2443 127.655 80.5054 128.097 77.925 127.822C75.6373 127.724 73.3394 127.863 71.0504 127.712C70.442 127.777 69.1742 127.091 68.9339 127.871Z" fill="#161616"/>
<path id="Vector_59" d="M51.5625 147.913C49.9394 151.755 49.487 155.904 48.9412 160.002C47.6811 168.052 47.805 176.213 47.7642 184.335C47.5737 185.606 48.7163 185.562 48.5732 184.279C48.5527 175.468 48.7406 166.639 50.1656 157.927C50.526 155.753 50.7331 153.539 51.335 151.415C51.6967 150.343 52.0584 149.268 52.4469 148.206C52.6412 147.647 51.7555 147.329 51.5625 147.913Z" fill="#161616"/>
<path id="Vector_60" d="M76.0653 150.152C74.354 150.762 73.5335 153.229 72.8868 154.798C71.2841 158.89 71.2279 163.315 70.8803 167.636C70.4291 172.793 69.6699 178.03 70.3678 183.194C70.502 183.67 70.6259 184.75 71.2688 184.625C71.4209 184.546 71.4861 184.348 71.4043 184.196C71.0554 183.635 70.9736 182.98 70.9365 182.334C70.5722 177.128 71.3825 171.912 71.881 166.738C72.3219 161.494 72.4152 155.123 76.1573 151.058C76.6264 151.784 76.8245 152.643 77.1223 153.445C77.1197 153.437 77.1172 153.429 77.1133 153.422C80.481 163.468 81.1456 174.159 83.372 184.477C83.6813 185.787 84.9082 185.259 84.4404 184.032C82.5348 175.016 81.7335 165.746 79.2081 156.87C78.7262 155.64 77.475 149.87 76.0653 150.152ZM76.0692 150.98C76.0768 150.983 76.0845 150.987 76.0909 150.991C76.0832 150.987 76.0755 150.983 76.0692 150.98Z" fill="#161616"/>
<path id="Vector_61" d="M102.864 88.3212C101.45 95.1345 101.032 102.248 100.559 109.217C100.136 113.265 100.025 117.414 100.637 121.445C100.93 122.968 101.597 124.48 102.866 125.431C103.292 125.734 103.761 125.997 103.931 126.526C104.102 126.92 104.732 126.662 104.552 126.258C104.213 125.267 103.126 124.954 102.552 124.137C100.815 121.722 101.159 118.51 101.023 115.684C101.023 115.691 101.023 115.698 101.023 115.705C101.104 109.178 101.717 102.651 102.346 96.1532C102.612 94.0955 102.897 92.0391 103.161 89.9814C103.137 89.4932 103.88 87.9519 102.864 88.3212ZM101.023 115.72C101.023 115.743 101.023 115.767 101.023 115.79C101.023 115.767 101.023 115.744 101.023 115.72Z" fill="#161616"/>
<path id="Vector_62" d="M106.307 126.374C105.683 126.889 106.883 127.14 107.272 127.097C107.622 127.062 107.576 126.501 107.223 126.527C107.228 126.527 107.233 126.527 107.239 126.527C106.915 126.563 106.617 126.305 106.307 126.374Z" fill="#161616"/>
<path id="Vector_63" d="M56.9507 83.8188C55.7059 86.1091 55.3301 88.8505 55.5487 91.4296C55.6854 91.7887 55.5576 92.8559 55.9602 92.9198C56.3449 92.7882 55.7838 91.0091 55.9257 90.489C55.9257 90.5081 55.9257 90.5286 55.9257 90.5477C55.9167 89.0563 56.203 87.5801 56.6082 86.15C56.6043 86.164 56.6005 86.1794 56.5967 86.1934C56.7577 85.3959 57.283 84.7147 57.5105 83.9632C57.4811 83.6974 57.104 83.5964 56.9507 83.8188Z" fill="#161616"/>
<path id="Vector_64" d="M63.5136 102.656C63.3986 102.873 63.0344 103.935 63.3462 104.032C63.8613 104.092 63.7769 103.227 63.9175 102.885C63.9597 102.671 63.6759 102.515 63.5136 102.656Z" fill="#161616"/>
<path id="Vector_65" d="M65.8371 103.922C65.4741 104.199 64.5104 104.214 64.5795 104.785C64.9092 105.236 65.6134 104.471 66.0467 104.406C66.3611 104.271 66.1476 103.783 65.8371 103.922Z" fill="#161616"/>
<path id="Vector_66" d="M59.2296 129.188C58.6609 129.569 59.4711 129.921 59.797 130.082C60.0846 130.16 60.468 130.543 60.7287 130.254C60.9754 129.834 60.3159 129.679 60.0565 129.507C59.7855 129.411 59.5287 129.086 59.2296 129.188Z" fill="#161616"/>
<path id="Vector_67" d="M62.8172 127.638C62.6382 127.889 62.4568 128.588 62.8887 128.678C63.4166 128.746 63.483 127.228 62.8172 127.638Z" fill="#161616"/>
<path id="Vector_68" d="M94.6867 122.667C94.3736 123.009 93.8419 123.286 93.7461 123.762C93.934 124.279 94.3238 123.698 94.5078 123.486C94.6714 123.245 95.2197 123.047 95.0216 122.706C94.9436 122.608 94.7826 122.578 94.6867 122.667Z" fill="#161616"/>
<path id="Vector_69" d="M95.7117 124.163C95.5046 124.319 94.3914 124.948 94.9563 125.141C95.2682 124.906 95.5494 124.6 95.9072 124.41C96.0683 124.287 95.8714 124.034 95.7117 124.163Z" fill="#161616"/>
<path id="Vector_70" d="M112.604 106.646C112.393 106.948 112.402 107.373 112.217 107.703C112.128 107.972 111.838 108.425 112.191 108.607C112.652 108.728 112.652 108.029 112.827 107.749C112.963 107.404 113.342 106.352 112.604 106.646ZM112.407 107.188C112.403 107.205 112.398 107.22 112.394 107.237C112.399 107.22 112.403 107.205 112.407 107.188Z" fill="#161616"/>
<path id="Vector_71" d="M113.286 108.633C113.179 109.197 112.455 110.17 112.965 110.623C113.588 110.791 113.562 109.281 113.864 108.871C114.017 108.497 113.433 108.258 113.286 108.633Z" fill="#161616"/>
<path id="Vector_72" d="M104.123 11.7595C103.79 12.056 102.797 13.081 103.357 13.4542C103.894 13.5641 103.901 12.7001 104.296 12.4624C104.741 12.2094 104.723 11.4949 104.123 11.7595Z" fill="#FEFEFE"/>
<path id="Vector_73" d="M107.563 11.5142C107.109 12.1136 108.325 11.8823 108.58 12.3181C108.704 12.4242 108.822 12.5379 108.972 12.6095C109.262 12.7398 109.502 12.3155 109.245 12.1277C108.795 11.7532 108.168 11.3046 107.563 11.5142Z" fill="#FEFEFE"/>
<path id="Vector_74" d="M113.103 6.45435C112.929 7.01413 111.765 7.942 112.169 8.45322C112.59 8.83025 113.344 7.16494 113.636 6.85693C113.902 6.51314 113.355 6.10288 113.103 6.45435Z" fill="#FEFEFE"/>
<path id="Vector_75" d="M116.636 7.63135C116.327 7.63902 115.443 7.71314 115.84 8.1873C116.443 8.2282 117.124 8.02754 117.702 8.42502C117.933 8.53493 118.195 8.26271 118.084 8.03521C117.755 7.64413 117.115 7.6339 116.636 7.63135Z" fill="#FEFEFE"/>
<path id="Vector_76" d="M126.338 5.03436C126.009 5.09698 124.956 5.26185 125.521 5.72451C125.847 5.76285 126.166 5.54175 126.503 5.5443C126.793 5.4574 127.328 5.66572 127.428 5.28614C127.401 4.79153 126.665 5.03947 126.338 5.03436Z" fill="#FEFEFE"/>
<path id="Vector_77" d="M126.183 9.08455C126.146 9.50375 126.86 9.49991 127.097 9.78236C127.346 9.88333 127.669 10.291 127.921 10.0175C128.003 9.90761 127.981 9.74658 127.871 9.66478C127.525 9.53187 126.416 8.71647 126.183 9.08455Z" fill="#FEFEFE"/>
<path id="Vector_78" d="M119.73 13.4223C119.154 13.9706 120.12 14.9355 120.638 15.2282C121.047 15.3535 121.928 15.6806 122.111 15.1285C122.134 14.9521 122.005 14.7809 121.826 14.7592C119.949 14.8179 120.558 13.3022 119.73 13.4223Z" fill="#FEFEFE"/>
<path id="Vector_79" d="M114.36 16.9254C114.137 17.7088 113.414 17.6283 113.539 18.1101C114.054 18.9 115.546 16.6263 114.36 16.9254Z" fill="#FEFEFE"/>
<path id="Vector_80" d="M109.184 16.1458C108.883 16.5458 108.699 17.9709 109.523 17.7165C109.777 17.5197 109.489 17.3024 109.471 17.0826C109.502 16.7542 109.852 15.8761 109.184 16.1458Z" fill="#FEFEFE"/>
<path id="Vector_81" d="M125.3 17.8431C124.45 19.2196 126.582 20.0413 127.625 19.3256C128.045 19.2694 128.22 18.6917 127.683 18.7646C127.305 18.9154 126.92 19.0969 126.504 19.07C126.527 19.07 126.551 19.07 126.574 19.07C124.814 19.0176 125.968 17.7421 125.3 17.8431Z" fill="#FEFEFE"/>
<path id="Vector_82" d="M130.486 13.614C130.135 13.8274 128.546 14.6543 128.794 15.0761C129.23 15.3598 129.831 14.4562 130.279 14.3118C130.481 14.1521 130.958 14.1009 130.83 13.7495C130.773 13.6153 130.617 13.5629 130.486 13.614ZM130.252 14.3284C130.247 14.331 130.242 14.3348 130.237 14.3374C130.242 14.3348 130.247 14.3323 130.252 14.3284Z" fill="#FEFEFE"/>
<path id="Vector_83" d="M134.004 10.3166C133.79 10.3831 133.336 10.5709 133.512 10.8534C133.579 10.9403 133.71 10.9556 133.797 10.8866C133.987 10.6987 134.264 10.6604 134.516 10.732C134.874 10.8381 135.227 10.9761 135.519 11.2138C135.632 11.302 135.802 11.2751 135.887 11.1614C136.109 10.6834 135.288 10.4764 134.952 10.369C134.972 10.3741 134.993 10.3805 135.012 10.3856C134.685 10.2974 134.336 10.2156 134.004 10.3166Z" fill="#FEFEFE"/>
<path id="Vector_84" d="M134.54 14.3475C134.134 14.7679 134.754 14.9545 135.074 15.0657C135.324 15.1935 135.464 15.4926 135.738 15.5642C136.933 15.3405 135.051 13.9896 134.54 14.3475Z" fill="#FEFEFE"/>
<path id="Vector_85" d="M132.398 18.1791C131.625 18.5548 132.688 19.654 133.188 19.8482C133.566 19.9594 134.247 20.4221 134.534 20.0054C134.595 19.8648 134.522 19.6757 134.374 19.6233C132.422 19.1836 133.093 18.3146 132.398 18.1791Z" fill="#FEFEFE"/>
<path id="Vector_86" d="M139.004 15.9808C138.74 16.069 138.172 15.9911 138.179 16.3783C138.33 16.8959 139.04 16.1495 139.925 16.6735C140.638 16.2748 139.399 15.8134 139.004 15.9808Z" fill="#FEFEFE"/>
<path id="Vector_87" d="M137.459 19.9391C137.058 20.3685 137.614 20.6203 138.013 20.5845C138.309 20.5973 138.728 20.913 138.905 20.5295C139.057 19.9416 137.836 19.7678 137.459 19.9391Z" fill="#FEFEFE"/>
<path id="Vector_88" d="M135.757 24.2358C135.62 24.5757 135.98 24.7266 136.235 24.8275C136.617 24.9886 136.917 25.7132 137.376 25.432C137.968 24.9809 136.032 23.5098 135.757 24.2358Z" fill="#FEFEFE"/>
<path id="Vector_89" d="M134.847 26.5733C134.387 26.8033 135.594 28.0597 135.874 27.6839C136.067 27.3427 135.502 27.2404 135.344 27.0193C135.16 26.8915 135.132 26.4762 134.847 26.5733Z" fill="#FEFEFE"/>
<path id="Vector_90" d="M139.14 28.759C138.86 28.8523 139.247 29.6562 139.491 29.5284C139.765 29.4146 139.396 28.6452 139.14 28.759Z" fill="#FEFEFE"/>
<path id="Vector_91" d="M123.334 10.2923C123.006 10.4712 122.16 10.4521 122.261 10.9646C122.561 11.3633 123.148 10.8023 123.55 10.7933C123.876 10.6591 123.659 10.1492 123.334 10.2923Z" fill="#FEFEFE"/>
<path id="Vector_92" d="M115.57 10.8175C115.253 10.999 114.386 11.739 114.799 12.116C115.146 12.3524 115.336 11.8719 115.567 11.693C115.901 11.4706 116.187 10.8265 115.57 10.8175Z" fill="#FEFEFE"/>
<path id="Vector_93" d="M124.509 2.64441C124.046 2.68914 121.811 3.57995 122.766 4.1065C123.297 3.89051 123.757 3.39207 124.382 3.28088C124.854 3.29877 125.061 2.66486 124.509 2.64441Z" fill="#FEFEFE"/>
<path id="Vector_94" d="M110.574 3.89049C110.29 3.93011 110.351 4.36977 110.636 4.33015C111.053 4.22535 111.511 4.449 111.898 4.35059C112.298 3.72946 110.903 3.8726 110.574 3.89049Z" fill="#FEFEFE"/>
<path id="Vector_95" d="M136.222 8.18221C136.218 8.59374 136.772 8.40843 137.029 8.51578C137.197 8.57457 137.438 8.67937 137.531 8.45699C137.73 8.0314 136.246 7.77195 136.222 8.18221Z" fill="#FEFEFE"/>
<path id="Vector_96" d="M114.699 20.5039C114.205 20.7122 115.361 22.1654 115.398 21.3167C115.38 21.2759 115.343 21.235 115.299 21.2209C114.849 21.1813 115.005 20.5742 114.699 20.5039ZM114.958 20.9551C114.962 20.9602 114.964 20.9653 114.968 20.9717C114.964 20.9666 114.961 20.9615 114.958 20.9551Z" fill="#FEFEFE"/>
<path id="Vector_97" d="M122.728 19.962C122.249 20.2879 123.972 20.5729 123.999 20.3122C124.036 20.0962 122.96 20.04 122.728 19.962ZM123.062 20.0311C123.067 20.0323 123.074 20.0336 123.079 20.0362C123.074 20.0349 123.067 20.0336 123.062 20.0311Z" fill="#FEFEFE"/>
<path id="Vector_98" d="M136.612 150.33C136.315 150.517 135.496 150.807 135.595 151.204C135.901 151.402 136.205 150.853 136.501 150.756C136.776 150.685 137.058 150.322 136.612 150.33Z" fill="#FEFEFE"/>
<path id="Vector_99" d="M138.005 152.138C137.679 152.264 137.029 152.176 136.896 152.526C137.084 152.848 137.719 152.406 138.046 152.431C138.236 152.406 138.194 152.11 138.005 152.138Z" fill="#FEFEFE"/>
<path id="Vector_100" d="M138.245 162.916C138.082 163.365 139.507 163.635 139.829 163.656C140.308 163.277 139.485 163.102 139.208 163.013C138.911 162.97 138.457 162.552 138.245 162.916Z" fill="#FEFEFE"/>
<path id="Vector_101" d="M141.727 165.233C141.246 165.702 140.513 166.207 140.524 166.942C140.596 167.125 140.884 167.125 140.951 166.938C141.107 166.281 141.76 165.958 142.1 165.446C142.136 165.251 141.878 165.098 141.727 165.233ZM141.564 166.008C141.561 166.012 141.557 166.017 141.553 166.021C141.555 166.017 141.561 166.012 141.564 166.008Z" fill="#FEFEFE"/>
<path id="Vector_102" d="M113.493 168.652C113.034 169.083 114.002 169.14 114.275 169.185C114.566 169.163 115.105 169.469 115.248 169.125C115.261 169.027 115.188 168.93 115.088 168.918C114.548 168.895 114.013 168.7 113.493 168.652Z" fill="#FEFEFE"/>
<path id="Vector_103" d="M114.375 171.423C114.006 171.579 112.983 171.47 112.988 171.976C113.124 172.231 113.414 171.97 113.613 171.944C113.892 171.796 114.51 171.942 114.577 171.574C114.563 171.482 114.47 171.405 114.375 171.423Z" fill="#FEFEFE"/>
<path id="Vector_104" d="M114.032 160.685C113.474 160.986 114.415 161.279 114.66 161.406C114.959 161.477 115.433 161.936 115.68 161.634C115.766 161.342 115.342 161.336 115.167 161.224C114.778 161.077 114.424 160.795 114.032 160.685Z" fill="#FEFEFE"/>
<path id="Vector_105" d="M39.2409 27.9256C39.076 28.0559 39.0172 28.2732 38.9955 28.4739C38.6146 29.1627 39.6166 29.1206 39.6946 28.5071C39.8186 28.2119 39.6115 27.6751 39.2409 27.9256Z" fill="#F7BA21"/>
</g>
</g>
</svg>
