<svg width="1440" height="703" viewBox="0 0 1440 703" fill="none" xmlns="http://www.w3.org/2000/svg">
<path d="M436.807 703H432.452C425.922 701.485 419.249 701.833 412.643 701.644C404.675 701.416 396.683 701.447 388.691 701.826C381.117 702.197 373.473 701.363 365.876 700.886C364.126 700.78 362.323 700.522 362.596 698.044C362.778 696.4 361.566 696.673 360.687 696.666C350.764 696.59 340.825 696.317 330.963 697.696C328.554 698.029 326.1 697.499 324.236 698.272C324.198 698.272 324.645 698.272 325.085 698.189C326.282 698.052 327.6 698.401 327.721 699.545C327.872 701.06 326.448 701.485 325.183 701.5C320.737 701.553 316.29 702.023 311.836 701.666C310.273 701.549 308.703 701.549 307.14 701.666C304.208 701.871 301.269 702.606 298.489 700.393C297.361 699.492 295.255 699.636 293.573 699.537C292.723 699.532 291.876 699.446 291.043 699.28C289.649 698.893 287.854 698.522 287.831 696.825C287.809 695.127 289.611 694.498 291.005 694.377C297.967 693.786 304.799 691.725 311.889 692.513C299.382 691.303 286.759 692.622 274.772 696.393C271.288 697.508 267.547 697.537 264.046 696.476C262.97 696.165 261.736 695.9 261.205 694.961C258.547 690.369 254.214 691.172 250.252 691.71C230.971 694.513 211.485 695.658 192.008 695.135C187.827 695.006 183.865 694.445 180.275 692.028C178.002 690.513 175.253 691.331 172.829 691.695C169.708 692.172 166.541 691.998 163.451 692.665C162.615 692.891 161.729 692.853 160.915 692.556C160.102 692.259 159.4 691.717 158.906 691.005C157.649 689.141 155.952 689.02 154.111 689.399C151.649 689.907 149.081 689.975 146.832 691.43C146.09 691.864 145.263 692.132 144.408 692.217C143.553 692.302 142.69 692.202 141.878 691.922C135.818 690.111 129.356 690.71 123.311 688.77C121.796 688.293 120.213 688.202 119.213 690.028C118.936 690.431 118.565 690.761 118.132 690.989C117.699 691.217 117.218 691.337 116.729 691.339C111.623 691.877 106.609 690.627 101.533 690.498C101.1 690.498 100.678 690.356 100.333 690.093C99.9882 689.83 99.7392 689.461 99.6246 689.043C99.3367 687.853 100.382 687.429 101.14 686.853C101.897 686.277 103.594 686.217 103.018 684.701C102.586 683.55 101.223 683.633 100.147 683.572C91.2543 683.072 82.5355 684.565 73.8168 685.936C70.5899 686.436 67.3629 686.937 64.1587 687.565C62.6438 687.876 60.8561 688.134 59.5229 687.308C56.2884 685.307 52.7812 685.792 49.3043 685.664C33.0485 684.997 16.9366 686.679 0.824766 688.369C-2.05371 688.672 -5.17458 689.589 -7.96973 687.687V-154.568C-6.74259 -155.25 -5.38668 -154.917 -4.07621 -154.917C477.851 -154.917 959.78 -154.917 1441.71 -154.917C1445.98 -154.917 1445.98 -154.917 1445.98 -150.62V688.649C1446.02 689.733 1446 690.818 1445.92 691.9C1444.98 693.809 1443.17 693.695 1441.5 693.665C1435.8 693.584 1430.14 692.697 1424.69 691.028C1416.56 688.513 1408.43 689.119 1400.24 689.702C1398.31 689.839 1396.38 690.134 1394.45 690.096C1377.03 689.763 1359.61 691.331 1342.23 691.733C1330.03 692.013 1317.84 692.998 1305.62 693.044C1289.92 693.097 1274.25 694.188 1258.56 694.559C1248.17 694.832 1237.78 694.764 1227.42 695.271C1208.2 696.203 1188.97 696.302 1169.75 696.87C1160.83 697.128 1151.87 697.135 1142.93 697.726C1137.45 698.09 1131.84 697.939 1126.31 697.923C1107.79 697.855 1089.28 698.605 1070.78 698.992C1053.22 699.37 1035.66 698.886 1018.15 699.749C1004.82 700.378 991.519 699.818 978.218 700.34C939.73 701.856 901.226 700.386 862.738 701.151C850.05 701.409 837.332 701.841 824.651 701.765C798.26 701.613 771.869 702.053 745.493 701.424C724.42 700.924 703.369 701.325 682.303 701.015C677.107 700.939 671.941 700.325 666.729 700.212C657.261 700.007 647.89 701.159 638.475 701.576C631.483 701.886 624.469 701.651 617.469 701.363C615.667 701.288 613.856 701.022 612.038 701.038C595.941 701.174 579.883 700.068 563.816 699.408C554.135 699.014 544.296 697.514 534.903 699.795C524.677 702.28 514.511 701.742 504.277 701.886C498.217 701.969 492.195 702.083 486.166 702.606C485.2 702.702 484.226 702.661 483.272 702.485C479.247 701.653 475.116 701.459 471.031 701.909C469.667 702.068 467.887 702.667 467.327 700.742C466.85 699.045 468.198 698.151 469.751 697.249C464.448 697.651 459.282 697.741 454.222 697.666C449.844 697.597 445.413 696.484 440.928 696.666C439.96 696.646 438.991 696.684 438.027 696.779C436.474 697.029 435.853 697.772 436.792 699.272C437.572 700.507 438.565 701.75 436.807 703Z" fill="#27279E"/>
</svg>
