<svg width="80" height="36" viewBox="0 0 80 36" fill="none" xmlns="http://www.w3.org/2000/svg">
<g id="logo">
<path id="Vector" d="M41.5125 6.69482H45.7044C45.7721 6.69482 45.8269 6.74961 45.8269 6.81889V25.1697C45.8269 25.2389 45.8817 25.2937 45.9494 25.2937H54.3075C54.3752 25.2937 54.43 25.2389 54.43 25.1697V6.81889C54.43 6.74961 54.4848 6.69482 54.5525 6.69482H58.7444C58.8121 6.69482 58.8669 6.74961 58.8669 6.81889V25.1697C58.8669 25.2389 58.9217 25.2937 58.9894 25.2937H60.5737C60.6414 25.2937 60.6962 25.3485 60.6962 25.4178V32.277C60.6962 32.3463 60.6414 32.401 60.5737 32.401H57.1312C57.0635 32.401 57.0087 32.3463 57.0087 32.277V29.1688C57.0087 29.0996 56.9539 29.0448 56.8862 29.0448H41.5141C41.4464 29.0448 41.3916 28.99 41.3916 28.9207V6.81889C41.3916 6.75122 41.4464 6.69482 41.5125 6.69482Z" fill="#1F1F71"/>
<path id="Vector_2" d="M63.4971 29.0062V6.91723C63.4971 6.84634 63.5551 6.78833 63.626 6.78833H79.8716C79.9425 6.78833 80.0006 6.84634 80.0006 6.91723V10.4395C80.0006 10.5104 79.9425 10.5684 79.8716 10.5684H68.1209C68.05 10.5684 67.992 10.6264 67.992 10.6973V15.3925C67.992 15.4634 68.05 15.5214 68.1209 15.5214H79.7314C79.8023 15.5214 79.8603 15.5794 79.8603 15.6503V19.1564C79.8603 19.2273 79.8023 19.2853 79.7314 19.2853H68.1209C68.05 19.2853 67.992 19.3434 67.992 19.4143V25.239C67.992 25.3099 68.05 25.3679 68.1209 25.3679H79.8716C79.9425 25.3679 80.0006 25.4259 80.0006 25.4968V29.0029C80.0006 29.0738 79.9425 29.1318 79.8716 29.1318H63.626C63.5535 29.1367 63.4971 29.0787 63.4971 29.0062Z" fill="#1F1F71"/>
<path id="Vector_3" d="M33.1156 0.7863C33.1156 0.736351 33.1092 0.688013 33.1011 0.641286C33.0995 0.63323 33.0979 0.625173 33.0963 0.618728C33.0753 0.520441 33.0367 0.431821 32.9835 0.352868C32.9819 0.349646 32.9802 0.348035 32.9786 0.344812C32.9512 0.306142 32.9222 0.269082 32.89 0.236857C32.8852 0.232023 32.8803 0.227189 32.8755 0.222355C32.8481 0.194964 32.8175 0.170795 32.7868 0.148237C32.7788 0.141792 32.7707 0.135347 32.7627 0.130513C32.7288 0.107955 32.6934 0.0886199 32.6563 0.0725072C32.6434 0.0660621 32.6305 0.0612283 32.6176 0.0563945C32.5773 0.0402818 32.537 0.0273916 32.4951 0.017724C32.4903 0.0161127 32.4855 0.0161127 32.479 0.0145014C32.4307 0.00483381 32.3823 0 32.334 0H32.3324C32.3324 0 32.3324 0 32.3307 0C32.2808 0 32.2292 0.00483381 32.1776 0.0161127C32.1744 0.0161127 32.1712 0.017724 32.1664 0.017724C32.118 0.0273916 32.0697 0.0418931 32.0213 0.0628396L0.421318 14.1679C-0.091193 14.4225 -0.168553 15.1862 0.369744 15.5343L11.5225 22.6754C11.703 22.7947 11.8964 22.7012 11.9818 22.5787L13.8433 19.7107C13.9223 19.5882 13.9158 19.3771 13.7434 19.2611L7.75924 15.4279C7.54489 15.2926 7.58357 14.9558 7.80598 14.8559L18.4043 10.1897L28.8657 5.45415C29.0639 5.36553 29.3218 5.5186 29.3121 5.77802L29.3234 17.2374L29.3121 28.6065C29.325 28.8595 29.0897 29.0657 28.8141 28.9207L22.9976 25.1874C22.9009 25.1278 22.6914 25.0827 22.5479 25.2808L20.6832 28.1618C20.5639 28.3374 20.6671 28.5388 20.7864 28.6162L31.8859 35.7251C32.4419 36.0828 33.1156 35.6848 33.1156 35.0742L33.0995 18.0366L33.1156 0.7863Z" fill="#1F1F71"/>
</g>
</svg>
