<svg width="179" height="183" viewBox="0 0 179 183" fill="none" xmlns="http://www.w3.org/2000/svg">
<g id="element_1" style="mix-blend-mode:screen" clip-path="url(#clip0_99_521)">
<path id="Vector" d="M30.0444 116.78C30.0249 116.753 30.0022 116.728 29.9766 116.707V116.775L30.0444 116.78Z" fill="#13b4f3" fill-opacity="0.6"/>
<path id="Vector_2" d="M164.182 114.168C160.117 111.535 156.075 108.912 152.2 106.441C153.462 107.248 152.842 107.035 151.91 106.396C149.459 104.503 147.387 103.539 144.83 101.678C142.904 100.479 141.084 99.2914 139.297 98.1203L136.645 96.3777L135.707 95.7669L135.596 95.7053L135.685 95.6268L135.718 95.5988L136.053 95.3971L136.757 94.9768H136.88C137.594 94.6182 137.756 94.4725 138.482 94.0579V94.1363C140.219 93.2062 142.268 91.9847 143.278 91.4691V91.3627C144.3 90.8023 143.837 91.1217 144.869 90.4998V90.5558L146.053 89.805C146.008 90.0011 148.951 88.2192 149.805 87.8214C151.117 87.0649 153.602 85.6136 155.628 84.5266C156.036 84.3865 158.504 83.0249 160.095 82.1844C163.149 80.5034 167.51 78.0323 171.418 75.8974L171.301 75.8526L172.317 75.2923C172.317 75.2923 172.456 75.253 172.317 75.3427C172.423 75.3035 172.535 75.2474 172.657 75.1914L172.847 75.0961L173.104 74.9561L174.723 74.0483C175.84 73.4207 176.89 72.8156 177.744 72.3673C177.146 72.6475 176.823 72.8268 176.488 73.0173C176.153 73.2078 175.823 73.4151 175.27 73.7177C174.455 74.1436 174.411 74.1324 174.807 73.8858C175.203 73.6393 176.035 73.163 177.107 72.6026L178.364 71.8518C178.486 71.8126 178.715 71.7061 179 71.5716C178.663 71.5166 178.33 71.4342 178.006 71.3251L172.853 70.7143L171.278 70.5462L170.067 70.4173C168.453 70.2492 166.828 70.0699 164.869 69.8066C165.282 69.773 162.077 69.4816 162.859 69.4312C160.497 69.1958 163.233 69.5993 162.144 69.5656C161.653 69.5304 161.164 69.4649 160.681 69.3695C160.994 69.3695 160.156 69.2126 160.681 69.2687L159.107 69.0837C158.962 69.0557 159.308 69.0837 159.486 69.0837C156.27 68.77 153.819 68.2881 150.938 68.0135C150.721 68.0135 152.055 68.1704 151.86 68.1984C148.956 67.9407 149.319 67.7838 146.617 67.526H147.175C146.275 67.4918 145.378 67.3983 144.49 67.2458C144.25 67.1282 145.712 67.3243 146.405 67.3691C145.422 67.2458 142.932 66.9601 143.68 67.1282C142.502 67.0105 142.083 66.8816 141.447 66.7808C141.447 66.7808 142.564 66.9769 141.849 66.9265C140.252 66.6799 137.773 66.3661 135.813 66.1252C135.813 66.1252 135.702 66.0579 135.875 66.0691C134.284 65.9851 134.473 65.817 132.307 65.5704L129.125 65.2006L127.45 65.0045H127.271H127.204V64.9429V64.8924C127.394 64.3881 127.578 63.8782 127.762 63.3683C128.142 62.3541 128.516 61.3343 128.879 60.3313C129.621 58.3309 130.353 56.409 131.028 54.6383C131.369 53.4168 132.017 51.6965 132.648 49.9595L132.86 49.8306L133.357 48.3737C133.625 47.8134 132.966 49.4944 133.413 48.4746L133.53 47.9143C133.625 47.819 134.965 44.2273 134.15 46.6815L136.271 41.0782C136.746 39.8398 136.427 40.3105 136.98 38.9545C137.125 38.6911 136.824 39.4588 136.913 39.3635C138.588 35.2955 138.443 34.511 139.956 30.7064L139.85 31.037C139.956 30.7064 140.129 30.2301 140.274 29.8322L140.453 29.3279L140.526 29.1094C140.196 29.5465 140.341 29.8266 139.811 30.9641C139.733 30.8184 140.302 29.4848 140.185 29.524C140.565 28.6443 140.699 28.0896 140.989 27.2827C141.547 25.9827 142.24 24.044 142.709 23.0746C142.921 22.4134 143.083 21.6345 143.608 20.2337C144.082 19.2587 143.608 20.5026 144.166 19.1466V18.9001C144.601 17.7794 144.557 17.9643 144.573 18.0204C145.031 16.8212 144.858 16.9837 145.472 15.4932L145.221 16.3618C145.618 15.2411 145.779 14.7872 146.394 13.2407C146.295 13.6254 146.163 14.0005 145.997 14.3614C146.275 13.7434 146.505 13.1045 146.684 12.4506C146.606 12.5683 146.181 13.6385 146.315 13.0894C146.617 12.3217 146.84 11.4084 147.131 10.8929L146.946 11.767C147.505 10.142 147.186 10.8761 147.912 9.04378C147.879 9.14464 147.912 9.10542 147.912 9.15024C148.091 8.55068 148.342 7.87828 148.633 7.13864L150.062 3.46284L149.894 3.96153C150.285 2.84086 150.391 2.3982 150.62 1.81545C149.967 3.41801 150.095 3.02017 149.922 3.27792C150.275 2.4748 150.581 1.65156 150.838 0.812448C150.436 1.15986 150.017 1.52407 149.565 1.93312C149.113 2.34216 148.616 2.71759 148.024 3.17146C148.165 3.00848 148.32 2.85846 148.487 2.72319C148.739 2.50466 149.074 2.2357 149.386 2.01157C150.107 1.32235 150.503 0.890895 151.324 0.168062C151.257 0.414609 151.134 0.812448 150.916 1.42882C151.084 0.963738 151.268 0.46504 151.419 0.0391846C151.137 0.297326 150.834 0.5316 150.514 0.739604L150.034 1.26072L148.426 2.54949C148.27 2.72319 148.56 2.54949 148.694 2.45423C148.828 2.35897 148.817 2.42061 148.136 3.01457C146.623 4.28653 147.348 3.49646 147.103 3.76542C146.622 4.12756 146.161 4.51668 145.724 4.93091C145.414 5.21531 145.088 5.481 144.747 5.72659C144.881 5.60892 145.143 5.37358 145.271 5.28393C144.238 6.05719 142.815 7.28432 142.435 7.4132C142.579 7.21911 142.755 7.05056 142.954 6.9145V6.94252C143.92 6.05159 142.329 7.45803 142.296 7.37958C142.095 7.60372 140.939 8.50025 140.375 8.94852L140.632 8.85326C138.672 10.7584 140.632 8.62913 138.566 10.3438C137.271 11.4644 139.08 9.95713 138.303 10.6575C137.393 11.3692 137.014 11.5821 135.718 12.6635C135.321 12.98 134.89 13.2524 134.434 13.476C133.664 14.1484 131.983 15.3924 131.587 15.8294C132.971 14.7928 132.882 14.6583 134.557 13.448L134.172 13.8795C133.055 14.7648 131.676 15.9415 130.894 16.5299C131.056 16.4178 131.14 16.3786 131.056 16.4738C129.504 17.7682 129.108 18.2053 127.561 19.4156C127.304 19.5108 128.209 18.7992 128.857 18.2949C127.829 19.0346 127.824 19.1186 126.271 20.3289C126.143 20.3289 127.31 19.5052 127.438 19.3035L125.763 20.6876C125.596 20.9789 124.463 21.7186 123.446 22.5815C120.99 24.5595 120.722 24.9909 119.421 26.162C119.036 26.431 118.907 26.4926 119.041 26.3469C119.306 26.2076 119.542 26.0172 119.733 25.7866C118.913 26.4646 117.841 27.1538 118.276 26.7392C116.975 27.8262 118.79 26.4086 118.008 27.0866L116.132 28.493C116.384 28.3698 117.031 27.8711 116.132 28.6611C115.351 29.3111 114.965 29.6081 113.932 30.4318C114.061 30.2861 113.547 30.6167 114.323 29.9947C113.781 30.3906 113.266 30.823 112.782 31.2891C113.944 30.4318 110.968 32.8188 111.867 32.2249L110.711 33.0598C110.968 32.8524 110.973 32.7964 111.359 32.4994C110.893 32.8315 110.459 33.2067 110.063 33.6201C109.656 33.9227 108.623 34.7408 108.511 34.7856C108.062 35.1747 107.588 35.5341 107.093 35.8614C106.574 36.3041 107.093 35.9455 106.959 36.0912L105.15 37.5424C105.022 37.5761 104.776 37.5817 105.038 37.3463C104.955 37.4192 104.893 37.4808 104.843 37.5312C104.826 37.55 104.811 37.5707 104.798 37.5929L104.748 37.7049C104.714 37.7722 104.642 37.8618 104.374 38.0748C104.53 37.8843 104.374 37.9963 104.24 38.0748C104.106 38.1532 104.044 38.17 104.24 37.9291H104.156C104.167 37.7219 104.167 37.5143 104.156 37.3071L104.123 36.6963C104.123 36.3769 104.084 36.0744 104.067 35.8166C103.95 35.0826 104.067 37.1054 103.994 37.0325C103.804 33.6705 103.559 33.4968 103.486 31.037V31.6757C103.363 30.146 103.386 30.3197 103.268 29.4344C103.397 29.8546 103.469 27.6805 103.33 25.1646C103.263 24.9517 103.296 26.5767 103.19 26.1676L103.095 24.4866C103.095 24.3634 103.123 24.5483 103.151 24.7612C103.039 23.2651 103.151 21.9595 103.012 21.5393L103.09 20.0152L103.051 20.6203C102.989 20.413 102.894 18.732 102.861 18.379C102.756 17.2897 102.722 16.1947 102.76 15.101C102.727 15.398 102.665 16.1488 102.587 14.7984C102.755 14.7984 102.515 11.9687 102.587 11.9967C102.594 11.4703 102.563 10.944 102.492 10.4222L102.604 10.5063C102.448 10.3886 102.364 8.39939 102.263 6.88088C102.369 7.04898 102.347 6.62873 102.314 6.08521V5.52487V4.9085C102.289 4.53535 102.289 4.16098 102.314 3.78783C102.18 2.87266 102.101 1.95012 102.079 1.02538C101.796 1.41462 101.537 1.82067 101.303 2.2413C100.393 3.54128 100.471 3.21068 100.186 3.50766L99.7453 4.22489C99.6113 4.38179 99.3936 4.66756 99.12 5.03177L98.4723 5.9059C98.0033 6.53908 97.4841 7.2451 97.0933 7.76621L96.4903 8.83085L96.1832 9.16705C96.0994 9.34636 95.5299 10.1813 95.9264 9.69377L95.5411 10.2261C95.6193 10.3494 95.0386 11.005 94.324 12.1144C94.1285 12.3498 94.1509 12.2657 94.324 12.0192C93.961 12.5347 94.0448 12.3105 93.8382 12.5235C93.9666 12.4226 92.6881 14.5575 93.7042 13.2127C93.4819 13.6838 93.2004 14.1244 92.8667 14.5239L92.5429 14.776L92.1967 15.482C91.6384 16.3169 91.3146 16.6027 90.8344 17.2863C91.309 16.5971 91.7222 15.6333 90.4771 17.404C91.1192 16.4626 91.3871 15.9695 91.711 15.4764C91.4486 15.835 91.309 16.0368 91.6719 15.4148C90.7227 16.8156 91.4039 15.9191 90.4492 17.2919C90.4157 17.1574 90.1198 17.5161 89.2488 18.6928L89.9411 17.841C89.914 17.9067 89.8823 17.9704 89.8462 18.0316C89.9552 17.8515 90.095 17.6921 90.2593 17.5609C90.0863 17.8074 89.4051 18.9505 89.1148 19.3203C89.9857 18.3397 87.4398 21.8643 88.1433 21.063C87.8911 21.4896 87.6015 21.8928 87.2779 22.2677C88.0149 21.0742 86.5688 23.0578 86.6414 22.828C86.3678 23.2707 87.3393 21.9763 86.9652 22.5703C86.602 23.0977 86.2126 23.6064 85.7983 24.0944L85.9825 23.803L85.2009 24.8228C85.1227 25.0302 85.9937 23.8591 85.3349 24.8228C85.1339 25.0638 84.4751 26.05 84.4583 25.9939C84.7263 25.4896 84.4081 25.7698 84.9775 24.9349C84.503 25.6241 82.9731 27.8094 83.6766 26.9857L83.1183 27.8038C83.5147 27.3163 84.5923 25.9267 83.4477 27.5741V27.5461L82.7052 28.734L82.3087 29.1991C82.3422 29.1991 82.2362 29.3952 81.9347 29.8154C81.8342 29.9107 81.5382 30.2973 81.5271 30.2413C80.6673 31.474 80.7789 31.4012 80.6952 31.5805C80.215 32.2697 80.014 32.5162 80.1927 32.1408C79.5171 33.071 78.3669 34.7184 77.87 35.3291C77.0214 36.6123 78.071 35.0826 77.6132 35.8558C76.692 36.8364 74.6206 39.9687 73.1912 42.0195C73.6937 41.5769 72.8842 42.507 72.6887 42.9889C72.605 43.0225 71.3153 44.7428 72.4152 43.1066L71.6558 44.2273C71.0584 44.9221 72.8842 42.3781 71.9852 43.4372C71.1198 44.6699 70.6955 45.5777 69.6235 46.9897C69.8748 46.4294 68.8698 48.1104 69.0205 47.6901C69.1992 47.3651 69.4951 46.9729 69.7799 46.5695L69.5789 46.8104C67.6526 49.4832 69.1378 47.6677 68.2054 49.1246C67.0887 50.772 67.2227 50.3629 67.0887 50.4302C66.8877 50.6711 66.3182 51.506 66.0391 51.9543C66.6867 50.9121 67.407 50.1444 67.1557 50.6487C66.4106 51.5604 65.7403 52.531 65.1513 53.5512C66.9212 51.3099 66.3071 51.9319 67.982 49.8194C68.2289 49.2217 68.5722 48.6689 68.9982 48.1832C68.4399 49.0461 69.0931 48.1832 69.2718 47.9423C69.0373 48.1552 69.8971 47.0065 70.1595 46.5919C70.4219 46.1772 69.7296 47.4716 70.7178 46.1492L70.7681 45.8074C71.1533 45.2975 70.7011 46.0932 71.4604 44.9613C71.1031 45.6113 71.6893 44.8548 70.6453 46.3789C71.675 45.0256 72.6222 43.611 73.4816 42.1428C73.3867 42.2885 73.3922 42.3165 73.3029 42.4622C73.4816 42.1428 73.8612 41.5993 74.146 41.1846C74.8271 40.2825 73.6882 41.9523 73.8947 41.745L74.95 40.2489C74.959 40.2357 74.9703 40.2243 74.9835 40.2152C75.1731 39.8978 75.3878 39.5961 75.6255 39.3131C75.5139 39.5092 75.4357 39.6605 75.3687 39.7894L65.4863 53.7978L56.0841 54.2517C56.2404 54.2517 55.6374 54.2517 55.7547 54.1844L53.2924 54.3525C53.0635 54.3525 53.9233 54.2741 53.5604 54.2965C53.2273 54.2993 52.8949 54.3293 52.5666 54.3861C52.3544 54.3525 50.7576 54.4758 50.819 54.3861C49.1775 54.3861 50.1379 54.5542 48.5857 54.571C48.3847 54.515 49.8029 54.4926 49.144 54.459L47.5584 54.5654C47.8399 54.4438 48.1402 54.3718 48.4461 54.3525C44.1526 54.4758 41.8244 54.2517 37.9049 54.5262C37.3466 54.4758 38.3013 54.459 38.6921 54.3861C35.8558 54.6271 34.6889 54.4142 32.2714 54.5374L32.2323 54.6047C28.8488 54.571 24.7954 54.8904 20.982 54.9913H21.4398C20.915 55.0754 20.0719 55.1258 19.4466 55.1818C19.3517 55.1818 19.8932 55.0249 18.7877 55.109C19.0167 55.109 19.4857 55.109 19.3461 55.1594C17.7046 55.1594 15.1586 55.2491 12.3446 55.3611L3.24947 55.7365L0 55.9439L0.491329 56.2296L0.831909 56.2969C1.04043 56.2646 1.25375 56.2886 1.44998 56.3664C1.64622 56.4442 1.8183 56.573 1.94857 56.7395C2.08815 56.9301 2.43989 56.9749 2.69114 57.087L3.09872 57.2719C3.18805 57.2719 3.23272 57.3279 3.29414 57.3671C3.44025 57.399 3.57635 57.4664 3.69055 57.5632C4.5033 57.9227 5.18711 58.5229 5.65028 59.2835C6.02936 59.7399 6.3363 60.252 6.56036 60.802C6.59944 60.9533 6.82835 61.0373 6.99027 61.0765C7.27794 61.1631 7.53162 61.3374 7.71609 61.5752L8.22976 62.0403C8.38609 62.186 8.52009 62.3765 8.78808 62.3037C8.95597 62.3885 9.11028 62.4981 9.24591 62.6287V62.6847C9.24591 62.6847 9.24591 62.7351 9.27383 62.7576C9.13983 62.6791 9.09517 62.7575 9.07842 62.8696L9.17333 62.9761C9.49158 63.1218 9.69816 63.4524 10.0555 63.5364C10.1337 63.5925 10.1783 63.7045 10.3012 63.6933L10.5971 63.8782C11.7919 64.6067 12.8639 65.5032 13.9805 66.3437C14.215 66.4109 14.349 66.6183 14.5389 66.7415C14.5921 66.7838 14.658 66.8068 14.7259 66.8068C14.7938 66.8068 14.8597 66.7838 14.9129 66.7415C15.0324 66.6553 15.1782 66.6137 15.325 66.6239C15.4718 66.6342 15.6105 66.6956 15.7169 66.7976C16.3981 67.3579 17.0848 67.8846 17.7604 68.4338C18.0238 68.6036 18.2657 68.8049 18.4807 69.0333C18.487 69.0629 18.487 69.0934 18.4807 69.123C18.6057 69.2295 18.7382 69.3268 18.8771 69.4143C18.9475 69.5256 19.032 69.6273 19.1283 69.7169C19.3293 69.8962 19.5359 70.0643 19.7537 70.2268C19.751 70.2379 19.751 70.2494 19.7537 70.2604L19.8095 70.3053H19.843C19.843 70.3053 19.843 70.3053 19.843 70.3333C19.8913 70.3988 19.952 70.454 20.0216 70.4958C20.0731 70.5291 20.1297 70.5537 20.1891 70.5686L20.2226 70.5966C20.2617 70.6415 20.3064 70.6919 20.3008 70.7087C20.0719 71.1346 20.4404 71.0057 20.6135 71.0617C20.6135 71.241 20.781 71.213 20.8201 71.1626C20.8282 71.1563 20.8347 71.1482 20.8393 71.139C20.8438 71.1298 20.8461 71.1196 20.8461 71.1094C20.8461 71.0991 20.8438 71.0889 20.8393 71.0797C20.8347 71.0705 20.8282 71.0624 20.8201 71.0561C20.9077 71.1243 20.9916 71.1973 21.0713 71.2747L21.2221 71.3923C21.3772 71.4997 21.5517 71.5758 21.7357 71.6165L21.7915 71.6501L21.9032 71.7229C21.9032 71.7565 21.9646 71.7902 21.9925 71.8294L22.093 71.9078C22.4498 72.0892 22.7835 72.3131 23.0869 72.5746C23.1868 72.6527 23.2658 72.7545 23.3165 72.871C23.3672 72.9875 23.388 73.1148 23.3772 73.2414C23.3781 73.3943 23.3516 73.5462 23.299 73.6897C23.1451 73.829 23.0215 73.9988 22.9361 74.1884C22.8985 74.2281 22.8552 74.2621 22.8077 74.2893C22.724 74.3565 22.6737 74.3845 22.7407 74.5022C22.8077 74.6199 22.791 74.603 22.8189 74.6535C22.8468 74.7039 22.8189 74.7992 22.8189 74.872C22.8344 75.0825 22.8954 75.2871 22.9975 75.4716C22.6737 75.3875 22.6011 75.2586 22.6793 74.9112C22.6793 74.9112 22.6793 74.8832 22.6793 74.8664C22.6767 74.8862 22.6667 74.9042 22.6514 74.9168C22.4001 75.0289 22.6514 75.1914 22.6123 75.3203C22.5118 75.5836 22.6793 75.5836 22.8524 75.5668C22.9169 75.5412 22.9888 75.5412 23.0534 75.5668C23.1005 75.6629 23.1585 75.7532 23.2264 75.8358V75.875C23.2836 75.9879 23.3569 76.0918 23.4442 76.1832L23.6564 76.4522C23.7417 76.5564 23.833 76.6556 23.9299 76.7491C23.9746 76.822 24.0193 76.8948 24.0584 76.9677C24.0822 76.958 24.1033 76.9426 24.1198 76.9228C24.3375 77.1694 24.5553 77.4159 24.7786 77.6569L24.9852 77.8474L25.8227 78.4077L25.8841 78.4469H25.9511C26.1186 78.4974 26.3028 78.5198 26.3978 78.6991C26.5925 78.7333 26.7809 78.7976 26.9561 78.8896C28.2489 79.1657 29.4819 79.6724 30.5964 80.3857L32.383 81.893L32.9414 82.4253L33.6225 83.0753C33.723 83.2266 33.8291 83.3723 33.9352 83.5124C34.3218 83.9816 34.7518 84.4131 35.2193 84.8011C35.1133 85.0309 34.7894 84.958 34.661 85.171C34.6616 85.1803 34.6616 85.1897 34.661 85.199C34.9067 85.1542 35.1021 84.9132 35.3757 84.9412L35.5711 85.1093C35.4315 85.2718 35.2752 85.4231 35.1077 85.5968L35.3924 85.6977C35.3254 85.6024 35.2696 85.5184 35.3924 85.4063L35.5264 85.2718C35.5174 85.2911 35.5128 85.3122 35.5128 85.3335C35.5128 85.3548 35.5174 85.3758 35.5264 85.3951C35.5465 85.4595 35.5879 85.5152 35.6437 85.5529C35.6995 85.5906 35.7665 85.6081 35.8335 85.6024H35.867H35.9061C35.9088 85.6172 35.9088 85.6324 35.9061 85.6473C35.9061 85.6473 35.9061 85.6809 35.9061 85.6977C35.8391 85.8546 35.8558 85.9554 36.0568 85.9947C36.2578 86.0339 36.4477 86.1908 36.6542 86.0731L36.7715 86.174C36.7715 86.174 36.7715 86.174 36.8106 86.2076V86.2468C36.8825 86.3536 36.969 86.4498 37.0674 86.5326L37.1288 86.5998C37.1744 86.6493 37.2229 86.6961 37.274 86.7399L37.3354 86.8016L37.4024 86.8968C37.3994 86.9066 37.3944 86.9157 37.3876 86.9234C37.3809 86.9311 37.3726 86.9373 37.3633 86.9416C37.1847 87.0649 37.2684 87.1153 37.4136 87.1546C37.5587 87.1938 37.3521 87.3731 37.4806 87.4515C37.609 87.53 37.6425 87.3563 37.7262 87.3395L37.8156 87.4571C37.8128 87.4795 37.8128 87.5021 37.8156 87.5244C37.8131 87.5355 37.8131 87.5469 37.8156 87.558V87.586H37.8937C38.4102 88.1619 38.9953 88.6719 39.6357 89.1045L39.7083 89.1494L39.9595 89.3287L40.0433 89.4015L40.1326 89.48C40.6184 89.9114 41.093 90.3597 41.601 90.7631C41.9113 91.0436 42.204 91.3431 42.4776 91.6597C42.5908 91.784 42.6611 91.9415 42.6782 92.109C42.6953 92.2765 42.6583 92.4451 42.5725 92.5898C43.1643 93.1053 43.9739 93.7889 44.5658 94.3044L46.1682 95.6156L46.5422 95.9182L46.5869 95.9518L46.6762 96.0191L46.5757 96.0751L45.9337 96.4057L43.7003 97.5264L43.7953 97.5824L43.0471 97.9802C43.0471 97.9522 42.941 97.9802 43.0471 97.9298C42.4106 98.1315 41.3219 98.8544 40.6854 99.1065C41.0246 98.9857 41.3487 98.8258 41.6513 98.6302C42.2878 98.3501 41.7406 98.7367 40.8864 99.1233L40.328 99.4651C40.2275 99.4315 39.6971 99.6669 39.5966 99.6332C37.1232 100.928 35.4929 101.914 32.8967 103.203C33.12 102.99 31.0654 104.172 31.512 103.763C30.0046 104.603 31.8191 103.763 31.1659 104.189C30.8586 104.378 30.5354 104.539 30.2 104.671C30.3842 104.536 29.8091 104.772 30.1553 104.581L29.1336 105.141C29.0275 105.181 29.2452 105.046 29.3569 104.979C27.3022 106.133 25.6049 106.811 23.7736 107.853C23.6564 107.971 24.5218 107.478 24.4101 107.596C22.5732 108.666 22.696 108.374 20.9708 109.349L21.3058 109.097C20.7585 109.466 20.1792 109.785 19.575 110.05C19.374 110.05 20.3399 109.579 20.7698 109.31C20.1277 109.635 18.5365 110.493 19.0446 110.308C18.7614 110.469 18.4687 110.613 18.168 110.739L17.8498 110.868C17.7381 110.918 17.6934 110.93 17.4478 111.047C17.5185 111.029 17.5862 111.001 17.6488 110.963L17.8609 110.885C17.9949 110.834 18.0731 110.812 17.8609 110.946L17.6711 111.036L17.3249 111.21L16.5712 111.585L14.9241 112.42L11.7249 114.308L12.7857 114.488C12.7075 114.488 12.8136 114.549 12.5456 114.488C13.2971 114.566 14.043 114.691 14.7789 114.863C15.3373 114.986 15.9961 115.143 17.5706 115.395L19.7146 115.743L21.2723 115.989C21.3438 115.884 21.4441 115.803 21.5611 115.754C21.678 115.705 21.8066 115.692 21.9311 115.715L24.5218 116.023C24.8361 116.03 25.1487 116.072 25.4542 116.146C25.4615 116.178 25.4615 116.21 25.4542 116.242C25.617 116.264 25.7812 116.275 25.9455 116.275C26.0631 116.335 26.1893 116.377 26.3196 116.398C26.5819 116.446 26.8465 116.48 27.1124 116.499V116.527H27.185H27.2352C27.3093 116.559 27.3893 116.574 27.4697 116.572C27.5292 116.578 27.589 116.578 27.6484 116.572H27.7433C27.7936 116.572 27.8662 116.606 27.8662 116.628C27.8662 117.11 28.1453 116.808 28.3184 116.763C28.3274 116.786 28.3431 116.806 28.3635 116.82C28.384 116.834 28.4081 116.841 28.4329 116.841C28.4576 116.841 28.4818 116.834 28.5022 116.82C28.5226 116.806 28.5383 116.786 28.5473 116.763C28.5473 116.701 28.5473 116.684 28.4859 116.679L28.8153 116.729H29.0051C29.1948 116.735 29.3839 116.707 29.5635 116.645H29.7589L29.8929 116.69H30.0157C30.4142 116.658 30.815 116.671 31.2105 116.729C31.3366 116.743 31.4571 116.788 31.5614 116.861C31.6657 116.933 31.7504 117.03 31.808 117.144C31.8885 117.275 31.9452 117.419 31.9755 117.57C31.9727 117.609 31.9727 117.648 31.9755 117.687C32.8799 117.743 34.1194 117.951 35.3645 118.136L35.4818 118.309L36.5984 118.444C37.0395 118.567 35.7442 118.332 36.5314 118.522H36.9613C37.0395 118.589 39.792 119.038 37.9216 118.83L41.3274 119.391H41.802L43.8846 119.693L44.6439 119.85L45.5596 120.035L45.8164 120.142C47.2653 120.236 48.708 120.41 50.1379 120.663H49.8866C50.1379 120.663 50.5008 120.735 50.8023 120.78C50.987 120.814 51.1734 120.839 51.3606 120.853C51.0089 120.64 50.8023 120.853 49.9369 120.607C50.0374 120.495 51.0535 120.724 51.0256 120.607C51.7068 120.763 52.1423 120.763 52.7006 120.859C53.7056 121.105 55.1852 121.301 55.9389 121.531C56.6621 121.554 57.3835 121.618 58.0996 121.722L58.3006 121.789C58.3006 121.789 58.3341 121.789 58.3341 121.823V121.851C58.3341 121.851 58.3341 121.879 58.496 121.923L58.6133 121.867L58.7305 121.895C58.697 122.097 58.6803 122.063 58.6524 122.069C58.6479 122.127 58.6479 122.185 58.6524 122.243V122.31C58.6524 122.31 58.6524 122.31 58.6524 122.349V122.433C58.6396 122.789 58.6004 123.143 58.5351 123.492V122.831C58.496 123.268 58.4625 123.576 58.4179 123.924V124.047C58.4179 124.154 58.4179 124.266 58.3788 124.383C58.3947 124.542 58.3796 124.701 58.3341 124.854C58.3891 125.051 58.4135 125.255 58.4067 125.459C58.4284 125.595 58.4778 125.725 58.5519 125.84C58.591 125.896 58.5016 125.891 58.3285 125.84C58.3271 126.24 58.2802 126.639 58.189 127.028V126.372C58.1707 127.074 58.1073 127.774 57.9991 128.468C57.9991 128.39 57.9991 128.423 57.9712 128.39C57.9712 129.309 57.7255 130.474 57.5525 131.808V131.55C57.5134 132.11 57.5525 132.396 57.5022 132.671C57.6362 131.914 57.6306 132.11 57.7088 132.065C57.4687 133.057 57.6641 133.618 57.3906 135.248C57.3476 134.954 57.3685 134.654 57.452 134.368C57.3482 133.815 57.3181 133.249 57.3626 132.687C57.3511 133.098 57.3026 133.507 57.2175 133.909L57.3012 134.094C57.2565 134.469 57.2175 134.766 57.184 135.052C57.2342 135.226 57.3906 134.307 57.3347 135.187C57.251 136.173 57.1505 135.696 57.184 135.853C57.1787 136.481 57.132 137.109 57.0444 137.73C57.0482 137.564 57.0612 137.397 57.0835 137.232C56.9271 138.162 56.8266 139.529 56.6536 139.787C56.6179 139.613 56.6179 139.434 56.6536 139.26C56.6536 138.302 56.5921 139.821 56.514 139.821C56.514 140.039 56.3856 141.104 56.313 141.619L56.4191 141.445C56.4191 143.446 56.2627 141.317 56.0617 143.272C55.9668 144.516 56.1399 142.807 56.1064 143.569C55.9891 144.404 55.8775 144.69 55.7658 145.934C55.7144 146.305 55.611 146.667 55.4587 147.01C55.4029 147.755 55.1405 149.251 55.1796 149.694C55.4141 148.433 55.2354 148.416 55.5425 146.948L55.5816 147.374C55.4532 148.405 55.3359 149.727 55.2187 150.433C55.2522 150.288 55.2857 150.232 55.2912 150.321C55.1517 151.789 55.1907 152.226 54.9897 153.65C54.8837 153.823 54.9897 152.994 55.0623 152.383C54.8837 153.291 54.9395 153.341 54.7385 154.765C54.6547 154.832 54.8613 153.806 54.8111 153.644L54.638 155.224C54.7329 155.471 54.4761 156.429 54.3979 157.398C54.2403 158.699 54.1694 160.01 54.1857 161.321C54.1132 161.657 54.0685 161.758 54.0517 161.606C54.1802 161.046 54.1243 161.147 54.1132 160.951C54.035 161.724 53.7837 162.632 53.7893 162.184C53.6777 163.416 53.9066 161.752 53.8563 162.508L53.6442 164.189C53.7279 163.999 53.8172 163.411 53.7558 164.285C53.6833 165.024 53.633 165.377 53.5102 166.336C53.5102 166.19 53.3762 166.621 53.4655 165.904C53.3743 166.388 53.3276 166.88 53.3259 167.372C53.5102 166.336 53.1696 169.104 53.3594 168.33L53.1752 169.373C53.2087 169.132 53.1752 169.104 53.2254 168.751C53.1357 169.153 53.0963 169.565 53.1082 169.978C53.0468 170.348 52.9239 171.306 52.8737 171.379C52.849 171.814 52.7817 172.245 52.6727 172.667C52.6336 173.166 52.7341 172.718 52.7453 172.863L52.4828 174.931C52.4103 175.088 52.2204 175.43 52.2483 175.038C52.1758 176.013 52.3768 175.273 52.1981 176.719C52.1981 176.388 52.1032 176.887 52.025 177.38C51.9468 177.873 51.8575 178.344 51.8575 177.817C51.6565 178.865 51.2992 181.605 51.1875 182.933C51.3383 182.653 51.3327 182.636 51.2545 182.748C51.3383 182.255 51.4779 181.106 51.556 180.955C51.4946 181.487 51.4499 181.924 51.422 182.272C52.1311 181.056 52.5722 180.221 52.9686 179.47C53.365 178.719 53.7112 178.114 54.2639 177.229L53.9345 177.727L54.6436 176.483C54.772 176.248 54.8669 176.069 55.0679 175.665C54.9897 175.901 55.2242 175.665 55.71 174.965L56.045 174.494L56.3632 174.023C56.5866 173.693 56.8266 173.317 57.0611 172.903C57.0946 172.74 56.4358 173.726 56.5028 173.424L57.1226 172.376C57.1784 172.309 57.1226 172.432 57.05 172.572C57.6083 171.62 58.2336 170.891 58.295 170.577L59.0041 169.714L58.7194 170.051C58.7529 169.894 59.3838 168.84 59.501 168.616C59.8707 167.909 60.3043 167.238 60.7964 166.61C60.6456 166.773 60.2771 167.171 60.7964 166.336C60.9359 166.431 61.913 164.61 61.9912 164.683C62.2094 164.371 62.3964 164.039 62.5495 163.691L62.5998 163.803C62.5272 163.646 63.2921 162.413 63.8504 161.455C63.8895 161.774 64.4757 160.407 64.8833 160.088C64.8833 159.836 65.8716 158.379 65.8771 158.149C66.3182 157.421 66.3796 157.561 66.5304 157.398L66.6979 157.034C66.977 156.698 67.8145 155.353 68.3729 154.546L68.7358 153.728L68.9535 153.476C69.0038 153.341 69.3723 152.703 69.0931 153.067L69.3499 152.663C69.2606 152.563 69.6738 152.069 70.1316 151.223C70.2656 151.044 70.26 151.111 70.1651 151.296C70.4052 150.915 70.3717 151.072 70.5168 150.926C70.4387 150.954 71.198 149.374 70.5168 150.366C70.4275 150.411 70.7848 149.75 71.0752 149.363L71.3264 149.178L71.5163 148.618C71.8848 147.979 72.1137 147.749 72.4375 147.251C72.1248 147.772 71.9238 148.528 72.7446 147.178C72.3258 147.895 72.1862 148.298 71.9629 148.657C72.136 148.377 72.2309 148.248 72.0076 148.707C72.6217 147.637 72.1639 148.315 72.7892 147.267C72.8451 147.385 73.0517 147.11 73.6379 146.22L73.1577 146.858C73.1695 146.807 73.1883 146.758 73.2136 146.713C73.0461 146.965 72.9847 147.032 72.9177 147.066C73.0293 146.881 73.4481 145.995 73.6491 145.721C73.0237 146.449 74.7043 143.776 74.2074 144.376C74.3591 144.052 74.5464 143.745 74.7657 143.463C74.2967 144.376 75.2682 142.869 75.2459 143.054C75.419 142.712 74.7601 143.692 74.9946 143.233C75.2398 142.843 75.5083 142.469 75.7986 142.112L75.687 142.342L76.2174 141.563C76.2509 141.406 75.659 142.292 76.0945 141.563C76.2341 141.384 76.6529 140.627 76.6864 140.672C76.53 141.064 76.7701 140.857 76.396 141.496C76.7143 140.969 77.7193 139.305 77.2224 139.927L77.6076 139.305C77.334 139.669 76.5915 140.723 77.3452 139.467L77.8142 138.554L78.0878 138.207C78.0878 138.207 78.1213 138.055 78.3223 137.736C78.4004 137.669 78.5959 137.372 78.6182 137.417C79.1765 136.481 79.0984 136.526 79.143 136.391C79.4613 135.865 79.5953 135.68 79.5003 135.96C79.9526 135.248 80.7063 133.999 81.0525 133.539C81.6108 132.559 80.9129 133.724 81.1977 133.124C81.8621 132.396 83.1965 130.003 84.1345 128.434C83.7548 128.759 84.3299 128.065 84.4248 127.684C84.4918 127.684 85.3684 126.361 84.6481 127.611L85.145 126.765C85.5694 126.244 84.3578 128.177 84.9887 127.381C85.547 126.445 85.7871 125.739 86.5129 124.669C86.3789 125.1 86.9987 123.806 86.9373 124.148C86.8312 124.394 86.6358 124.708 86.4515 125.011L86.5855 124.832C87.8753 122.798 86.8368 124.165 87.4286 123.05C88.1823 121.795 88.1098 122.114 88.1991 122.069C88.4512 121.697 88.6805 121.309 88.8858 120.909C88.4783 121.705 87.959 122.276 88.1154 121.89C88.6292 121.2 89.069 120.459 89.4274 119.676C88.2158 121.385 88.6625 120.909 87.5068 122.506C87.3868 122.965 87.1676 123.392 86.8647 123.756C87.2053 123.094 86.7865 123.756 86.6581 123.935C86.8368 123.778 86.2561 124.647 86.0998 124.966C85.9435 125.285 86.3399 124.282 85.6922 125.285V125.56C85.4242 125.947 85.6922 125.33 85.2065 126.199C85.4186 125.7 85.0166 126.266 85.6978 125.106C84.9994 126.131 84.3869 127.213 83.8665 128.339C83.9223 128.227 83.9111 128.205 83.967 128.093C83.7978 128.429 83.6115 128.756 83.4086 129.073C82.9452 129.751 83.6878 128.479 83.5371 128.636L82.8447 129.757H82.8168C82.702 130.002 82.5596 130.233 82.3925 130.446C82.4595 130.295 82.5042 130.183 82.5432 130.076L89.0813 119.43L95.0777 119.66C95.3454 119.326 95.7071 119.082 96.1154 118.958C96.5238 118.834 96.9599 118.836 97.3668 118.965C97.8891 119.147 98.4545 119.162 98.986 119.01C99.8682 118.64 100.761 118.774 101.638 118.645C101.991 118.589 102.347 118.561 102.704 118.561C103.023 118.561 103.335 118.561 103.648 118.561H103.81C103.83 118.567 103.851 118.567 103.871 118.561C103.869 118.574 103.869 118.588 103.871 118.601V118.561H104.139C104.114 118.685 104.126 118.814 104.173 118.931H104.218H104.273C104.252 118.906 104.237 118.876 104.229 118.844C104.222 118.811 104.221 118.778 104.228 118.745C104.235 118.713 104.249 118.683 104.27 118.657C104.29 118.631 104.316 118.609 104.346 118.595H104.391C104.452 118.629 104.525 118.685 104.569 118.595C104.648 118.599 104.725 118.579 104.793 118.539H104.932C105.072 118.581 105.22 118.59 105.364 118.565C105.508 118.541 105.645 118.484 105.764 118.399C105.764 118.522 105.943 118.735 105.764 118.735C105.496 118.735 105.379 118.898 105.206 119.038C105.29 118.931 105.295 118.825 105.206 118.757C105.206 118.847 105.206 118.892 105.206 118.926C105.206 118.959 105.105 119.116 105.206 119.172C105.306 119.228 105.267 118.982 105.407 119.049C105.479 118.707 105.703 118.819 105.965 118.931C105.965 118.718 106.015 118.528 105.831 118.399L106.088 118.343C107.83 118.421 109.577 118.343 111.325 118.461H111.498C111.734 118.416 111.977 118.416 112.213 118.461L112.425 118.427H112.637C112.996 118.303 113.379 118.269 113.754 118.326C114.311 118.385 114.872 118.385 115.429 118.326C115.786 118.326 116.11 118.483 116.462 118.449C116.488 118.426 116.52 118.41 116.554 118.404C116.589 118.398 116.625 118.402 116.657 118.416C116.624 118.388 116.702 118.416 116.735 118.388L116.663 118.427C116.677 118.424 116.693 118.424 116.707 118.427C116.674 118.46 116.633 118.484 116.588 118.497C116.543 118.51 116.496 118.511 116.451 118.5L116.11 118.589C117.028 118.688 117.957 118.61 118.846 118.36C118.812 118.203 118.701 118.197 118.606 118.158H118.455H118.416H118.343C118.469 118.082 118.617 118.052 118.762 118.074C119.512 117.998 120.258 117.881 120.995 117.721C122.011 117.245 122.559 117.844 122.637 118.489C122.67 118.757 122.687 119.049 122.737 119.323L123.028 119.985H122.949V120.018C123.072 120.198 123.139 120.416 123.273 120.579C123.355 120.852 123.507 121.099 123.714 121.296C123.731 121.309 123.746 121.324 123.759 121.341L123.826 121.385C124.502 121.419 125.205 121.447 125.948 121.47C126.076 121.369 126.227 121.301 126.387 121.271C126.548 121.241 126.713 121.249 126.869 121.296C127.098 121.363 127.427 121.178 127.667 121.111L128.103 121.004C128.164 120.937 128.242 120.971 128.315 120.96C128.536 120.9 128.771 120.926 128.974 121.032C129.836 120.815 130.743 120.866 131.576 121.178C132.163 121.3 132.729 121.514 133.251 121.811C133.368 121.907 133.602 121.811 133.753 121.761C134.035 121.652 134.343 121.635 134.635 121.71L135.322 121.761C135.534 121.761 135.757 121.845 135.914 121.626C136.099 121.599 136.287 121.599 136.472 121.626L136.517 121.654L136.584 121.699C136.427 121.699 136.433 121.8 136.5 121.907H136.634C136.98 121.828 137.343 121.963 137.678 121.811C137.773 121.811 137.879 121.867 137.968 121.811L138.315 121.778C139.703 121.657 141.097 121.607 142.491 121.626C142.719 121.585 142.952 121.573 143.183 121.593C143.251 121.596 143.318 121.577 143.372 121.537C143.427 121.497 143.467 121.44 143.485 121.374C143.526 121.232 143.615 121.108 143.738 121.025C143.86 120.943 144.008 120.905 144.155 120.92C145.026 120.92 145.891 120.92 146.762 120.92C147.074 120.884 147.389 120.884 147.7 120.92C147.719 120.947 147.732 120.978 147.739 121.01C147.903 121.021 148.067 121.021 148.231 121.01C148.354 121.057 148.484 121.085 148.616 121.094C148.882 121.108 149.148 121.108 149.414 121.094H149.442H149.565H149.593C149.672 121.108 149.753 121.108 149.833 121.094C149.893 121.088 149.951 121.073 150.006 121.049H150.101C150.157 121.049 150.224 121.049 150.229 121.094C150.308 121.57 150.525 121.24 150.698 121.178C150.71 121.202 150.729 121.222 150.753 121.234C150.777 121.245 150.804 121.249 150.83 121.243C150.856 121.237 150.879 121.222 150.896 121.201C150.913 121.18 150.922 121.154 150.922 121.128C150.922 121.066 150.888 121.055 150.844 121.049H151.179C151.246 121.049 151.307 121.049 151.374 121.049C151.568 121.037 151.757 120.987 151.932 120.904H151.999H152.128L152.267 120.937H152.424C152.816 120.867 153.215 120.839 153.613 120.853C153.739 120.853 153.864 120.885 153.975 120.946C154.086 121.006 154.18 121.094 154.249 121.201C154.344 121.321 154.415 121.458 154.461 121.604C154.426 121.809 154.435 122.019 154.489 122.22C154.489 122.271 154.461 122.321 154.45 122.377C154.439 122.433 154.394 122.534 154.517 122.585L154.674 122.652C154.712 122.716 154.757 122.776 154.808 122.831C154.848 122.875 154.891 122.916 154.936 122.954C156.672 123.055 158.738 123.151 160.96 123.246C162.053 122.769 163.214 122.467 164.4 122.349L166.505 122.422L167.275 122.501L168.208 122.59C168.381 122.646 168.548 122.697 168.721 122.736C169.313 122.872 169.917 122.947 170.525 122.96C170.58 123.212 170.285 123.352 170.329 123.588C170.497 123.397 170.497 123.083 170.731 122.943H170.994C170.994 123.162 170.949 123.38 170.921 123.616L171.206 123.52C171.1 123.487 170.999 123.453 171.033 123.285C171.033 123.223 171.033 123.162 171.033 123.1C171.035 123.12 171.042 123.14 171.053 123.157C171.063 123.174 171.077 123.189 171.094 123.201C171.147 123.244 171.213 123.268 171.281 123.268C171.349 123.268 171.415 123.244 171.468 123.201H171.502C171.515 123.198 171.528 123.198 171.541 123.201H171.569C171.569 123.201 171.597 123.201 171.608 123.235C171.652 123.397 171.725 123.47 171.904 123.375C172.082 123.279 172.334 123.285 172.423 123.066H172.574H172.629H172.669C172.79 123.106 172.915 123.129 173.043 123.134H173.132H173.16H173.361H173.417H173.5L173.612 123.173C173.618 123.191 173.618 123.211 173.612 123.229C173.545 123.436 173.64 123.431 173.774 123.369C173.908 123.307 173.863 123.582 174.014 123.56C174.165 123.537 174.087 123.386 174.137 123.319L174.282 123.358L174.321 123.408H174.355H174.388H174.422L174.489 123.375C175.25 123.504 176.024 123.543 176.795 123.492H176.99H177.303H177.526C178.001 123.492 178.481 123.56 178.955 123.582L170.29 118.124L164.182 114.168ZM75.8098 39.1282L76.0666 38.7135C76.0666 38.7472 76.0666 38.7136 76.128 38.6799L75.8098 39.1282ZM82.2306 131.118C82.2306 131.118 82.2306 131.118 82.1859 131.118L82.3925 130.777L82.2306 131.118Z" fill="#13b4f3" fill-opacity="0.6"/>
</g>
<defs>
<clipPath id="clip0_99_521">
<rect width="179" height="183" fill="white"/>
</clipPath>
</defs>
</svg>
