<svg width="947" height="489" viewBox="0 0 947 489" fill="none" xmlns="http://www.w3.org/2000/svg">
<g clip-path="url(#clip0_84_553)">
<path d="M946.758 352.683C946.913 347.334 945.789 342.179 943.939 337.344C941.682 331.414 940.675 325.28 940.074 319.088C941.953 319.04 943.833 319.02 945.712 319.108C946.283 319.137 947.242 319.214 946.942 318.177C946.264 315.842 946.797 313.332 946.003 311.026C945.867 308.265 946.157 305.445 945.131 302.751C944.249 303.294 944.84 304.272 944.21 304.951C943.465 303.749 943.31 302.441 943.348 301.356C943.455 298.042 941.208 294.573 944.085 291.385C944.269 291.181 944.191 290.677 944.133 290.338C943.155 284.65 943.561 278.856 943.271 273.119C943.281 272.858 943.29 272.596 943.3 272.334C943.561 272.17 943.871 273.236 944.085 272.286C944.336 271.143 944.627 269.999 944.491 268.817C945.237 269.379 944.937 270.232 944.966 270.958C945.063 273.352 945.111 275.755 945.179 278.371C945.857 277.761 945.964 277.305 945.886 276.801C945.877 276.239 946.584 275.668 945.906 275.125C944.685 270.164 945.625 265.086 945.722 260.077C945.78 256.782 945.799 253.497 945.673 250.222C945.906 250.106 946.138 249.999 946.4 249.912C946.128 249.776 945.896 249.621 945.644 249.476C945.586 248.187 945.508 246.908 945.402 245.619C945.169 242.945 943.891 240.406 944.801 237.577C944.985 237.015 944.918 236.288 944.453 235.765C944.588 233.332 943.532 231.249 942.719 229.098C942.012 227.228 941.401 225.338 940.907 223.42C941.101 222.567 941.305 221.705 941.498 220.852C942.186 219.03 942.573 217.16 942.641 215.222L942.699 215.038L942.68 214.844C943.203 214.156 943.019 213.4 942.971 212.654C942.99 212.112 943 211.559 943.019 211.017C943.426 210.222 943.416 209.447 942.951 208.701C942.728 203.342 940.365 198.594 939.009 193.555C939.222 189.369 939.377 185.174 939.154 180.988C939.357 179.864 939.416 178.739 939.416 177.606C939.396 176.743 939.348 175.891 939.338 175.038C939.338 174.97 939.328 174.902 939.328 174.834C939.27 173.594 939.203 172.363 939.241 171.123C940.249 173.129 939.59 175.348 939.881 177.441C940.036 178.565 939.454 179.815 940.346 180.823C941.169 177.838 941.13 174.834 940.985 171.801C940.83 168.565 940.81 165.319 940.733 162.073C940.84 162.063 940.956 162.063 941.062 162.073C941.237 162.615 940.917 163.294 941.547 163.865C942.399 157.751 942.157 151.763 941.924 145.774C941.905 145.077 941.886 144.369 941.866 143.662C941.76 143.672 941.644 143.681 941.537 143.691C941.556 144.389 941.576 145.086 941.595 145.784C941.179 148.643 941.44 151.569 940.549 154.379C940.365 154.67 940.258 154.97 940.191 155.27C939.977 156.23 940.239 157.208 940.229 158.177C940.181 158.371 940.19 158.575 940.171 158.769C940.161 159.03 940.113 159.282 939.842 159.476C939.832 157.78 939.309 156.075 940.026 154.379C939.803 151.986 939.997 149.563 939.561 147.179C939.212 145.251 938.776 143.236 938.98 141.298C939.328 137.935 939.125 134.66 938.708 131.365C938.65 130.91 938.36 130.115 938.834 130.028C940.413 129.747 939.609 128.817 939.503 128.119C938.815 123.536 937.207 119.098 937.72 114.331C937.953 113.168 938.176 112.015 938.408 110.862C938.553 110.435 938.708 110.009 938.854 109.583C939.571 108.284 939.086 106.986 938.815 105.639C938.592 106.259 938.369 106.869 938.069 107.683C937.837 106.84 937.672 106.259 937.507 105.677C937.546 105.6 937.546 105.522 937.498 105.455C937.992 98.9817 938.486 92.5186 938.98 86.0457C938.989 85.755 938.999 85.4546 939.009 85.1639C939.067 85.0379 939.086 84.9217 939.038 84.7957C939.542 84.1077 939.377 83.3519 939.309 82.6058C939.532 80.755 939.871 78.8945 939.58 77.034C939.58 76.036 939.59 75.0282 939.59 74.0302C939.735 73.3713 939.464 71.8693 940.113 72.2666C941.043 72.8286 940.927 72.6542 940.752 71.9275C939.881 68.4682 940.781 64.8538 939.793 61.317C939.115 58.8848 938.951 56.2976 938.893 53.7007C938.902 53.3422 938.893 52.9837 938.863 52.6155C938.854 51.7918 938.854 50.9585 938.844 50.1348C938.786 50.2802 938.767 50.4255 938.728 50.5709C938.728 50.5612 938.728 50.5515 938.728 50.5418C938.728 50.3965 938.776 50.2705 938.844 50.1348C938.854 49.2724 938.854 48.41 938.863 47.5476C939.193 45.2414 939.27 42.9546 938.96 40.6775C938.989 40.3771 938.893 40.0573 938.796 39.7375C938.747 39.4662 938.718 39.1949 938.65 38.9236C938.631 38.662 938.612 38.41 938.592 38.1581C938.641 35.8228 938.195 33.5844 937.488 31.3945C936.529 29.7763 937.779 27.974 937.159 26.2492C936.326 23.9333 935.58 21.5883 934.524 19.379C931.008 12.0631 925.942 6.49143 917.669 4.60189C916.584 3.9236 915.402 4.52437 914.269 4.44685C914.589 4.92166 915.093 4.82476 915.557 4.80538C915.858 4.79569 916.013 4.86352 916.071 4.98949C916.139 5.12515 916.09 5.32864 915.984 5.57088C912.206 6.37515 908.699 8.21623 904.457 8.98174C905.735 7.91584 907.14 7.7705 907.895 6.69491C907.905 6.63678 907.915 6.57864 907.924 6.51081C907.963 6.51081 907.992 6.51081 908.031 6.51081C908.167 6.27825 908.467 5.96817 908.399 5.8422C908.215 5.46429 907.789 5.69685 907.469 5.67747C907.314 5.95848 907.159 6.23949 907.014 6.5205C902.965 7.33445 898.896 6.93716 894.838 7.08251C891.825 7.1891 888.803 6.93716 885.79 6.84026C881.984 5.94879 878.119 6.50112 874.273 6.71429C873.585 6.73367 872.907 6.74336 872.22 6.76274C871.716 6.4236 871.144 6.50112 870.582 6.53019C866.34 6.75305 862.116 6.64647 857.903 6.38484C853.98 6.14259 850.047 5.97786 846.124 5.78406C845.019 5.67747 843.915 5.57088 842.811 5.4546C842.23 5.39647 842.23 5.37709 841.745 3.13871C843.024 3.31313 844.322 3.49724 845.61 3.67166C851.112 4.65034 856.721 4.75693 862.291 5.24143C862.823 5.82282 863.395 5.59026 864.015 5.28019C863.104 5.54181 862.853 4.62127 862.223 4.41778C856.692 3.99143 851.161 3.55538 845.62 3.12902C845.252 2.66391 844.729 2.47011 844.167 2.40228C841.561 2.08251 839.12 1.19104 836.263 1.87902C833.657 2.49918 830.819 2.01468 828.087 2.02437C825.859 1.49143 823.583 1.8984 821.336 1.91778C820.135 1.29763 818.711 2.11158 816.919 1.39453C819.611 1.23949 821.713 1.12321 823.806 1.00693C824.493 1.54957 825.191 1.44298 826.247 0.987551C825.21 0.822822 824.484 0.706543 823.757 0.590264C821.365 0.842202 818.904 0.367396 816.57 1.35577C812.647 1.78212 808.782 2.79957 804.82 2.89647C802.892 2.94492 800.955 2.94491 799.115 3.64259C798.698 3.69104 798.272 3.73949 797.855 3.77825C792.092 3.56507 786.474 4.77631 780.855 6.02631C779.974 5.99724 779.102 6.02631 778.298 6.51081C777.659 6.55926 777.019 6.56895 776.39 6.67553C768.515 8.09026 760.639 9.52437 752.754 10.9294C752.474 10.9779 752.076 11.2007 751.854 10.7744C752.144 10.2608 752.842 10.1251 752.938 9.40809C751.418 9.77631 749.926 10.1251 748.434 10.4934C742.302 11.9953 736.219 13.817 729.836 13.1484C728.867 13.0418 727.947 13.129 727.744 11.9469C727.53 10.7065 728.586 10.5903 729.352 10.3577C730.204 10.1058 731.105 10.0089 731.986 9.85383C728.722 9.26274 725.438 9.10771 722.125 9.2143C721.418 8.70073 720.682 8.90422 719.859 9.03988C720.12 9.58251 720.498 9.66003 720.895 9.71817C721.631 9.97011 722.397 10.1833 722.968 11.3945C719.297 10.6969 716.013 10.067 712.729 9.43716C712.439 9.42747 712.158 9.41778 711.867 9.41778C711.383 8.9236 710.753 9.07864 710.153 9.08833C709.668 8.59414 709.039 8.7298 708.438 8.76856C708.089 8.36158 707.634 8.37127 707.159 8.44879C705.251 9.34026 703.324 10.1058 701.154 9.82476C700.234 9.70848 699.72 9.38871 699.875 8.38096C699.507 7.62515 699.507 7.65422 698.364 7.66391C694.17 7.73174 689.995 8.74918 685.975 6.2298C684.173 5.09608 681.325 5.59995 678.952 5.3674C678.526 5.35771 678.109 5.34802 677.683 5.33833C677.16 4.91197 676.55 5.00887 675.94 5.10577C675.029 4.98949 674.128 4.75693 673.218 4.786C666.737 4.99918 660.247 5.2705 653.796 6.25887C651.674 6.23949 649.543 6.23949 647.422 6.18135C647.015 6.17166 646.056 6.37515 646.347 5.69685C647.383 3.27437 645.281 3.72011 644.313 3.44879C640.932 2.51856 637.784 4.19491 634.549 4.85383C632.437 5.21236 630.315 5.57088 628.204 5.9391C624.552 5.56119 620.881 5.52243 617.2 5.72592C616.851 5.56119 616.512 5.39647 615.989 5.14453C619.031 4.61158 621.878 4.10771 624.736 3.60383C627.332 3.55538 629.889 3.21623 632.795 2.53794C630.364 1.79181 628.252 1.58833 626.073 1.78212C625.453 1.21042 624.562 1.68523 623.738 1.25887C624.436 1.16197 624.969 1.08445 625.511 1.00693C626.635 1.28794 627.758 1.47205 629.231 0.977861C627.758 0.977861 626.693 0.338326 625.492 0.667783C624.436 0.609644 623.38 0.541814 622.324 0.503055C618.662 0.377086 614.923 -0.291519 611.349 0.289876C607.126 0.977861 602.922 1.3267 598.698 1.69492C597.933 1.76274 596.993 1.49143 596.277 2.64453C603.454 2.23755 610.419 1.84995 617.384 1.46236C615.679 2.59608 613.713 2.50887 611.93 3.13871C604.685 3.74918 597.439 4.86352 590.048 4.17553C590.726 2.89647 592.189 3.13871 592.906 1.96623C589.167 2.17941 585.631 2.37321 582.105 2.5767C582.086 2.46042 582.076 2.34414 582.086 2.22786C582.473 2.16003 582.861 2.0922 583.258 2.03406C572.864 2.99336 562.49 3.70073 552.106 2.30538C552.755 2.94491 553.452 3.23561 554.111 3.59414C555.099 4.13678 556.387 4.77631 556.097 6.00693C555.806 7.23755 554.372 6.41391 553.491 6.7046C553.287 6.77243 553.065 6.76274 552.861 6.79181C549.946 6.29763 546.904 6.45267 544.056 6.72398C540.288 7.08251 536.539 7.10189 532.752 7.40228C534.079 6.65615 535.445 6.12321 536.811 5.58057C537.179 5.43522 537.74 5.31895 537.595 4.76662C537.469 4.29181 536.936 4.34995 536.52 4.31119C535.987 3.70073 535.396 3.99143 534.505 4.16585C535.164 4.52437 535.755 4.25305 536.026 4.74724C534.486 4.93135 532.878 5.96817 531.444 5.37709C529.342 4.51468 527.444 5.39646 525.438 5.58057C521.796 5.91972 518.212 7.19879 514.522 6.50112C510.841 5.81313 507.218 4.90228 503.43 4.72786C499.875 4.56313 496.388 4.62127 493.085 6.35577C491.845 6.60771 490.673 7.06313 489.52 7.58639C489.327 7.26662 488.93 7.47011 488.61 7.45073C488.474 7.70267 488.339 7.94492 488.203 8.19685C488.087 8.25499 487.971 8.29375 487.864 8.35189C483.912 9.08833 479.931 8.72011 475.969 8.87515C474.099 8.94298 472.22 8.86546 470.351 8.77825C467.609 8.09026 464.839 7.50887 461.991 7.32476C461.855 7.26662 461.72 7.25693 461.574 7.286C461.071 6.81119 460.47 6.94685 459.87 7.02437C456.886 6.59802 453.912 6.12321 450.919 5.77437C449.612 5.61933 448.43 4.74724 447.025 5.20267C445.039 5.31895 443.044 5.42553 441.058 5.54181C441.049 5.34802 441.049 5.15422 441.039 4.96042C442.366 4.8829 443.693 4.81507 445.02 4.73755C445.01 4.55344 444.991 4.36933 444.981 4.18523C442.802 3.71042 440.651 4.95073 438.472 4.786C435.857 4.93135 433.251 5.0767 430.635 5.22205C429.337 5.12515 428.039 5.01856 426.741 4.92166C426.373 4.45654 425.85 4.26274 425.288 4.19491C422.683 3.87515 420.242 2.98367 417.384 3.67166C414.778 4.29181 411.94 3.80732 409.209 3.81701C406.981 3.28406 404.704 3.69104 402.457 3.71042C401.256 3.09026 399.832 3.90422 398.04 3.18716C400.733 3.03212 402.835 2.91585 404.927 2.79957C405.615 3.3422 406.312 3.23561 407.368 2.78019C406.332 2.61546 405.605 2.49918 404.879 2.3829C402.486 2.63484 400.026 2.16003 397.691 3.1484C393.768 3.57476 389.903 4.5922 385.941 4.6891C384.052 4.72786 382.115 4.72786 380.275 5.42553C379.858 5.47398 379.432 5.52243 379.015 5.56119C373.252 5.34802 367.634 6.55926 362.015 7.80926C361.134 7.78019 360.262 7.80926 359.458 8.29375C358.819 8.3422 358.18 8.35189 357.55 8.45848C349.675 9.87321 341.799 11.3073 333.915 12.7124C333.634 12.7608 333.236 12.9837 333.014 12.5573C333.304 12.0438 334.002 11.9081 334.099 11.191C332.578 11.5593 331.086 11.9081 329.594 12.2763C323.463 13.7782 317.379 15.6 310.996 14.9313C310.027 14.8248 309.107 14.912 308.904 13.7298C308.691 12.4895 309.746 12.3732 310.512 12.1407C311.364 11.8887 312.265 11.7918 313.146 11.6368C309.882 11.0457 306.598 10.8907 303.285 10.9972C302.578 10.4837 301.842 10.6872 301.019 10.8228C301.28 11.3655 301.658 11.443 302.055 11.5011C302.791 11.7531 303.557 11.9662 304.128 13.1775C300.457 12.4798 297.173 11.85 293.889 11.2201C293.599 11.2104 293.318 11.2007 293.027 11.2007C292.543 10.7065 291.913 10.8616 291.313 10.8713C290.828 10.3771 290.199 10.5127 289.598 10.5515C289.249 10.1445 288.794 10.1542 288.32 10.2317C286.411 11.1232 284.484 11.8887 282.314 11.6077C281.394 11.4914 280.88 11.1717 281.035 10.1639C280.667 9.40809 280.667 9.43716 279.524 9.44685C275.33 9.51468 271.155 10.5321 267.135 8.01274C265.333 6.87902 262.485 7.3829 260.112 7.15034C259.686 7.14065 259.269 7.13096 258.843 7.12127C258.32 6.69491 257.71 6.79181 257.1 6.88871C256.189 6.77243 255.288 6.53988 254.378 6.56895C247.897 6.78212 241.407 7.05344 234.956 8.04181C232.835 8.02243 230.704 8.02243 228.582 7.96429C228.175 7.95461 227.216 8.15809 227.507 7.4798C228.543 5.05732 226.441 5.50305 225.473 5.23174C222.092 4.3015 218.944 5.97786 215.709 6.63678C213.597 6.9953 211.476 7.35383 209.364 7.72205C205.712 7.34414 202.041 7.30538 198.36 7.50887C198.011 7.34414 197.672 7.17941 197.149 6.92747C200.191 6.39453 203.039 5.89065 205.896 5.38678C208.492 5.33833 211.049 4.99918 213.955 4.32088C211.534 3.57476 209.412 3.37127 207.233 3.56507C206.613 2.99336 205.722 3.46817 204.898 3.04181C205.596 2.94491 206.129 2.8674 206.671 2.78988C207.795 3.07088 208.918 3.25499 210.391 2.76081C208.918 2.76081 207.853 2.12127 206.652 2.45073C205.596 2.39259 204.54 2.32476 203.484 2.286C199.823 2.16003 196.084 1.49143 192.509 2.07282C188.286 2.76081 184.082 3.10964 179.858 3.47786C179.093 3.54569 178.154 3.27437 177.437 4.42747C184.615 4.0205 191.579 3.6329 198.544 3.2453C196.839 4.37902 194.873 4.29181 193.09 4.92166C185.884 5.42553 178.648 6.53988 171.247 5.85189C171.925 4.57282 173.388 4.81507 174.105 3.64259C170.366 3.85577 166.83 4.04957 163.304 4.25305C163.285 4.13678 163.275 4.0205 163.285 3.90422C163.672 3.83639 164.06 3.76856 164.457 3.71042C154.063 4.66972 143.689 5.37709 133.305 3.98174C133.954 4.62127 134.651 4.91197 135.31 5.2705C136.298 5.81313 137.586 6.45267 137.295 7.68329C137.005 8.91391 135.571 8.09026 134.69 8.38096C134.486 8.44879 134.264 8.4391 134.06 8.46817C131.144 7.97398 128.103 8.12902 125.255 8.40034C121.487 8.75887 117.738 8.77825 113.951 9.07864C115.278 8.33251 116.644 7.79957 118.009 7.25693C118.378 7.11158 118.939 6.9953 118.794 6.44298C118.668 5.96817 118.135 6.02631 117.719 5.98755C117.186 5.37709 116.595 5.66778 115.704 5.8422C116.363 6.20073 116.954 5.92941 117.225 6.4236C115.685 6.60771 114.077 7.64453 112.643 7.05344C110.541 6.19104 108.642 7.07282 106.637 7.25693C102.995 7.59608 99.4111 8.87515 95.7205 8.17747C92.0396 7.48949 88.4168 6.57864 84.6293 6.40422C81.0743 6.23949 77.5871 6.29763 74.284 8.03212C72.676 8.36158 71.1746 9.0205 69.7022 9.73755C64.8299 12.131 59.8703 12.6445 54.6976 11.2686C50.9295 10.2608 47.1421 9.24336 43.1996 8.99143C43.064 8.93329 42.9284 8.9236 42.7831 8.95267C42.2794 8.47786 41.6788 8.61352 41.0783 8.69104C38.0948 8.26468 35.121 7.78988 32.1278 7.44104C30.8201 7.286 29.6384 6.41391 28.2338 6.86933C26.248 6.98561 24.2526 7.0922 22.2668 7.20848C22.2571 7.01468 22.2571 6.82088 22.2475 6.62709C23.5745 6.54957 24.9016 6.48174 26.2287 6.40422C26.219 6.22011 26.1996 6.036 26.1899 5.85189C24.0104 5.37709 21.86 6.61739 19.6805 6.45267C15.7477 6.63678 11.815 6.85964 7.8822 7.07282C10.1876 8.11933 12.5802 7.56701 14.9244 7.55732C18.2178 8.0515 21.5307 7.30538 24.8338 7.32476C25.7637 7.33445 26.8002 6.78212 27.6429 7.58639C25.6572 8.22592 23.6326 8.41972 21.5888 8.36158C19.2737 8.29375 16.9586 8.10964 14.6338 8.4391C11.3113 8.45848 7.97907 8.48755 4.65656 8.49724C3.20356 8.49724 2.87422 9.12709 3.52322 10.3674V10.5418L3.59103 10.7065C3.62009 11.2782 3.65883 11.8403 3.68789 12.412C3.71695 14.66 3.74601 16.9081 3.78476 19.1562C3.05826 21.8112 3.58134 24.4953 3.43604 27.16C3.15513 32.2279 2.71923 37.3248 3.24231 42.3829C3.08732 47.7317 4.21097 52.8868 6.06112 57.722C8.3181 63.6523 9.32551 69.786 9.92608 75.9779C8.04687 76.0263 6.16767 76.0457 4.28846 75.9585C3.71695 75.9294 2.75798 75.8519 3.05826 76.8887C3.73633 79.224 3.20356 81.7337 3.99786 84.0399C4.13348 86.8015 3.84288 89.6213 4.86966 92.3151C5.75114 91.7724 5.16026 90.7937 5.78989 90.1154C6.53576 91.317 6.69075 92.6251 6.652 93.7104C6.54545 97.0244 8.79274 100.493 5.91582 103.681C5.73177 103.885 5.80926 104.389 5.86738 104.728C6.84573 110.416 6.43889 116.21 6.72949 121.947C6.71981 122.208 6.71012 122.47 6.70043 122.732C6.43889 122.896 6.12892 121.831 5.9255 122.78C5.67365 123.924 5.38305 125.067 5.51866 126.249C4.77279 125.687 5.07308 124.834 5.04402 124.108C4.94715 121.714 4.89872 119.311 4.83091 116.695C4.15285 117.305 4.0463 117.761 4.12379 118.265C4.13348 118.827 3.42635 119.398 4.10442 119.941C5.32493 124.902 4.38533 129.98 4.28846 134.989C4.23034 138.284 4.21097 141.569 4.3369 144.844C4.10442 144.96 3.87194 145.067 3.6104 145.154C3.88163 145.29 4.1141 145.445 4.36596 145.59C4.42408 146.879 4.50157 148.158 4.60812 149.447C4.8406 152.121 6.11924 154.66 5.20869 157.489C5.02465 158.051 5.09245 158.778 5.55741 159.301C5.4218 161.734 6.47764 163.817 7.29132 165.968C7.99844 167.838 8.6087 169.728 9.10272 171.646C8.90898 172.499 8.70556 173.362 8.51183 174.214C7.82408 176.036 7.43662 177.906 7.36881 179.844L7.31069 180.028L7.33006 180.212C6.80699 180.9 6.99103 181.656 7.04915 182.402C7.02978 182.945 7.02009 183.497 7.00072 184.04C6.59388 184.834 6.60357 185.61 7.06852 186.356C7.29132 191.714 9.65485 196.462 11.011 201.501C10.7979 205.687 10.6429 209.883 10.8657 214.069C10.6623 215.193 10.6041 216.317 10.6041 217.451C10.6235 218.313 10.6719 219.166 10.6816 220.019C10.6816 220.086 10.6913 220.154 10.6913 220.222C10.7494 221.462 10.8172 222.693 10.7785 223.933C9.77109 221.927 10.4298 219.708 10.1392 217.615C9.9842 216.491 10.5654 215.241 9.67423 214.234C8.85086 217.218 8.88961 220.222 9.03491 223.255C9.18989 226.491 9.20927 229.738 9.28676 232.984C9.18021 232.993 9.06397 232.993 8.95742 232.984C8.78306 232.441 9.10272 231.763 8.47308 231.191C7.62066 237.305 7.86283 243.294 8.09531 249.282C8.11468 249.98 8.13405 250.687 8.15343 251.385C8.25998 251.375 8.37622 251.365 8.48277 251.356C8.4634 250.658 8.44402 249.96 8.42465 249.263C8.84118 246.404 8.57964 243.478 9.47081 240.668C9.65485 240.377 9.76141 240.077 9.82921 239.776C10.0423 238.817 9.78078 237.838 9.79047 236.869C9.8389 236.676 9.82921 236.472 9.8389 236.278C9.84858 236.017 9.89702 235.765 10.1682 235.571C10.1779 237.276 10.701 238.972 9.9842 240.668C10.207 243.061 10.0133 245.484 10.4492 247.867C10.7979 249.796 11.2338 251.811 11.0304 253.749C10.6816 257.112 10.8851 260.387 11.3016 263.681C11.3597 264.137 11.6503 264.931 11.1757 265.019C9.59673 265.3 10.4007 266.23 10.5073 266.927C11.195 271.511 12.803 275.949 12.2896 280.716C12.0571 281.879 11.8343 283.032 11.6019 284.185C11.4566 284.612 11.3016 285.038 11.1563 285.464C10.4395 286.763 10.9238 288.061 11.195 289.408C11.4178 288.788 11.6406 288.177 11.9409 287.363C12.1734 288.207 12.338 288.788 12.5027 289.369C12.464 289.447 12.464 289.524 12.5124 289.592C12.0184 296.065 11.5244 302.528 11.0304 309.001C11.0207 309.292 11.011 309.592 11.0013 309.883C10.9432 310.009 10.9238 310.125 10.9722 310.251C10.4685 310.939 10.6332 311.695 10.701 312.441C10.4782 314.292 10.1392 316.152 10.4298 318.013C10.4298 319.011 10.4201 320.019 10.4201 321.017C10.2748 321.676 10.546 323.177 9.89702 322.78C8.9671 322.218 9.08334 322.393 9.2577 323.119C10.1295 326.579 9.22864 330.193 10.2167 333.73C10.8947 336.162 11.0594 338.749 11.1175 341.346C11.1078 341.705 11.1175 342.063 11.1466 342.431C11.1563 343.255 11.1563 344.088 11.166 344.912C11.2241 344.767 11.2435 344.621 11.2822 344.476C11.2822 344.486 11.2822 344.495 11.2822 344.505C11.2822 344.65 11.2338 344.776 11.166 344.912C11.1563 345.774 11.1563 346.637 11.1466 347.499C10.8172 349.805 10.7398 352.092 11.0497 354.369C11.0207 354.67 11.1175 354.99 11.2144 355.309C11.2628 355.581 11.2919 355.852 11.3597 356.123C11.3791 356.375 11.3984 356.637 11.4178 356.889C11.3694 359.224 11.815 361.462 12.5221 363.652C13.4811 365.27 12.2315 367.073 12.8611 368.798C13.6942 371.113 14.44 373.458 15.4959 375.668C19.0121 382.984 24.0782 388.555 32.3506 390.445C33.4355 391.123 34.6173 390.522 35.7506 390.6C35.431 390.125 34.9272 390.222 34.4623 390.241C34.162 390.251 34.007 390.183 33.9489 390.057C33.8811 389.922 33.9295 389.718 34.0361 389.476C37.8139 388.672 41.3204 386.831 45.5632 386.065C44.2845 387.131 42.88 387.276 42.1244 388.352C42.1147 388.41 42.105 388.468 42.0953 388.536C42.0566 388.536 42.0275 388.536 41.9888 388.536C41.8532 388.769 41.5529 389.079 41.6207 389.205C41.8047 389.582 42.231 389.35 42.5506 389.369C42.7056 389.088 42.8606 388.807 43.0059 388.526C47.0549 387.712 51.1233 388.11 55.182 387.964C58.1945 387.858 61.2167 388.11 64.2293 388.207C68.0361 389.098 71.9011 388.546 75.7467 388.332C76.4344 388.313 77.1125 388.303 77.8002 388.284C78.3039 388.623 78.8755 388.546 79.4373 388.517C83.68 388.294 87.9034 388.4 92.1171 388.662C96.0402 388.904 99.9729 389.069 103.896 389.263C105 389.369 106.105 389.476 107.209 389.592C107.79 389.66 107.79 389.67 108.274 391.908C106.996 391.734 105.698 391.55 104.409 391.375C98.9074 390.396 93.2988 390.29 87.729 389.805C87.1963 389.224 86.6248 389.457 86.0048 389.767C86.9154 389.505 87.1672 390.426 87.7968 390.629C93.3279 391.055 98.859 391.491 104.4 391.918C104.768 392.383 105.291 392.577 105.853 392.645C108.458 392.964 110.899 393.856 113.757 393.168C116.363 392.548 119.201 393.032 121.932 393.022C124.16 393.555 126.437 393.148 128.684 393.129C129.885 393.749 131.309 392.935 133.101 393.652C130.408 393.807 128.306 393.924 126.214 394.04C125.526 393.497 124.829 393.604 123.773 394.059C124.809 394.224 125.536 394.34 126.262 394.457C128.655 394.205 131.115 394.679 133.45 393.691C137.373 393.265 141.238 392.247 145.209 392.15C147.098 392.112 149.036 392.112 150.876 391.414C151.293 391.365 151.719 391.317 152.135 391.278C157.899 391.491 163.517 390.28 169.135 389.03C170.017 389.059 170.889 389.03 171.693 388.546C172.332 388.497 172.971 388.488 173.601 388.381C181.476 386.966 189.351 385.532 197.236 384.127C197.517 384.079 197.914 383.856 198.137 384.282C197.847 384.796 197.149 384.931 197.052 385.648C198.573 385.28 200.065 384.931 201.557 384.563C207.688 383.061 213.771 381.239 220.155 381.908C221.123 382.015 222.044 381.927 222.247 383.11C222.46 384.35 221.404 384.466 220.639 384.699C219.787 384.951 218.886 385.048 218.004 385.203C221.269 385.794 224.553 385.949 227.865 385.842C228.573 386.356 229.309 386.152 230.132 386.017C229.871 385.474 229.493 385.396 229.096 385.338C228.359 385.086 227.594 384.873 227.023 383.662C230.694 384.36 233.978 384.989 237.261 385.619C237.552 385.629 237.833 385.639 238.124 385.639C238.608 386.133 239.237 385.978 239.838 385.968C240.322 386.462 240.952 386.327 241.553 386.288C241.901 386.695 242.357 386.685 242.831 386.608C244.739 385.716 246.667 384.951 248.837 385.232C249.757 385.348 250.271 385.668 250.116 386.676C250.484 387.431 250.484 387.402 251.627 387.393C255.821 387.325 259.996 386.307 264.016 388.827C265.818 389.96 268.665 389.457 271.039 389.689C271.465 389.699 271.881 389.708 272.308 389.718C272.831 390.145 273.441 390.048 274.051 389.951C274.962 390.067 275.863 390.3 276.773 390.27C283.253 390.057 289.743 389.786 296.195 388.798C298.316 388.817 300.447 388.817 302.569 388.875C302.975 388.885 303.934 388.681 303.644 389.36C302.607 391.782 304.709 391.336 305.678 391.608C309.059 392.538 312.207 390.862 315.442 390.203C317.554 389.844 319.675 389.486 321.787 389.117C325.439 389.495 329.11 389.534 332.791 389.331C333.14 389.495 333.479 389.66 334.002 389.912C330.96 390.445 328.112 390.949 325.255 391.453C322.659 391.501 320.101 391.84 317.195 392.519C319.627 393.265 321.738 393.468 323.918 393.274C324.538 393.846 325.429 393.371 326.252 393.798C325.555 393.895 325.022 393.972 324.48 394.05C323.356 393.769 322.232 393.584 320.76 394.079C322.232 394.079 323.298 394.718 324.499 394.389C325.555 394.447 326.611 394.515 327.667 394.553C331.328 394.679 335.067 395.348 338.642 394.767C342.865 394.079 347.069 393.73 351.292 393.362C352.058 393.294 352.997 393.565 353.714 392.422C346.536 392.829 339.572 393.216 332.607 393.604C334.312 392.47 336.278 392.557 338.06 391.927C345.306 391.317 352.552 390.203 359.942 390.891C359.264 392.17 357.802 391.927 357.085 393.1C360.824 392.887 364.36 392.693 367.885 392.489C367.905 392.606 367.915 392.722 367.905 392.838C367.517 392.906 367.13 392.974 366.733 393.032C377.127 392.073 387.501 391.365 397.885 392.761C397.236 392.121 396.539 391.831 395.88 391.472C394.892 390.929 393.603 390.29 393.894 389.059C394.185 387.829 395.618 388.652 396.5 388.362C396.703 388.294 396.926 388.303 397.129 388.274C400.045 388.769 403.087 388.614 405.935 388.342C409.703 387.984 413.451 387.964 417.239 387.664C415.912 388.41 414.546 388.943 413.18 389.486C412.812 389.631 412.25 389.747 412.396 390.3C412.521 390.774 413.054 390.716 413.471 390.755C414.004 391.365 414.594 391.065 415.486 390.9C414.837 390.542 414.236 390.813 413.965 390.319C415.505 390.135 417.113 389.098 418.547 389.689C420.649 390.551 422.547 389.67 424.552 389.486C428.194 389.146 431.778 387.867 435.469 388.565C439.15 389.253 442.773 390.164 446.56 390.338C450.115 390.503 453.602 390.445 456.906 388.71C458.145 388.458 459.318 388.003 460.47 387.48C460.664 387.8 461.061 387.596 461.381 387.615C461.516 387.364 461.652 387.121 461.788 386.869C461.904 386.811 462.02 386.772 462.127 386.714C466.079 385.978 470.06 386.346 474.022 386.191C475.891 386.123 477.771 386.201 479.64 386.288C482.381 386.976 485.152 387.557 488 387.741C488.135 387.8 488.271 387.809 488.416 387.78C488.92 388.255 489.52 388.119 490.121 388.042C493.104 388.468 496.078 388.943 499.071 389.292C500.379 389.447 501.561 390.319 502.965 389.863C504.951 389.747 506.947 389.641 508.932 389.524C508.942 389.718 508.942 389.912 508.952 390.106C507.625 390.183 506.298 390.251 504.971 390.329C504.98 390.513 505 390.697 505.009 390.881C507.189 391.356 509.339 390.115 511.519 390.28C514.134 390.135 516.74 389.989 519.355 389.844C520.653 389.941 521.951 390.048 523.249 390.145C523.617 390.61 524.14 390.803 524.702 390.871C527.308 391.191 529.749 392.082 532.607 391.395C535.212 390.774 538.05 391.259 540.782 391.249C543.01 391.782 545.286 391.375 547.534 391.356C548.735 391.976 550.159 391.162 551.951 391.879C549.258 392.034 547.156 392.15 545.063 392.267C544.376 391.724 543.678 391.831 542.622 392.286C543.659 392.451 544.385 392.567 545.112 392.683C547.505 392.431 549.965 392.906 552.299 391.918C556.223 391.491 560.088 390.474 564.059 390.377C565.948 390.338 567.885 390.338 569.726 389.641C570.142 389.592 570.568 389.544 570.985 389.505C576.748 389.718 582.367 388.507 587.985 387.257C588.866 387.286 589.738 387.257 590.542 386.772C591.182 386.724 591.821 386.714 592.451 386.608C600.326 385.193 608.201 383.759 616.086 382.354C616.367 382.305 616.764 382.082 616.987 382.509C616.696 383.022 615.999 383.158 615.902 383.875C617.423 383.507 618.914 383.158 620.406 382.79C626.538 381.288 632.621 379.466 639.004 380.135C639.973 380.241 640.893 380.154 641.097 381.336C641.31 382.577 640.254 382.693 639.489 382.926C638.636 383.177 637.735 383.274 636.854 383.429C640.118 384.02 643.402 384.176 646.715 384.069C647.422 384.582 648.158 384.379 648.982 384.243C648.72 383.701 648.342 383.623 647.945 383.565C647.209 383.313 646.444 383.1 645.872 381.889C649.543 382.586 652.827 383.216 656.111 383.846C656.402 383.856 656.682 383.865 656.973 383.865C657.457 384.36 658.087 384.205 658.688 384.195C659.172 384.689 659.802 384.553 660.402 384.515C660.751 384.922 661.206 384.912 661.681 384.834C663.589 383.943 665.517 383.177 667.686 383.458C668.607 383.575 669.12 383.895 668.965 384.902C669.333 385.658 669.333 385.629 670.476 385.619C674.671 385.552 678.845 384.534 682.865 387.053C684.667 388.187 687.515 387.683 689.888 387.916C690.314 387.926 690.731 387.935 691.157 387.945C691.68 388.371 692.29 388.274 692.901 388.177C693.811 388.294 694.712 388.526 695.623 388.497C702.103 388.284 708.593 388.013 715.044 387.024C717.166 387.044 719.297 387.044 721.418 387.102C721.825 387.112 722.784 386.908 722.493 387.586C721.457 390.009 723.559 389.563 724.528 389.834C727.908 390.765 731.056 389.088 734.292 388.429C736.403 388.071 738.525 387.712 740.636 387.344C744.288 387.722 747.959 387.761 751.64 387.557C751.989 387.722 752.328 387.887 752.851 388.139C749.81 388.672 746.962 389.176 744.104 389.679C741.508 389.728 738.951 390.067 736.045 390.745C738.476 391.491 740.588 391.695 742.768 391.501C743.387 392.073 744.279 391.598 745.102 392.024C744.404 392.121 743.872 392.199 743.329 392.276C742.206 391.995 741.082 391.811 739.61 392.305C741.082 392.305 742.148 392.945 743.349 392.615C744.405 392.674 745.46 392.741 746.516 392.78C750.178 392.906 753.917 393.575 757.491 392.993C761.715 392.305 765.919 391.957 770.142 391.588C770.907 391.52 771.847 391.792 772.564 390.648C765.386 391.055 758.421 391.443 751.456 391.831C753.161 390.697 755.128 390.784 756.91 390.154C764.156 389.544 771.401 388.429 778.792 389.117C778.114 390.396 776.651 390.154 775.935 391.327C779.674 391.113 783.209 390.92 786.735 390.716C786.754 390.832 786.764 390.949 786.754 391.065C786.367 391.133 785.98 391.201 785.582 391.259C795.976 390.3 806.35 389.592 816.734 390.988C816.086 390.348 815.388 390.057 814.729 389.699C813.741 389.156 812.453 388.517 812.744 387.286C813.034 386.055 814.468 386.879 815.349 386.588C815.553 386.52 815.776 386.53 815.979 386.501C818.895 386.995 821.936 386.84 824.784 386.569C828.552 386.21 832.301 386.191 836.088 385.891C834.761 386.637 833.396 387.17 832.03 387.712C831.662 387.858 831.1 387.974 831.245 388.526C831.371 389.001 831.904 388.943 832.32 388.982C832.853 389.592 833.444 389.292 834.335 389.127C833.686 388.769 833.086 389.04 832.814 388.546C834.354 388.362 835.962 387.325 837.396 387.916C839.498 388.778 841.397 387.896 843.402 387.712C847.044 387.373 850.628 386.094 854.319 386.792C858 387.48 861.622 388.391 865.41 388.565C868.965 388.73 872.452 388.672 875.755 386.937C877.363 386.608 878.865 385.949 880.337 385.232C885.209 382.838 890.169 382.325 895.341 383.701C899.11 384.708 902.897 385.726 906.839 385.978C906.975 386.036 907.111 386.046 907.256 386.017C907.76 386.491 908.36 386.356 908.961 386.278C911.944 386.705 914.918 387.179 917.911 387.528C919.219 387.683 920.401 388.555 921.805 388.1C923.791 387.984 925.786 387.877 927.772 387.761C927.782 387.955 927.782 388.148 927.792 388.342C926.465 388.42 925.138 388.488 923.81 388.565C923.82 388.749 923.84 388.933 923.849 389.117C926.029 389.592 928.179 388.352 930.359 388.517C934.291 388.294 938.224 388.071 942.157 387.858C939.852 386.811 937.469 387.364 935.115 387.373C931.821 386.879 928.508 387.625 925.205 387.606C924.275 387.596 923.239 388.148 922.396 387.354C924.382 386.714 926.406 386.52 928.45 386.579C930.765 386.646 933.081 386.831 935.405 386.501C938.728 386.482 942.06 386.453 945.383 386.443C946.836 386.443 947.165 385.813 946.516 384.573V384.398L946.448 384.234C946.419 383.662 946.38 383.1 946.351 382.528C946.322 380.28 946.293 378.032 946.254 375.784C946.981 373.129 946.458 370.445 946.603 367.78C946.845 362.838 947.281 357.751 946.758 352.683ZM443.645 5.61933C444.574 5.62902 445.611 5.0767 446.454 5.88096C445.601 6.15228 444.739 6.33639 443.867 6.46236C443.712 6.31701 443.557 6.19104 443.373 6.1329C442.124 6.036 440.874 5.9391 439.625 5.8422C440.961 5.73561 442.308 5.61933 443.645 5.61933ZM426.751 5.38678C426.761 5.38678 426.761 5.38678 426.751 5.38678C428.136 5.99724 429.531 6.04569 430.945 5.97786C433.425 6.24918 435.924 6.4236 438.414 6.58833C436.757 6.53019 435.111 6.50112 433.445 6.73367C430.122 6.75305 426.79 6.78212 423.467 6.79181C423.429 6.79181 423.4 6.8015 423.361 6.8015C423.235 6.50112 423.109 5.94879 422.886 4.85383C424.165 5.02825 425.463 5.21236 426.751 5.38678ZM506.356 389.447C505.426 389.437 504.389 389.989 503.547 389.195C504.399 388.924 505.261 388.739 506.133 388.614C506.288 388.759 506.443 388.885 506.637 388.943C507.886 389.04 509.136 389.137 510.385 389.234C509.039 389.34 507.702 389.457 506.356 389.447ZM523.249 389.679C521.864 389.069 520.469 389.02 519.055 389.088C516.575 388.817 514.076 388.643 511.587 388.478C513.243 388.536 514.89 388.575 516.556 388.332C519.878 388.313 523.211 388.284 526.533 388.274C526.572 388.274 526.601 388.265 526.64 388.265C526.766 388.565 526.882 389.117 527.114 390.212C525.845 390.048 524.547 389.863 523.249 389.679Z" fill="url(#paint0_linear_84_553)"/>
</g>
<path d="M944.758 446.683C944.913 441.334 943.789 436.179 941.939 431.344C939.682 425.414 938.675 419.28 938.074 413.088C939.953 413.04 941.833 413.02 943.712 413.108C944.283 413.137 945.242 413.214 944.942 412.177C944.264 409.842 944.797 407.332 944.003 405.026C943.867 402.265 944.157 399.445 943.131 396.751C942.249 397.294 942.84 398.272 942.21 398.951C941.465 397.749 941.31 396.441 941.348 395.356C941.455 392.042 939.208 388.573 942.085 385.385C942.269 385.181 942.191 384.677 942.133 384.338C941.155 378.65 941.561 372.856 941.271 367.119C941.281 366.858 941.29 366.596 941.3 366.334C941.561 366.17 941.871 367.236 942.085 366.286C942.336 365.143 942.627 363.999 942.491 362.817C943.237 363.379 942.937 364.232 942.966 364.958C943.063 367.352 943.111 369.755 943.179 372.371C943.857 371.761 943.964 371.305 943.886 370.801C943.877 370.239 944.584 369.668 943.906 369.125C942.685 364.164 943.625 359.086 943.722 354.077C943.78 350.782 943.799 347.497 943.673 344.222C943.906 344.106 944.138 343.999 944.4 343.912C944.128 343.776 943.896 343.621 943.644 343.476C943.586 342.187 943.508 340.908 943.402 339.619C943.169 336.945 941.891 334.406 942.801 331.577C942.985 331.015 942.918 330.288 942.453 329.765C942.588 327.332 941.532 325.249 940.719 323.098C940.012 321.228 939.401 319.338 938.907 317.42C939.101 316.567 939.305 315.705 939.498 314.852C940.186 313.03 940.573 311.16 940.641 309.222L940.699 309.038L940.68 308.844C941.203 308.156 941.019 307.4 940.971 306.654C940.99 306.112 941 305.559 941.019 305.017C941.426 304.222 941.416 303.447 940.951 302.701C940.728 297.342 938.365 292.594 937.009 287.555C937.222 283.369 937.377 279.174 937.154 274.988C937.357 273.864 937.416 272.739 937.416 271.606C937.396 270.743 937.348 269.891 937.338 269.038C937.338 268.97 937.328 268.902 937.328 268.834C937.27 267.594 937.203 266.363 937.241 265.123C938.249 267.129 937.59 269.348 937.881 271.441C938.036 272.565 937.454 273.815 938.346 274.823C939.169 271.838 939.13 268.834 938.985 265.801C938.83 262.565 938.81 259.319 938.733 256.073C938.84 256.063 938.956 256.063 939.062 256.073C939.237 256.615 938.917 257.294 939.547 257.865C940.399 251.751 940.157 245.763 939.924 239.774C939.905 239.077 939.886 238.369 939.866 237.662C939.76 237.672 939.644 237.681 939.537 237.691C939.556 238.389 939.576 239.086 939.595 239.784C939.179 242.643 939.44 245.569 938.549 248.379C938.365 248.67 938.258 248.97 938.191 249.27C937.977 250.23 938.239 251.208 938.229 252.177C938.181 252.371 938.19 252.575 938.171 252.769C938.161 253.03 938.113 253.282 937.842 253.476C937.832 251.78 937.309 250.075 938.026 248.379C937.803 245.986 937.997 243.563 937.561 241.179C937.212 239.251 936.776 237.236 936.98 235.298C937.328 231.935 937.125 228.66 936.708 225.365C936.65 224.91 936.36 224.115 936.834 224.028C938.413 223.747 937.609 222.817 937.503 222.119C936.815 217.536 935.207 213.098 935.72 208.331C935.953 207.168 936.176 206.015 936.408 204.862C936.553 204.435 936.708 204.009 936.854 203.583C937.571 202.284 937.086 200.986 936.815 199.639C936.592 200.259 936.369 200.869 936.069 201.683C935.837 200.84 935.672 200.259 935.507 199.677C935.546 199.6 935.546 199.522 935.498 199.455C935.992 192.982 936.486 186.519 936.98 180.046C936.989 179.755 936.999 179.455 937.009 179.164C937.067 179.038 937.086 178.922 937.038 178.796C937.542 178.108 937.377 177.352 937.309 176.606C937.532 174.755 937.871 172.895 937.58 171.034C937.58 170.036 937.59 169.028 937.59 168.03C937.735 167.371 937.464 165.869 938.113 166.267C939.043 166.829 938.927 166.654 938.752 165.927C937.881 162.468 938.781 158.854 937.793 155.317C937.115 152.885 936.951 150.298 936.893 147.701C936.902 147.342 936.893 146.984 936.863 146.615C936.854 145.792 936.854 144.958 936.844 144.135C936.786 144.28 936.767 144.426 936.728 144.571C936.728 144.561 936.728 144.552 936.728 144.542C936.728 144.396 936.776 144.27 936.844 144.135C936.854 143.272 936.854 142.41 936.863 141.548C937.193 139.241 937.27 136.955 936.96 134.677C936.989 134.377 936.893 134.057 936.796 133.738C936.747 133.466 936.718 133.195 936.65 132.924C936.631 132.662 936.612 132.41 936.592 132.158C936.641 129.823 936.195 127.584 935.488 125.395C934.529 123.776 935.779 121.974 935.159 120.249C934.326 117.933 933.58 115.588 932.524 113.379C929.008 106.063 923.942 100.491 915.669 98.6019C914.584 97.9236 913.402 98.5244 912.269 98.4469C912.589 98.9217 913.093 98.8248 913.557 98.8054C913.858 98.7957 914.013 98.8635 914.071 98.9895C914.139 99.1251 914.09 99.3286 913.984 99.5709C910.206 100.375 906.699 102.216 902.457 102.982C903.735 101.916 905.14 101.77 905.895 100.695C905.905 100.637 905.915 100.579 905.924 100.511C905.963 100.511 905.992 100.511 906.031 100.511C906.167 100.278 906.467 99.9682 906.399 99.8422C906.215 99.4643 905.789 99.6969 905.469 99.6775C905.314 99.9585 905.159 100.239 905.014 100.52C900.965 101.334 896.896 100.937 892.838 101.083C889.825 101.189 886.803 100.937 883.79 100.84C879.984 99.9488 876.119 100.501 872.273 100.714C871.585 100.734 870.907 100.743 870.22 100.763C869.716 100.424 869.144 100.501 868.582 100.53C864.34 100.753 860.116 100.646 855.903 100.385C851.98 100.143 848.047 99.9779 844.124 99.7841C843.019 99.6775 841.915 99.5709 840.811 99.4546C840.23 99.3965 840.23 99.3771 839.745 97.1387C841.024 97.3131 842.322 97.4972 843.61 97.6717C849.112 98.6503 854.721 98.7569 860.291 99.2414C860.823 99.8228 861.395 99.5903 862.015 99.2802C861.104 99.5418 860.853 98.6213 860.223 98.4178C854.692 97.9914 849.161 97.5554 843.62 97.129C843.252 96.6639 842.729 96.4701 842.167 96.4023C839.561 96.0825 837.12 95.191 834.263 95.879C831.657 96.4992 828.819 96.0147 826.087 96.0244C823.859 95.4914 821.583 95.8984 819.336 95.9178C818.135 95.2976 816.711 96.1116 814.919 95.3945C817.611 95.2395 819.713 95.1232 821.806 95.0069C822.493 95.5496 823.191 95.443 824.247 94.9876C823.21 94.8228 822.484 94.7065 821.757 94.5903C819.365 94.8422 816.904 94.3674 814.57 95.3558C810.647 95.7821 806.782 96.7996 802.82 96.8965C800.892 96.9449 798.955 96.9449 797.115 97.6426C796.698 97.691 796.272 97.7395 795.855 97.7782C790.092 97.5651 784.474 98.7763 778.855 100.026C777.974 99.9972 777.102 100.026 776.298 100.511C775.659 100.559 775.019 100.569 774.39 100.676C766.515 102.09 758.639 103.524 750.754 104.929C750.474 104.978 750.076 105.201 749.854 104.774C750.144 104.261 750.842 104.125 750.938 103.408C749.418 103.776 747.926 104.125 746.434 104.493C740.302 105.995 734.219 107.817 727.836 107.148C726.867 107.042 725.947 107.129 725.744 105.947C725.53 104.707 726.586 104.59 727.352 104.358C728.204 104.106 729.105 104.009 729.986 103.854C726.722 103.263 723.438 103.108 720.125 103.214C719.418 102.701 718.682 102.904 717.859 103.04C718.12 103.583 718.498 103.66 718.895 103.718C719.631 103.97 720.397 104.183 720.968 105.395C717.297 104.697 714.013 104.067 710.729 103.437C710.439 103.427 710.158 103.418 709.867 103.418C709.383 102.924 708.753 103.079 708.153 103.088C707.668 102.594 707.039 102.73 706.438 102.769C706.089 102.362 705.634 102.371 705.159 102.449C703.251 103.34 701.324 104.106 699.154 103.825C698.234 103.708 697.72 103.389 697.875 102.381C697.507 101.625 697.507 101.654 696.364 101.664C692.17 101.732 687.995 102.749 683.975 100.23C682.173 99.0961 679.325 99.6 676.952 99.3674C676.526 99.3577 676.109 99.348 675.683 99.3383C675.16 98.912 674.55 99.0089 673.94 99.1058C673.029 98.9895 672.128 98.7569 671.218 98.786C664.737 98.9992 658.247 99.2705 651.796 100.259C649.674 100.239 647.543 100.239 645.422 100.181C645.015 100.172 644.056 100.375 644.347 99.6969C645.383 97.2744 643.281 97.7201 642.313 97.4488C638.932 96.5186 635.784 98.1949 632.549 98.8538C630.437 99.2124 628.315 99.5709 626.204 99.9391C622.552 99.5612 618.881 99.5224 615.2 99.7259C614.851 99.5612 614.512 99.3965 613.989 99.1445C617.031 98.6116 619.878 98.1077 622.736 97.6038C625.332 97.5554 627.889 97.2162 630.795 96.5379C628.364 95.7918 626.252 95.5883 624.073 95.7821C623.453 95.2104 622.562 95.6852 621.738 95.2589C622.436 95.162 622.969 95.0845 623.511 95.0069C624.635 95.2879 625.758 95.472 627.231 94.9779C625.758 94.9779 624.693 94.3383 623.492 94.6678C622.436 94.6096 621.38 94.5418 620.324 94.5031C616.662 94.3771 612.923 93.7085 609.349 94.2899C605.126 94.9779 600.922 95.3267 596.698 95.6949C595.933 95.7627 594.993 95.4914 594.277 96.6445C601.454 96.2376 608.419 95.85 615.384 95.4624C613.679 96.5961 611.713 96.5089 609.93 97.1387C602.685 97.7492 595.439 98.8635 588.048 98.1755C588.726 96.8965 590.189 97.1387 590.906 95.9662C587.167 96.1794 583.631 96.3732 580.105 96.5767C580.086 96.4604 580.076 96.3441 580.086 96.2279C580.473 96.16 580.861 96.0922 581.258 96.0341C570.864 96.9934 560.49 97.7007 550.106 96.3054C550.755 96.9449 551.452 97.2356 552.111 97.5941C553.099 98.1368 554.387 98.7763 554.097 100.007C553.806 101.238 552.372 100.414 551.491 100.705C551.287 100.772 551.065 100.763 550.861 100.792C547.946 100.298 544.904 100.453 542.056 100.724C538.288 101.083 534.539 101.102 530.752 101.402C532.079 100.656 533.445 100.123 534.811 99.5806C535.179 99.4352 535.74 99.3189 535.595 98.7666C535.469 98.2918 534.936 98.35 534.52 98.3112C533.987 97.7007 533.396 97.9914 532.505 98.1658C533.164 98.5244 533.755 98.2531 534.026 98.7472C532.486 98.9313 530.878 99.9682 529.444 99.3771C527.342 98.5147 525.444 99.3965 523.438 99.5806C519.796 99.9197 516.212 101.199 512.522 100.501C508.841 99.8131 505.218 98.9023 501.43 98.7279C497.875 98.5631 494.388 98.6213 491.085 100.356C489.845 100.608 488.673 101.063 487.52 101.586C487.327 101.267 486.93 101.47 486.61 101.451C486.474 101.703 486.339 101.945 486.203 102.197C486.087 102.255 485.971 102.294 485.864 102.352C481.912 103.088 477.931 102.72 473.969 102.875C472.099 102.943 470.22 102.865 468.351 102.778C465.609 102.09 462.839 101.509 459.991 101.325C459.855 101.267 459.72 101.257 459.574 101.286C459.071 100.811 458.47 100.947 457.87 101.024C454.886 100.598 451.912 100.123 448.919 99.7744C447.612 99.6193 446.43 98.7472 445.025 99.2027C443.039 99.3189 441.044 99.4255 439.058 99.5418C439.049 99.348 439.049 99.1542 439.039 98.9604C440.366 98.8829 441.693 98.8151 443.02 98.7376C443.01 98.5534 442.991 98.3693 442.981 98.1852C440.802 97.7104 438.651 98.9507 436.472 98.786C433.857 98.9313 431.251 99.0767 428.635 99.222C427.337 99.1251 426.039 99.0186 424.741 98.9217C424.373 98.4565 423.85 98.2627 423.288 98.1949C420.683 97.8751 418.242 96.9837 415.384 97.6717C412.778 98.2918 409.94 97.8073 407.209 97.817C404.981 97.2841 402.704 97.691 400.457 97.7104C399.256 97.0903 397.832 97.9042 396.04 97.1872C398.733 97.0321 400.835 96.9158 402.927 96.7996C403.615 97.3422 404.312 97.2356 405.368 96.7802C404.332 96.6155 403.605 96.4992 402.879 96.3829C400.486 96.6348 398.026 96.16 395.691 97.1484C391.768 97.5748 387.903 98.5922 383.941 98.6891C382.052 98.7279 380.115 98.7279 378.275 99.4255C377.858 99.474 377.432 99.5224 377.015 99.5612C371.252 99.348 365.634 100.559 360.015 101.809C359.134 101.78 358.262 101.809 357.458 102.294C356.819 102.342 356.18 102.352 355.55 102.458C347.675 103.873 339.799 105.307 331.915 106.712C331.634 106.761 331.236 106.984 331.014 106.557C331.304 106.044 332.002 105.908 332.099 105.191C330.578 105.559 329.086 105.908 327.594 106.276C321.463 107.778 315.379 109.6 308.996 108.931C308.027 108.825 307.107 108.912 306.904 107.73C306.691 106.489 307.746 106.373 308.512 106.141C309.364 105.889 310.265 105.792 311.146 105.637C307.882 105.046 304.598 104.891 301.285 104.997C300.578 104.484 299.842 104.687 299.019 104.823C299.28 105.365 299.658 105.443 300.055 105.501C300.791 105.753 301.557 105.966 302.128 107.177C298.457 106.48 295.173 105.85 291.889 105.22C291.599 105.21 291.318 105.201 291.027 105.201C290.543 104.707 289.913 104.862 289.313 104.871C288.828 104.377 288.199 104.513 287.598 104.552C287.249 104.145 286.794 104.154 286.32 104.232C284.411 105.123 282.484 105.889 280.314 105.608C279.394 105.491 278.88 105.172 279.035 104.164C278.667 103.408 278.667 103.437 277.524 103.447C273.33 103.515 269.155 104.532 265.135 102.013C263.333 100.879 260.485 101.383 258.112 101.15C257.686 101.141 257.269 101.131 256.843 101.121C256.32 100.695 255.71 100.792 255.1 100.889C254.189 100.772 253.288 100.54 252.378 100.569C245.897 100.782 239.407 101.053 232.956 102.042C230.835 102.022 228.704 102.022 226.582 101.964C226.175 101.955 225.216 102.158 225.507 101.48C226.543 99.0573 224.441 99.5031 223.473 99.2317C220.092 98.3015 216.944 99.9779 213.709 100.637C211.597 100.995 209.476 101.354 207.364 101.722C203.712 101.344 200.041 101.305 196.36 101.509C196.011 101.344 195.672 101.179 195.149 100.927C198.191 100.395 201.039 99.8907 203.896 99.3868C206.492 99.3383 209.049 98.9992 211.955 98.3209C209.534 97.5748 207.412 97.3713 205.233 97.5651C204.613 96.9934 203.722 97.4682 202.898 97.0418C203.596 96.9449 204.129 96.8674 204.671 96.7899C205.795 97.0709 206.918 97.255 208.391 96.7608C206.918 96.7608 205.853 96.1213 204.652 96.4507C203.596 96.3926 202.54 96.3248 201.484 96.286C197.823 96.16 194.084 95.4914 190.509 96.0728C186.286 96.7608 182.082 97.1096 177.858 97.4779C177.093 97.5457 176.154 97.2744 175.437 98.4275C182.615 98.0205 189.579 97.6329 196.544 97.2453C194.839 98.379 192.873 98.2918 191.09 98.9217C183.884 99.4255 176.648 100.54 169.247 99.8519C169.925 98.5728 171.388 98.8151 172.105 97.6426C168.366 97.8558 164.83 98.0496 161.304 98.2531C161.285 98.1368 161.275 98.0205 161.285 97.9042C161.672 97.8364 162.06 97.7686 162.457 97.7104C152.063 98.6697 141.689 99.3771 131.305 97.9817C131.954 98.6213 132.651 98.912 133.31 99.2705C134.298 99.8131 135.586 100.453 135.295 101.683C135.005 102.914 133.571 102.09 132.69 102.381C132.486 102.449 132.264 102.439 132.06 102.468C129.144 101.974 126.103 102.129 123.255 102.4C119.487 102.759 115.738 102.778 111.951 103.079C113.278 102.333 114.644 101.8 116.009 101.257C116.378 101.112 116.939 100.995 116.794 100.443C116.668 99.9682 116.135 100.026 115.719 99.9876C115.186 99.3771 114.595 99.6678 113.704 99.8422C114.363 100.201 114.954 99.9294 115.225 100.424C113.685 100.608 112.077 101.645 110.643 101.053C108.541 100.191 106.642 101.073 104.637 101.257C100.995 101.596 97.4111 102.875 93.7205 102.177C90.0396 101.489 86.4168 100.579 82.6293 100.404C79.0743 100.239 75.5871 100.298 72.284 102.032C70.676 102.362 69.1746 103.02 67.7022 103.738C62.8299 106.131 57.8703 106.645 52.6976 105.269C48.9295 104.261 45.1421 103.243 41.1996 102.991C41.064 102.933 40.9284 102.924 40.7831 102.953C40.2794 102.478 39.6788 102.614 39.0783 102.691C36.0948 102.265 33.121 101.79 30.1278 101.441C28.8201 101.286 27.6384 100.414 26.2338 100.869C24.248 100.986 22.2526 101.092 20.2668 101.208C20.2571 101.015 20.2571 100.821 20.2475 100.627C21.5745 100.55 22.9016 100.482 24.2287 100.404C24.219 100.22 24.1996 100.036 24.1899 99.8519C22.0104 99.3771 19.86 100.617 17.6805 100.453C13.7477 100.637 9.81497 100.86 5.8822 101.073C8.18762 102.119 10.5802 101.567 12.9244 101.557C16.2178 102.052 19.5307 101.305 22.8338 101.325C23.7637 101.334 24.8002 100.782 25.6429 101.586C23.6572 102.226 21.6326 102.42 19.5888 102.362C17.2737 102.294 14.9586 102.11 12.6338 102.439C9.31126 102.458 5.97907 102.488 2.65656 102.497C1.20356 102.497 0.874217 103.127 1.52322 104.367V104.542L1.59103 104.707C1.62009 105.278 1.65883 105.84 1.68789 106.412C1.71695 108.66 1.74601 110.908 1.78476 113.156C1.05826 115.811 1.58134 118.495 1.43604 121.16C1.15513 126.228 0.719231 131.325 1.24231 136.383C1.08732 141.732 2.21097 146.887 4.06112 151.722C6.3181 157.652 7.32551 163.786 7.92608 169.978C6.04687 170.026 4.16767 170.046 2.28846 169.958C1.71695 169.929 0.757977 169.852 1.05826 170.889C1.73633 173.224 1.20356 175.734 1.99786 178.04C2.13348 180.801 1.84288 183.621 2.86966 186.315C3.75114 185.772 3.16026 184.794 3.78989 184.115C4.53576 185.317 4.69075 186.625 4.652 187.71C4.54545 191.024 6.79274 194.493 3.91582 197.681C3.73177 197.885 3.80926 198.389 3.86738 198.728C4.84573 204.416 4.43889 210.21 4.72949 215.947C4.71981 216.208 4.71012 216.47 4.70043 216.732C4.43889 216.896 4.12892 215.831 3.9255 216.78C3.67365 217.924 3.38305 219.067 3.51866 220.249C2.77279 219.687 3.07308 218.834 3.04402 218.108C2.94715 215.714 2.89872 213.311 2.83091 210.695C2.15285 211.305 2.0463 211.761 2.12379 212.265C2.13348 212.827 1.42635 213.398 2.10442 213.941C3.32493 218.902 2.38533 223.98 2.28846 228.989C2.23034 232.284 2.21097 235.569 2.3369 238.844C2.10442 238.96 1.87194 239.067 1.6104 239.154C1.88163 239.29 2.1141 239.445 2.36596 239.59C2.42408 240.879 2.50157 242.158 2.60812 243.447C2.8406 246.121 4.11924 248.66 3.20869 251.489C3.02465 252.051 3.09245 252.778 3.55741 253.301C3.4218 255.734 4.47764 257.817 5.29132 259.968C5.99844 261.838 6.6087 263.728 7.10272 265.646C6.90898 266.499 6.70556 267.362 6.51183 268.214C5.82408 270.036 5.43662 271.906 5.36881 273.844L5.31069 274.028L5.33006 274.212C4.80699 274.9 4.99103 275.656 5.04915 276.402C5.02978 276.945 5.02009 277.497 5.00072 278.04C4.59388 278.834 4.60357 279.61 5.06852 280.356C5.29132 285.714 7.65485 290.462 9.01098 295.501C8.79787 299.687 8.64289 303.883 8.86568 308.069C8.66226 309.193 8.60414 310.317 8.60414 311.451C8.62351 312.313 8.67195 313.166 8.68163 314.019C8.68163 314.086 8.69132 314.154 8.69132 314.222C8.74944 315.462 8.81725 316.693 8.7785 317.933C7.77109 315.927 8.42978 313.708 8.13918 311.615C7.9842 310.491 8.56539 309.241 7.67423 308.234C6.85086 311.218 6.88961 314.222 7.03491 317.255C7.18989 320.491 7.20927 323.738 7.28676 326.984C7.18021 326.993 7.06397 326.993 6.95742 326.984C6.78306 326.441 7.10272 325.763 6.47308 325.191C5.62066 331.305 5.86283 337.294 6.09531 343.282C6.11468 343.98 6.13405 344.687 6.15343 345.385C6.25998 345.375 6.37622 345.365 6.48277 345.356C6.4634 344.658 6.44402 343.96 6.42465 343.263C6.84118 340.404 6.57964 337.478 7.47081 334.668C7.65485 334.377 7.76141 334.077 7.82921 333.776C8.04232 332.817 7.78078 331.838 7.79047 330.869C7.8389 330.676 7.82921 330.472 7.8389 330.278C7.84858 330.017 7.89702 329.765 8.16824 329.571C8.17793 331.276 8.70101 332.972 7.9842 334.668C8.20699 337.061 8.01326 339.484 8.44916 341.867C8.79787 343.796 9.23377 345.811 9.03035 347.749C8.68163 351.112 8.88505 354.387 9.30158 357.681C9.3597 358.137 9.6503 358.931 9.17565 359.019C7.59673 359.3 8.40072 360.23 8.50728 360.927C9.19503 365.511 10.803 369.949 10.2896 374.716C10.0571 375.879 9.83434 377.032 9.60186 378.185C9.45656 378.612 9.30158 379.038 9.15628 379.464C8.43947 380.763 8.9238 382.061 9.19502 383.408C9.41782 382.788 9.64061 382.177 9.94089 381.363C10.1734 382.207 10.338 382.788 10.5027 383.369C10.464 383.447 10.464 383.524 10.5124 383.592C10.0184 390.065 9.52437 396.528 9.03035 403.001C9.02067 403.292 9.01098 403.592 9.00129 403.883C8.94317 404.009 8.9238 404.125 8.97223 404.251C8.46853 404.939 8.6332 405.695 8.70101 406.441C8.47821 408.292 8.13918 410.152 8.42978 412.013C8.42978 413.011 8.4201 414.019 8.4201 415.017C8.2748 415.676 8.54602 417.177 7.89702 416.78C6.9671 416.218 7.08334 416.393 7.2577 417.119C8.1295 420.579 7.22864 424.193 8.21668 427.73C8.89474 430.162 9.05941 432.749 9.11753 435.346C9.10785 435.705 9.11753 436.063 9.14659 436.431C9.15628 437.255 9.15628 438.088 9.16597 438.912C9.22408 438.767 9.24346 438.621 9.2822 438.476C9.2822 438.486 9.2822 438.495 9.2822 438.505C9.2822 438.65 9.23377 438.776 9.16597 438.912C9.15628 439.774 9.15628 440.637 9.14659 441.499C8.81725 443.805 8.73975 446.092 9.04973 448.369C9.02067 448.67 9.11753 448.99 9.2144 449.309C9.26283 449.581 9.29189 449.852 9.3597 450.123C9.37907 450.375 9.39844 450.637 9.41782 450.889C9.36938 453.224 9.81497 455.462 10.5221 457.652C11.4811 459.27 10.2315 461.073 10.8611 462.798C11.6942 465.113 12.44 467.458 13.4959 469.668C17.0121 476.984 22.0782 482.555 30.3506 484.445C31.4355 485.123 32.6173 484.522 33.7506 484.6C33.431 484.125 32.9272 484.222 32.4623 484.241C32.162 484.251 32.007 484.183 31.9489 484.057C31.8811 483.922 31.9295 483.718 32.0361 483.476C35.8139 482.672 39.3204 480.831 43.5632 480.065C42.2845 481.131 40.88 481.276 40.1244 482.352C40.1147 482.41 40.105 482.468 40.0953 482.536C40.0566 482.536 40.0275 482.536 39.9888 482.536C39.8532 482.769 39.5529 483.079 39.6207 483.205C39.8047 483.582 40.231 483.35 40.5506 483.369C40.7056 483.088 40.8606 482.807 41.0059 482.526C45.0549 481.712 49.1233 482.11 53.182 481.964C56.1945 481.858 59.2167 482.11 62.2293 482.207C66.0361 483.098 69.9011 482.546 73.7467 482.332C74.4344 482.313 75.1125 482.303 75.8002 482.284C76.3039 482.623 76.8755 482.546 77.4373 482.517C81.68 482.294 85.9034 482.4 90.1171 482.662C94.0402 482.904 97.9729 483.069 101.896 483.263C103 483.369 104.105 483.476 105.209 483.592C105.79 483.66 105.79 483.67 106.274 485.908C104.996 485.734 103.698 485.55 102.409 485.375C96.9074 484.396 91.2988 484.29 85.729 483.805C85.1963 483.224 84.6248 483.457 84.0048 483.767C84.9154 483.505 85.1672 484.426 85.7968 484.629C91.3279 485.055 96.859 485.491 102.4 485.918C102.768 486.383 103.291 486.577 103.853 486.645C106.458 486.964 108.899 487.856 111.757 487.168C114.363 486.548 117.201 487.032 119.932 487.022C122.16 487.555 124.437 487.148 126.684 487.129C127.885 487.749 129.309 486.935 131.101 487.652C128.408 487.807 126.306 487.924 124.214 488.04C123.526 487.497 122.829 487.604 121.773 488.059C122.809 488.224 123.536 488.34 124.262 488.457C126.655 488.205 129.115 488.679 131.45 487.691C135.373 487.265 139.238 486.247 143.209 486.15C145.098 486.112 147.036 486.112 148.876 485.414C149.293 485.365 149.719 485.317 150.135 485.278C155.899 485.491 161.517 484.28 167.135 483.03C168.017 483.059 168.889 483.03 169.693 482.546C170.332 482.497 170.971 482.488 171.601 482.381C179.476 480.966 187.351 479.532 195.236 478.127C195.517 478.079 195.914 477.856 196.137 478.282C195.847 478.796 195.149 478.931 195.052 479.648C196.573 479.28 198.065 478.931 199.557 478.563C205.688 477.061 211.771 475.239 218.155 475.908C219.123 476.015 220.044 475.927 220.247 477.11C220.46 478.35 219.404 478.466 218.639 478.699C217.787 478.951 216.886 479.048 216.004 479.203C219.269 479.794 222.553 479.949 225.865 479.842C226.573 480.356 227.309 480.152 228.132 480.017C227.871 479.474 227.493 479.396 227.096 479.338C226.359 479.086 225.594 478.873 225.023 477.662C228.694 478.36 231.978 478.989 235.261 479.619C235.552 479.629 235.833 479.639 236.124 479.639C236.608 480.133 237.237 479.978 237.838 479.968C238.322 480.462 238.952 480.327 239.553 480.288C239.901 480.695 240.357 480.685 240.831 480.608C242.739 479.716 244.667 478.951 246.837 479.232C247.757 479.348 248.271 479.668 248.116 480.676C248.484 481.431 248.484 481.402 249.627 481.393C253.821 481.325 257.996 480.307 262.016 482.827C263.818 483.96 266.665 483.457 269.039 483.689C269.465 483.699 269.881 483.708 270.308 483.718C270.831 484.145 271.441 484.048 272.051 483.951C272.962 484.067 273.863 484.3 274.773 484.27C281.253 484.057 287.743 483.786 294.195 482.798C296.316 482.817 298.447 482.817 300.569 482.875C300.975 482.885 301.934 482.681 301.644 483.36C300.607 485.782 302.709 485.336 303.678 485.608C307.059 486.538 310.207 484.862 313.442 484.203C315.554 483.844 317.675 483.486 319.787 483.117C323.439 483.495 327.11 483.534 330.791 483.331C331.14 483.495 331.479 483.66 332.002 483.912C328.96 484.445 326.112 484.949 323.255 485.453C320.659 485.501 318.101 485.84 315.195 486.519C317.627 487.265 319.738 487.468 321.918 487.274C322.538 487.846 323.429 487.371 324.252 487.798C323.555 487.895 323.022 487.972 322.48 488.05C321.356 487.769 320.232 487.584 318.76 488.079C320.232 488.079 321.298 488.718 322.499 488.389C323.555 488.447 324.611 488.515 325.667 488.553C329.328 488.679 333.067 489.348 336.642 488.767C340.865 488.079 345.069 487.73 349.292 487.362C350.058 487.294 350.997 487.565 351.714 486.422C344.536 486.829 337.572 487.216 330.607 487.604C332.312 486.47 334.278 486.557 336.06 485.927C343.306 485.317 350.552 484.203 357.942 484.891C357.264 486.17 355.802 485.927 355.085 487.1C358.824 486.887 362.36 486.693 365.885 486.489C365.905 486.606 365.915 486.722 365.905 486.838C365.517 486.906 365.13 486.974 364.733 487.032C375.127 486.073 385.501 485.365 395.885 486.761C395.236 486.121 394.539 485.831 393.88 485.472C392.892 484.929 391.603 484.29 391.894 483.059C392.185 481.829 393.618 482.652 394.5 482.362C394.703 482.294 394.926 482.303 395.129 482.274C398.045 482.769 401.087 482.614 403.935 482.342C407.703 481.984 411.451 481.964 415.239 481.664C413.912 482.41 412.546 482.943 411.18 483.486C410.812 483.631 410.25 483.747 410.396 484.3C410.521 484.774 411.054 484.716 411.471 484.755C412.004 485.365 412.594 485.065 413.486 484.9C412.837 484.542 412.236 484.813 411.965 484.319C413.505 484.135 415.113 483.098 416.547 483.689C418.649 484.551 420.547 483.67 422.552 483.486C426.194 483.146 429.778 481.867 433.469 482.565C437.15 483.253 440.773 484.164 444.56 484.338C448.115 484.503 451.602 484.445 454.906 482.71C456.145 482.458 457.318 482.003 458.47 481.48C458.664 481.8 459.061 481.596 459.381 481.615C459.516 481.364 459.652 481.121 459.788 480.869C459.904 480.811 460.02 480.772 460.127 480.714C464.079 479.978 468.06 480.346 472.022 480.191C473.891 480.123 475.771 480.201 477.64 480.288C480.381 480.976 483.152 481.557 486 481.741C486.135 481.8 486.271 481.809 486.416 481.78C486.92 482.255 487.52 482.119 488.121 482.042C491.104 482.468 494.078 482.943 497.071 483.292C498.379 483.447 499.561 484.319 500.965 483.863C502.951 483.747 504.947 483.641 506.932 483.524C506.942 483.718 506.942 483.912 506.952 484.106C505.625 484.183 504.298 484.251 502.971 484.329C502.98 484.513 503 484.697 503.009 484.881C505.189 485.356 507.339 484.115 509.519 484.28C512.134 484.135 514.74 483.989 517.355 483.844C518.653 483.941 519.951 484.048 521.249 484.145C521.617 484.61 522.14 484.803 522.702 484.871C525.308 485.191 527.749 486.082 530.607 485.395C533.212 484.774 536.05 485.259 538.782 485.249C541.01 485.782 543.286 485.375 545.534 485.356C546.735 485.976 548.159 485.162 549.951 485.879C547.258 486.034 545.156 486.15 543.063 486.267C542.376 485.724 541.678 485.831 540.622 486.286C541.659 486.451 542.385 486.567 543.112 486.683C545.505 486.431 547.965 486.906 550.299 485.918C554.223 485.491 558.088 484.474 562.059 484.377C563.948 484.338 565.885 484.338 567.726 483.641C568.142 483.592 568.568 483.544 568.985 483.505C574.748 483.718 580.367 482.507 585.985 481.257C586.866 481.286 587.738 481.257 588.542 480.772C589.182 480.724 589.821 480.714 590.451 480.608C598.326 479.193 606.201 477.759 614.086 476.354C614.367 476.305 614.764 476.082 614.987 476.509C614.696 477.022 613.999 477.158 613.902 477.875C615.423 477.507 616.914 477.158 618.406 476.79C624.538 475.288 630.621 473.466 637.004 474.135C637.973 474.241 638.893 474.154 639.097 475.336C639.31 476.577 638.254 476.693 637.489 476.926C636.636 477.177 635.735 477.274 634.854 477.429C638.118 478.02 641.402 478.176 644.715 478.069C645.422 478.582 646.158 478.379 646.982 478.243C646.72 477.701 646.342 477.623 645.945 477.565C645.209 477.313 644.444 477.1 643.872 475.889C647.543 476.586 650.827 477.216 654.111 477.846C654.402 477.856 654.682 477.865 654.973 477.865C655.457 478.36 656.087 478.205 656.688 478.195C657.172 478.689 657.802 478.553 658.402 478.515C658.751 478.922 659.206 478.912 659.681 478.834C661.589 477.943 663.517 477.177 665.686 477.458C666.607 477.575 667.12 477.895 666.965 478.902C667.333 479.658 667.333 479.629 668.476 479.619C672.671 479.552 676.845 478.534 680.865 481.053C682.667 482.187 685.515 481.683 687.888 481.916C688.314 481.926 688.731 481.935 689.157 481.945C689.68 482.371 690.29 482.274 690.901 482.177C691.811 482.294 692.712 482.526 693.623 482.497C700.103 482.284 706.593 482.013 713.044 481.024C715.166 481.044 717.297 481.044 719.418 481.102C719.825 481.112 720.784 480.908 720.493 481.586C719.457 484.009 721.559 483.563 722.528 483.834C725.908 484.765 729.056 483.088 732.292 482.429C734.403 482.071 736.525 481.712 738.636 481.344C742.288 481.722 745.959 481.761 749.64 481.557C749.989 481.722 750.328 481.887 750.851 482.139C747.81 482.672 744.962 483.176 742.104 483.679C739.508 483.728 736.951 484.067 734.045 484.745C736.476 485.491 738.588 485.695 740.768 485.501C741.387 486.073 742.279 485.598 743.102 486.024C742.404 486.121 741.872 486.199 741.329 486.276C740.206 485.995 739.082 485.811 737.61 486.305C739.082 486.305 740.148 486.945 741.349 486.615C742.405 486.674 743.46 486.741 744.516 486.78C748.178 486.906 751.917 487.575 755.491 486.993C759.715 486.305 763.919 485.957 768.142 485.588C768.907 485.52 769.847 485.792 770.564 484.648C763.386 485.055 756.421 485.443 749.456 485.831C751.161 484.697 753.128 484.784 754.91 484.154C762.156 483.544 769.401 482.429 776.792 483.117C776.114 484.396 774.651 484.154 773.935 485.327C777.674 485.113 781.209 484.92 784.735 484.716C784.754 484.832 784.764 484.949 784.754 485.065C784.367 485.133 783.98 485.201 783.582 485.259C793.976 484.3 804.35 483.592 814.734 484.988C814.086 484.348 813.388 484.057 812.729 483.699C811.741 483.156 810.453 482.517 810.744 481.286C811.034 480.055 812.468 480.879 813.349 480.588C813.553 480.52 813.776 480.53 813.979 480.501C816.895 480.995 819.936 480.84 822.784 480.569C826.552 480.21 830.301 480.191 834.088 479.891C832.761 480.637 831.396 481.17 830.03 481.712C829.662 481.858 829.1 481.974 829.245 482.526C829.371 483.001 829.904 482.943 830.32 482.982C830.853 483.592 831.444 483.292 832.335 483.127C831.686 482.769 831.086 483.04 830.814 482.546C832.354 482.362 833.962 481.325 835.396 481.916C837.498 482.778 839.397 481.896 841.402 481.712C845.044 481.373 848.628 480.094 852.319 480.792C856 481.48 859.622 482.391 863.41 482.565C866.965 482.73 870.452 482.672 873.755 480.937C875.363 480.608 876.865 479.949 878.337 479.232C883.209 476.838 888.169 476.325 893.341 477.701C897.11 478.708 900.897 479.726 904.839 479.978C904.975 480.036 905.111 480.046 905.256 480.017C905.76 480.491 906.36 480.356 906.961 480.278C909.944 480.705 912.918 481.179 915.911 481.528C917.219 481.683 918.401 482.555 919.805 482.1C921.791 481.984 923.786 481.877 925.772 481.761C925.782 481.955 925.782 482.148 925.792 482.342C924.465 482.42 923.138 482.488 921.81 482.565C921.82 482.749 921.84 482.933 921.849 483.117C924.029 483.592 926.179 482.352 928.359 482.517C932.291 482.294 936.224 482.071 940.157 481.858C937.852 480.811 935.469 481.364 933.115 481.373C929.821 480.879 926.508 481.625 923.205 481.606C922.275 481.596 921.239 482.148 920.396 481.354C922.382 480.714 924.406 480.52 926.45 480.579C928.765 480.646 931.081 480.831 933.405 480.501C936.728 480.482 940.06 480.453 943.383 480.443C944.836 480.443 945.165 479.813 944.516 478.573V478.398L944.448 478.234C944.419 477.662 944.38 477.1 944.351 476.528C944.322 474.28 944.293 472.032 944.254 469.784C944.981 467.129 944.458 464.445 944.603 461.78C944.845 456.838 945.281 451.751 944.758 446.683ZM441.645 99.6193C442.574 99.629 443.611 99.0767 444.454 99.881C443.601 100.152 442.739 100.336 441.867 100.462C441.712 100.317 441.557 100.191 441.373 100.133C440.124 100.036 438.874 99.9391 437.625 99.8422C438.961 99.7356 440.308 99.6193 441.645 99.6193ZM424.751 99.3868C424.761 99.3868 424.761 99.3868 424.751 99.3868C426.136 99.9972 427.531 100.046 428.945 99.9779C431.425 100.249 433.924 100.424 436.414 100.588C434.757 100.53 433.111 100.501 431.445 100.734C428.122 100.753 424.79 100.782 421.467 100.792C421.429 100.792 421.4 100.802 421.361 100.802C421.235 100.501 421.109 99.9488 420.886 98.8538C422.165 99.0282 423.463 99.2124 424.751 99.3868ZM504.356 483.447C503.426 483.437 502.389 483.989 501.547 483.195C502.399 482.924 503.261 482.739 504.133 482.614C504.288 482.759 504.443 482.885 504.637 482.943C505.886 483.04 507.136 483.137 508.385 483.234C507.039 483.34 505.702 483.457 504.356 483.447ZM521.249 483.679C519.864 483.069 518.469 483.02 517.055 483.088C514.575 482.817 512.076 482.643 509.587 482.478C511.243 482.536 512.89 482.575 514.556 482.332C517.878 482.313 521.211 482.284 524.533 482.274C524.572 482.274 524.601 482.265 524.64 482.265C524.766 482.565 524.882 483.117 525.114 484.212C523.845 484.048 522.547 483.863 521.249 483.679Z" fill="url(#paint1_linear_84_553)"/>
<defs>
<linearGradient id="paint0_linear_84_553" x1="475.001" y1="0.0556641" x2="475.001" y2="395.001" gradientUnits="userSpaceOnUse">
<stop stop-color="#2C47CF"/>
<stop offset="1" stop-color="#2443DB"/>
</linearGradient>
<linearGradient id="paint1_linear_84_553" x1="473.001" y1="94.0557" x2="473.001" y2="489.001" gradientUnits="userSpaceOnUse">
<stop stop-color="#2C47CF"/>
<stop offset="1" stop-color="#2443DB"/>
</linearGradient>
<clipPath id="clip0_84_553">
<rect width="944" height="395" fill="white" transform="translate(3 0.0380859)"/>
</clipPath>
</defs>
</svg>
