<svg width="49" height="58" viewBox="0 0 49 58" fill="none" xmlns="http://www.w3.org/2000/svg">
<g clip-path="url(#clip0_132_3957)">
<path d="M48.9409 14.937C49.024 14.5618 49.0129 14.1865 48.9372 13.8094C48.9059 13.5148 48.8339 13.2296 48.7231 12.9556C48.7213 12.9406 48.7194 12.9256 48.7176 12.9106C48.5274 12.2802 48.3373 11.6516 48.1472 11.0212C47.9847 10.4039 47.8832 9.78095 47.9349 9.13926C47.9884 8.52196 48.005 7.90466 48.0105 7.28548C48.0124 7.1654 48.0161 7.04532 48.0179 6.92523C48.0179 6.91022 48.0179 6.89521 48.0179 6.8802C48.029 6.80703 48.0493 6.73385 48.053 6.6588C48.0678 6.23288 48.0715 5.80884 48.0936 5.38292C48.1176 4.93636 48.0973 4.48793 48.0142 4.047C48.0161 3.89127 47.9829 3.74116 47.9275 3.59669C47.9109 3.51788 47.8979 3.43908 47.8776 3.36215C47.8352 3.20079 47.7263 3.05819 47.7576 2.87994C47.8186 2.61351 47.8703 2.34332 47.8924 2.06938C47.933 1.84423 48.0641 1.63033 47.9755 1.39017C47.8647 1.10309 47.5915 1.07495 47.3552 0.986762C47.3331 0.952989 47.3035 0.943608 47.2666 0.94736C46.9362 0.812267 46.6021 0.690308 46.2513 0.617132C45.9781 0.51206 45.6975 0.440761 45.4077 0.401359C45.2046 0.341317 45.0016 0.283152 44.7893 0.273771C44.6785 0.22874 44.5604 0.215605 44.4422 0.217482C44.2835 0.159317 44.1155 0.151811 43.9494 0.140554C43.9198 0.138677 43.8903 0.138677 43.8608 0.136801C43.5377 0.0748834 43.2147 0.0336049 42.8861 0.046739C42.8732 0.0411101 42.8584 0.0392338 42.8455 0.0373575C42.8436 0.0242234 42.8418 0.0110894 42.8418 -0.00204468C42.7679 -0.00204468 42.6941 -0.00204468 42.6203 -0.00204468C42.5169 -0.00204468 42.4135 -0.00204468 42.3101 -0.00204468C42.2363 -0.00204468 42.1624 -0.00204468 42.0886 -0.00204468C41.6308 -0.00204468 41.1748 -0.00204468 40.717 -0.00204468C40.6137 -0.00204468 40.5103 -0.00204468 40.4069 -0.00204468C40.3331 -0.00204468 40.2592 -0.00204468 40.1854 -0.00204468C40.1854 0.0110894 40.1854 0.0242234 40.1817 0.0373575C39.6777 0.0617493 39.1738 0.0880174 38.6754 0.176203C38.6624 0.172451 38.6477 0.174327 38.6348 0.179956C38.4686 0.161193 38.308 0.2081 38.1456 0.230616C38.068 0.226863 37.9887 0.209977 37.9204 0.264389C37.505 0.298162 37.0915 0.34507 36.6835 0.440761C36.3716 0.4614 36.0633 0.517689 35.7606 0.588988C35.1311 0.695937 34.5016 0.799133 33.8739 0.913587C33.2906 1.02054 32.7091 1.13874 32.1276 1.2532C32.0261 1.27196 31.9246 1.28885 31.8212 1.30761C31.3136 1.37516 30.8078 1.45584 30.3075 1.56841C30.1746 1.56091 30.0454 1.59281 29.918 1.6247C29.3587 1.69975 28.7975 1.77293 28.2381 1.84798C28.1458 1.84611 28.0498 1.82171 27.9649 1.88551C27.9059 1.88926 27.8486 1.89114 27.7896 1.89489C27.5773 1.90802 27.3613 1.89864 27.1545 1.9418C26.8499 2.00371 26.538 1.93054 26.2389 2.0206C26.2389 2.0206 26.2408 2.0206 26.2408 2.02248C26.1688 2.02435 26.0968 2.02623 26.0248 2.02998C25.8033 2.02998 25.5818 2.03186 25.3621 2.03186C25.303 2.03186 25.2421 2.03186 25.183 2.03186C24.7252 2.01497 24.2674 1.99808 23.8114 1.9812C23.6693 1.91178 23.5179 1.94367 23.3703 1.93992C22.9014 1.87613 22.4306 1.81421 21.9599 1.75041C21.9193 1.70914 21.8695 1.71101 21.8178 1.71852C21.7753 1.71664 21.7329 1.71289 21.6904 1.71101C21.4873 1.65285 21.2824 1.61157 21.0683 1.62658C20.6566 1.5534 20.245 1.5534 19.8389 1.64159C19.8038 1.64159 19.7669 1.64722 19.7318 1.66223C19.4198 1.6885 19.1263 1.77668 18.855 1.93804C18.7405 1.95305 18.6408 2.00934 18.5448 2.06938C17.7566 2.45778 17.0754 3.03005 16.2853 3.41656C16.1007 3.4766 15.9143 3.53665 15.7463 3.63984C15.5949 3.66423 15.4528 3.72052 15.3125 3.78244C15.2147 3.78432 15.1242 3.80871 15.0448 3.86687C15.0448 3.86687 15.0448 3.86687 15.0448 3.865C14.9212 3.865 14.8049 3.90065 14.6904 3.95131C14.6627 3.95694 14.635 3.96069 14.6073 3.96632C14.5409 3.95131 14.4837 3.9757 14.4283 4.00947C14.2751 4.01135 14.1292 4.04512 13.9871 4.09766C13.8948 4.09578 13.8025 4.08828 13.7213 4.14269C13.7065 4.14457 13.6899 4.14644 13.6751 4.14644C13.4924 4.14269 13.3151 4.17834 13.1416 4.22712C12.7115 4.23838 12.2906 4.33407 11.8642 4.36972C11.6851 4.39599 11.5005 4.39036 11.327 4.4504C11.1959 4.46541 11.0593 4.42976 10.9357 4.50106C10.9209 4.50294 10.9061 4.50294 10.8895 4.50481C10.7843 4.50857 10.6735 4.47479 10.5757 4.54234C10.5609 4.54046 10.548 4.54234 10.5351 4.54984C10.2969 4.55923 10.0607 4.57799 9.82806 4.63615C9.3961 4.64929 8.96967 4.71121 8.54325 4.77875C8.40665 4.75624 8.27558 4.79752 8.14452 4.82378C7.3009 4.88945 6.46097 4.98514 5.62289 5.09397C5.38476 5.10148 5.14662 5.11836 4.91218 5.17277C4.89742 5.1709 4.88265 5.1709 4.86973 5.1784C4.27716 5.21218 3.69014 5.28535 3.10311 5.36416C2.84837 5.36791 2.59731 5.39418 2.3481 5.45047C2.31857 5.45047 2.28718 5.45234 2.25765 5.45234C2.03428 5.46735 1.81092 5.47486 1.59494 5.5349C1.29219 5.5668 0.991298 5.60807 0.790084 5.88389C0.738397 5.91766 0.705169 5.96269 0.708861 6.02836C0.638713 6.2235 0.721783 6.41863 0.714399 6.61564C0.708861 6.74136 0.679325 6.82391 0.570411 6.87645C0.542722 6.89146 0.513186 6.90835 0.485496 6.92336C0.383966 6.94587 0.317511 7.0153 0.260285 7.09785C0.193829 7.14664 0.164293 7.21231 0.184599 7.29111C0.282437 7.66824 0.38212 8.04538 0.481804 8.42251C0.481804 8.44691 0.481804 8.4713 0.481804 8.49569C0.343354 8.71709 0.273207 8.96664 0.214135 9.21806C0.110759 9.44697 0.0849156 9.69652 0.0535338 9.94419C0.0424578 9.97796 0.0424578 10.0192 0 10.0324C0 10.4677 0 10.903 0 11.3364C0.0479958 11.3627 0.0387658 11.4096 0.0461498 11.4527C0.167985 12.1882 0.396888 12.8825 0.823312 13.4998C0.839926 13.5598 0.871308 13.6086 0.924842 13.6424C1.01345 13.7549 1.15005 13.7681 1.26266 13.7493C1.62632 13.6911 1.81646 13.9182 2.00106 14.1696C2.06936 14.3966 2.1395 14.6255 2.20781 14.8526C2.21519 15.0346 2.2355 15.2166 2.29272 15.3911C2.30749 15.5036 2.38502 15.5243 2.47732 15.5205C2.81145 15.6406 3.10865 15.4868 3.41324 15.3911C3.4557 15.3873 3.5 15.3817 3.54246 15.3779C3.85258 15.3742 4.16271 15.3761 4.4673 15.4399C4.56883 15.4718 4.6722 15.5018 4.77373 15.5337C4.86973 15.5956 4.97679 15.6312 5.08755 15.6594C5.17062 15.7063 5.25554 15.7513 5.33492 15.802C5.5952 15.9671 5.87395 16.1097 6.04747 16.3836C6.22284 16.8508 6.39451 17.3199 6.57542 17.7833C6.62526 17.9091 6.71572 18.0123 6.85601 18.0498C7.09415 18.1736 7.33043 18.168 7.56672 18.0385C7.64979 18.0085 7.72732 17.9729 7.79008 17.9072C7.923 17.8359 8.05775 17.7665 8.19066 17.6952C8.53956 17.5563 8.88845 17.4175 9.25026 17.3143C9.30934 17.2993 9.36656 17.2861 9.42563 17.2711C9.54931 17.2617 9.673 17.243 9.78929 17.1923C9.94805 17.1736 10.1087 17.1548 10.2674 17.136C10.3597 17.1379 10.4557 17.1585 10.5425 17.1023C11.255 17.0891 11.9657 17.0816 12.6746 17.1811C13.0512 17.2336 13.4296 17.273 13.808 17.318C14.3821 17.425 14.9581 17.5319 15.5322 17.6389C15.9568 17.7477 16.3832 17.8434 16.817 17.9053C16.9444 17.9597 17.0754 17.9954 17.2157 17.9954C17.284 18.0385 17.3597 18.0479 17.4391 18.0404C17.5941 18.1023 17.7566 18.1323 17.9227 18.1417C17.9892 18.1999 18.0686 18.1736 18.1424 18.1811C18.1922 18.2393 18.2587 18.2205 18.3215 18.2205C18.4175 18.3068 18.5541 18.2374 18.6537 18.305C18.6611 18.3087 18.6667 18.3125 18.6741 18.3181C18.8919 18.365 19.1079 18.4175 19.3275 18.4607C19.7595 18.547 20.1896 18.6314 20.6216 18.7159C20.7434 18.7928 20.8819 18.7965 21.0185 18.8097C21.0277 18.8322 21.0406 18.8453 21.0665 18.8359C21.1385 18.8435 21.2123 18.8491 21.2843 18.8547C21.515 18.9354 21.7569 18.9298 21.9968 18.9466C22.1574 18.9466 22.318 18.9485 22.4786 18.9485C22.51 18.9429 22.5396 18.9373 22.5691 18.9316C22.6725 18.9298 22.7814 18.9635 22.8774 18.8941C23.0047 18.911 23.1229 18.8528 23.2447 18.8359C23.3721 18.8172 23.4958 18.6671 23.6084 18.7421C23.7062 18.8078 23.7561 18.9579 23.8133 19.078C23.9739 19.4138 24.1917 19.6465 24.5997 19.5696C24.7068 19.5489 24.8101 19.4983 24.9172 19.487C25.0556 19.4739 25.1479 19.2225 25.2827 19.3651C25.3658 19.4532 25.3436 19.6446 25.3676 19.791C25.4655 20.3482 25.5651 20.9055 25.663 21.4646C25.6851 21.5678 25.6464 21.6842 25.7184 21.778C25.722 21.9131 25.7405 22.0463 25.783 22.1739C25.783 22.1908 25.7867 22.2076 25.7996 22.2264C25.807 22.3371 25.807 22.4459 25.8254 22.5585C25.9011 23.0013 25.9657 23.446 26.034 23.8888C26.0709 24.1909 26.154 24.4855 26.1614 24.7913C26.2518 25.3598 26.3423 25.9283 26.4328 26.4969C26.4789 26.8121 26.5232 27.1273 26.5694 27.4406C26.5952 27.6527 26.6229 27.8628 26.6487 28.0748C26.6783 28.1461 26.6986 28.2174 26.6875 28.2962C26.6986 28.3 26.7097 28.3019 26.7226 28.3037C26.73 28.3037 26.7355 28.3037 26.7429 28.3037C26.7355 28.3075 26.73 28.3112 26.7226 28.3169C26.7244 28.4201 26.7521 28.527 26.6893 28.6246C26.6709 28.9829 26.6524 29.3413 26.634 29.6997C26.6395 29.7785 26.6524 29.8592 26.6007 29.9305C26.6007 30.013 26.6007 30.0937 26.6007 30.1763C26.6007 30.3001 26.7004 30.4108 26.7761 30.4014C27.0419 30.3676 26.9995 30.5722 27.0364 30.711C27.0567 30.7879 27.0456 30.8743 27.0475 30.9568C27.0992 31.0562 27.0862 31.167 27.0918 31.272C27.1232 31.3396 27.1213 31.4146 27.1379 31.484C27.1822 31.666 27.1379 31.8631 27.2247 32.0394C27.1878 32.2383 27.2948 32.4259 27.269 32.6248C27.3539 32.7637 27.2524 32.94 27.3576 33.0751C27.3908 33.4804 27.4074 33.8857 27.4019 34.291L27.389 34.2891C27.389 34.5424 27.389 34.7976 27.389 35.0509C27.3945 35.0659 27.4001 35.0828 27.4037 35.0997C27.4019 35.4412 27.4001 35.7826 27.3982 36.1241C27.4573 36.2423 27.4296 36.368 27.4314 36.49C27.4351 36.7283 27.4388 36.9647 27.4425 37.203C27.4554 37.2086 27.4665 37.2142 27.4794 37.2199C27.4794 37.2218 27.4794 37.2236 27.4794 37.2255C27.4776 37.3099 27.4757 37.3944 27.4739 37.4788C27.4776 37.7021 27.4813 37.9235 27.4868 38.1468C27.496 38.1524 27.5071 38.158 27.5163 38.1637C27.5182 38.1637 27.52 38.1618 27.5237 38.1618C27.5237 38.1637 27.5237 38.1655 27.5237 38.1674C27.5237 38.2687 27.5219 38.3682 27.5219 38.4695C27.5256 38.7059 27.5293 38.9442 27.533 39.1806C27.544 39.1862 27.5551 39.19 27.5662 39.1937C27.5699 39.1937 27.5717 39.1937 27.5754 39.1937C27.5717 39.1956 27.5699 39.1994 27.5662 39.2012C27.5662 39.3026 27.5643 39.4039 27.5643 39.5052C27.568 39.7416 27.5717 39.9799 27.5773 40.2163C27.5883 40.2238 27.5994 40.2295 27.6123 40.2351C27.6105 40.2388 27.6123 40.2426 27.6123 40.2463C27.6105 40.2538 27.6087 40.2632 27.6142 40.2707H27.616C27.6142 40.2726 27.6142 40.2745 27.6142 40.2764C27.6123 40.3777 27.6123 40.4809 27.6105 40.5822C27.616 40.6591 27.6216 40.736 27.6271 40.813C27.6253 40.9893 27.6253 41.1638 27.6234 41.3402C27.677 41.4096 27.6456 41.4959 27.6677 41.5729V41.5748C27.664 41.6048 27.6603 41.6329 27.6548 41.6611C27.6585 41.9144 27.6622 42.1677 27.6659 42.4191C27.6788 42.4378 27.6899 42.4547 27.7028 42.4735C27.7028 42.4829 27.7028 42.4923 27.7028 42.5016C27.7028 42.5223 27.7046 42.5429 27.7046 42.5636C27.7065 42.5917 27.7083 42.618 27.7102 42.6461C27.7102 42.6499 27.7102 42.6517 27.7102 42.6555C27.7065 42.6836 27.7009 42.7137 27.6973 42.7418C27.7028 42.7737 27.7083 42.8037 27.712 42.8356C27.712 42.8957 27.712 42.9557 27.712 43.0157C27.7102 43.1771 27.7102 43.3385 27.7083 43.4998C27.7213 43.5055 27.7323 43.5092 27.7471 43.5111C27.7471 43.5186 27.7471 43.5261 27.7471 43.5317C27.7453 43.6274 27.7416 43.7231 27.7397 43.8207C27.7453 43.9426 27.7508 44.0646 27.7563 44.1847C27.7526 44.1997 27.7526 44.2147 27.7582 44.2278C27.7563 44.346 27.7545 44.4642 27.7526 44.5825C27.8154 44.6819 27.7877 44.7926 27.7896 44.9014C27.7932 44.9784 27.7969 45.0553 27.8025 45.1303C27.8025 45.3367 27.8006 45.5431 27.8006 45.7495C27.856 45.8208 27.8357 45.9015 27.8339 45.9803C27.8376 46.0872 27.8412 46.1923 27.8468 46.2993C27.8449 46.4625 27.8449 46.6239 27.8431 46.7852C27.9077 46.8697 27.8745 46.9691 27.8782 47.061L27.8892 47.0592C27.8892 47.1492 27.8892 47.2412 27.8892 47.3312C27.8874 47.5095 27.8855 47.6896 27.8855 47.8678C27.9557 47.9485 27.9188 48.048 27.9243 48.138C27.928 48.26 27.9317 48.382 27.9354 48.5039C27.9354 48.5321 27.9354 48.5602 27.9354 48.5883C27.9335 48.7234 27.9317 48.8567 27.9317 48.9917C27.9391 48.9936 27.9465 48.9955 27.9538 48.9974C27.9594 48.9993 27.9649 48.9993 27.9686 49.0011C27.9686 49.0724 27.9668 49.1437 27.9668 49.2169C27.9705 49.4702 27.9742 49.7254 27.976 49.9787C28.0295 50.0312 28.0074 50.1025 28.0203 50.1644C28.0203 50.1719 28.0185 50.1794 28.0185 50.1888C28.0166 50.2245 28.0129 50.2601 28.0111 50.2958C28.0148 50.3408 28.0185 50.3877 28.024 50.4327C28.0222 50.641 28.0222 50.8493 28.0203 51.0575C28.0886 51.157 28.0517 51.2677 28.0572 51.3746C28.0609 51.4647 28.0646 51.5548 28.0683 51.6448C28.0683 51.6767 28.0683 51.7067 28.0683 51.7386C28.0665 51.87 28.0646 52.0032 28.0646 52.1345C28.0757 52.1402 28.0886 52.1439 28.1015 52.1477C28.1015 52.1514 28.1015 52.1552 28.1015 52.1589C28.1015 52.1889 28.1034 52.2171 28.1052 52.2471C28.1052 52.2565 28.1052 52.2678 28.1071 52.2771C28.1052 52.3353 28.1015 52.3953 28.0997 52.4535C28.1034 52.7068 28.1071 52.9601 28.1108 53.2134C28.1218 53.219 28.1329 53.2228 28.1421 53.2284C28.144 53.2284 28.144 53.2284 28.1458 53.2284V53.2303C28.1458 53.3316 28.144 53.4329 28.144 53.5343C28.1477 53.7725 28.1514 54.009 28.1551 54.2472C28.2141 54.3655 28.1883 54.493 28.1883 54.6169L28.2031 54.6131C28.2049 54.8683 28.2086 55.1254 28.2104 55.3805C28.2141 55.7258 28.4209 55.9134 28.7107 55.9171C28.8344 55.919 28.9581 55.9153 29.0836 55.9134C29.1999 55.9171 29.3143 55.9209 29.4306 55.9228C29.4343 56.0335 29.4288 56.1461 29.4417 56.2568C29.4546 56.3581 29.3882 56.4857 29.5211 56.5551C29.5525 56.6095 29.6097 56.5851 29.654 56.5964C29.7371 56.6677 29.8368 56.6376 29.9272 56.6395C30.3223 56.6433 30.7173 56.6414 31.1123 56.6433C31.1216 56.6489 31.1308 56.6508 31.14 56.6508C31.3689 56.7202 31.596 56.7896 31.8249 56.8591C32.0206 56.8872 32.1959 56.9979 32.3972 57.0035C32.6796 57.1367 32.9897 57.1686 33.2851 57.2568C33.5601 57.3394 33.8333 57.4388 34.125 57.4482C34.3207 57.5495 34.5404 57.5589 34.7489 57.6152C34.9686 57.6602 35.1901 57.7053 35.4098 57.7503C35.587 57.7803 35.7661 57.8085 35.9433 57.8385C36.3347 57.9023 36.7278 57.9529 37.1247 57.9492C37.4939 58.0261 37.8668 57.9773 38.2397 57.9811C38.4206 57.9792 38.6034 58.0242 38.7787 57.9473H38.7972L38.8157 57.9435C39.2089 57.9417 39.5891 57.861 39.9657 57.7578C40.1023 57.7259 40.2445 57.7128 40.3663 57.6321C40.4955 57.6152 40.6192 57.5814 40.7244 57.4989C41.0438 57.3994 41.3318 57.2399 41.6031 57.0448C41.6899 57.0035 41.7729 56.9585 41.8265 56.8722C41.9409 56.844 42 56.7427 42.0886 56.6789C42.12 56.6508 42.1514 56.6245 42.1828 56.5964C42.2271 56.5532 42.2714 56.5101 42.3157 56.465C42.4393 56.3637 42.5556 56.2549 42.6941 56.1704C42.7809 56.1179 42.8528 56.0391 42.8492 55.9209C42.9544 55.7183 43.1334 55.5606 43.1944 55.3317C43.2424 55.2604 43.3014 55.1929 43.3402 55.116C43.7094 54.3748 43.918 53.5868 44.0306 52.7669C44.0527 52.6787 44.0934 52.5942 44.0749 52.5004C44.1377 52.1721 44.1875 51.8437 44.2097 51.5097C44.3075 50.9281 44.3869 50.3427 44.4422 49.7554C44.4884 49.579 44.5124 49.3989 44.5198 49.2169C44.5179 49.2207 44.5179 49.2225 44.5161 49.2263C44.5179 49.2244 44.5179 49.2207 44.5198 49.2169C44.5345 49.1118 44.5475 49.0068 44.5622 48.8998C44.5659 48.8435 44.5715 48.7872 44.5752 48.7328C44.625 48.6596 44.6139 48.579 44.6084 48.4983C44.6121 48.4683 44.6139 48.4382 44.6176 48.4082C44.6841 48.2975 44.649 48.1737 44.6638 48.0555C44.6712 48.0292 44.6767 48.0029 44.6822 47.9785C44.7191 47.8247 44.7321 47.6652 44.7413 47.5076C44.7819 47.3481 44.8004 47.1867 44.7985 47.0235C44.8576 46.8002 44.8834 46.5713 44.889 46.3405C44.9499 46.2411 44.913 46.1304 44.9259 46.0253C44.9757 45.9897 44.9684 45.939 44.9628 45.8884C44.961 45.7214 45.0385 45.5638 45.0145 45.3949C45.0293 45.2598 45.044 45.1247 45.0588 44.9896C45.0883 44.7663 45.164 44.5506 45.1511 44.3216C45.236 43.877 45.2951 43.4267 45.3283 42.9745C45.3856 42.8112 45.3892 42.6424 45.4059 42.4735C45.4723 42.0082 45.5535 41.5447 45.5849 41.0757C45.6311 40.9593 45.6366 40.8392 45.6311 40.7154C45.6957 40.6047 45.668 40.479 45.6828 40.3608C45.7418 40.2144 45.7289 40.0568 45.7603 39.9067C45.7935 39.6234 45.8267 39.3401 45.86 39.0568C45.9375 38.9442 45.8858 38.8147 45.9043 38.6946L45.9024 38.6928C45.9615 38.5333 45.9689 38.3644 45.9818 38.1974C45.9966 38.0924 46.0113 37.9854 46.0261 37.8803C46.028 37.8353 46.0298 37.7903 46.0316 37.7471C46.0833 37.6627 46.0815 37.5707 46.0723 37.4769C46.087 37.3869 46.0999 37.2968 46.1147 37.2067C46.1184 37.1486 46.1221 37.0904 46.1239 37.0341C46.135 37.0097 46.1406 36.9835 46.1443 36.9591C46.1812 36.8108 46.1904 36.657 46.2015 36.505C46.2015 36.4994 46.2015 36.4937 46.2033 36.4881C46.2033 36.4881 46.2033 36.4881 46.2033 36.4862C46.2181 36.3662 46.2716 36.2517 46.2476 36.1279C46.2975 35.8483 46.3418 35.5687 46.3473 35.2835C46.3529 35.2535 46.3584 35.2254 46.3639 35.1954C46.423 34.8801 46.4618 34.563 46.4784 34.2422C46.5338 34.0039 46.567 33.7637 46.5651 33.5179C46.5707 33.5067 46.5725 33.4954 46.5707 33.4823C46.6224 33.2872 46.6371 33.0883 46.6482 32.8875C46.6667 32.7224 46.7147 32.561 46.6981 32.394C46.7479 32.3096 46.7479 32.2177 46.7368 32.1239C46.7405 32.0638 46.746 32.0038 46.7497 31.9437C46.8347 31.4221 46.8863 30.8968 46.9159 30.3677C46.9731 30.028 47.01 29.6866 47.0119 29.3413C47.0839 29.225 47.0414 29.0955 47.0488 28.9736C47.1042 28.6302 47.1319 28.285 47.1355 27.936C47.1577 27.7277 47.2094 27.5194 47.1799 27.3074C47.1835 27.2361 47.1872 27.1648 47.1909 27.0916C47.2537 26.9734 47.2242 26.8477 47.2242 26.7239C47.2519 26.3205 47.2869 25.919 47.2795 25.5137C47.3478 25.3054 47.3109 25.0915 47.3128 24.8795C47.3017 24.8194 47.2888 24.7613 47.2777 24.7012C47.3294 24.6656 47.3183 24.6093 47.3201 24.5605C47.346 23.6167 47.3977 22.673 47.322 21.7292C47.3201 21.5491 47.3201 21.3689 47.3183 21.1888C47.3312 20.8304 47.3423 20.4702 47.3552 20.1118C47.3903 19.397 47.4937 18.6933 47.6801 18.0029C47.7503 17.8209 47.8223 17.637 47.8924 17.455C48.0696 17.0947 48.2487 16.7364 48.4259 16.3761C48.6622 15.969 48.8283 15.5355 48.9206 15.0721C48.9539 15.0346 48.9465 14.9858 48.9409 14.937Z" fill="#1F44FA" fill-opacity="0.1"/>
<path opacity="0.38" d="M47.4253 21.583C47.3847 21.3335 47.3792 21.0839 47.3958 20.8344L44.7006 20.9451C44.7523 18.444 44.78 15.941 44.7893 13.438C46.1331 13.3423 47.477 13.2279 48.8172 13.0871C48.8135 13.0628 48.8117 13.0402 48.808 13.0158C48.7378 12.8732 48.6769 12.7288 48.6234 12.5768C48.6068 12.5318 48.5975 12.4867 48.5883 12.4436C47.3256 12.5805 46.0593 12.695 44.7929 12.7907C44.7929 12.5524 44.7948 12.3122 44.7948 12.0739C44.7948 9.62914 44.7726 7.1862 44.7302 4.74139C45.8747 4.62694 47.0192 4.5031 48.1637 4.37551C48.16 4.26669 48.1527 4.15974 48.1563 4.05279C48.1563 4.04341 48.1582 4.03966 48.1582 4.0359C48.1563 4.0284 48.1545 4.02277 48.1508 4.00964C48.1379 3.95898 48.0511 3.75446 48.1434 3.94209C48.0788 3.81075 48.0456 3.6719 48.0345 3.53493C46.9288 3.65689 45.8212 3.77698 44.7136 3.88768C44.6896 2.67747 44.66 1.46913 44.6268 0.258924C44.4588 0.213893 44.289 0.174491 44.1173 0.142594C44.0472 0.12946 43.9789 0.118202 43.9087 0.106944C43.8496 0.103191 43.7906 0.0956863 43.7315 0.0900574C43.7684 1.3847 43.8017 2.68122 43.8275 3.97586C41.1471 4.24042 38.463 4.47496 35.7771 4.69261C35.7882 3.31728 35.803 1.94196 35.8196 0.568512C35.5261 0.641688 35.227 0.694224 34.9261 0.71674C34.9114 2.06579 34.8947 3.41485 34.8855 4.76578C32.9491 4.91964 31.0108 5.06411 29.0725 5.20296C28.5021 5.24424 27.9317 5.28364 27.3613 5.32304C27.3686 4.18601 27.3889 3.04897 27.4259 1.91382C27.1305 1.96072 26.8259 1.97761 26.5379 1.95885C26.525 1.95885 26.5139 1.95509 26.501 1.95322C26.4659 3.09776 26.4438 4.2423 26.4383 5.38871C23.8686 5.56884 21.2972 5.74521 18.7257 5.9197C18.7276 5.4844 18.7276 5.0491 18.7294 4.61193C18.7312 3.72444 18.7331 2.83695 18.7349 1.94946C18.7128 1.9626 18.6906 1.97573 18.6685 1.98887C18.4783 2.09019 18.279 2.18025 18.0778 2.26281C18.0648 2.27031 18.0501 2.27782 18.0371 2.28532C18.0039 2.30784 17.9688 2.32848 17.9338 2.34724L17.9245 5.97224C15.4288 6.14111 12.933 6.3081 10.4354 6.47509C10.428 6.27995 10.4187 6.08482 10.4114 5.88968L10.3541 4.4956C10.2821 4.50498 10.2083 4.50873 10.1345 4.49935C10.116 4.49747 10.0994 4.49184 10.0809 4.48809C10.068 4.48621 10.0551 4.48621 10.0422 4.48434C9.92217 4.51436 9.80403 4.54813 9.68588 4.58753C9.60835 4.61193 9.53267 4.62131 9.45513 4.62318C9.48098 5.25925 9.50867 5.89719 9.53451 6.53325C9.09147 6.56327 8.65028 6.59329 8.20724 6.62331C6.28557 6.75653 4.3602 6.88599 2.43667 7.01734C2.42191 6.88037 2.40898 6.74152 2.39422 6.60455C2.35176 6.21053 2.30746 5.81651 2.26315 5.42248C2.01948 5.47127 1.7795 5.4844 1.53583 5.46189C1.47676 5.47127 1.42138 5.4769 1.366 5.47877C1.42507 6.01164 1.48414 6.54451 1.53952 7.07738C1.07803 7.10927 0.616527 7.13929 0.155029 7.17119C0.177181 7.28752 0.190103 7.40385 0.195641 7.52206C0.206717 7.55583 0.215947 7.5896 0.221485 7.62525C0.227023 7.65152 0.230715 7.67779 0.234407 7.70594C0.249175 7.74534 0.265789 7.78474 0.276865 7.82602C0.295325 7.88794 0.306401 7.94985 0.317477 8.01365C0.75313 7.98363 1.19063 7.95548 1.62628 7.92546C1.86257 10.2821 2.06009 12.6443 2.21516 15.0066C2.20223 15.0066 2.20593 15.0404 2.20962 15.0704C2.23362 15.1417 2.24469 15.2167 2.24654 15.2937C2.265 15.3687 2.28161 15.4419 2.29084 15.4494C2.39422 15.5488 2.32961 15.47 2.48282 15.5695C2.52528 15.5976 2.80587 15.5845 2.84648 15.6108C2.90371 15.5976 2.96094 15.5901 3.01816 15.5901C3.06247 15.5901 3.11046 15.592 3.15661 15.5939C5.40318 15.4794 7.64975 15.3668 9.89633 15.2524C9.90002 15.3462 9.90371 15.4419 9.9074 15.5357C9.9314 16.0948 9.95355 16.654 9.97755 17.2131C10.2784 17.2037 10.5775 17.1737 10.8784 17.1831L10.7972 15.2074C13.1656 15.0873 15.534 14.9672 17.9042 14.8471L17.9005 16.38C17.8987 16.9861 17.8969 17.5921 17.8969 18.1982C18.1608 18.2807 18.4285 18.3464 18.6962 18.4083C18.6999 17.2075 18.7017 16.0085 18.7054 14.8077C19.1946 14.7833 19.6819 14.7589 20.1711 14.7327C22.3365 14.6238 24.5018 14.515 26.6653 14.4081C26.7908 16.8322 26.9496 19.2526 27.1102 21.6749C26.6469 21.6937 26.1817 21.7125 25.7183 21.7331C25.7386 21.8926 25.7589 22.0502 25.7829 22.2078C25.8069 22.296 25.8272 22.3879 25.8457 22.478C26.2832 22.4592 26.7225 22.4423 27.16 22.4236C27.1896 22.872 27.2191 23.3205 27.2486 23.7689C27.3945 25.9829 27.5403 28.1951 27.6843 30.4091C27.4351 30.4429 27.1877 30.4804 26.9385 30.516C26.9404 30.5217 26.9422 30.5254 26.9441 30.5311C27.0013 30.7825 27.0253 31.0395 27.0493 31.2947C27.2782 31.2609 27.5071 31.2272 27.736 31.1953C27.8874 33.5031 28.0387 35.8109 28.1901 38.1188C27.952 38.1282 27.712 38.1394 27.4739 38.1488C27.4886 38.3477 27.4997 38.5485 27.52 38.7473C27.5219 38.7699 27.52 38.7924 27.52 38.8149L28.2344 38.7849C28.3636 40.7569 28.4928 42.727 28.6221 44.6989C28.3359 44.6952 28.048 44.6877 27.7618 44.6821C27.7692 44.8603 27.7674 45.0367 27.7655 45.2037C27.7674 45.2656 27.7674 45.3294 27.7674 45.3913C27.7729 45.4288 27.7784 45.4664 27.784 45.5058C28.083 45.5114 28.3802 45.5189 28.6793 45.5245C28.7144 46.0593 28.7494 46.5921 28.7845 47.1269C28.8768 48.5378 28.9691 49.9488 29.0633 51.3598C28.7217 51.3654 28.3802 51.371 28.0387 51.3786C28.0424 51.5699 28.0517 51.7594 28.0627 51.9489C28.0646 51.9752 28.0664 52.0015 28.0701 52.0278C28.4153 52.0221 28.7605 52.0184 29.1057 52.0109C29.2072 53.5626 29.3088 55.1143 29.4121 56.666C29.7001 56.6997 29.9826 56.6753 30.3075 56.6566C30.3167 56.6566 30.3241 56.6566 30.3315 56.6566C30.2299 55.103 30.1265 53.5494 30.025 51.9959C31.8858 51.9602 33.7447 51.9114 35.6054 51.8551C35.6811 53.8571 35.7661 55.8591 35.8528 57.8611C35.9783 57.8987 36.1057 57.9362 36.2312 57.9756C36.2682 57.9718 36.3051 57.97 36.3383 57.9737C36.4731 57.9925 36.6078 57.9981 36.7426 58.0019C36.654 55.9455 36.5691 53.8872 36.4915 51.8289C38.4058 51.7688 40.322 51.7013 42.2363 51.6187C42.3729 51.6131 42.5095 51.6056 42.6461 51.6C42.6387 53.1704 42.6627 54.739 42.7273 56.3076C42.8104 56.2006 42.8953 56.0974 42.9857 55.998C43.0374 55.9342 43.0891 55.8704 43.1426 55.8085C43.1703 55.7747 43.198 55.7409 43.2257 55.7072C43.2497 55.6771 43.2755 55.6509 43.3014 55.6265C43.3457 55.4707 43.4029 55.3206 43.4398 55.163C43.4435 55.0561 43.4675 54.9566 43.5008 54.8628C43.5174 54.7953 43.5377 54.7315 43.5654 54.6696C43.5395 53.6339 43.5266 52.5963 43.5303 51.5587C43.7943 51.5474 44.0564 51.5343 44.3204 51.523C44.3222 51.5118 44.3222 51.5005 44.3241 51.4893C44.289 51.3448 44.2908 51.1815 44.3462 51.0033C44.3665 50.9526 44.3794 50.9001 44.3905 50.8457C44.1062 50.8588 43.822 50.8738 43.5358 50.887C43.5506 48.9619 43.6078 47.0387 43.689 45.1136C44.1875 45.078 44.6877 45.0386 45.1861 44.9973C45.2194 44.7065 45.2637 44.4175 45.3098 44.1286C44.7819 44.1717 44.2539 44.2149 43.726 44.2543C43.8183 42.2054 43.9327 40.1546 44.0435 38.1075L46.087 38.0193C46.0888 38.0043 46.0907 37.9912 46.0944 37.9781C46.1184 37.8505 46.1461 37.7229 46.1719 37.5953C46.183 37.5409 46.1922 37.4846 46.2033 37.4302C46.2051 37.402 46.2107 37.3739 46.2125 37.3458C45.5018 37.3758 44.7911 37.4058 44.0822 37.4377C44.1155 36.8204 44.1487 36.2031 44.1801 35.5858C44.2816 33.6025 44.3702 31.6174 44.4478 29.6323H44.4496C45.3043 29.5929 46.159 29.5591 47.0137 29.5329C46.9694 29.3096 46.9971 29.0769 47.1244 28.8968C47.1337 28.8855 47.1392 28.8724 47.1466 28.8612C47.1466 28.848 47.1484 28.833 47.1484 28.8199C47.1484 28.8124 47.1503 28.8049 47.1503 28.7974C46.2587 28.8217 45.3652 28.8536 44.4736 28.8912C44.564 26.4951 44.636 24.0972 44.6877 21.6993C45.5978 21.6581 46.5116 21.6205 47.4253 21.583ZM3.116 14.9597C2.95909 12.5899 2.76157 10.2239 2.52344 7.86167C4.87338 7.70218 7.22148 7.5427 9.57143 7.38509C9.67111 9.79613 9.7708 12.2072 9.87048 14.6182C7.61837 14.7327 5.36811 14.8471 3.116 14.9597ZM17.9061 14.2129C15.5284 14.333 13.1508 14.4531 10.7713 14.5732C10.6716 12.1565 10.572 9.74171 10.4704 7.32505C12.837 7.16556 15.2036 7.0042 17.5683 6.84472C17.6864 6.83721 17.8027 6.82971 17.9209 6.82032L17.9061 14.2129ZM18.7054 14.1716C18.7109 11.7024 18.7165 9.23512 18.722 6.76591C21.2916 6.59329 23.8631 6.42067 26.4327 6.24243C26.4346 8.20878 26.477 10.177 26.5582 12.1434C26.5804 12.6856 26.6062 13.2279 26.6321 13.7701C23.9905 13.9052 21.3489 14.0384 18.7054 14.1716ZM27.5403 13.4755C27.424 11.0439 27.3613 8.61031 27.3613 6.17863C29.8681 6.00226 32.375 5.81838 34.88 5.62137C34.8634 8.20128 34.8578 10.7793 34.8597 13.3592C33.5878 13.423 32.3159 13.4849 31.044 13.5487C29.881 13.6069 28.7181 13.6669 27.5532 13.7251C27.5495 13.6407 27.544 13.5581 27.5403 13.4755ZM27.5865 14.3593C30.0103 14.2392 32.4359 14.1172 34.8597 13.9934C34.8634 16.4457 34.8744 18.898 34.8947 21.3485C32.6519 21.4404 30.4108 21.5342 28.1679 21.6262C28.12 21.628 28.0738 21.6299 28.0258 21.6318C27.8652 19.2114 27.7101 16.7853 27.5865 14.3593ZM28.5981 30.2815C28.4855 28.5553 28.371 26.831 28.2584 25.1048C28.1993 24.1967 28.1384 23.2904 28.0775 22.3823C29.7555 22.3129 31.4317 22.2435 33.1097 22.174L34.9021 22.099C34.9058 22.4011 34.9058 22.7013 34.9095 23.0034C34.9317 25.1855 34.963 27.3657 34.9981 29.5479C33.3035 29.7111 31.6126 29.8969 29.9235 30.1089C29.4805 30.1652 29.0393 30.2233 28.5981 30.2815ZM29.0245 36.7847C28.899 34.8803 28.7734 32.974 28.6498 31.0695C30.6563 30.7975 32.6666 30.5554 34.6806 30.3509C34.7914 30.3397 34.9003 30.3303 35.011 30.319C35.0535 32.8183 35.107 35.3175 35.1679 37.8167C33.7724 37.8767 32.3787 37.9368 30.9831 37.9968C30.3591 38.0231 29.7334 38.0512 29.1094 38.0775C29.0817 37.646 29.054 37.2144 29.0245 36.7847ZM29.1537 38.7436C31.164 38.6573 33.1743 38.571 35.1846 38.4847C35.2363 40.5467 35.2935 42.6069 35.3581 44.6689C33.6376 44.7121 31.9172 44.7308 30.1967 44.7196C29.9789 44.7177 29.7629 44.7121 29.5451 44.7102C29.4158 42.7213 29.2848 40.7325 29.1537 38.7436ZM29.9807 51.341C29.8533 49.4066 29.726 47.4702 29.5986 45.5358C31.5258 45.5602 33.4549 45.5489 35.3821 45.5058C35.3969 45.9898 35.4098 46.4739 35.4264 46.958C35.4725 48.3709 35.5242 49.7818 35.5778 51.1928C33.7133 51.251 31.847 51.3035 29.9807 51.341ZM42.7642 46.2544C42.7051 47.8098 42.6627 49.3672 42.6479 50.9245C40.5878 51.0164 38.5258 51.0952 36.4638 51.1647C36.3937 49.2715 36.3291 47.3802 36.2682 45.487C38.3929 45.4288 40.5176 45.3294 42.6387 45.1868C42.6959 45.183 42.7531 45.1774 42.8104 45.1736C42.7956 45.5339 42.7771 45.8941 42.7642 46.2544ZM42.8491 44.3181C40.6487 44.4719 38.4464 44.5807 36.2423 44.6464C36.1777 42.5806 36.1205 40.5129 36.0688 38.4471C38.4354 38.3458 40.8019 38.2445 43.1666 38.1432C43.0559 40.1996 42.9433 42.2579 42.8491 44.3181ZM43.3549 34.5369C43.3069 35.5164 43.2552 36.4939 43.2035 37.4733C40.8185 37.5765 38.4354 37.6779 36.0503 37.7811C36.0411 37.3833 36.0282 36.9855 36.019 36.5877C35.971 34.4713 35.9285 32.3529 35.8934 30.2365C38.4464 29.9944 41.0031 29.8087 43.5635 29.6773C43.5026 31.2966 43.4343 32.9177 43.3549 34.5369ZM43.7832 22.7857C43.7333 24.8346 43.6706 26.8835 43.5949 28.9324C42.2842 28.9944 40.9754 29.0694 39.6666 29.1595C38.404 29.2477 37.1432 29.3546 35.8842 29.4691C35.8436 27.0017 35.814 24.5325 35.7919 22.0652C38.463 21.9545 41.1342 21.8438 43.8053 21.7331C43.7961 22.084 43.7906 22.4348 43.7832 22.7857ZM43.8201 20.9807L39.2661 21.1683C38.1049 21.2171 36.9456 21.264 35.7845 21.3128C35.7642 18.8586 35.7513 16.4026 35.7476 13.9484C37.4053 13.8639 39.0611 13.7776 40.7188 13.6876C41.7821 13.6313 42.8454 13.5675 43.9069 13.4981C43.8995 15.9935 43.87 18.4871 43.8201 20.9807ZM41.2966 13.0215C39.447 13.1265 37.5973 13.2222 35.7457 13.3142C35.7457 13.0871 35.7439 12.8582 35.7439 12.6312C35.7439 10.2708 35.7531 7.91045 35.7697 5.55007C36.6411 5.48065 37.5105 5.40747 38.38 5.3343C40.202 5.17857 42.024 5.01158 43.8441 4.83333C43.8921 7.50705 43.9106 10.1826 43.9069 12.8582C43.0374 12.9183 42.1679 12.9708 41.2966 13.0215Z" fill="#1F44FA" fill-opacity="0.1"/>
</g>
<defs>
<clipPath id="clip0_132_3957">
<rect width="49" height="58" fill="white"/>
</clipPath>
</defs>
</svg>
