<svg width="85" height="140" viewBox="0 0 85 140" fill="none" xmlns="http://www.w3.org/2000/svg">
<path fill-rule="evenodd" clip-rule="evenodd" d="M250.592 135.142C249.57 136.438 248.588 137.671 247.482 139.061C246.253 139.086 244.871 139.116 243.295 139.143C243.194 137.998 243.109 137.041 243.033 136.086C242.841 135.996 242.648 135.915 242.446 135.824C242.086 136.295 241.489 136.708 241.398 137.233C241.15 138.547 240.438 138.833 239.138 138.778C234.076 138.54 229.001 138.476 223.944 138.199C222.262 138.101 220.59 137.553 218.921 137.212C218.712 137.168 218.5 137.074 218.288 137.059C216.35 136.9 214.41 136.749 212.924 136.634C211.38 135.822 213.243 133.889 211.158 133.833C210.863 133.824 210.576 134.435 210.169 134.879C209.372 134.277 208.528 133.648 207.497 132.891C206.317 134.298 205.231 132.962 203.962 132.225C202.6 133.318 201.319 134.345 199.81 135.542C199.399 135.406 198.558 135.21 197.811 134.842C196.96 134.418 196.221 133.532 195.389 133.425C194.715 133.345 193.965 134.145 193.577 134.366C192.162 133.958 191.006 133.298 189.978 133.425C189.116 133.529 187.509 132.197 187.132 134.314C187.064 134.666 185.078 134.636 183.665 134.818C183.774 133.932 183.836 133.471 183.923 132.671C182.014 134.568 179.76 134.553 177.299 134.18C177.523 133.196 177.75 132.192 177.977 131.189C174.575 129.16 174.037 132.704 172.101 133.507C171.786 132.965 171.49 132.436 170.993 131.579C170.594 132.338 170.308 132.871 170.036 133.376C167.384 133.512 164.678 133.669 161.977 133.787C160.693 133.842 159.398 133.837 158.108 133.861C156.368 133.891 154.908 133.437 153.965 131.8C153.767 131.454 153.195 131.301 152.416 131.4C152.829 132.125 153.242 132.85 153.797 133.805C149.326 133.653 145.073 133.547 140.812 133.342C140.305 133.318 139.812 132.737 138.984 132.209C138.055 132.518 136.548 133.018 135.072 133.513C134.489 132.839 134.011 132.299 133.428 131.625C132.139 133.466 130.213 132.984 128.476 132.995C124.399 133.016 120.315 132.947 116.227 132.829C112.707 132.735 109.192 132.534 105.674 132.351C105.218 132.326 104.488 132.285 104.359 132.029C103.766 130.901 102.738 131.106 102.187 131.556C100.296 133.092 98.6471 132.146 96.9282 131.187C96.558 130.98 96.2004 130.754 96.1244 130.712C94.7971 131.32 93.7652 132.084 92.6337 132.223C91.3898 132.364 90.2589 131.816 89.2932 130.647C88.1785 129.296 87.6199 129.578 86.3366 131.224C86.0162 131.633 85.2281 132.103 84.8375 131.97C82.6691 131.243 80.5538 130.347 78.1689 129.408C78.0497 130.066 77.9353 130.764 77.7263 131.937C76.3433 131.063 75.1283 130.305 73.9047 129.536C74.2583 129.26 74.9723 128.886 74.9118 128.728C74.4914 127.452 73.5792 128.01 72.2235 127.995C72.9567 128.615 73.2418 128.848 73.5356 129.093C72.5214 129.27 71.5172 129.45 70.5029 129.628C69.4567 128.603 71.3786 128.583 71.1421 127.838C69.4625 127.043 69.4625 127.043 66.4547 128.152C66.5539 129.159 66.6553 130.226 66.7862 131.681C62.7328 131.077 58.9218 132.693 54.7822 130.986C55.4715 129.959 55.2583 128.207 57.5251 128.734C57.7123 128.784 58.1204 127.801 58.4351 127.283C58.4351 127.283 58.4351 127.283 58.4451 127.284C59.1763 128.906 60.6393 128.958 62.153 128.862C61.6276 128.443 61.0224 128.236 60.4186 128.019C59.7662 127.785 59.1163 127.532 58.4651 127.288C58.4651 127.288 58.4651 127.288 58.4538 127.296L58.4525 127.305C56.3385 128.069 56.3285 128.067 54.9868 126.052C54.3678 127.541 53.2743 127.019 52.13 126.115C52.8513 126.066 53.5725 126.017 54.2937 125.968C52.6351 125.775 52.3896 124.793 52.8941 122.941C50.8569 124.955 50.0487 121.024 48.1722 122.602C50.5405 127.23 46.429 128.423 43.6601 130.336C41.3796 130.062 39.0257 129.726 36.6649 129.517C34.0206 129.291 34.0128 129.349 32.4959 127.118C32.3451 127.859 32.2418 128.323 32.1026 128.978C30.0061 128.93 27.807 128.885 25.6392 128.835C25.2471 127.121 26.9083 125.626 25.4997 124.031C26.2437 123.358 27.0077 122.687 27.7982 121.972C26.6725 119.717 24.8556 120.549 23.0262 120.564C22.6971 116.79 18.3215 119.187 17.0699 116.577C15.9154 117.115 15.1093 118.249 13.7911 117.121C13.4425 116.829 12.536 116.965 11.9629 117.127C10.5729 117.518 9.93488 116.57 9.33389 115.725C8.69071 114.815 9.67983 111.335 10.6684 110.74C10.934 110.588 11.5138 110.604 11.5444 110.452C12.1253 107.729 15.297 108.208 16.6195 106.726C19.2519 103.779 22.7022 104.009 26.1317 103.863C31.9347 103.604 37.7547 103.445 43.5576 103.186C44.7687 103.139 46.2088 103.286 46.4267 101.515C47.0034 101.933 47.5513 102.337 48.6847 103.17C48.3778 101.961 48.2304 101.388 48.0181 100.538C49.1732 100.148 50.3203 99.5891 51.5533 99.3783C55.4213 98.7047 59.1653 97.8146 62.9133 96.5913C67.6862 95.0349 72.9925 94.9007 78.0497 94.0386C82.249 93.3308 86.4029 92.4291 90.5973 91.6813C91.7166 91.4813 92.9453 91.6821 94.0063 91.3842C96.0757 90.7996 98.0624 89.9954 100.583 89.0918C97.4719 88.7699 94.6916 90.1611 92.5852 87.3039C92.0706 87.7892 91.5674 88.2665 90.9098 88.9051C90.3769 88.4646 89.8354 88.0129 89.127 87.4358C88.1721 88.3105 86.6764 88.5765 85.711 89.3023C84.2465 90.3981 82.9606 89.864 81.3972 89.3435C82.2056 89.1025 83.0052 88.8503 83.9311 88.5697C83.6821 88.3719 83.4212 88.0348 83.2536 88.0663C82.1517 88.2887 80.9081 88.3506 80.0246 88.9228C77.5758 90.5056 75.1288 90.8617 72.2829 89.3266C72.5538 88.831 72.836 88.3273 73.4697 87.1842C71.4541 88.5825 71.3575 91.4234 68.2973 90.8743C68.6958 90.3406 68.897 90.0593 69.1082 89.7797C69.2691 89.5704 69.4287 89.3707 69.6373 89.1103C67.3643 88.5523 67.3643 88.5523 65.833 91.7379C63.3831 91.8873 60.7895 92.0427 57.816 92.2145C55.9124 94.8288 52.2011 93.7316 48.9443 94.6424C48.8341 93.8685 48.708 93.2884 48.6744 92.7037C48.5959 91.5423 47.9523 91.015 46.7963 91.0323C45.7016 91.0497 45.3159 91.7917 45.2582 92.6756C45.1892 93.5674 45.2913 94.4774 45.3167 95.5025C42.7409 93.933 42.7409 93.9331 43.8618 91.1418C42.5931 90.4043 41.2957 89.6524 39.9222 88.8586C39.7935 89.1321 39.5265 89.5989 39.5726 89.6359C41.4447 90.9726 41.5537 93.1206 42.5544 95.3947C41.4299 94.7987 40.3065 96.4704 39.5149 94.3876C39.3321 93.9258 37.6106 93.8212 37.3723 95.1369C36.9647 97.4067 35.0426 97.7307 33.2423 98.212C31.6321 98.6459 30.0123 98.9997 28.3999 99.3743C28.329 98.7639 28.2226 97.9611 28.0855 96.7804C26.8968 97.4205 26.2814 98.655 24.9187 97.7059C24.0778 97.1268 22.9026 96.9838 21.6511 96.5732C21.1575 97.965 18.4942 98.3348 20.5351 100.769C20.3037 100.82 20.0623 100.868 19.8309 100.919C18.8284 99.8717 17.8173 98.8132 16.7427 97.6952C19.8509 95.9158 22.5708 94.3674 25.2932 92.7999C25.4698 92.7011 25.6588 92.359 25.7074 92.3767C28.3777 93.7751 29.6171 91.3173 31.5097 90.6057C33.5637 89.832 35.6661 89.1546 37.761 88.4564C38.3592 88.2596 39.0218 88.1912 39.5778 87.9286C40.3191 87.5786 40.996 87.1002 42.3305 86.2875C43.8007 86.1351 46.337 87.3152 48.3966 85.5903C48.5333 85.485 48.8659 85.4412 49.0179 85.5249C51.6218 86.9615 53.3896 84.8257 55.5508 84.3935C57.0504 84.0986 58.6686 83.833 60.1557 84.0858C61.9012 84.3906 63.2163 83.722 64.6544 83.2011C65.3203 82.9566 65.9565 82.6286 66.6163 82.3536C68.9211 81.3853 71.1332 81.8646 73.4248 83.2698C74.7169 80.4967 77.2909 80.2595 79.8545 80.0993C84.4142 79.8234 89.0124 79.868 93.511 79.2877C96.3367 78.9248 99.0531 78.6913 101.903 79.0589C103.217 79.2343 104.346 78.5843 105.591 77.8258C107.907 76.3979 110.423 74.9931 113.397 74.7428C118.955 74.257 124.496 73.6703 130.049 73.1444C131.383 73.0188 132.735 72.9845 134.031 72.9117C134.146 71.075 133.268 70.3917 131.888 70.4018C127.375 70.4103 122.87 69.8215 118.353 70.232C115.159 70.5249 111.9 70.3163 108.687 70.5274C104.526 70.7996 100.359 71.1103 96.2555 71.7159C92.1404 72.3294 88.1217 73.4398 84.0149 74.143C81.5176 74.5694 78.9029 74.4268 76.413 74.874C69.4746 76.1355 62.5791 77.6101 55.6555 78.9133C53.592 79.3025 51.5967 79.7912 49.3032 79.0827C48.0691 78.6945 46.4439 79.6953 44.9829 80.0063C43.2481 80.3805 41.6585 80.965 39.7284 79.7563C38.6455 79.0787 36.8247 79.4094 35.3696 79.5251C33.4808 79.6778 31.635 80.2695 29.7505 80.315C26.2449 80.4195 25.2483 79.4811 24.5517 76.01C24.4552 75.5132 24.3887 75.0213 24.3118 74.6062C25.7038 73.5183 27.3795 72.673 28.3465 71.329C29.3776 69.8876 30.4874 69.3032 32.3457 69.5284C30.276 67.6882 28.1411 66.7111 25.4566 67.9216C25.1134 66.982 24.8382 66.2205 24.3814 64.9874C23.643 66.0742 23.1084 66.8606 22.5977 67.6213C20.7484 67.329 18.899 67.0366 16.78 66.7001C17.1586 65.3288 16.5879 64.4109 15.0596 64.1612C14.9797 64.1481 14.904 64.0278 14.8218 63.9554C14.9798 63.8438 15.1377 63.7322 15.2983 63.6013C15.2957 63.6206 15.3131 63.643 15.3105 63.6622C15.3443 63.6383 15.3682 63.6128 15.402 63.5889C17.4022 63.6703 18.9823 64.3702 19.4603 66.4313C21.5895 66.4651 22.7267 65.6005 22.9008 63.8522C22.0256 62.8453 21.2674 61.9557 20.2244 60.7545C19.7021 62.9663 18.6715 64.0249 16.4577 62.7993C16.2957 62.7139 15.7834 63.2585 15.392 63.5872C15.3621 63.5823 15.3421 63.5791 15.3108 63.5838C15.2996 63.5917 15.2883 63.5997 15.287 63.6093C15.0295 61.9573 13.42 60.8697 13.4614 58.8935C13.4826 57.5226 13.6668 56.8361 14.7318 56.2052C16.62 55.0707 18.4996 53.9249 20.3543 52.7359C20.813 52.4378 21.2772 52.0228 21.5143 51.5511C21.9758 50.6252 22.6249 50.5055 23.6099 50.6959C24.2666 50.8228 25.1286 50.8655 25.6486 50.5676C27.9213 49.2309 30.4783 48.5885 32.9771 47.8483C33.9756 47.5599 35.1954 47.2193 36.1124 47.536C37.8192 48.1291 39.0111 47.617 40.5902 46.5793C39.6952 46.0993 39.0109 45.7224 38.2879 45.3294C37.0123 41.6851 40.4003 40.4815 42.199 38.4194C42.3799 38.2134 42.9718 38.2905 43.0702 38.0906C44.8408 34.4925 48.6834 35.2971 51.7648 34.4754C53.1735 34.097 54.5848 33.6993 55.9949 33.3113C55.9573 33.0597 55.9197 32.8081 55.8834 32.547C51.1044 32.4041 46.317 32.1716 41.5351 32.1264C36.6008 32.076 31.6525 32.0528 26.7319 32.2794C20.5052 32.5774 14.2975 32.8097 8.02731 32.2171C6.66712 32.0831 5.27837 32.4648 3.77692 32.622C3.73944 32.0661 3.71994 31.6801 3.67541 31.0249C2.91364 30.9201 2.07196 30.8021 1.22898 30.6938C1.20489 30.4936 1.1808 30.2933 1.15672 30.093C1.85867 29.8838 2.56063 29.6745 3.34767 29.4399C3.22592 29.2826 3.02309 28.8175 2.71248 28.6981C2.12735 28.4945 1.47381 28.4957 0.692067 28.3875C0.86824 27.8371 0.870717 27.2878 1.1389 27.1157C3.24314 25.7416 4.59584 23.6557 6.40757 22.0277C7.73252 20.8306 9.40051 20.043 11.3108 20.1097C21.7943 20.4975 31.3396 16.933 41.2299 14.7501C42.9773 14.3583 44.2853 13.5903 45.7078 12.6546C47.3672 11.5514 49.0379 10.4403 50.7108 9.38839C52.3161 8.38434 54.6209 8.2505 56.6638 8.01495C62.1498 7.38001 67.6472 6.43279 73.1587 6.51862C77.0496 6.58506 80.7346 5.75398 84.5649 5.66327C89.0714 5.55543 93.5105 4.58253 97.9901 4.0678C98.9965 3.94758 100.068 4.10303 101.086 4.27913C103.899 4.76826 106.46 3.79279 109.089 3.29959C110.723 2.98751 112.29 2.27163 113.942 2.12937C121.741 1.4503 129.554 0.900987 137.371 0.313257C137.475 0.300764 137.584 0.249851 137.685 0.256569C142.059 0.372535 146.44 0.518953 150.82 0.586895C153.378 0.621997 155.94 0.47133 158.498 0.50643C161.412 0.550636 164.33 0.713372 167.249 0.797633C169.079 0.851316 170.908 0.767257 172.742 0.870598C173.695 0.918377 174.764 1.01456 175.572 1.46068C177.692 2.62194 179.79 2.73891 181.991 2.15631C182.298 2.07878 182.634 1.93727 182.923 1.98461C187.079 2.66365 191.23 3.37152 195.385 4.06017C196.943 4.31481 198.531 4.42701 200.08 4.74889C202.614 5.26118 205.171 5.75753 207.652 6.51631C210.23 7.31061 212.709 8.46177 215.263 9.3601C219.658 10.9127 224.084 12.3918 228.495 13.898C236.45 16.6116 244.362 19.4163 251.864 23.3023C254.345 24.5912 255.707 26.7575 257.527 28.5569C258.653 29.6735 257.912 31.6139 256.318 32.0798C255.106 32.4316 253.689 32.8773 252.547 32.5631C250.173 31.92 248.662 33.5089 246.731 33.9786C246.277 34.0909 246.026 34.8941 245.596 35.511C242.856 34.0227 239.916 34.0233 236.883 34.0284C231.696 34.0348 226.493 33.7049 221.293 33.4246C220.483 33.3805 219.659 32.9023 218.879 32.5491C217.821 32.0718 216.804 31.5129 215.589 30.9022C215.136 32.7522 213.919 33.0736 212.355 32.9358C208.37 32.5792 204.381 32.261 200.38 31.9508C197.622 31.7357 194.852 31.6071 192.104 31.3152C190.685 31.1619 189.287 30.7764 187.877 30.487C187.873 30.4373 187.858 30.3956 187.854 30.3556C188.385 29.8927 188.909 29.4187 189.441 28.9559C189.361 28.7859 189.272 28.6142 189.194 28.4346C188.659 28.465 188.124 28.4954 187.589 28.5257C187.68 29.1394 187.773 29.7435 187.864 30.3572C187.828 30.3907 187.783 30.4226 187.747 30.4657C187.797 30.4739 187.835 30.49 187.885 30.4982C187.885 30.4982 187.884 30.5078 187.883 30.5174C186.003 30.6029 184.133 30.7685 182.246 30.7547C180.747 30.7453 179.143 30.8268 177.758 30.3453C175.592 29.5987 173.98 30.5034 172.19 31.5165C173.401 31.6948 174.626 31.8459 175.834 32.053C178.695 32.5599 181.55 33.3503 184.428 33.585C190.355 34.0725 196.301 34.1901 202.237 34.6104C212.32 35.3157 222.266 37.1961 232.112 39.5903C233.565 39.9455 234.992 40.6402 236.286 41.421C236.787 41.7188 236.871 42.6848 237.148 43.3583C237.758 43.4579 238.731 43.4304 239.542 43.7789C241.218 44.524 241.272 45.0334 240.269 46.7937C239.855 47.5211 239.526 48.2921 239.047 49.2739C243.167 50.9779 247.54 52.2422 251.311 54.488C254.912 56.6275 259.666 56.884 262.514 60.9816C260.847 61.5338 259.37 61.9601 257.958 62.5147C256.913 62.9231 255.197 62.5542 255.296 64.4748C255.3 64.6718 254.666 64.9806 254.29 65.0467C253.662 65.1601 252.998 65.1596 252.36 65.124C241.755 64.5789 231.153 64.0049 220.547 63.4693C218.407 63.3651 216.266 63.4177 213.907 63.8765C214.432 64.2273 214.928 64.7893 215.495 64.9016C217.832 65.362 220.212 65.5744 222.532 66.0908C228.26 67.3705 233.948 68.8006 239.673 70.1091C243.119 70.898 246.587 71.5333 250.04 72.2743C251.171 72.518 252.305 72.8114 253.394 73.2151C256.466 74.3649 259.514 75.6091 262.583 76.7781C263.059 76.9541 263.608 76.8965 264.119 76.9702C264.97 77.0897 266.194 76.9461 266.6 77.4247C268.484 79.6566 271.404 79.3485 273.654 80.6095C274.651 81.1651 275.97 81.0762 276.565 82.4202C276.722 82.7698 277.667 82.8752 278.264 82.9924C280.734 83.4548 282.94 84.3553 284.97 85.9631C287.562 88.0163 290.42 89.7692 293.541 91.9089C293.38 92.1967 293.041 92.8186 292.596 93.6197C293.202 93.8954 293.707 94.0171 294.055 94.3096C294.322 94.5299 294.488 94.9596 294.513 95.3072C294.529 95.4962 294.044 95.908 293.978 95.8677C292.56 95.1058 291.178 95.8127 289.783 95.7123C289.439 95.6856 289.11 95.2489 288.989 95.1605C288.428 95.8442 287.867 96.5184 287.099 97.4529C287.131 97.5171 287.42 98.0257 287.876 98.807C285.538 98.5035 283.52 98.3308 281.389 97.7765C278.715 97.0844 276.108 95.5981 273.068 96.1909C271.663 96.4621 269.843 95.8014 268.437 95.1004C266.831 94.2883 265.545 93.6757 263.621 94.2448C261.058 95.004 258.477 93.5515 255.891 93.1191C255.591 93.0701 255.283 92.7056 255.033 92.7433C248.719 93.7633 242.667 91.1741 236.457 90.817C234.754 90.7253 233.034 90.8369 231.337 90.7068C227.366 90.4015 223.401 89.9697 219.432 89.6547C218.25 89.5598 217.061 89.6699 215.881 89.7127C213.933 89.7771 212.154 89.4177 211.127 87.797C209.467 88.4485 207.926 89.0508 206.31 89.68C206.512 90.5279 207.109 90.8708 208.131 90.7138C210.653 90.3308 213.007 90.5094 215.493 91.7599C217.129 92.5769 219.275 92.4074 221.195 92.6327C223.597 92.9171 226.191 92.379 228.11 94.5775C228.34 94.8408 228.907 94.8746 229.326 94.9528C234.131 95.8853 238.695 97.3968 243.063 99.7597C244.956 100.786 247.405 100.872 249.623 101.234C252.51 101.706 254.723 103.619 257.361 104.648C260.446 105.85 263.205 107.881 266.159 109.443C267.684 110.252 269.412 110.682 270.924 111.508C272.865 112.562 272.893 113.793 270.963 114.558C269.605 115.092 268.669 115.901 267.792 116.955C267.101 117.765 266.56 119.129 264.916 118.301C264.877 118.285 264.587 118.768 264.332 119.148C264.001 118.574 263.712 118.065 263.422 117.566C263.172 117.604 262.87 117.574 262.815 117.673C262.046 118.991 260.746 119.092 259.437 118.81C251.05 117.027 242.558 116.483 234.072 115.813C233.153 115.742 232.237 115.494 231.313 115.304C231.296 115.281 231.288 115.26 231.271 115.238C231.703 114.984 232.138 114.712 232.915 114.25C231.921 114.048 231.266 113.912 230.272 113.71C230.729 114.413 231.009 114.832 231.271 115.238C231.248 115.254 231.227 115.26 231.205 115.276C231.244 115.283 231.274 115.287 231.314 115.294L231.323 115.305C228.969 115.048 226.622 114.733 224.268 114.555C222.864 114.443 221.452 114.537 220.053 114.543C220.017 114.508 219.982 114.463 219.935 114.436C219.911 114.461 219.878 114.476 219.854 114.501C218.784 113.276 217.693 113.795 216.536 114.204C217.743 116.385 218.797 115.3 219.854 114.501C219.872 114.524 219.89 114.537 219.909 114.549C219.96 114.548 220.002 114.545 220.053 114.543C220.497 114.96 220.935 115.571 221.38 115.605C224.222 115.804 226.506 117.188 228.945 118.49C230.869 119.511 233.263 119.627 235.38 120.356C236.854 120.862 238.195 121.739 239.617 122.403C240.193 122.674 240.845 122.761 241.411 123.03C242.639 123.614 243.848 124.263 245.05 124.891C245.336 125.046 245.597 125.383 245.869 125.408C249.528 125.682 251.305 129.084 254.603 130.143C253.74 132.918 256.458 135.777 253.822 138.301C252.68 137.152 251.641 136.148 250.592 135.142ZM62.8324 90.1383C62.7429 89.2107 62.6714 88.453 62.5481 87.245C60.8222 87.8563 59.4179 88.3533 57.9073 88.882C59.241 90.7295 60.8499 90.3052 62.8324 90.1383ZM214.102 116.28C213.309 118.379 213.309 118.379 216.173 118.867C215.394 117.905 214.88 117.252 214.102 116.28ZM218.99 113.26C218.574 111.799 218.307 110.901 218.052 109.995C217.22 111.165 217.245 112.121 218.99 113.26ZM195.367 93.2322C195.207 93.1372 194.787 93.373 194.56 93.5421C193.606 94.2598 192.93 94.1985 192.247 93.0561C191.955 92.5667 189.571 92.3047 189.319 92.5089C187.513 93.9416 186.579 94.054 184.448 93.1265C184.091 92.9701 183.434 92.6958 183.37 92.7933C182.199 94.3592 181.079 92.9 179.934 92.6834C177.912 92.304 175.84 91.239 174.003 93.1376C173.505 93.6454 172.423 93.8022 171.607 93.7965C170.301 93.7893 168.994 93.4089 167.69 93.392C165.682 93.3683 163.622 93.277 161.694 93.6394C159.358 94.0823 158.109 93.8094 156.537 91.5303C156.151 92.4292 155.816 93.1697 155.43 94.0686C154.042 93.302 152.874 92.3455 151.473 93.4318C151.164 93.6759 150.417 93.4654 149.887 93.3789C147.424 92.9469 144.98 94.4128 142.509 93.204C140.056 94.6683 137.206 93.6922 134.586 94.1181C133.397 94.3067 132.001 94.746 130.995 94.3265C129.128 93.56 127.639 94.0823 126.012 94.5626C123.705 95.2458 121.423 96.0411 119.059 96.4695C111.304 97.8822 103.496 99.0802 95.7395 100.503C92.6518 101.068 89.6399 101.98 86.5889 102.728C86.6078 102.966 86.638 103.197 86.6569 103.436C87.9962 103.498 89.3377 103.619 90.676 103.612C92.3904 103.617 94.1129 103.486 95.8286 103.482C100.224 103.444 104.624 103.515 109.018 103.409C111.63 103.345 114.222 102.973 116.831 102.859C120.505 102.714 124.202 102.699 127.892 102.595C132.594 102.471 137.299 102.258 142.006 102.173C147.706 102.073 153.425 102.213 159.111 101.984C165.29 101.737 171.525 102.52 177.685 101.73C178.859 101.578 180.171 102.451 181.447 102.6C182.894 102.778 184.676 104.63 185.761 102.107C185.848 101.915 186.745 102.072 187.265 102.078C190.896 102.181 194.54 102.109 198.164 102.416C206.985 103.17 215.785 104.235 224.602 104.862C226.291 104.98 227.448 106.171 229.352 105.981C232.436 105.67 235.666 106.326 238.832 106.617C241.444 106.858 244.048 107.156 246.656 107.425C246.728 107.191 246.801 106.957 246.883 106.725C244.508 105.709 242.144 104.695 239.769 103.678C240.153 102.573 240.455 101.69 240.643 101.131C239.304 100.608 238.246 100.2 237.073 99.7429C236.86 100.562 236.637 101.39 236.446 102.124C233.123 101.856 230.227 101.304 228.585 98.2577C228.381 97.8711 227.819 97.6516 227.429 97.3621C227.315 97.4514 227.211 97.5424 227.098 97.6221C227.617 98.3941 228.126 99.1644 228.941 100.387C227.293 99.8137 226.19 99.4371 225.089 99.0509C227.257 98.6396 226.237 97.4225 225.899 96.2875C224.408 96.2205 222.979 95.6828 221.936 97.0633C222.393 97.5404 222.759 97.9243 223.136 98.3098C222.594 98.3193 222.04 98.4153 221.522 98.3209C216.938 97.4835 212.322 96.8175 207.81 95.6777C203.648 94.6639 199.237 95.5039 195.367 93.2322ZM201.492 115.761C201.269 115.371 201.03 114.949 200.442 113.931C200.175 115.232 200.032 115.915 199.904 116.562C200.43 116.294 200.956 116.027 201.492 115.761ZM203.027 110.956C202.04 110.628 201.145 110.305 200.227 110.067C200.03 110.015 199.749 110.283 199.42 110.455C200.08 111.162 200.633 111.753 201.337 112.516C201.967 111.932 202.458 111.472 203.027 110.956ZM200.447 108.208C199.614 108.249 199.142 108.191 198.737 108.321C198.588 108.366 198.478 109.035 198.516 109.051C198.94 109.238 199.402 109.451 199.843 109.435C200.016 109.434 200.144 108.865 200.447 108.208ZM188.278 109.95C190.007 109.693 191.163 109.528 193.017 109.252C190.777 107.767 190.777 107.767 188.278 109.95ZM188.42 106.547C188.17 106.124 187.932 105.692 187.683 105.268C187.384 105.445 187.074 105.62 186.775 105.797C187.187 106.149 187.599 106.501 188.011 106.853C188.148 106.748 188.284 106.643 188.42 106.547ZM98.908 113.9C99.712 114.07 100.515 114.251 101.319 114.421C101.361 114.183 101.403 113.944 101.456 113.707C100.712 113.468 99.9795 113.221 99.2181 113.037C99.1881 113.033 99.0306 113.596 98.908 113.9C98.8781 113.895 98.8481 113.89 98.8094 113.874C98.8168 113.895 98.8056 113.903 98.8143 113.914C97.9806 113.964 96.9507 113.727 96.8164 115.256C97.8358 115.04 99.0073 115.438 98.8143 113.914C98.8455 113.909 98.8755 113.914 98.9067 113.909L98.908 113.9ZM200.793 87.3552C199.045 87.2953 197.662 87.2558 196.28 87.2067C198.77 88.5069 198.823 88.4958 200.793 87.3552ZM194.684 51.812C193.358 51.2025 192.56 50.8365 191.657 50.4141C191.483 51.3281 191.36 52.0147 191.248 52.615C189.977 52.8785 188.782 53.1151 187.595 53.3629C187.615 53.5135 187.637 53.6545 187.648 53.8035C201.472 54.3249 215.295 54.856 229.109 55.3758C229.149 55.2349 229.178 55.0925 229.217 54.9517C228.617 54.7064 228.029 54.4531 227.426 54.227C220.257 51.5143 212.925 52.4367 205.633 52.4623C203.978 52.4668 202.047 52.858 200.732 52.1621C199.494 51.4985 198.902 51.5783 197.921 52.115C197.117 52.553 196.187 52.7839 195.081 53.1921C195.388 50.9845 194.74 49.7301 193.676 50.0471C193.924 50.4803 194.165 50.8927 194.684 51.812ZM103.671 19.5052C111.197 19.2625 118.728 19.1383 126.254 18.8957C128.171 18.8359 130.327 18.9723 131.894 18.1779C134.085 17.0636 135.779 19.4215 137.71 18.5786C137.894 18.5007 138.107 18.4373 138.278 18.3769C138.486 17.8907 138.684 17.4124 139.092 16.4287C139.467 17.5109 139.621 17.9583 139.865 18.6461C141.187 18.6069 142.571 18.5679 143.964 18.5306C146.722 18.4414 149.477 18.3025 152.248 18.2742C156.019 18.2426 159.797 18.3103 163.565 18.3074C165.382 18.3098 167.215 18.04 169.002 18.2633C170.738 18.4881 172.633 17.3056 174.21 18.9376C175.959 17.3975 177.474 19.0293 179.092 19.4507C179.486 19.5544 179.947 19.6199 180.307 19.5217C182.642 18.8627 184.986 19.1966 187.361 19.6043C189.477 19.96 191.615 20.2308 193.743 20.4311C195.537 20.5968 197.452 20.252 199.094 20.7952C200.912 21.3965 202.515 21.5504 204.305 21.1459C204.821 21.0242 205.512 21.6574 206.103 21.6656C207.195 21.6673 207.763 23.1345 208.45 22.8836C209.856 22.377 210.626 23.1802 211.692 23.6783C213.257 24.4151 214.911 25.0192 216.575 25.4775C218.042 25.8744 218.396 25.5984 219.548 24.0196C221.323 25.8509 223.602 26.0565 225.978 26.3073C228.172 26.5382 230.337 25.7729 232.591 26.7793C233.631 27.2437 235.11 26.7197 236.766 26.6271C234.971 25.1754 233.646 24.0951 232.34 23.0276C229.657 22.7855 227.26 25.0444 224.842 22.6073C224.779 22.5479 224.454 22.6125 224.347 22.7227C223.177 23.8274 222.22 22.5224 222.033 22.0109C220.841 18.7336 217.907 18.3819 215.167 17.885C209.646 16.8846 204.102 15.9787 198.563 15.1816C193.727 14.4797 188.865 13.6655 184.012 13.4616C173.2 13.0103 162.387 12.8729 151.582 12.6779C146.5 12.5838 141.403 12.4575 136.333 12.6501C129.448 12.9092 122.575 13.3861 115.707 13.8935C108.717 14.4005 101.732 14.9476 94.7725 15.6853C88.7954 16.3283 82.8607 17.263 76.9089 18.0967C73.9956 18.5041 71.0919 18.9917 68.182 19.4488C68.2096 19.6987 68.2373 19.9486 68.2662 20.189C71.2647 20.2863 74.2738 20.5326 77.257 20.4409C86.0488 20.1989 94.8527 19.7919 103.671 19.5052ZM176.584 21.1711C175.7 21.2917 174.805 21.4203 173.921 21.5409C173.884 21.5055 173.857 21.4814 173.821 21.4461C173.748 21.4539 173.666 21.46 173.592 21.4774C171.721 20.5139 167.675 20.2356 165.077 21.0284C168.067 21.8704 170.829 21.8308 173.592 21.4774C173.66 21.508 173.738 21.5307 173.794 21.5693C173.835 21.5662 173.888 21.5552 173.929 21.5521C174.835 22.4854 175.746 22.1631 176.663 21.8712C176.633 21.6405 176.613 21.4114 176.584 21.1711ZM133.055 33.3675C132.839 33.2243 132.624 33.0811 132.408 32.9379C132.255 33.1681 132.081 33.395 131.986 33.6445C131.97 33.6909 132.294 33.8617 132.546 34.0402C132.72 33.8037 132.893 33.5865 133.055 33.3675ZM128.057 32.119C127.065 32.212 126.415 32.1844 125.831 32.3539C124.091 32.8355 122.288 34.0231 120.658 33.7666C118.588 33.4479 116.704 33.945 114.72 33.8172C112.159 33.654 109.551 33.6892 107.022 33.9729C100.959 34.6509 94.9131 35.4987 88.8675 36.3466C84.8614 36.9092 80.8796 37.5936 76.8844 38.2267C76.921 38.4094 76.9577 38.5921 77.0031 38.786C80.8528 38.5513 84.7811 38.6434 88.5427 38.0016C99.7438 36.0918 111.234 36.5067 122.473 35.0743C124.145 34.8664 125.78 34.3974 127.371 33.8818C127.711 33.7803 127.762 32.9445 128.057 32.119ZM187.683 45.6516C188.863 45.6088 190.049 45.5964 191.238 45.5649C187.163 43.0731 182.87 42.2735 178.418 42.508C172.28 42.8303 166.16 43.3223 160.015 43.5452C146.31 44.0348 132.578 44.2647 118.88 44.8536C109.28 45.2581 99.7214 46.0422 90.154 46.7367C86.7615 46.9873 83.3661 47.3356 80.0308 47.9195C75.8377 48.6577 71.7365 49.7742 67.5469 50.5621C62.4143 51.5296 57.2041 52.2391 52.0789 53.2275C46.252 54.3467 40.4706 55.6598 34.6708 56.8815C34.2605 56.9716 33.7309 57.1894 33.4142 57.0394C30.4916 55.6195 29.0128 57.9596 26.9482 59.4187C28.2352 59.7173 29.5349 60.2242 30.8268 60.2586C32.4136 60.302 34.0082 59.9834 35.58 59.7592C41.9194 58.8514 48.2466 57.8827 54.6009 57.0166C57.8768 56.5702 61.2051 56.4171 64.4736 55.9499C67.4195 55.5282 70.3043 54.8019 73.2441 54.3497C75.1423 54.0513 77.092 53.9772 79.0169 53.8598C81.6517 53.7013 84.3219 53.7352 86.9374 53.4165C91.4096 52.881 95.839 52.1322 100.284 51.4941C102.397 51.1915 104.504 50.8585 106.641 50.6873C112.948 50.167 119.26 49.7652 125.569 49.2353C132.642 48.6436 139.684 47.8309 146.772 47.3498C153.304 46.9055 159.866 46.7703 166.425 46.5071C173.499 46.2101 180.592 45.9261 187.683 45.6516ZM111.328 78.5866C111.229 77.2746 111.18 76.7267 111.14 76.1901C110.922 76.1446 110.703 76.099 110.496 76.0455C110.342 76.3542 110.01 76.7023 110.076 76.9684C110.169 77.337 110.566 77.6473 111.328 78.5866ZM103.787 86.5232C104.073 85.0874 104.073 85.0874 102.871 84.4591C103.207 85.2209 103.426 85.7181 103.787 86.5232ZM33.5772 122.043C33.8493 121.007 33.2703 120 33.4874 119.221C33.7808 118.179 34.6731 117.314 35.5273 116.049C33.4397 116.238 31.7626 116.259 31.2537 117.992C32.1316 119.509 32.8594 120.777 33.5772 122.043ZM37.2655 121.87C36.847 120.732 36.4185 119.592 35.9482 118.307C34.3865 120.202 36.5492 120.82 37.2655 121.87ZM124.89 77.1901C125.47 79.0225 126.93 78.9469 128.21 78.4592C131.824 77.0962 135.685 77.9921 139.397 77.5679C141.025 77.3823 142.668 77.16 144.299 77.2499C145.931 77.3398 147.556 77.7036 149.181 77.3898C149.914 77.2544 150.628 76.9491 151.363 76.9513C158.826 76.9535 166.296 76.898 173.766 77.0684C178.021 77.1647 182.295 77.7945 186.554 77.9309C194.615 78.188 202.669 78.1984 210.723 78.4346C216.966 78.6204 223.213 78.8558 229.441 79.3827C231.662 79.5689 233.578 79.0575 235.715 78.3562C234.635 77.7282 233.46 77.5853 232.304 77.3767C225.261 76.0786 218.227 74.7132 211.184 73.4935C207.153 72.7957 203.077 71.9823 199.02 71.8593C191.821 71.645 184.616 71.9303 177.413 71.9706C176.687 71.9796 175.902 71.8218 175.212 71.5618C173.938 71.0886 172.866 71.1686 171.536 71.5697C169.813 72.0833 167.858 71.8915 166.005 72.0796C163.077 72.3669 160.086 71.456 157.178 72.3551C155.996 72.7214 154.639 72.6372 153.358 72.7518C153.405 73.005 153.479 73.3703 153.631 74.1316C152.464 73.931 151.456 73.835 150.504 73.5518C150.022 73.4141 149.639 72.9197 149.215 72.5853C149.113 73.1871 149.012 73.789 148.921 74.3925C145.987 75.1795 143.359 71.2651 140.262 73.5667C140.818 73.9912 141.337 74.3804 142.217 75.0445C139.682 75.6806 137.639 76.672 135.649 74.6191C134.996 74.5418 134.343 74.4645 133.691 74.3777C131.911 74.401 130.131 74.5028 128.345 74.4269C126.234 74.3371 125.482 74.6855 124.481 76.662C122.761 74.123 121.666 74.2189 119.815 76.9695C118.21 77.1391 116.697 77.3042 114.956 77.5007C115.228 78.2815 115.47 78.9885 115.729 79.718C118.34 78.7507 120.512 77.4073 123.271 77.9955C123.739 78.0819 124.351 77.4752 124.89 77.1901ZM130.589 79.2209C128.189 79.8301 126.105 80.373 123.96 80.9157C124.861 83.095 126.312 81.4179 127.305 81.7765C127.627 82.3396 127.884 82.784 128.205 83.3568C129.03 81.9307 129.708 80.7556 130.589 79.2209ZM119.539 80.6154C121.15 84.344 121.15 84.344 124.126 84.0057C123.284 83.505 122.219 83.0757 122.249 82.8548C122.675 80.4505 120.717 81.4166 119.539 80.6154ZM50.0669 120.585C50.5208 120.247 50.9647 119.907 51.4185 119.569C51.2159 119.33 51.0133 119.09 50.812 118.841C50.3994 119.177 49.9581 119.497 49.6003 119.88C49.5513 119.941 49.9056 120.343 50.0669 120.585ZM39.3561 125.451C39.2651 126.506 39.1737 127.11 39.196 127.702C39.203 127.802 39.7199 127.906 40.2551 128.101C40.2966 127.49 40.4025 127.006 40.3334 126.534C40.3119 126.314 39.9717 126.111 39.3561 125.451ZM56.9359 122.797C58.6255 122.759 59.9963 122.738 61.7372 122.698C60.3294 120.642 57.613 121.71 56.7539 119.371C56.5508 119.514 56.3364 119.666 56.1334 119.809C56.3888 120.793 56.6643 121.781 56.9359 122.797ZM56.905 126.591C56.451 122.531 56.451 122.531 53.8291 123.428C54.7185 124.329 55.5518 125.192 56.905 126.591ZM146.045 132.008C146.671 131.61 147.295 131.221 147.864 130.862C147.747 130.519 147.717 130.436 147.687 130.352C147.591 130.386 147.493 130.429 147.397 130.462C146.912 130.648 146.413 130.792 145.954 131.021C145.702 131.147 145.516 131.391 145.296 131.581C145.542 131.729 145.799 131.87 146.045 132.008ZM157.23 132.344C157.371 131.601 157.522 130.86 157.662 130.117C157.464 130.075 157.255 130.031 157.057 129.989C156.926 130.733 156.785 131.476 156.655 132.22C156.843 132.261 157.032 132.301 157.23 132.344ZM241.332 131.509C239.29 128.701 235.237 128.549 234.73 125.718C233.036 125.107 231.744 124.238 230.523 124.284C228.113 124.362 226.691 123.324 225.578 120.669C224.992 123.057 223.665 122.29 222.601 122.008C218.533 120.902 214.488 119.711 210.575 118.59C210.178 117.671 209.781 116.752 209.384 115.833C207.076 116.752 206.442 116.835 204.372 115.603C203.201 114.902 202.428 115.03 201.595 115.758C202 116.158 202.416 116.56 203.353 117.489C201.74 117.107 200.791 116.874 199.881 116.656C199.88 116.666 199.878 116.685 199.876 116.695C199.564 116.742 199.15 116.929 198.954 116.799C197.991 116.141 197.065 115.43 196.164 114.694C194.61 113.419 194.419 116.205 193.04 115.528C192.111 115.072 191.11 114.771 190.169 114.333C188.949 113.761 187.701 112.496 186.892 114.71C186.809 114.952 185.81 115.162 185.55 114.972C183.877 113.747 182.53 114.577 181.129 115.28C180.976 115.354 180.717 115.233 180.497 115.197C180.382 114.609 180.266 114.03 180.104 113.189C177.877 113.954 175.653 113.865 173.564 113.386C171.216 112.856 169.168 113.13 167.211 114.017C167.105 114.726 167.014 115.399 166.917 116.119C165.8 116.153 164.869 116.167 163.721 116.205C163.811 115.307 163.87 114.64 163.938 113.983C161.877 112.684 159.813 113.839 157.851 113.626C155.496 113.369 153.514 113.536 151.662 114.402C151.767 115.214 151.852 115.866 151.931 116.497C150.517 116.688 149.377 116.885 148.221 116.981C148.015 116.996 147.752 116.6 147.341 116.238C147.907 115.899 148.372 115.631 148.827 115.362C147.732 113.789 146.096 113.355 141.381 113.419C141.591 114.513 141.802 115.598 142.015 116.673C141.816 116.71 141.628 116.738 141.429 116.774C140.859 115.778 140.289 114.782 139.684 113.74C137.804 113.904 136.047 114.059 134.385 114.2C133.594 118.478 133.594 118.478 128.402 117.158C129.261 116.239 130.046 115.415 130.94 114.461C128.966 114.335 128.966 114.335 127.374 115.616C126.955 115.322 126.484 114.725 126.12 114.773C124.593 114.965 123.048 115.223 121.587 115.682C119.68 116.273 119.212 116.04 119.039 114.058C119.001 113.58 118.894 113.092 118.85 112.81C118.107 112.796 117.628 112.787 117.149 112.777C116.55 112.758 115.949 112.748 114.93 112.729C115.733 113.439 116.189 113.847 116.635 114.244C115.584 116.065 116.13 118 118.56 119.742C116.19 119.296 114.122 120.175 112.681 118.212C112.685 118.183 112.679 118.153 112.684 118.114C112.687 118.095 112.678 118.084 112.68 118.074C113.739 118.012 114.809 117.951 116.271 117.866C115.134 116.6 114.424 115.807 113.707 114.993C112.429 116.374 112.416 116.392 112.681 118.065C112.65 118.069 112.608 118.072 112.578 118.068C112.612 118.122 112.649 118.148 112.694 118.194C112.691 118.675 112.688 119.146 112.693 119.569C110.789 120.288 109.064 120.36 106.876 119.099C108.47 118.555 109.616 118.153 111.34 117.561C107.82 116.632 104.983 116.856 102.221 117.877C104.623 118.692 104.623 118.692 104.09 120.607C103.144 120.05 102.235 119.519 101.139 118.868C100.986 119.472 100.842 120.008 100.671 120.677C99.2215 120.597 97.6811 120.512 95.736 120.4C96.6049 119.482 97.2013 118.843 98.2962 117.687C95.3444 118.304 93.9472 117.232 93.0672 115.35C93.4998 115.019 93.9324 114.687 94.375 114.357C93.3437 113.069 92.7586 114.23 92.047 114.359C92.3492 114.693 92.6513 115.027 92.9634 115.363C92.3487 115.91 91.7252 116.447 91.1105 116.994C91.0903 116.765 91.0813 116.528 91.0611 116.299C88.6419 117.965 88.6419 117.965 88.838 119.087C89.5431 118.475 90.2958 117.813 91.0485 117.151C91.3886 117.658 91.7274 118.175 92.0675 118.682C92.6245 118.488 93.1927 118.286 93.7496 118.093C94.0848 118.864 94.4225 119.616 94.7664 120.399C93.9945 121.431 91.6526 121.461 90.0853 120.439C88.5145 119.898 87.2293 120.041 86.8725 121.858C85.3136 121.456 83.9905 121.122 82.4416 120.721C83.5727 119.826 84.4167 119.169 85.2858 118.477C84.9138 117.827 84.6324 117.339 84.3348 116.819C88.5362 115.641 88.5362 115.641 89.4238 114.431C89.2444 114.323 89.0766 114.129 88.8942 114.119C83.9803 113.689 79.0814 113.526 74.1823 113.973C72.1985 114.149 70.1664 113.925 68.1742 114.012C64.9909 114.149 61.8369 114.449 58.6562 114.567C55.1168 114.695 51.8771 115.707 48.4223 117.028C50.777 117.736 53.9983 117.772 56.0025 117.52C58.2768 117.234 60.5886 117.2 62.8835 117.064C64.1496 116.986 64.9402 117.636 65.3187 118.768C65.5443 119.443 65.6636 120.149 65.8254 120.843C65.1969 121.114 64.5671 121.393 63.2875 121.95C65.2194 122.766 66.7845 124.033 67.8142 123.74C69.8211 123.165 71.0841 123.793 72.4122 125.228C73.6855 124.111 74.818 123.206 76.7247 124.057C77.7261 124.506 79.1219 124.223 80.3133 124.094C84.9653 123.588 89.6195 124.81 94.3284 124.411C98.7274 124.04 103.278 124.892 107.768 125.135C110.21 125.269 112.652 125.256 115.096 125.302C119.088 125.375 123.083 125.429 127.074 125.511C128.539 125.545 130.002 125.597 131.463 125.669C134.302 125.809 137.21 125.597 139.955 126.212C143.771 127.062 147.486 126.844 151.259 126.725C154.529 126.621 157.833 126.876 161.108 126.744C164.249 126.619 167.409 127.862 170.557 126.776C171.22 126.551 172.302 127.385 173.311 127.776C176.817 125.551 180.779 128.044 184.514 127.447C184.608 127.433 184.744 127.484 184.816 127.555C186.535 129.348 188.452 128.532 190.379 128.248C195.085 127.564 199.814 126.943 204.022 130.262C205.326 129.601 206.378 129.223 207.999 129.616C210.243 130.159 212.743 128.957 214.982 130.6C215.234 130.778 215.811 130.509 216.231 130.499C218.313 130.427 220.317 130.176 222.505 130.533C224.892 130.923 227.465 132.139 229.944 130.934C230.118 130.854 230.373 130.935 230.587 130.941C233.976 131.092 237.35 131.28 241.332 131.509ZM90.1117 120.394C91.0901 120.407 92.0797 120.412 93.4967 120.427C92.8415 119.682 92.425 119.211 92.0259 118.763C91.053 118.938 89.3936 118.372 90.1117 120.394ZM239.588 136.8C238.694 136.771 237.808 136.754 236.913 136.726C236.92 136.904 236.925 137.091 236.922 137.267C237.781 137.408 238.64 137.548 239.511 137.68C239.541 137.381 239.56 137.089 239.588 136.8Z" fill="#00AEEF" fill-opacity="0.1"/>
</svg>
