<svg xmlns="http://www.w3.org/2000/svg" width="85" height="24" fill="none" xmlns:v="https://vecta.io/nano"><g clip-path="url(#A)" fill="#64ccc0"><path d="M2.148.489a3.77 3.77 0 0 0 .705.023c-.211.204-.302.2-.705-.023zM7.819.071c.315-.134.561.089.827.054a1.72 1.72 0 0 1-.827-.054zm15.684.481a1.08 1.08 0 0 1 .517.044 1.24 1.24 0 0 1-.517-.044zm1.751.097V.606c.069-.051.126 0 .187.026-.063-.008-.119.056-.187.017zm14.748 22.843c-.315.134-.56-.089-.827-.054.276-.05.56-.031.827.054zm-15.681-.481a1.07 1.07 0 0 1-.518-.044 1.25 1.25 0 0 1 .518.044zm-1.752-.096c.007 0 0 .038 0 .043-.068.051-.126 0-.186-.024.063 0 .119-.058.186-.019zM44.997.508c.315-.134.56.087.825.054a1.71 1.71 0 0 1-.825-.054zm15.677.481a1.06 1.06 0 0 1 .518.044c-.174.02-.35.005-.518-.044zm1.757.095v-.042c.067-.051.125 0 .187.024-.064 0-.121.058-.187.017z"/><path d="M84.941 11.186c-.012.061-.038.119-.074.169a.43.43 0 0 1-.138.122l-.065.093c-.004.059-.024.116-.059.164l-.032.095c-.015.082-.046.16-.091.23a2.43 2.43 0 0 0-.269.94c-.01-.015-.024-.027-.04-.036-.044-.026-.064.031-.089.075-.113.208-.079.427-.072.678.044-.109.036-.219.102-.287.014-.018.031-.032.051-.043-.036.167-.016.342.056.497a5.94 5.94 0 0 1 .134.592c.038.081.062.168.069.257a2.29 2.29 0 0 1 .111.609c.028.343.028.688 0 1.032a6.45 6.45 0 0 1-.134 1.315c-.015.081-.102.189.07.214l.016.043c.09-.125.038-.279.087-.412l.094-1.063a2.69 2.69 0 0 1-.059 1.075c-.001.008-.001.015 0 .023.079.37-.07.672-.269.973-.011.073-.044.14-.094.193.02.233-.016.469.046.699a.8.8 0 0 0 .023-.309c-.041-.092-.046-.196-.015-.292l.046.227c-.008.134.039.259-.019.385.02.218-.071.441.035.653l-.017.025a.52.52 0 0 1 .032.222v.095c.024.106.038.214.04.322l.039.16c.011.006.02.016.025.027s.007.024.005.037a7.18 7.18 0 0 1 .098 1.209c-.008.201-.074.395-.189.559s-.276.292-.462.368c-.198.103-.419.154-.642.148.011.066.102.043.105.105a4.62 4.62 0 0 1-1.007-.12l-.29-.023-.415.046c-.044.172-.04.175.293.235a3.77 3.77 0 0 1-.814.066c.011-.012.022-.023.035-.034.044-.031.134-.035.111-.106s-.093 0-.142 0c-.261.073-.528.125-.797.157-.118.101-.17-.059-.268-.071-.036-.008-.073-.007-.109.001s-.069.024-.098.047c-.071.056.043.094.028.15a1.19 1.19 0 0 1-.482.087.55.55 0 0 0-.483.175h-.134l-.281.013h-.161v-.03c-.454.015-.879-.134-1.31-.24l-.579-.126c-.06-.011-.166-.031-.18.015-.07.258-.279.172-.403.134-.328-.11-.636-.269-.987-.306-.098-.008-.199.032-.291-.021l-.38-.016a4.36 4.36 0 0 0 .514.171l.644.152c-.216.054-.403-.015-.571.063a.18.18 0 0 1 .134.024h-.134c-.067 0-.134.027-.197-.023a1.21 1.21 0 0 1-.423-.027c-.164-.052-.366-.04-.454-.238-.122-.069-.269.008-.388-.055h-.087c-.081.013-.163-.003-.233-.044a.85.85 0 0 1 .358.008h.09c.102 0 .209-.034.295.055a1.16 1.16 0 0 0 .548.204c-.157-.098-.32-.134-.424-.269a.45.45 0 0 0-.291-.134c-.066 0-.134.023-.196-.017h-.123-.035a.62.62 0 0 1-.29-.02h-.134-.193a.1.1 0 0 0-.059.066l.204.101c-.004.006-.007.013-.009.02l-.389-.02c-.074.008-.147.021-.219.038a1.7 1.7 0 0 1-.685-.028l-.639.011-.385.04c-.131.037-.268.048-.403.032.107-.045.2-.119.268-.214.043-.082.012-.105-.067-.102-.343.028-.687.028-1.03 0h-.134l-.34.008c.109.121.278.077.366.208-.063.009-.099.043-.169 0-.037-.026-.08-.043-.125-.048s-.091.001-.133.018c-.062.032-.13.051-.199.055s-.139-.007-.204-.032a.83.83 0 0 1-.37-.046h-.083-.158l-.269.009c-.115 0-.239.043-.344-.016-.153-.072-.318-.114-.487-.126-.097 0-.196.034-.29-.021l-1.342.035c-.038.042-.089.031-.134.032l-1.505.039h-.035c-.111-.02-.204.098-.321.046-.062.009-.134-.025-.187.031l.035.012c-.028.046-.066.038-.106.019l-1.074-.083c.319-.106.643-.013.989-.043-.056.054-.118.013-.15.066a.9.9 0 0 0 .419-.071.94.94 0 0 0-.354-.058h-.065l-.592.016a1.05 1.05 0 0 1-.349-.008c-.01-.002-.02-.005-.028-.011h-.255-.29c-.579.042-1.159-.014-1.738.017h-.064-.161l-.671.015-1.942.05a.94.94 0 0 1-.344-.05l-3.026.031-1.094.032c-.066 0-.134.027-.195-.023-.095.014-.191.056-.287 0-.505.034-1.008 0-1.513 0h-.227-.993c-.403-.009-.815.016-1.222.024-.056 0-.118.021-.169-.026l-.287.024h-.098c-.686.043-1.373 0-2.061.02-.374.034-.75-.008-1.125 0h-.162-.063l-.403.011c-.191 0-.381.042-.569-.015a.86.86 0 0 1-.293.032.55.55 0 0 0-.482.173h-.134l-.29.007h-.161v-.03c-.347-.003-.691-.058-1.022-.164-.34.019-.678 0-1.017 0a.45.45 0 0 1-.134-.027c-.099.031-.206.023-.298-.024-.326-.11-.636-.269-.987-.305-.097-.008-.197.032-.291-.023l-.38-.015a4.15 4.15 0 0 0 .52.173l.646.157c-.215.055-.403-.015-.569.063.04 0 .083-.015.134.024h-.141c-.066 0-.134.028-.196-.023a1.18 1.18 0 0 1-.424-.027c-.164-.051-.365-.039-.454-.238-.122-.067-.268.009-.387-.054h-.089a.35.35 0 0 1-.232-.046c.122-.025.248-.021.369.009h.09c.101 0 .209-.034.294.054.16.115.347.188.542.211-.158-.097-.321-.134-.424-.269-.078-.079-.182-.127-.293-.134-.065.016-.133.01-.195-.018h-.123-.035c-.097.016-.196.009-.29-.02h-.128-.193c-.014.006-.027.015-.038.027s-.018.026-.023.041l.204.101-.009.019-.389-.02-.219.024c-.228.038-.461.029-.685-.028l-.638.017-.388.046a1.09 1.09 0 0 1-.403.032c.111-.067.217-.109.268-.215.043-.081.012-.105-.067-.102-.343.028-.687.028-1.03 0h-.134l-.341.008c.11.122.278.077.368.208-.064.009-.099.043-.17 0a.27.27 0 0 0-.258-.029.49.49 0 0 1-.199.054c-.069.004-.139-.007-.204-.032a.82.82 0 0 1-.369-.044c-.014.003-.017.002-.02 0h-.064-.158l-.268.009c-.115 0-.239.044-.345-.016a1.44 1.44 0 0 0-.486-.126c-.097 0-.197.034-.29-.02l-1.342.035c-.037.042-.089.031-.134.032l-1.505.032h-.034c-.113-.02-.205.098-.321.044-.063.009-.134-.024-.187.032l.036.013c-.029.044-.067.038-.107.017l-1.074-.082c.321-.106.644-.013.991-.043-.058.052-.118.012-.15.064a.87.87 0 0 0 .419-.071.97.97 0 0 0-.356-.058h-.064l-.592.016a1.04 1.04 0 0 1-.348-.008c-.01-.001-.02-.005-.028-.011h-.256-.289c-.58.04-1.16-.015-1.745.016h-.064-.161l-.671.015-1.942.05c-.116.004-.232-.013-.342-.05l-3.027.008-1.095.028c-.064 0-.134.027-.193-.024-.095.015-.191.058-.287 0-.505.034-1.01 0-1.513 0h-.228-.993c-.403-.008-.813.016-1.22.024-.058 0-.119.021-.169-.024h-.289-.097c-.681.082-1.368.042-2.055.064-.375.034-.749-.008-1.124 0h-.164-.062l-.403.012c-.189 0-.381.042-.569-.015h-.134l-.805.017c-.203.016-.408.012-.611-.012h-.134l-.177.015h-.193-.227a10.88 10.88 0 0 1-1.107 0c-.086-.004-.17-.029-.244-.073-.084-.052-.157-.121-.213-.203s-.096-.173-.117-.27c-.212-.627-.349-1.277-.411-1.936H.973v-.194l-.034-1.126v-.161h.03c.026-.698.138-1.39.334-2.061.003-.011.006-.021.011-.031l-.009-.571c-.083-.227-.027-.496-.231-.707a1.06 1.06 0 0 1-.2-.472l-.188-.672v-.065l-.102-.255-.047-.031c-.197-.023-.301-.16-.393-.314-.255-.302-.095-.646-.085-.971a.43.43 0 0 1 .209-.292l.066-.093a.31.31 0 0 1 .058-.164l.034-.095a.62.62 0 0 1 .091-.23c.153-.292.244-.612.268-.94.011.014.025.026.04.036.046.026.066-.031.09-.075.111-.203.079-.42.072-.672-.046.107-.036.219-.102.288-.014.015-.031.027-.05.036.035-.168.015-.342-.056-.498a5.5 5.5 0 0 1-.134-.591.69.69 0 0 1-.068-.257c-.065-.197-.103-.402-.111-.609-.028-.343-.028-.688 0-1.032 0-.442.045-.883.134-1.315.016-.081.103-.191-.068-.214l-.016-.043c-.091.124-.039.278-.087.412L.334 7.53a2.7 2.7 0 0 1 .059-1.075c0-.007 0-.014 0-.021-.079-.369.07-.672.268-.973a.37.37 0 0 1 .095-.195c-.02-.232.016-.469-.047-.697a.79.79 0 0 0-.024.308c.062.091.028.192.016.293l-.046-.227c.008-.134-.039-.261.019-.386-.02-.218.07-.441-.035-.653l.017-.026a.52.52 0 0 1-.032-.222v-.095c-.024-.106-.038-.214-.04-.322l-.039-.16c-.011-.006-.02-.016-.025-.027s-.007-.024-.005-.037a7.2 7.2 0 0 1-.098-1.209c.009-.201.076-.395.192-.559a1.04 1.04 0 0 1 .464-.364c.198-.104.419-.155.642-.148C1.705.669 1.613.692 1.611.63c.339.003.676.043 1.007.118l.29.024.415-.046v.001c.043-.172.04-.175-.293-.235a3.68 3.68 0 0 1 .813-.066l-.035.034c-.044.031-.134.035-.111.106s.093 0 .141 0c.261-.072.528-.123.797-.155.118-.102.17.059.268.071A.25.25 0 0 0 5.11.435c.072-.056-.042-.094-.027-.15.153-.062.317-.092.482-.089.088.01.177-.001.26-.032A.55.55 0 0 0 6.04.015h.134l.29-.007h.161v.03c.455-.015.881.134 1.311.24l.577.126c.06.011.168.03.18-.015.071-.259.281-.172.403-.134.326.11.636.269.987.305.098.008.199-.032.291.023l.38.015c-.168-.067-.339-.123-.514-.168L9.595.273c.215-.055.403.015.569-.063-.046.01-.094.001-.134-.024h.134c.066 0 .134-.028.197.023.141-.017.285-.008.423.027.164.051.365.04.454.238.122.067.268-.008.387.055l.089.007a.35.35 0 0 1 .232.044.85.85 0 0 1-.358-.008l-.09-.007c-.101 0-.209.034-.294-.054a1.16 1.16 0 0 0-.548-.204c.158.097.321.134.424.269.078.079.182.127.293.134.065-.016.134-.01.196.017l.123.007h.035c.097-.016.196-.009.29.02h.134.193c.014-.006.027-.015.038-.026s.018-.025.023-.04L12.2.586l.009-.019.389.02.219-.024a1.71 1.71 0 0 1 .686.028l.639-.011.385-.042a1.06 1.06 0 0 1 .403-.031c-.111.066-.217.107-.268.214-.043.081-.012.105.067.102.343-.028.687-.028 1.03 0h.134l.341-.008c-.11-.121-.278-.077-.368-.208.064-.009.099-.043.17 0 .037.026.08.043.125.048s.091-.001.133-.018c.062-.032.13-.051.199-.055s.139.007.204.032c.116-.023.236-.019.35.009.014-.003.017-.002.02 0h.065.158l.268-.009c.115 0 .239-.043.345.016.153.072.317.115.486.128.097 0 .197-.034.29.02l1.342-.035c.039-.04.089-.031.134-.032l1.506-.038h.034c.113.02.205-.097.322-.044.062-.009.134.026.185-.032l-.036-.012c.029-.046.067-.039.107-.019l1.074.082c-.32.107-.643.013-.991.044.058-.054.118-.013.152-.066a.89.89 0 0 0-.42.071c.114.042.235.061.356.058h.064l.592-.016a1.05 1.05 0 0 1 .349.008c.01.001.019.005.027.011h.256l.29-.007c.578-.04 1.158.015 1.738-.016h.064.16l.671-.013L28.6.67c.117-.003.233.013.344.05l3.027-.008 1.094-.028c.064 0 .134-.028.193.023.097-.013.192-.056.289 0 .503-.034 1.008 0 1.513 0h.227.993l1.221-.024c.056 0 .118-.021.169.026h.287.097c.687-.043 1.374 0 2.062-.02.374-.034.749.008 1.125 0h.162.075l.403-.012c.189 0 .381-.04.569.016a.82.82 0 0 1 .291-.032.55.55 0 0 0 .263-.028.55.55 0 0 0 .22-.147h.134l.29-.008h.16v.031c.347.003.691.058 1.022.164.338-.02.678 0 1.017 0a.41.41 0 0 1 .134.027.38.38 0 0 1 .151-.018c.051.004.101.019.147.042.328.11.636.269.988.305.097.008.197-.032.291.021l.362-.023a4.23 4.23 0 0 0-.514-.169l-.646-.156c.215-.055.403.015.569-.063-.039 0-.082.013-.134-.024h.141c.066 0 .134-.028.196.023a1.18 1.18 0 0 1 .424.027c.162.051.365.039.454.238.121.067.269-.009.387.054l.089.007c.08-.013.163.004.232.046a.85.85 0 0 1-.358-.009h-.09c-.102 0-.209.034-.295-.054-.162-.114-.351-.184-.548-.206.158.097.321.134.424.269.077.08.182.128.293.134.065-.015.133-.008.195.019l.125.007h.035c.097-.017.196-.01.29.02h.128.193c.014-.006.027-.015.037-.027s.018-.025.022-.04l-.203-.101.008-.019.391.02.219-.024c.228-.038.461-.029.685.028l.639-.012.387-.04c.131-.036.268-.047.403-.032-.111.067-.217.109-.268.214-.044.082-.012.106.067.102a6.41 6.41 0 0 1 1.028 0h.134l.34-.009c-.109-.121-.278-.075-.366-.208.063-.009.099-.043.169 0 .037.026.08.043.125.048s.091-.001.133-.018a.49.49 0 0 1 .199-.054c.069-.004.139.007.204.032.125-.014.252.001.37.044l.083.007h.158l.268-.009c.115 0 .239-.044.345.016a1.43 1.43 0 0 0 .486.126c.097 0 .197-.035.29.02l1.342-.035c.038-.042.089-.031.134-.032l1.506-.038h.034c.111.02.204-.098.321-.046.063-.008.134.026.187-.031l-.036-.012c.03-.044.067-.038.106-.019l1.074.083c-.321.106-.644.013-.991.043.056-.052.118-.012.15-.064a.89.89 0 0 0-.419.07.97.97 0 0 0 .356.059h.064l.591-.015c.116-.018.234-.015.349.008.01.001.02.004.028.009h.255l.29-.007c.58-.04 1.16.015 1.738-.016h.064.161l.671-.015 1.944-.05a.96.96 0 0 1 .342.05l3.027-.008 1.094-.028c.066 0 .134-.027.195.024.095-.015.191-.058.287 0 .505-.035 1.009 0 1.513 0h.227.995l1.22-.023c.056 0 .118-.021.169.024h.287.098c.686-.043 1.375 0 2.06-.02.376-.032.75.009 1.125 0h.162.063l.403-.012c.189 0 .38-.042.568.015h.134l.805-.017c.203-.017.408-.013.611.012h.134.192.192l.228-.007c.369-.028.738 0 1.107 0 .086.005.169.031.243.075.084.053.156.121.213.203s.096.173.117.27a8.51 8.51 0 0 1 .412 1.936h.024v.192l.028 1.127v.161h-.028c-.028.698-.142 1.389-.338 2.06l-.011.031.009.571c.083.232.027.497.238.707a1.06 1.06 0 0 1 .199.472l.188.672v.063l.102.255.036.03c.196.021.301.16.392.314.259.224.106.568.095.893z"/><path d="M82.848 23.503c-.234-.029-.47-.036-.705-.021.215-.198.311-.194.705.021zm-5.663.425c-.317.134-.561-.087-.827-.054.276-.049.559-.03.827.054zm-15.688-.48a1.07 1.07 0 0 1-.518-.044 1.25 1.25 0 0 1 .518.044zm-1.75-.097c.003.007.005.014.005.021s-.002.015-.005.022c-.067.051-.125 0-.187-.026.062.001.119-.056.187-.018z"/></g><defs><clipPath id="A"><path fill="#fff" transform="matrix(1 0 0 -1 0 24)" d="M0 0h85v24H0z"/></clipPath></defs></svg>