<svg width="23" height="23" viewBox="0 0 23 23" fill="#AFABB8" xmlns="http://www.w3.org/2000/svg">
<g id="Social Icons/TikTok/Negative" clip-path="url(#clip0_84_2451)">
<path id="Vector" d="M16.433 0H12.5988V15.497C12.5988 17.3435 11.1241 18.8602 9.28894 18.8602C7.45377 18.8602 5.97908 17.3435 5.97908 15.497C5.97908 13.6835 7.421 12.1997 9.19064 12.1338V8.2431C5.29089 8.30902 2.1449 11.5074 2.1449 15.497C2.1449 19.5197 5.35643 22.7509 9.32172 22.7509C13.287 22.7509 16.4985 19.4867 16.4985 15.497V7.55065C17.9404 8.60579 19.71 9.23226 21.578 9.26525V5.3745C18.6942 5.27558 16.433 2.90156 16.433 0Z" />
</g>
<defs>
<clipPath id="clip0_84_2451">
<rect width="22.7509" height="22.7509" fill="white" transform="translate(0.249023)"/>
</clipPath>
</defs>
</svg>
